<svg version="1.1" xmlns="http://www.w3.org/2000/svg" xmlns:xlink="http://www.w3.org/1999/xlink" width="1568" height="798"><desc>Title%20User%20wants%20to%20deploy%20job%20when%20cluster%20has%20available%20space%20and%20team%20has%20budget%0A%0Anote%20over%20ML%20Engineer%3A%20Wants%20to%20deploy%20a%5Cn%20job1%20which%20needs%202%20devices.%0A%0Aparticipantgroup%20%23lightgreen%20**Same%20Java%20Runtime**%0Aparticipant%20VDK%0Aparticipant%20GPU%20management%20service%0Aend%0A%0Adatabase%20Database%0A%0AML%20Engineer-%3EVDK%3A%20vdk%20execute%20-%5C-start%20-n%20job%20-t%20team%0A%0AVDK-%3EGPU%20management%20service%3A%20tryProvisionResources(jobTeamId%2C%20amountOfResources)%0A%0AGPU%20management%20service-%3EDatabase%3A%20Checks%20to%20see%20if%20there%20is%20anywhere%20to%20put%20this%20job%20%5CnChecks%20to%20see%20does%20this%20users%20team%20have%20available%20budget%0A%0ADatabase-%3EGPU%20management%20service%3A%20Machine%204%20has%20space%20to%20run%20the%20job%20on%5CnTeam%20has%20budget%0A%0AGPU%20management%20service-%3EVDK%3A%20List%3CJobActions%3E%5Cn%5BCreateJob%7Bname%3Djob1%2Cmachine%3Dmachine_4%7D%5D%0A%0AVDK-%3EVDK%3A%20Creates%20a%20yaml%20file%20to%20run%20this%20job.%20%5CnExplicitly%20set%20the%20node%20to%20run%20on%20to%20be%20machine4%5CnDeploy%20it%0A%0A%0AVDK-%3Ek8s%20cluster%3A%20Deploy%20job%20to%20k8s%0A</desc><defs/><g><g/><g/><g/><g/><g/><g/><g/><g/><g/><g/><g/><g/><g/><g/><g/><g/><g/><g/><g/><g/><g/><g/><g/><g/><g/><g/><g/><g/><g/><g/><g/><g/><g/><g/><g/><g/><g/><g/><g/><g/><g/><g/><g/><g/><g/><g/><g/><g/><g/><g/><g/><g/><g/><g/><g/><g/><g/><g/><g/><g/><g/><g/><g/><g/><g/><g/><g/><g/><g/><g/><g/><g/><g/><g/><g/><g/><g/><g/><g/><g/><g/><g/><g/><g/><g/><g/><g/><g/><g/><g/><g/><g/><g/><g/><g/><g/><g/><g/><g/><g/><g/><g/><g/><g/><g/><g/><g/><g/><g/><g/><g/><g/><g/><g/><g/><g/><g/><g/><g/><g/><g/><g/><g/><g/><g/><g/><g/><g/><g/><g/><g/><g/><g/><g/><g/><g/><g/><g/><g/><g/><g/><g/><g/><g/><g/><g/><g/><g/><g/><g/><g/><g/><g/><g/><g/><g/><g/><g/><g/><g/><g/><g/><g/><g/><g/><g/><g/><g/><g/><g/><g/><g/><g/><g/><g/><g/><g/><g/><g/><g/><g/><g/><g/><g/><g/><g/><g/><g/><g/><g/><g/><g/><g/><g/><g><rect fill="white" stroke="none" x="0" y="0" width="1568" height="798"/></g><g><g><path fill="lightgreen" stroke="black" paint-order="fill stroke markers" d=" M 402.76370563858075 89.64599645972726 L 973.1143381715483 89.64599645972726 L 973.1143381715483 789.5340646187271 L 402.76370563858075 789.5340646187271 L 402.76370563858075 89.64599645972726 Z" stroke-miterlimit="10" stroke-width="1.4659797833333332" stroke-dasharray=""/></g><g><text fill="black" stroke="none" font-family="sans-serif" font-size="11pt" font-style="normal" font-weight="bold" text-decoration="normal" x="618.6798971492051" y="114.27445681972725" text-anchor="start" dominant-baseline="alphabetic" xml:space="preserve">Same Java Runtime</text></g></g><g><path fill="none" stroke="black" paint-order="fill stroke markers" d=" M 127.14298224847657 179.10008283872725 L 127.14298224847657 789.5340646187271" stroke-miterlimit="10" stroke-width="1.4659797833333332" stroke-dasharray="13.532121076923076,5.863919133333333"/><path fill="none" stroke="black" paint-order="fill stroke markers" d=" M 445.71822009707296 179.10008283872725 L 445.71822009707296 789.5340646187271" stroke-miterlimit="10" stroke-width="1.4659797833333332" stroke-dasharray="13.532121076923076,5.863919133333333"/><path fill="none" stroke="black" paint-order="fill stroke markers" d=" M 859.272227582685 179.10008283872725 L 859.272227582685 789.5340646187271" stroke-miterlimit="10" stroke-width="1.4659797833333332" stroke-dasharray="13.532121076923076,5.863919133333333"/><path fill="none" stroke="black" paint-order="fill stroke markers" d=" M 1398.966120925715 179.10008283872725 L 1398.966120925715 789.5340646187271" stroke-miterlimit="10" stroke-width="1.4659797833333332" stroke-dasharray="13.532121076923076,5.863919133333333"/><path fill="none" stroke="black" paint-order="fill stroke markers" d=" M 1505.8606383202423 179.10008283872725 L 1505.8606383202423 789.5340646187271" stroke-miterlimit="10" stroke-width="1.4659797833333332" stroke-dasharray="13.532121076923076,5.863919133333333"/></g><g><path fill="none" stroke="none"/><g><path fill="white" stroke="black" paint-order="fill stroke markers" d=" M 66.49545488842188 131.60233785872725 L 187.79050960853124 131.60233785872725 L 187.79050960853124 179.10008283872725 L 66.49545488842188 179.10008283872725 L 66.49545488842188 131.60233785872725 Z" stroke-miterlimit="10" stroke-width="2.814681184" stroke-dasharray=""/></g><g><g/><text fill="black" stroke="none" font-family="sans-serif" font-size="11pt" font-style="normal" font-weight="normal" text-decoration="normal" x="85.58251166742188" y="161.50832543872727" text-anchor="start" dominant-baseline="alphabetic" xml:space="preserve">ML Engineer</text></g><path fill="none" stroke="none"/><g><path fill="white" stroke="black" paint-order="fill stroke markers" d=" M 411.55958433858075 131.60233785872725 L 479.8768558555651 131.60233785872725 L 479.8768558555651 179.10008283872725 L 411.55958433858075 179.10008283872725 L 411.55958433858075 131.60233785872725 Z" stroke-miterlimit="10" stroke-width="2.814681184" stroke-dasharray=""/></g><g><g/><text fill="black" stroke="none" font-family="sans-serif" font-size="11pt" font-style="normal" font-weight="normal" text-decoration="normal" x="430.64664111758077" y="161.50832543872727" text-anchor="start" dominant-baseline="alphabetic" xml:space="preserve">VDK</text></g><path fill="none" stroke="none"/><g><path fill="white" stroke="black" paint-order="fill stroke markers" d=" M 754.2259956938217 131.60233785872725 L 964.3184594715483 131.60233785872725 L 964.3184594715483 179.10008283872725 L 754.2259956938217 179.10008283872725 L 754.2259956938217 131.60233785872725 Z" stroke-miterlimit="10" stroke-width="2.814681184" stroke-dasharray=""/></g><g><g/><text fill="black" stroke="none" font-family="sans-serif" font-size="11pt" font-style="normal" font-weight="normal" text-decoration="normal" x="773.3130524728217" y="161.50832543872727" text-anchor="start" dominant-baseline="alphabetic" xml:space="preserve">GPU management service</text></g><g><path fill="white" stroke="black" paint-order="fill stroke markers" d=" M 1373.2821551217148 144.62023833472725 L 1373.2821551217148 107.67754779472725 L 1424.650086729715 107.67754779472725 L 1424.650086729715 144.62023833472725" stroke-miterlimit="10" stroke-width="2.990598758" stroke-dasharray=""/><path fill="white" stroke="black" paint-order="fill stroke markers" d=" M 1424.650086729715 106.39334950452725 L 1424.6488025421263 106.50945316828361 L 1424.6449501077782 106.62554522177035 L 1424.638529811911 106.74161405587886 L 1424.6295422965486 106.85764806382245 L 1424.6179884604353 106.97363564229704 L 1424.603869458945 107.0895651926414 L 1424.5871867039662 107.20542512199715 L 1424.5679418637603 107.32120384446786 L 1424.5461368627953 107.4368897822778 L 1424.5217738815534 107.55247136692957 L 1424.494855356312 107.66793704036104 L 1424.4653839789014 107.78327525610106 L 1424.433362696435 107.89847448042421 L 1424.398794711014 108.01352319350404 L 1424.3616834794084 108.1284098905651 L 1424.3220327127103 108.24312308303344 L 1424.2798463759634 108.3576512996854 L 1424.235128687766 108.47198308779475 L 1424.18788411985 108.58610701427799 L 1424.1381173966327 108.70001166683751 L 1424.0858334947447 108.81368565510303 L 1424.031037642533 108.92711761177043 L 1423.973735319537 109.04029619373857 L 1423.913932255941 109.15321008324358 L 1423.851634432002 109.26584798899059 L 1423.78684807745 109.37819864728289 L 1423.7195796708668 109.49025082314829 L 1423.649835939037 109.60199331146255 L 1423.5776238562755 109.71341493806999 L 1423.5029506437304 109.82450456090079 L 1423.4258237686608 109.93525107108523 L 1423.34625094369 110.0456433940646 L 1423.264240126034 110.15567049069858 L 1423.1797995167065 110.2653213583692 L 1423.0929375596977 110.37458503208107 L 1423.003662941131 110.48345058555788 L 1422.9119845883943 110.59190713233497 L 1422.817911669246 110.69994382684808 L 1422.7214535909 110.80754986551777 L 1422.6226199990833 110.91471448782985 L 1422.521420777073 111.0214269774114 L 1422.417866044707 111.12767666310236 L 1422.311966157372 111.23345292002274 L 1422.2037317049685 111.33874517063497 L 1422.093173510852 111.44354288580173 L 1421.9803026307493 111.54783558583885 L 1421.8651303516544 111.65161284156324 L 1421.7476681906996 111.75486427533579 L 1421.6279278940028 111.85757956209918 L 1421.505921435494 111.9597484304103 L 1421.381661015717 112.0613606634675 L 1421.255159060611 112.16240610013213 L 1421.1264282202653 112.26287463594474 L 1420.9954813676572 112.36275622413545 L 1420.8623315973628 112.46204087662869 L 1420.7269922242476 112.56071866504195 L 1420.589476782137 112.65877972167861 L 1420.4497990224597 112.75621424051474 L 1420.307972912876 112.85301247817962 L 1420.1640126358784 112.9491647549302 L 1420.0179325873746 113.04466145561886 L 1419.8697473752477 113.13949303065519 L 1419.7194718178955 113.23364999696066 L 1419.5671209427485 113.32712293891711 L 1419.4127099847672 113.41990250930826 L 1419.256254384919 113.51197943025437 L 1419.0977697886328 113.60334449414007 L 1418.937272044237 113.69398856453513 L 1418.7747772013718 113.78390257710804 L 1418.6103015093863 113.87307754053245 L 1418.4438614157125 113.96150453738635 L 1418.2754735642209 114.04917472504374 L 1418.1051547935567 114.13607933655891 L 1417.9329221354549 114.22220968154313 L 1417.7587928130376 114.30755714703368 L 1417.582784239092 114.39211319835513 L 1417.404914014329 114.4758693799728 L 1417.225199925623 114.55881731633835 L 1417.0436599442326 114.64094871272725 L 1416.860312224005 114.72225535606832 L 1416.675175099559 114.80272911576495 L 1416.4882670844536 114.88236194450825 L 1416.2996068693337 114.9611458790817 L 1416.1092133200643 115.03907304115751 L 1415.917105475841 115.1161356380844 L 1415.7233025472888 115.1923259636669 L 1415.5278239145384 115.26763639893595 L 1415.3306891252907 115.34205941291076 L 1415.13191789286 115.41558756335198 L 1414.9315300942042 115.48821349750581 L 1414.7295457679359 115.55992995283937 L 1414.5259851123194 115.6307297577669 L 1414.320868483251 115.70060583236689 L 1414.1142163922223 115.76955118909012 L 1413.9060495042704 115.83755893345837 L 1413.6963886359104 115.90462226475387 L 1413.4852547530547 115.97073447669939 L 1413.2726689689155 116.03588895812881 L 1413.058652541894 116.1000791936483 L 1412.8432268734546 116.16329876428779 L 1412.6264135059846 116.22554134814291 L 1412.4082341206401 116.28680072100713 L 1412.188710535178 116.3470707569942 L 1411.9678647017736 116.40634542915078 L 1411.7457187048265 116.46461881005904 L 1411.522294758751 116.52188507242943 L 1411.2976152057556 116.57813848968344 L 1411.0717025136084 116.63337343652624 L 1410.8445792733905 116.68758438950917 L 1410.6162681972364 116.7407659275821 L 1410.3867921160636 116.79291273263554 L 1410.156173977289 116.84401959003245 L 1409.9244368425343 116.89408138912967 L 1409.6916038853196 116.943093123789 L 1409.457698388747 116.99104989287784 L 1409.2227437431711 117.03794690075922 L 1408.9867634438606 117.08377945777146 L 1408.7497810886487 117.12854298069702 L 1408.5118203755735 117.17223299322094 L 1408.272905100508 117.21484512637836 L 1408.0330591547806 117.25637511899149 L 1407.7923065227862 117.29681881809564 L 1407.5506712795873 117.33617217935465 L 1407.3081775885066 117.37443126746516 L 1407.0648496987114 117.41159225655024 L 1406.820711942788 117.44765143054195 L 1406.575788734308 117.48260518355296 L 1406.3301045653886 117.51645002023707 L 1406.083684004242 117.54918255613885 L 1405.8365516927188 117.58079951803195 L 1405.5887323438442 117.61129774424654 L 1405.3402507393466 117.64067418498543 L 1405.0911317271796 117.66892590262901 L 1404.8414002190364 117.69605007202905 L 1404.5910811878598 117.72204398079124 L 1404.3401996653447 117.74690502954634 L 1404.0887807394338 117.77063073221021 L 1403.8368495518107 117.79321871623235 L 1403.5844312953836 117.81466672283318 L 1403.3315512117683 117.8349726072299 L 1403.0782345887621 117.85413433885101 L 1402.8245067578164 117.87215000153931 L 1402.5703930915029 117.88901779374355 L 1402.3159190009762 117.90473602869855 L 1402.0611099334337 117.91930313459393 L 1401.8059913695693 117.93271765473123 L 1401.5505888210273 117.94497824766962 L 1401.2949278278493 117.95608368736002 L 1401.039033955922 117.96603286326771 L 1400.782932794419 117.9748247804834 L 1400.526649953243 117.9824585598227 L 1400.2702110604646 117.98893343791403 L 1400.0136417597596 117.99424876727495 L 1399.7569677078443 117.99840401637701 L 1399.5002145719095 118.00139876969871 L 1399.2434080270555 118.00323272776726 L 1398.9865737537223 118.00390570718832 L 1398.729737435123 118.00341764066458 L 1398.4729247546763 118.00176857700224 L 1398.2161613934354 117.99895868110629 L 1397.9594730275228 117.994988233964 L 1397.7028853255613 117.98985763261678 L 1397.446423946107 117.98356739012044 L 1397.1901145350844 117.97611813549406 L 1396.9339827232207 117.96751061365684 L 1396.678054123484 117.95774568535381 L 1396.4223543285204 117.94682432706966 L 1396.166908908097 117.93474763093113 L 1395.9117434065427 117.92151680459776 L 1395.656883340195 117.90713317114114 L 1395.4023541948482 117.89159816891267 L 1395.1481814232045 117.87491335139958 L 1394.8943904423295 117.85708038706976 L 1394.6410066311098 117.83810105920475 L 1394.3880553277154 117.81797726572154 L 1394.1355618270657 117.79671101898269 L 1393.8835513783004 117.77430444559518 L 1393.6320491822544 117.75075978619765 L 1393.3810803889378 117.72607939523644 L 1393.1306700950204 117.70026574073006 L 1392.8808433413235 117.67332140402246 L 1392.6316251103137 117.64524907952486 L 1392.383040323607 117.61605157444632 L 1392.1351138394746 117.58573180851299 L 1391.8878704503582 117.55429281367623 L 1391.6413348803908 117.52173773380929 L 1391.395531782924 117.48806982439307 L 1391.1504857380628 117.45329245219042 L 1390.9062212502072 117.4174090949096 L 1390.6627627456028 117.38042334085642 L 1390.4201345698966 117.34233888857548 L 1390.1783609857046 117.30315954648026 L 1389.9374661701836 117.26288923247232 L 1389.697474212614 117.2215319735495 L 1389.458409111992 117.17909190540324 L 1389.2202947746284 117.13557327200499 L 1388.9831550117583 117.0909804251818 L 1388.7470135371607 117.04531782418121 L 1388.511893964786 116.99859003522528 L 1388.2778198063952 116.95080173105393 L 1388.0448144692098 116.90195769045778 L 1387.812901253569 116.85206279780019 L 1387.5821033506008 116.80112204252883 L 1387.3524438399038 116.7491405186768 L 1387.1239456872372 116.69612342435313 L 1386.896631742226 116.64207606122312 L 1386.6705247360753 116.587003833978 L 1386.4456472792972 116.53091224979462 L 1386.22202185945 116.47380691778466 L 1385.9996708388896 116.41569354843372 L 1385.7786164525323 116.35657795303031 L 1385.558880805633 116.29646604308472 L 1385.3404858715728 116.23536382973785 L 1385.1234534896637 116.1732774231601 L 1384.9078053629623 116.1102130319404 L 1384.6935630561022 116.04617696246532 L 1384.4807479931353 115.98117561828846 L 1384.2693814553904 115.91521549949003 L 1384.0594845793455 115.84830320202698 L 1383.8510783545128 115.78044541707327 L 1383.6441836213417 115.71164893035086 L 1383.4388210691325 115.64192062145109 L 1383.2350112339698 115.57126746314675 L 1383.0327744966671 115.4996965206948 L 1382.8321310807294 115.42721495112981 L 1382.6331010503313 115.35383000254836 L 1382.4357043083098 115.27954901338416 L 1382.239960594175 115.20437941167421 L 1382.0458894821347 115.12832871431604 L 1381.853510379139 115.05140452631602 L 1381.6628425229371 114.97361454002885 L 1381.4739049801562 114.89496653438832 L 1381.2867166443932 114.81546837412947 L 1381.1012962343254 114.73512800900205 L 1380.9176622918394 114.65395347297566 L 1380.7358331801765 114.57195288343623 L 1380.5558270820964 114.48913444037439 L 1380.3776619980588 114.40550642556543 L 1380.2013557444236 114.32107720174115 L 1380.0269259516692 114.23585521175356 L 1379.8543900626296 114.14984897773064 L 1379.68376533075 114.06306710022413 L 1379.5150688183612 113.97551825734946 L 1379.3483173949742 113.88721120391797 L 1379.183527735592 113.79815477056141 L 1379.0207163190435 113.70835786284889 L 1378.8598994263343 113.61782946039635 L 1378.70109313902 113.5265786159686 L 1378.544313337597 113.43461445457406 L 1378.3895756999148 113.3419461725522 L 1378.2368956996079 113.24858303665403 L 1378.0862886045493 113.15453438311532 L 1377.9377694753232 113.05980961672304 L 1377.7913531637184 112.96441820987492 L 1377.6470543112443 112.86836970163213 L 1377.5048873476658 112.77167369676546 L 1377.3648664895609 112.67433986479483 L 1377.2270057388985 112.57637793902231 L 1377.091318881639 112.47779771555884 L 1376.9578194863548 112.37860905234463 L 1376.8265209028746 112.27882186816333 L 1376.697436260947 112.17844614165021 L 1376.5705784689285 112.07749191029428 L 1376.445960212493 111.97596926943456 L 1376.323593953362 111.8738883712505 L 1376.2034919280595 111.77125942374687 L 1376.085666146688 111.66809268973289 L 1375.9701283917275 111.564398485796 L 1375.856890216857 111.46018718127017 L 1375.7459629457999 111.35546919719903 L 1375.6373576711906 111.2502550052937 L 1375.5310852534662 111.14455512688569 L 1375.42715631978 111.03838013187479 L 1375.3255812629386 110.931740637672 L 1375.226370240363 110.82464730813786 L 1375.129533173073 110.7171108525161 L 1375.0350797446945 110.60914202436265 L 1374.9430194004915 110.5007516204704 L 1374.853361346422 110.39195047978936 L 1374.7661145482164 110.28274948234294 L 1374.681287730482 110.1731595481399 L 1374.59888937583 110.06319163608234 L 1374.5189277240268 109.95285674286981 L 1374.4414107711711 109.84216590189969 L 1374.3663462688937 109.73113018216384 L 1374.2937417235826 109.6197606871417 L 1374.2236043956311 109.50806855368997 L 1374.155941298714 109.3960649509289 L 1374.0907591990845 109.28376107912547 L 1374.0280646148983 109.17116816857322 L 1373.9678638155615 109.05829747846943 L 1373.910162821104 108.94516029578901 L 1373.8549674015771 108.83176793415598 L 1373.8022830764767 108.71813173271198 L 1373.7521151141912 108.60426305498248 L 1373.7044685314754 108.49017328774036 L 1373.6593480929478 108.37587383986727 L 1373.6167583106144 108.26137614121274 L 1373.5767034434182 108.14669164145123 L 1373.5391874968125 108.03183180893713 L 1373.5042142223606 107.91680812955799 L 1373.471787117361 107.8016321055859 L 1373.4419094244968 107.68631525452726 L 1373.4145841315128 107.57086910797109 L 1373.3898139709152 107.45530521043584 L 1373.3676014196997 107.33963511821496 L 1373.3479486991025 107.22387039822128 L 1373.3308577743799 107.10802262683032 L 1373.3163303546096 106.9921033887227 L 1373.3043678925217 106.87612427572562 L 1373.2949715843522 106.76009688565372 L 1373.2881423697245 106.64403282114934 L 1373.2838809315542 106.5279436885222 L 1373.2821876959815 106.41184109658882 L 1373.2830628323284 106.29573665551163 L 1373.2865062530823 106.17964197563802 L 1373.2925176139038 106.0635686663392 L 1373.301096313662 105.94752833484938 L 1373.3122414944937 105.83153258510501 L 1373.3259520418906 105.7155930165844 L 1373.342226584809 105.59972122314781 L 1373.3610634958084 105.48392879187799 L 1373.3824608912134 105.36822730192158 L 1373.4064166313021 105.25262832333117 L 1373.4329283205204 105.13714341590828 L 1373.461993307722 105.02178412804743 L 1373.4936086864318 104.90656199558124 L 1373.5277712951383 104.79148854062697 L 1373.5644777176096 104.67657527043421 L 1373.6037242832338 104.56183367623422 L 1373.6455070673867 104.4472752320908 L 1373.6898218918252 104.3329113937529 L 1373.7366643251037 104.21875359750905 L 1373.7860296830174 104.10481325904375 L 1373.8379130290723 103.99110177229588 L 1373.8923091749766 103.87763050831938 L 1373.9492126811615 103.76441081414606 L 1374.0086178573233 103.65145401165103 L 1374.070518762994 103.53877139642036 L 1374.1349092081348 103.4263742366217 L 1374.2017827537547 103.31427377187735 L 1374.271132712555 103.20248121214038 L 1374.3429521495975 103.09100773657362 L 1374.4172338829985 102.97986449243169 L 1374.4939704846463 102.86906259394641 L 1374.5731542809447 102.7586131212153 L 1374.6547773535804 102.64852711909359 L 1374.7388315403136 102.53881559608973 L 1374.8253084357964 102.42948952326464 L 1374.9141993924106 102.32055983313444 L 1375.0054955211351 102.21203741857742 L 1375.099187692433 102.10393313174457 L 1375.195266537165 101.99625778297451 L 1375.293722447527 101.88902213971235 L 1375.39454557801 101.7822369254331 L 1375.4977258463846 101.67591281856917 L 1375.6032529347103 101.57006045144266 L 1375.7111162903661 101.46469040920205 L 1375.8213051271064 101.35981322876378 L 1375.9338084261392 101.25543939775848 L 1376.0486149372284 101.15157935348229 L 1376.1657131798186 101.04824348185306 L 1376.285091444183 100.94544211637188 L 1376.406737792595 100.8431855370896 L 1376.530640060521 100.74148396957892 L 1376.656785857837 100.64034758391189 L 1376.785162570069 100.53978649364277 L 1376.9157573596522 100.43981075479677 L 1377.048557167217 100.34043036486447 L 1377.183548712893 100.24165526180207 L 1377.3207184976382 100.14349532303754 L 1377.4600528045885 100.04596036448298 L 1377.6015377004292 99.94906013955293 L 1377.7451590367887 99.85280433818917 L 1377.890902451653 99.7572025858916 L 1378.038753370802 99.66226444275578 L 1378.1886970092671 99.56799940251693 L 1378.3407183728093 99.47441689160051 L 1378.4948022594192 99.38152626817963 L 1378.6509332608364 99.2893368212392 L 1378.8090957640907 99.19785776964713 L 1378.9692739530637 99.10709826123231 L 1379.1314518100698 99.01706737186997 L 1379.295613117459 98.92777410457401 L 1379.4617414592367 98.83922738859675 L 1379.6298202227076 98.75143607853602 L 1379.7998326001352 98.66440895344962 L 1379.9717615904235 98.57815471597759 L 1380.1455900008168 98.49268199147176 L 1380.3213004486188 98.40799932713338 L 1380.4988753629314 98.32411519115828 L 1380.6782969864107 98.24103797189021 L 1380.8595473770442 98.15877597698181 L 1381.042608409944 98.07733743256405 L 1381.227461779159 97.9967304824235 L 1381.4140889995065 97.916963187188 L 1381.60247140842 97.83804352352061 L 1381.7925901678154 97.7599793833219 L 1381.9844262659756 97.68277857294089 L 1382.1779605194504 97.60644881239423 L 1382.3731735749757 97.5309977345944 L 1382.5700459114084 97.45643288458629 L 1382.7685578416795 97.38276171879278 L 1382.968689514761 97.30999160426903 L 1383.1704209176526 97.23812981796587 L 1383.3737318773817 97.16718354600205 L 1383.5786020630221 97.09715988294563 L 1383.7850109877259 97.02806583110457 L 1383.9929380107726 96.95990829982648 L 1384.2023623396333 96.89269410480767 L 1384.4132630320494 96.82642996741167 L 1384.6256189981275 96.76112251399695 L 1384.839409002448 96.69677827525447 L 1385.0546116661885 96.63340368555447 L 1385.2712054692622 96.5710050823031 L 1385.4891687524691 96.50958870530869 L 1385.7084797196628 96.44916069615776 L 1385.929116439929 96.38972709760088 L 1386.1510568497795 96.33129385294836 L 1386.3742787553583 96.27386680547599 L 1386.5987598346612 96.21745169784064 L 1386.824477639767 96.16205417150607 L 1387.0514095990836 96.10767976617876 L 1387.2795330196038 96.05433391925392 L 1387.5088250891758 96.0020219652718 L 1387.7392628787838 95.95074913538417 L 1387.9708233448407 95.90052055683134 L 1388.203483331493 95.85134125242926 L 1388.437219572936 95.80321614006743 L 1388.6720086957403 95.75615003221696 L 1388.9078272211889 95.71014763544943 L 1389.1446515676264 95.66521354996615 L 1389.3824580528149 95.62135226913826 L 1389.6212228963045 95.57856817905726 L 1389.8609222218095 95.53686555809652 L 1390.1015320595973 95.49624857648338 L 1390.3430283488847 95.45672129588218 L 1390.5853869402438 95.418287668988 L 1390.8285835980175 95.38095153913152 L 1391.0725940027428 95.34471663989461 L 1391.3173937535823 95.309586594737 L 1391.5629583707653 95.27556491663394 L 1391.8092632980345 95.24265500772486 L 1392.0562839051024 95.21086015897328 L 1392.3039954901142 95.18018354983751 L 1392.5523732821177 95.15062824795295 L 1392.8013924435409 95.12219720882514 L 1393.051028072675 95.09489327553432 L 1393.3012552061653 95.06871917845103 L 1393.5520488215066 95.0436775349632 L 1393.8033838395468 95.0197708492143 L 1394.0552351269932 94.99700151185297 L 1394.3075774989272 94.97537179979399 L 1394.5603857213218 94.95488387599053 L 1394.8136345135654 94.9355397892179 L 1395.0672985509898 94.91734147386866 L 1395.3213524674027 94.90029074975918 L 1395.575770857624 94.88438932194765 L 1395.830528280027 94.86963878056362 L 1396.0855992590814 94.85604060064892 L 1396.3409582879021 94.84359614201021 L 1396.596579830799 94.83230664908301 L 1396.8524383258307 94.82217325080717 L 1397.1085081873612 94.81319696051409 L 1397.3647638086172 94.80537867582531 L 1397.6211795642507 94.79871917856279 L 1397.8777298128996 94.79321913467072 L 1398.1343888997526 94.78887909414888 L 1398.3911311591153 94.78569949099773 L 1398.6479309169754 94.7836806431749 L 1398.904762493571 94.78282275256353 L 1399.161600205959 94.78312590495196 L 1399.4184183705818 94.78459007002517 L 1399.675191305837 94.78721510136792 L 1399.931893334645 94.79100073647922 L 1400.188498787017 94.79594659679874 L 1400.4449820026214 94.80205218774456 L 1400.7013173333507 94.80931689876269 L 1400.9574791458851 94.81774000338805 L 1401.213441824257 94.82732065931722 L 1401.4691797724117 94.8380579084926 L 1401.7246674167677 94.8499506771982 L 1401.9798792087734 94.86299777616705 L 1402.234789627462 94.87719790070015 L 1402.4893731820046 94.89254963079688 L 1402.7436044142576 94.909051431297 L 1402.9974579013094 94.92670165203424 L 1403.2509082580232 94.94549852800121 L 1403.5039301395745 94.965440179526 L 1403.7564982439858 94.98652461246006 L 1404.0085873146572 95.00874971837766 L 1404.2601721428919 95.03211327478675 L 1404.5112275704166 95.05661294535115 L 1404.7617284918977 95.08224628012421 L 1405.0116498574516 95.10901071579383 L 1405.2609666751505 95.13690357593875 L 1405.50965401352 95.16592207129617 L 1405.7576870040339 95.19606330004076 L 1406.0050408435993 95.22732424807475 L 1406.2516907970387 95.25970178932941 L 1406.4976121995624 95.29319268607757 L 1406.7427804592348 95.32779358925748 L 1406.9871710594346 95.36350103880766 L 1407.230759561305 95.40031146401289 L 1407.473521606199 95.43822118386134 L 1407.7154329181144 95.47722640741262 L 1407.9564693061218 95.51732323417686 L 1408.196606666783 95.55850765450482 L 1408.4358209865622 95.60077554998877 L 1408.6740883442267 95.6441226938744 L 1408.9113849132393 95.68854475148342 L 1409.1476869641408 95.73403728064713 L 1409.382970866923 95.78059573215047 L 1409.617213093392 95.82821545018713 L 1409.8503902195198 95.87689167282498 L 1410.0824789277885 95.9266195324823 L 1410.3134560095207 95.9773940564146 L 1410.5432983672006 96.02921016721176 L 1410.771983016784 96.08206268330589 L 1410.9994870899961 96.13594631948945 L 1411.22578783662 96.1908556874437 L 1411.4508626267689 96.24678529627761 L 1411.6746889531516 96.30372955307689 L 1411.8972444333222 96.36168276346334 L 1412.1185068119178 96.4206391321642 L 1412.338453962885 96.48059276359173 L 1412.5570638916925 96.54153766243275 L 1412.7743147375286 96.60346773424817 L 1412.9901847754907 96.6663767860824 L 1413.2046524187542 96.7302585270827 L 1413.417696220734 96.79510656912818 L 1413.629294877227 96.86091442746871 L 1413.8394272285443 96.92767552137326 L 1414.0480722616257 96.9953831747881 L 1414.2552091121418 97.0640306170043 L 1414.4608170665801 97.13361098333485 L 1414.6648755643164 97.20411731580108 L 1414.867364199671 97.27554256382854 L 1415.0682627239496 97.3478795849519 L 1415.2675510474664 97.42112114552937 L 1415.4652092415558 97.49525992146589 L 1415.6612175405626 97.57028849894567 L 1415.8555563438206 97.6461993751735 L 1416.048206217611 97.72298495912497 L 1416.2391478971076 97.80063757230572 L 1416.428362288301 97.87914944951912 L 1416.61583046991 97.95851273964287 L 1416.8015336952726 98.03871950641411 L 1416.985453394221 98.11976172922299 L 1417.1675711749388 98.20163130391475 L 1417.3478688257992 98.28432004360019 L 1417.5263283171878 98.36781967947421 L 1417.7029318033042 98.45212186164281 L 1417.8776616239466 98.53721815995803 L 1418.0505003062788 98.62310006486096 L 1418.2214305665766 98.70975898823266 L 1418.3904353119563 98.79718626425303 L 1418.5574976420842 98.88537315026731 L 1418.7226008508667 98.97431082766039 L 1418.8857284281203 99.06399040273865 L 1419.046864061223 99.1544029076193 L 1419.2059916367464 99.24553930112721 L 1419.3630952420651 99.33739046969897 L 1419.5181591669495 99.42994722829427 L 1419.6711679051366 99.52320032131436 L 1419.8221061558797 99.61714042352769 L 1419.9709588254798 99.71175814100229 L 1420.117711028794 99.80704401204527 L 1420.2623480907241 99.90298850814892 L 1420.4048555476843 99.9995820349436 L 1420.545219149048 100.0968149331571 L 1420.683424858572 100.19467747958066 L 1420.8194588558003 100.29315988804117 L 1420.9533075374468 100.39225231037986 L 1421.0849575187544 100.49194483743705 L 1421.2143956348352 100.59222750004314 L 1421.3416089419852 100.69309027001542 L 1421.46658471898 100.79452306116096 L 1421.5893104683455 100.89651573028516 L 1421.7097739176095 100.99905807820609 L 1421.827963020527 101.10213985077445 L 1421.9438659582868 101.20575073989883 L 1422.0574711406914 101.30988038457672 L 1422.168767207317 101.41451837193037 L 1422.27774302865 101.51965423824828 L 1422.384387707199 101.6252774700314 L 1422.4886905785852 101.7313775050446 L 1422.590641212608 101.8379437333728 L 1422.6902294142892 101.94496549848195 L 1422.7874452248916 102.05243209828473 L 1422.882278922915 102.1603327862107 L 1422.974721025069 102.268656772281 L 1423.0647622872198 102.37739322418732 L 1423.1523937053166 102.48653126837503 L 1423.237606516291 102.59605999113069 L 1423.3203921989323 102.70596843967328 L 1423.4007424747413 102.81624562324957 L 1423.4786493087577 102.92688051423308 L 1423.5541049103626 103.03786204922689 L 1423.6271017340591 103.14917913017 L 1423.6976324802256 103.26082062544708 L 1423.7656900958461 103.37277537100164 L 1423.8312677752158 103.48503217145242 L 1423.8943589606215 103.5975798012129 L 1423.9549573429972 103.71040700561393 L 1424.013056862555 103.82350250202907 L 1424.0686517093916 103.93685498100292 L 1424.1217363240685 104.05045310738205 L 1424.1723053981684 104.1642855214485 L 1424.2203538748263 104.2783408400557 L 1424.2658769492343 104.39260765776685 L 1424.3088700691233 104.5070745479954 L 1424.3493289352164 104.62173006414771 L 1424.3872495016615 104.73656274076771 L 1424.422627976433 104.85156109468343 L 1424.4554608217131 104.96671362615533 L 1424.485744754245 105.08200882002619 L 1424.51347674566 105.19743514687273 L 1424.5386540227823 105.31298106415845 L 1424.5612740679055 105.42863501738789 L 1424.5813346190437 105.54438544126212 L 1424.5988336701585 105.66022076083522 L 1424.613769471359 105.77612939267175 L 1424.6261405290784 105.8920997460051 L 1424.6359456062205 106.00812022389661 L 1424.643183722286 106.12417922439515 L 1424.6478541534696 106.2402651416974 L 1424.6499564327314 106.35636636730837 M 1424.650086729715 143.33604004452724 L 1424.6488025421263 143.4521437082836 L 1424.6449501077782 143.56823576177032 L 1424.638529811911 143.68430459587884 L 1424.6295422965486 143.80033860382244 L 1424.6179884604353 143.916326182297 L 1424.603869458945 144.0322557326414 L 1424.5871867039662 144.14811566199714 L 1424.5679418637603 144.26389438446785 L 1424.5461368627953 144.37958032227777 L 1424.5217738815534 144.49516190692955 L 1424.494855356312 144.610627580361 L 1424.4653839789014 144.72596579610106 L 1424.433362696435 144.8411650204242 L 1424.398794711014 144.95621373350403 L 1424.3616834794084 145.07110043056508 L 1424.3220327127103 145.18581362303343 L 1424.2798463759634 145.3003418396854 L 1424.235128687766 145.41467362779474 L 1424.18788411985 145.52879755427796 L 1424.1381173966327 145.6427022068375 L 1424.0858334947447 145.75637619510303 L 1424.031037642533 145.86980815177043 L 1423.973735319537 145.98298673373856 L 1423.913932255941 146.09590062324355 L 1423.851634432002 146.20853852899057 L 1423.78684807745 146.3208891872829 L 1423.7195796708668 146.43294136314827 L 1423.649835939037 146.54468385146254 L 1423.5776238562755 146.65610547806997 L 1423.5029506437304 146.76719510090078 L 1423.4258237686608 146.87794161108522 L 1423.34625094369 146.9883339340646 L 1423.264240126034 147.09836103069858 L 1423.1797995167065 147.2080118983692 L 1423.0929375596977 147.31727557208106 L 1423.003662941131 147.42614112555785 L 1422.9119845883943 147.53459767233497 L 1422.817911669246 147.64263436684806 L 1422.7214535909 147.75024040551776 L 1422.6226199990833 147.85740502782983 L 1422.521420777073 147.96411751741138 L 1422.417866044707 148.07036720310236 L 1422.311966157372 148.17614346002273 L 1422.2037317049685 148.28143571063495 L 1422.093173510852 148.38623342580172 L 1421.9803026307493 148.49052612583884 L 1421.8651303516544 148.59430338156324 L 1421.7476681906996 148.69755481533576 L 1421.6279278940028 148.80027010209915 L 1421.505921435494 148.9024389704103 L 1421.381661015717 149.0040512034675 L 1421.255159060611 149.10509664013213 L 1421.1264282202653 149.2055651759447 L 1420.9954813676572 149.30544676413544 L 1420.8623315973628 149.40473141662866 L 1420.7269922242476 149.50340920504192 L 1420.589476782137 149.6014702616786 L 1420.4497990224597 149.6989047805147 L 1420.307972912876 149.7957030181796 L 1420.1640126358784 149.89185529493017 L 1420.0179325873746 149.98735199561887 L 1419.8697473752477 150.08218357065516 L 1419.7194718178955 150.17634053696065 L 1419.5671209427485 150.26981347891711 L 1419.4127099847672 150.36259304930826 L 1419.256254384919 150.45466997025437 L 1419.0977697886328 150.54603503414006 L 1418.937272044237 150.63667910453512 L 1418.7747772013718 150.72659311710802 L 1418.6103015093863 150.81576808053245 L 1418.4438614157125 150.90419507738633 L 1418.2754735642209 150.9918652650437 L 1418.1051547935567 151.0787698765589 L 1417.9329221354549 151.16490022154312 L 1417.7587928130376 151.25024768703366 L 1417.582784239092 151.3348037383551 L 1417.404914014329 151.4185599199728 L 1417.225199925623 151.50150785633835 L 1417.0436599442326 151.58363925272724 L 1416.860312224005 151.6649458960683 L 1416.675175099559 151.74541965576492 L 1416.4882670844536 151.82505248450823 L 1416.2996068693337 151.9038364190817 L 1416.1092133200643 151.9817635811575 L 1415.917105475841 152.0588261780844 L 1415.7233025472888 152.1350165036669 L 1415.5278239145384 152.21032693893594 L 1415.3306891252907 152.28474995291074 L 1415.13191789286 152.35827810335195 L 1414.9315300942042 152.4309040375058 L 1414.7295457679359 152.50262049283936 L 1414.5259851123194 152.5734202977669 L 1414.320868483251 152.64329637236688 L 1414.1142163922223 152.7122417290901 L 1413.9060495042704 152.78024947345835 L 1413.6963886359104 152.84731280475387 L 1413.4852547530547 152.91342501669936 L 1413.2726689689155 152.9785794981288 L 1413.058652541894 153.0427697336483 L 1412.8432268734546 153.1059893042878 L 1412.6264135059846 153.16823188814288 L 1412.4082341206401 153.2294912610071 L 1412.188710535178 153.2897612969942 L 1411.9678647017736 153.34903596915078 L 1411.7457187048265 153.40730935005902 L 1411.522294758751 153.4645756124294 L 1411.2976152057556 153.52082902968343 L 1411.0717025136084 153.57606397652623 L 1410.8445792733905 153.63027492950917 L 1410.6162681972364 153.6834564675821 L 1410.3867921160636 153.73560327263553 L 1410.156173977289 153.78671013003242 L 1409.9244368425343 153.83677192912964 L 1409.6916038853196 153.885783663789 L 1409.457698388747 153.9337404328778 L 1409.2227437431711 153.9806374407592 L 1408.9867634438606 154.02646999777144 L 1408.7497810886487 154.071233520697 L 1408.5118203755735 154.11492353322092 L 1408.272905100508 154.15753566637835 L 1408.0330591547806 154.19906565899146 L 1407.7923065227862 154.23950935809563 L 1407.5506712795873 154.27886271935463 L 1407.3081775885066 154.31712180746513 L 1407.0648496987114 154.35428279655022 L 1406.820711942788 154.39034197054195 L 1406.575788734308 154.42529572355295 L 1406.3301045653886 154.45914056023707 L 1406.083684004242 154.49187309613882 L 1405.8365516927188 154.52349005803194 L 1405.5887323438442 154.55398828424654 L 1405.3402507393466 154.58336472498542 L 1405.0911317271796 154.61161644262899 L 1404.8414002190364 154.63874061202904 L 1404.5910811878598 154.66473452079123 L 1404.3401996653447 154.68959556954633 L 1404.0887807394338 154.7133212722102 L 1403.8368495518107 154.73590925623233 L 1403.5844312953836 154.75735726283315 L 1403.3315512117683 154.77766314722987 L 1403.0782345887621 154.796824878851 L 1402.8245067578164 154.8148405415393 L 1402.5703930915029 154.83170833374353 L 1402.3159190009762 154.84742656869855 L 1402.0611099334337 154.86199367459392 L 1401.8059913695693 154.87540819473122 L 1401.5505888210273 154.8876687876696 L 1401.2949278278493 154.89877422736 L 1401.039033955922 154.9087234032677 L 1400.782932794419 154.9175153204834 L 1400.526649953243 154.92514909982268 L 1400.2702110604646 154.931623977914 L 1400.0136417597596 154.93693930727494 L 1399.7569677078443 154.94109455637698 L 1399.5002145719095 154.9440893096987 L 1399.2434080270555 154.94592326776723 L 1398.9865737537223 154.94659624718832 L 1398.729737435123 154.94610818066457 L 1398.4729247546763 154.94445911700222 L 1398.2161613934354 154.94164922110627 L 1397.9594730275228 154.937678773964 L 1397.7028853255613 154.93254817261675 L 1397.446423946107 154.92625793012044 L 1397.1901145350844 154.91880867549403 L 1396.9339827232207 154.91020115365683 L 1396.678054123484 154.9004362253538 L 1396.4223543285204 154.88951486706966 L 1396.166908908097 154.87743817093113 L 1395.9117434065427 154.86420734459773 L 1395.656883340195 154.84982371114114 L 1395.4023541948482 154.83428870891265 L 1395.1481814232045 154.81760389139956 L 1394.8943904423295 154.79977092706974 L 1394.6410066311098 154.78079159920475 L 1394.3880553277154 154.7606678057215 L 1394.1355618270657 154.73940155898268 L 1393.8835513783004 154.71699498559516 L 1393.6320491822544 154.69345032619765 L 1393.3810803889378 154.6687699352364 L 1393.1306700950204 154.64295628073006 L 1392.8808433413235 154.61601194402246 L 1392.6316251103137 154.58793961952486 L 1392.383040323607 154.5587421144463 L 1392.1351138394746 154.52842234851298 L 1391.8878704503582 154.4969833536762 L 1391.6413348803908 154.4644282738093 L 1391.395531782924 154.43076036439305 L 1391.1504857380628 154.3959829921904 L 1390.9062212502072 154.36009963490957 L 1390.6627627456028 154.3231138808564 L 1390.4201345698966 154.28502942857546 L 1390.1783609857046 154.24585008648023 L 1389.9374661701836 154.2055797724723 L 1389.697474212614 154.16422251354948 L 1389.458409111992 154.12178244540323 L 1389.2202947746284 154.07826381200496 L 1388.9831550117583 154.03367096518178 L 1388.7470135371607 153.9880083641812 L 1388.511893964786 153.94128057522525 L 1388.2778198063952 153.89349227105393 L 1388.0448144692098 153.84464823045778 L 1387.812901253569 153.7947533378002 L 1387.5821033506008 153.74381258252882 L 1387.3524438399038 153.69183105867677 L 1387.1239456872372 153.63881396435312 L 1386.896631742226 153.5847666012231 L 1386.6705247360753 153.52969437397797 L 1386.4456472792972 153.4736027897946 L 1386.22202185945 153.41649745778463 L 1385.9996708388896 153.3583840884337 L 1385.7786164525323 153.2992684930303 L 1385.558880805633 153.2391565830847 L 1385.3404858715728 153.17805436973782 L 1385.1234534896637 153.1159679631601 L 1384.9078053629623 153.0529035719404 L 1384.6935630561022 152.98886750246533 L 1384.4807479931353 152.92386615828843 L 1384.2693814553904 152.85790603949002 L 1384.0594845793455 152.79099374202696 L 1383.8510783545128 152.72313595707325 L 1383.6441836213417 152.65433947035086 L 1383.4388210691325 152.58461116145108 L 1383.2350112339698 152.51395800314674 L 1383.0327744966671 152.44238706069478 L 1382.8321310807294 152.3699054911298 L 1382.6331010503313 152.29652054254836 L 1382.4357043083098 152.22223955338416 L 1382.239960594175 152.14706995167418 L 1382.0458894821347 152.07101925431604 L 1381.853510379139 151.99409506631602 L 1381.6628425229371 151.91630508002885 L 1381.4739049801562 151.83765707438832 L 1381.2867166443932 151.75815891412944 L 1381.1012962343254 151.67781854900204 L 1380.9176622918394 151.59664401297564 L 1380.7358331801765 151.5146434234362 L 1380.5558270820964 151.4318249803744 L 1380.3776619980588 151.34819696556542 L 1380.2013557444236 151.26376774174113 L 1380.0269259516692 151.17854575175355 L 1379.8543900626296 151.09253951773061 L 1379.68376533075 151.00575764022412 L 1379.5150688183612 150.91820879734945 L 1379.3483173949742 150.82990174391796 L 1379.183527735592 150.74084531056138 L 1379.0207163190435 150.65104840284886 L 1378.8598994263343 150.56052000039634 L 1378.70109313902 150.4692691559686 L 1378.544313337597 150.37730499457405 L 1378.3895756999148 150.28463671255219 L 1378.2368956996079 150.19127357665403 L 1378.0862886045493 150.0972249231153 L 1377.9377694753232 150.00250015672302 L 1377.7913531637184 149.9071087498749 L 1377.6470543112443 149.8110602416321 L 1377.5048873476658 149.71436423676545 L 1377.3648664895609 149.6170304047948 L 1377.2270057388985 149.51906847902228 L 1377.091318881639 149.42048825555884 L 1376.9578194863548 149.32129959234462 L 1376.8265209028746 149.2215124081633 L 1376.697436260947 149.1211366816502 L 1376.5705784689285 149.02018245029427 L 1376.445960212493 148.91865980943453 L 1376.323593953362 148.81657891125047 L 1376.2034919280595 148.71394996374684 L 1376.085666146688 148.61078322973287 L 1375.9701283917275 148.50708902579598 L 1375.856890216857 148.40287772127016 L 1375.7459629457999 148.298159737199 L 1375.6373576711906 148.19294554529367 L 1375.5310852534662 148.08724566688568 L 1375.42715631978 147.98107067187476 L 1375.3255812629386 147.87443117767197 L 1375.226370240363 147.76733784813783 L 1375.129533173073 147.65980139251607 L 1375.0350797446945 147.55183256436266 L 1374.9430194004915 147.44344216047037 L 1374.853361346422 147.33464101978933 L 1374.7661145482164 147.22544002234292 L 1374.681287730482 147.1158500881399 L 1374.59888937583 147.00588217608234 L 1374.5189277240268 146.89554728286979 L 1374.4414107711711 146.78485644189968 L 1374.3663462688937 146.67382072216384 L 1374.2937417235826 146.56245122714168 L 1374.2236043956311 146.45075909368995 L 1374.155941298714 146.3387554909289 L 1374.0907591990845 146.22645161912544 L 1374.0280646148983 146.11385870857322 L 1373.9678638155615 146.0009880184694 L 1373.910162821104 145.887850835789 L 1373.8549674015771 145.77445847415595 L 1373.8022830764767 145.66082227271198 L 1373.7521151141912 145.54695359498248 L 1373.7044685314754 145.43286382774036 L 1373.6593480929478 145.31856437986727 L 1373.6167583106144 145.20406668121274 L 1373.5767034434182 145.0893821814512 L 1373.5391874968125 144.9745223489371 L 1373.5042142223606 144.85949866955798 L 1373.471787117361 144.7443226455859 L 1373.4419094244968 144.62900579452725 L 1373.4145841315128 144.51355964797108 L 1373.3898139709152 144.39799575043583 L 1373.3676014196997 144.28232565821494 L 1373.3479486991025 144.16656093822127 L 1373.3308577743799 144.05071316683032 L 1373.3163303546096 143.93479392872268 L 1373.3043678925217 143.8188148157256 L 1373.2949715843522 143.70278742565372 L 1373.2881423697245 143.58672336114932 L 1373.2838809315542 143.4706342285222 L 1373.2821876959815 143.3545316365888" stroke-miterlimit="10" stroke-width="2.990598758" stroke-dasharray=""/></g><g><g/><text fill="black" stroke="none" font-family="sans-serif" font-size="11pt" font-style="normal" font-weight="normal" text-decoration="normal" x="1367.5881759794258" y="173.82255561872725" text-anchor="start" dominant-baseline="alphabetic" xml:space="preserve">Database</text></g><path fill="none" stroke="none"/><g><path fill="white" stroke="black" paint-order="fill stroke markers" d=" M 1451.741393125715 131.60233785872725 L 1559.9798835147697 131.60233785872725 L 1559.9798835147697 179.10008283872725 L 1451.741393125715 179.10008283872725 L 1451.741393125715 131.60233785872725 Z" stroke-miterlimit="10" stroke-width="2.814681184" stroke-dasharray=""/></g><g><g/><text fill="black" stroke="none" font-family="sans-serif" font-size="11pt" font-style="normal" font-weight="normal" text-decoration="normal" x="1470.828449904715" y="161.50832543872727" text-anchor="start" dominant-baseline="alphabetic" xml:space="preserve">k8s cluster</text></g></g><g><g><text fill="black" stroke="none" font-family="sans-serif" font-size="16pt" font-style="normal" font-weight="normal" text-decoration="normal" x="404.57012939453125" y="26.547561167272725" text-anchor="start" dominant-baseline="alphabetic" xml:space="preserve">User wants to deploy job when cluster has available space and team has budget</text></g><path fill="white" stroke="black" paint-order="fill stroke markers" d=" M 8.7958787 214.28359763872726 L 229.65750413695315 214.28359763872726 L 245.49008579695314 230.11617929872725 L 245.49008579695314 272.33639705872724 L 8.7958787 272.33639705872724 L 8.7958787 214.28359763872726 M 229.65750413695315 214.28359763872726 L 229.65750413695315 230.11617929872725 L 245.49008579695314 230.11617929872725" stroke-miterlimit="10" stroke-width="1.4659797833333332" stroke-dasharray=""/><g><text fill="black" stroke="none" font-family="sans-serif" font-size="11pt" font-style="normal" font-weight="normal" text-decoration="normal" x="33.42433906000001" y="238.91205799872728" text-anchor="start" dominant-baseline="alphabetic" xml:space="preserve">Wants to deploy a</text><text fill="black" stroke="none" font-family="sans-serif" font-size="11pt" font-style="normal" font-weight="normal" text-decoration="normal" x="33.42433906000001" y="256.5038153987273" text-anchor="start" dominant-baseline="alphabetic" xml:space="preserve"> job1 which needs 2 devices.</text></g><g><text fill="black" stroke="none" font-family="sans-serif" font-size="11pt" font-style="normal" font-weight="normal" text-decoration="normal" x="180.92242246183724" y="314.55661481872727" text-anchor="start" dominant-baseline="alphabetic" xml:space="preserve">vdk execute --start -n job -t team</text></g><g><path fill="none" stroke="black" paint-order="fill stroke markers" d=" M 127.14298224847657 321.5933177787272 L 431.23433983773964 321.5933177787272" stroke-miterlimit="10" stroke-width="1.4659797833333332" stroke-dasharray=""/><g transform="translate(445.71822009707296,321.5933177787272) translate(-445.71822009707296,-321.5933177787272)"><path fill="black" stroke="none" paint-order="stroke fill markers" d=" M 431.0584222637396 314.2634188620606 L 445.71822009707296 321.5933177787272 L 431.0584222637396 328.9232166953939 Z"/></g></g><g><text fill="black" stroke="none" font-family="sans-serif" font-size="11pt" font-style="normal" font-weight="normal" text-decoration="normal" x="469.17389663040626" y="363.81353553872725" text-anchor="start" dominant-baseline="alphabetic" xml:space="preserve">tryProvisionResources(jobTeamId, amountOfResources)</text></g><g><path fill="none" stroke="black" paint-order="fill stroke markers" d=" M 445.71822009707296 370.8502384987272 L 844.7883473233517 370.8502384987272" stroke-miterlimit="10" stroke-width="1.4659797833333332" stroke-dasharray=""/><g transform="translate(859.272227582685,370.8502384987272) translate(-859.272227582685,-370.8502384987272)"><path fill="black" stroke="none" paint-order="stroke fill markers" d=" M 844.6124297493517 363.52033958206056 L 859.272227582685 370.8502384987272 L 844.6124297493517 378.18013741539386 Z"/></g></g><g><text fill="black" stroke="none" font-family="sans-serif" font-size="11pt" font-style="normal" font-weight="normal" text-decoration="normal" x="939.6489594104501" y="413.07045625872723" text-anchor="start" dominant-baseline="alphabetic" xml:space="preserve">Checks to see if there is anywhere to put this job </text><text fill="black" stroke="none" font-family="sans-serif" font-size="11pt" font-style="normal" font-weight="normal" text-decoration="normal" x="939.6489594104501" y="430.66221365872724" text-anchor="start" dominant-baseline="alphabetic" xml:space="preserve">Checks to see does this users team have available budget</text></g><g><path fill="none" stroke="black" paint-order="fill stroke markers" d=" M 859.272227582685 437.6989166187272 L 1384.4822406663816 437.6989166187272" stroke-miterlimit="10" stroke-width="1.4659797833333332" stroke-dasharray=""/><g transform="translate(1398.966120925715,437.6989166187272) translate(-1398.966120925715,-437.6989166187272)"><path fill="black" stroke="none" paint-order="stroke fill markers" d=" M 1384.3063230923815 430.36901770206055 L 1398.966120925715 437.6989166187272 L 1384.3063230923815 445.02881553539385 Z"/></g></g><g><text fill="black" stroke="none" font-family="sans-serif" font-size="11pt" font-style="normal" font-weight="normal" text-decoration="normal" x="1004.8350403430672" y="479.9191343787272" text-anchor="start" dominant-baseline="alphabetic" xml:space="preserve">Machine 4 has space to run the job on</text><text fill="black" stroke="none" font-family="sans-serif" font-size="11pt" font-style="normal" font-weight="normal" text-decoration="normal" x="1004.8350403430672" y="497.5108917787272" text-anchor="start" dominant-baseline="alphabetic" xml:space="preserve">Team has budget</text></g><g><path fill="none" stroke="black" paint-order="fill stroke markers" d=" M 1398.966120925715 504.5475947387272 L 873.7561078420183 504.5475947387272" stroke-miterlimit="10" stroke-width="1.4659797833333332" stroke-dasharray=""/><g transform="translate(859.272227582685,504.5475947387272) translate(-859.272227582685,-504.5475947387272)"><path fill="black" stroke="none" paint-order="stroke fill markers" d=" M 873.9320254160183 497.21769582206053 L 859.272227582685 504.5475947387272 L 873.9320254160183 511.87749365539383 Z"/></g></g><g><text fill="black" stroke="none" font-family="sans-serif" font-size="11pt" font-style="normal" font-weight="normal" text-decoration="normal" x="503.35063155472267" y="546.767812498727" text-anchor="start" dominant-baseline="alphabetic" xml:space="preserve">List&lt;JobActions&gt;</text><text fill="black" stroke="none" font-family="sans-serif" font-size="11pt" font-style="normal" font-weight="normal" text-decoration="normal" x="503.35063155472267" y="564.359569898727" text-anchor="start" dominant-baseline="alphabetic" xml:space="preserve">[CreateJob{name=job1,machine=machine_4}]</text></g><g><path fill="none" stroke="black" paint-order="fill stroke markers" d=" M 859.272227582685 571.3962728587271 L 460.2021003564063 571.3962728587271" stroke-miterlimit="10" stroke-width="1.4659797833333332" stroke-dasharray=""/><g transform="translate(445.71822009707296,571.3962728587271) translate(-445.71822009707296,-571.3962728587271)"><path fill="black" stroke="none" paint-order="stroke fill markers" d=" M 460.3780179304063 564.0663739420604 L 445.71822009707296 571.3962728587271 L 460.3780179304063 578.7261717753938 Z"/></g></g><g><text fill="black" stroke="none" font-family="sans-serif" font-size="11pt" font-style="normal" font-weight="normal" text-decoration="normal" x="469.1738966304063" y="613.6164906187271" text-anchor="start" dominant-baseline="alphabetic" xml:space="preserve">Creates a yaml file to run this job. </text><text fill="black" stroke="none" font-family="sans-serif" font-size="11pt" font-style="normal" font-weight="normal" text-decoration="normal" x="469.1738966304063" y="631.2082480187271" text-anchor="start" dominant-baseline="alphabetic" xml:space="preserve">Explicitly set the node to run on to be machine4</text><text fill="black" stroke="none" font-family="sans-serif" font-size="11pt" font-style="normal" font-weight="normal" text-decoration="normal" x="469.1738966304063" y="648.8000054187271" text-anchor="start" dominant-baseline="alphabetic" xml:space="preserve">Deploy it</text></g><g><path fill="none" stroke="black" paint-order="fill stroke markers" d=" M 445.71822009707296 655.836708378727 L 516.085249697073 655.836708378727 L 516.085249697073 678.7059929987271 L 460.2021003564063 678.7059929987271" stroke-miterlimit="10" stroke-width="1.4659797833333332" stroke-dasharray=""/><g transform="translate(445.71822009707296,678.7059929987271) translate(-445.71822009707296,-678.7059929987271)"><path fill="black" stroke="none" paint-order="stroke fill markers" d=" M 460.3780179304063 671.3760940820604 L 445.71822009707296 678.7059929987271 L 460.3780179304063 686.0358919153938 Z"/></g></g><g><text fill="black" stroke="none" font-family="sans-serif" font-size="11pt" font-style="normal" font-weight="normal" text-decoration="normal" x="919.5618214816069" y="720.926210758727" text-anchor="start" dominant-baseline="alphabetic" xml:space="preserve">Deploy job to k8s</text></g><g><path fill="none" stroke="black" paint-order="fill stroke markers" d=" M 445.71822009707296 727.9629137187271 L 1491.376758060909 727.9629137187271" stroke-miterlimit="10" stroke-width="1.4659797833333332" stroke-dasharray=""/><g transform="translate(1505.8606383202423,727.9629137187271) translate(-1505.8606383202423,-727.9629137187271)"><path fill="black" stroke="none" paint-order="stroke fill markers" d=" M 1491.2008404869089 720.6330148020604 L 1505.8606383202423 727.9629137187271 L 1491.2008404869089 735.2928126353938 Z"/></g></g></g><g/><g/><g/><g/><g/></g></svg>
