<svg version="1.1" xmlns="http://www.w3.org/2000/svg" xmlns:xlink="http://www.w3.org/1999/xlink" width="2068" height="1567"><desc>Title%20User%20fails%20to%20deploy%20a%20job%20but%20is%20succeful%20on%20re%20attempt%20when%20other%20job%20completes%0A%0A%0A%0Aparticipant%20ML%20Engineer%0Aparticipantgroup%20%23lightgreen%20**Same%20Java%20Runtime**%0Aparticipant%20VDK%0Aparticipant%20GPU%20management%20service%0Aend%0A%0A%0A%0Adatabase%20Database%0A%0Aactivate%20k8s%20cluster%0Anote%20over%20k8s%20cluster%3A%20Job%202%20is%20running%20and%20consuming%20all%20the%20free%20resources%20on%20the%20cluster%0A%0A%0Anote%20over%20ML%20Engineer%3A%20Wants%20to%20deploy%20a%5Cn%20job%20which%20needs%202%20devices.%0A%0AML%20Engineer-%3EVDK%3A%20vdk%20execute%20-%5C-start%20-n%20job1%20-t%20'Team%20A'%0A%0A%0AVDK-%3EGPU%20management%20service%3A%20tryProvisionResources(jobTeamId%2C%20amountOfResources)%0A%0AGPU%20management%20service-%3EDatabase%3A%20Checks%20to%20see%20if%20there%20is%20anywhere%20to%20put%20this%20job%20%5CnChecks%20to%20see%20does%20this%20users%20team%20have%20available%20budget%0A%0ADatabase-%3EGPU%20management%20service%3A%20No%20nodes%20with%20free%20resources%20%5CnTeam%20has%20no%20budget%0A%0AGPU%20management%20service-%3EVDK%3A%20Throws%20TeamHasNoBudgetException%0A%0AVDK-%3EVDK%3A%20Catches%20the%20exception%2C%20doesn't%20deploy%20the%20job.%0A%0AVDK-%3EML%20Engineer%3A%20returns%20a%20400%20and%20an%20message%20explaining%20that%20%5Cnwe%20can't%20run%20their%20job%20because%20their%20team%20is%20over%20budget%0A%0A%0A%0A%3D%3DEnough%20time%20passes%20for%20job%202%20to%20complete%3D%3D%0A%0Anote%20over%20k8s%20cluster%3A%20Job%202%20ends%0Adeactivate%20k8s%20cluster%0A%0Ak8s%20cluster-%3EVDK%3A%20Job2%20is%20finished%0AVDK-%3EGPU%20management%20service%3A%20jobFinished(jobTeamId)%0AGPU%20management%20service-%3EDatabase%3A%20mark%20resoruces%20as%20released%20%0A%0A%0A%0AML%20Engineer-%3EVDK%3A%20vdk%20execute%20-%5C-start%20-n%20job%20-t%20team%0A%0AVDK-%3EGPU%20management%20service%3A%20tryProvisionResources(jobTeamId%2C%20amountOfResources)%0A%0AGPU%20management%20service-%3EDatabase%3A%20Checks%20to%20see%20if%20there%20is%20anywhere%20to%20put%20this%20job%20%5CnChecks%20to%20see%20does%20this%20users%20team%20have%20available%20budget%0A%0ADatabase-%3EGPU%20management%20service%3A%20Machine%204%20has%20space%20to%20run%20the%20job%20on%5CnTeam%20has%20budget%0A%0AGPU%20management%20service-%3EVDK%3A%20List%3CJobActions%3E%5Cn%5BCreateJob%7Bname%3Djob1%2Cmachine%3Dmachine_4%7D%5D%0A%0AVDK-%3EVDK%3A%20Creates%20a%20yaml%20file%20to%20run%20this%20job.%20%5CnExplicitly%20set%20the%20node%20to%20run%20on%20to%20be%20machine4%5CnDeploy%20it%0A%0A%0AVDK-%3Ek8s%20cluster%3A%20Deploy%20job%20to%20k8s</desc><defs/><g><g/><g/><g/><g/><g/><g/><g/><g/><g/><g/><g/><g/><g/><g/><g/><g/><g/><g/><g/><g/><g/><g/><g/><g/><g/><g/><g/><g/><g/><g/><g/><g/><g/><g/><g/><g/><g/><g/><g/><g/><g/><g/><g/><g/><g/><g/><g/><g/><g/><g/><g/><g/><g/><g/><g/><g/><g/><g/><g/><g/><g/><g/><g/><g/><g/><g/><g/><g/><g/><g/><g/><g/><g/><g/><g/><g/><g/><g/><g/><g/><g/><g/><g/><g/><g/><g/><g/><g/><g/><g/><g/><g/><g/><g/><g/><g/><g/><g/><g/><g/><g/><g/><g/><g/><g/><g/><g/><g/><g/><g/><g/><g/><g/><g/><g/><g/><g/><g/><g/><g/><g/><g/><g/><g/><g/><g/><g/><g/><g/><g/><g/><g/><g/><g/><g/><g/><g/><g/><g/><g/><g/><g/><g/><g/><g/><g/><g/><g/><g/><g/><g/><g/><g/><g/><g/><g/><g/><g/><g/><g/><g/><g/><g/><g/><g/><g/><g/><g/><g/><g/><g/><g/><g/><g/><g/><g/><g/><g/><g/><g/><g/><g/><g/><g/><g/><g/><g/><g/><g/><g/><g/><g/><g/><g/><g/><g/><g/><g/><g/><g/><g/><g/><g/><g/><g/><g/><g/><g/><g/><g/><g/><g/><g/><g/><g/><g/><g/><g/><g/><g/><g/><g/><g/><g/><g/><g/><g/><g/><g/><g/><g/><g/><g/><g/><g/><g/><g/><g/><g/><g/><g/><g/><g/><g/><g/><g/><g/><g/><g/><g/><g/><g/><g/><g/><g/><g/><g/><g/><g/><g/><g/><g/><g/><g/><g/><g/><g/><g/><g/><g/><g/><g/><g/><g/><g/><g/><g/><g/><g/><g/><g/><g/><g/><g/><g/><g/><g/><g/><g/><g/><g/><g/><g/><g/><g/><g/><g/><g/><g/><g/><g/><g/><g/><g/><g/><g/><g/><g/><g/><g/><g/><g/><g/><g/><g/><g/><g/><g/><g/><g/><g/><g/><g/><g/><g/><g/><g/><g/><g/><g/><g/><g/><g/><g/><g/><g/><g/><g/><g/><g/><g/><g/><g/><g/><g/><g/><g/><g/><g/><g/><g/><g/><g/><g/><g/><g/><g/><g/><g/><g/><g/><g/><g/><g/><g/><g/><g/><g/><g/><g/><g/><g/><g/><g/><g/><g/><g/><g/><g/><g/><g/><g/><g/><g/><g/><g/><g/><g/><g/><g/><g/><g/><g/><g/><g/><g/><g/><g/><g/><g/><g/><g/><g/><g/><g/><g/><g><rect fill="white" stroke="none" x="0" y="0" width="2068" height="1567"/></g><g><g><path fill="lightgreen" stroke="black" paint-order="fill stroke markers" d=" M 547.3985857044987 89.64599645972726 L 1117.7492182374663 89.64599645972726 L 1117.7492182374663 1558.2938629987266 L 547.3985857044987 1558.2938629987266 L 547.3985857044987 89.64599645972726 Z" stroke-miterlimit="10" stroke-width="1.4659797833333332" stroke-dasharray=""/></g><g><text fill="black" stroke="none" font-family="sans-serif" font-size="11pt" font-style="normal" font-weight="bold" text-decoration="normal" x="763.3147772151231" y="114.27445681972725" text-anchor="start" dominant-baseline="alphabetic" xml:space="preserve">Same Java Runtime</text></g></g><g><path fill="none" stroke="black" paint-order="fill stroke markers" d=" M 123.06639075677735 179.10008283872725 L 123.06639075677735 1558.2938629987266" stroke-miterlimit="10" stroke-width="1.4659797833333332" stroke-dasharray="13.532121076923076,5.863919133333333"/><path fill="none" stroke="black" paint-order="fill stroke markers" d=" M 590.3531001629909 179.10008283872725 L 590.3531001629909 1558.2938629987266" stroke-miterlimit="10" stroke-width="1.4659797833333332" stroke-dasharray="13.532121076923076,5.863919133333333"/><path fill="none" stroke="black" paint-order="fill stroke markers" d=" M 1003.907107648603 179.10008283872725 L 1003.907107648603 1558.2938629987266" stroke-miterlimit="10" stroke-width="1.4659797833333332" stroke-dasharray="13.532121076923076,5.863919133333333"/><path fill="none" stroke="black" paint-order="fill stroke markers" d=" M 1543.6010009916329 179.10008283872725 L 1543.6010009916329 1558.2938629987266" stroke-miterlimit="10" stroke-width="1.4659797833333332" stroke-dasharray="13.532121076923076,5.863919133333333"/><path fill="none" stroke="black" paint-order="fill stroke markers" d=" M 1805.84616687175 179.10008283872725 L 1805.84616687175 1558.2938629987266" stroke-miterlimit="10" stroke-width="1.4659797833333332" stroke-dasharray="13.532121076923076,5.863919133333333"/></g><g><path fill="none" stroke="none"/><g><path fill="white" stroke="black" paint-order="fill stroke markers" d=" M 62.418863396722664 131.60233785872725 L 183.71391811683205 131.60233785872725 L 183.71391811683205 179.10008283872725 L 62.418863396722664 179.10008283872725 L 62.418863396722664 131.60233785872725 Z" stroke-miterlimit="10" stroke-width="2.814681184" stroke-dasharray=""/></g><g><g/><text fill="black" stroke="none" font-family="sans-serif" font-size="11pt" font-style="normal" font-weight="normal" text-decoration="normal" x="81.50592017572266" y="161.50832543872727" text-anchor="start" dominant-baseline="alphabetic" xml:space="preserve">ML Engineer</text></g><path fill="none" stroke="none"/><g><path fill="white" stroke="black" paint-order="fill stroke markers" d=" M 556.1944644044987 131.60233785872725 L 624.5117359214831 131.60233785872725 L 624.5117359214831 179.10008283872725 L 556.1944644044987 179.10008283872725 L 556.1944644044987 131.60233785872725 Z" stroke-miterlimit="10" stroke-width="2.814681184" stroke-dasharray=""/></g><g><g/><text fill="black" stroke="none" font-family="sans-serif" font-size="11pt" font-style="normal" font-weight="normal" text-decoration="normal" x="575.2815211834987" y="161.50832543872727" text-anchor="start" dominant-baseline="alphabetic" xml:space="preserve">VDK</text></g><path fill="none" stroke="none"/><g><path fill="white" stroke="black" paint-order="fill stroke markers" d=" M 898.8608757597397 131.60233785872725 L 1108.9533395374663 131.60233785872725 L 1108.9533395374663 179.10008283872725 L 898.8608757597397 179.10008283872725 L 898.8608757597397 131.60233785872725 Z" stroke-miterlimit="10" stroke-width="2.814681184" stroke-dasharray=""/></g><g><g/><text fill="black" stroke="none" font-family="sans-serif" font-size="11pt" font-style="normal" font-weight="normal" text-decoration="normal" x="917.9479325387397" y="161.50832543872727" text-anchor="start" dominant-baseline="alphabetic" xml:space="preserve">GPU management service</text></g><g><path fill="white" stroke="black" paint-order="fill stroke markers" d=" M 1517.9170351876328 144.62023833472725 L 1517.9170351876328 107.67754779472725 L 1569.284966795633 107.67754779472725 L 1569.284966795633 144.62023833472725" stroke-miterlimit="10" stroke-width="2.990598758" stroke-dasharray=""/><path fill="white" stroke="black" paint-order="fill stroke markers" d=" M 1569.284966795633 106.39334950452725 L 1569.2836826080443 106.50945316828361 L 1569.2798301736962 106.62554522177035 L 1569.273409877829 106.74161405587886 L 1569.2644223624666 106.85764806382245 L 1569.2528685263533 106.97363564229704 L 1569.238749524863 107.0895651926414 L 1569.2220667698841 107.20542512199715 L 1569.2028219296783 107.32120384446786 L 1569.1810169287132 107.4368897822778 L 1569.1566539474713 107.55247136692957 L 1569.12973542223 107.66793704036104 L 1569.1002640448194 107.78327525610106 L 1569.068242762353 107.89847448042421 L 1569.033674776932 108.01352319350404 L 1568.9965635453264 108.1284098905651 L 1568.9569127786283 108.24312308303344 L 1568.9147264418814 108.3576512996854 L 1568.870008753684 108.47198308779475 L 1568.822764185768 108.58610701427799 L 1568.7729974625506 108.70001166683751 L 1568.7207135606627 108.81368565510303 L 1568.665917708451 108.92711761177043 L 1568.6086153854549 109.04029619373857 L 1568.548812321859 109.15321008324358 L 1568.4865144979199 109.26584798899059 L 1568.421728143368 109.37819864728289 L 1568.3544597367847 109.49025082314829 L 1568.284716004955 109.60199331146255 L 1568.2125039221935 109.71341493806999 L 1568.1378307096484 109.82450456090079 L 1568.0607038345788 109.93525107108523 L 1567.981131009608 110.0456433940646 L 1567.899120191952 110.15567049069858 L 1567.8146795826244 110.2653213583692 L 1567.7278176256157 110.37458503208107 L 1567.638543007049 110.48345058555788 L 1567.5468646543122 110.59190713233497 L 1567.452791735164 110.69994382684808 L 1567.356333656818 110.80754986551777 L 1567.2575000650013 110.91471448782985 L 1567.156300842991 111.0214269774114 L 1567.0527461106249 111.12767666310236 L 1566.9468462232899 111.23345292002274 L 1566.8386117708865 111.33874517063497 L 1566.72805357677 111.44354288580173 L 1566.6151826966673 111.54783558583885 L 1566.5000104175724 111.65161284156324 L 1566.3825482566176 111.75486427533579 L 1566.2628079599208 111.85757956209918 L 1566.140801501412 111.9597484304103 L 1566.016541081635 112.0613606634675 L 1565.890039126529 112.16240610013213 L 1565.7613082861833 112.26287463594474 L 1565.6303614335752 112.36275622413545 L 1565.4972116632807 112.46204087662869 L 1565.3618722901656 112.56071866504195 L 1565.2243568480549 112.65877972167861 L 1565.0846790883777 112.75621424051474 L 1564.942852978794 112.85301247817962 L 1564.7988927017964 112.9491647549302 L 1564.6528126532926 113.04466145561886 L 1564.5046274411657 113.13949303065519 L 1564.3543518838135 113.23364999696066 L 1564.2020010086665 113.32712293891711 L 1564.0475900506851 113.41990250930826 L 1563.891134450837 113.51197943025437 L 1563.7326498545508 113.60334449414007 L 1563.572152110155 113.69398856453513 L 1563.4096572672897 113.78390257710804 L 1563.2451815753043 113.87307754053245 L 1563.0787414816305 113.96150453738635 L 1562.9103536301388 114.04917472504374 L 1562.7400348594747 114.13607933655891 L 1562.5678022013728 114.22220968154313 L 1562.3936728789556 114.30755714703368 L 1562.21766430501 114.39211319835513 L 1562.039794080247 114.4758693799728 L 1561.860079991541 114.55881731633835 L 1561.6785400101505 114.64094871272725 L 1561.495192289923 114.72225535606832 L 1561.310055165477 114.80272911576495 L 1561.1231471503716 114.88236194450825 L 1560.9344869352517 114.9611458790817 L 1560.7440933859823 115.03907304115751 L 1560.551985541759 115.1161356380844 L 1560.3581826132067 115.1923259636669 L 1560.1627039804564 115.26763639893595 L 1559.9655691912087 115.34205941291076 L 1559.766797958778 115.41558756335198 L 1559.5664101601221 115.48821349750581 L 1559.3644258338538 115.55992995283937 L 1559.1608651782374 115.6307297577669 L 1558.955748549169 115.70060583236689 L 1558.7490964581402 115.76955118909012 L 1558.5409295701884 115.83755893345837 L 1558.3312687018283 115.90462226475387 L 1558.1201348189727 115.97073447669939 L 1557.9075490348334 116.03588895812881 L 1557.693532607812 116.1000791936483 L 1557.4781069393725 116.16329876428779 L 1557.2612935719026 116.22554134814291 L 1557.0431141865581 116.28680072100713 L 1556.823590601096 116.3470707569942 L 1556.6027447676915 116.40634542915078 L 1556.3805987707444 116.46461881005904 L 1556.157174824669 116.52188507242943 L 1555.9324952716736 116.57813848968344 L 1555.7065825795264 116.63337343652624 L 1555.4794593393085 116.68758438950917 L 1555.2511482631544 116.7407659275821 L 1555.0216721819816 116.79291273263554 L 1554.791054043207 116.84401959003245 L 1554.5593169084523 116.89408138912967 L 1554.3264839512376 116.943093123789 L 1554.092578454665 116.99104989287784 L 1553.857623809089 117.03794690075922 L 1553.6216435097786 117.08377945777146 L 1553.3846611545666 117.12854298069702 L 1553.1467004414915 117.17223299322094 L 1552.907785166426 117.21484512637836 L 1552.6679392206986 117.25637511899149 L 1552.4271865887042 117.29681881809564 L 1552.1855513455052 117.33617217935465 L 1551.9430576544246 117.37443126746516 L 1551.6997297646294 117.41159225655024 L 1551.455592008706 117.44765143054195 L 1551.210668800226 117.48260518355296 L 1550.9649846313066 117.51645002023707 L 1550.71856407016 117.54918255613885 L 1550.4714317586368 117.58079951803195 L 1550.2236124097622 117.61129774424654 L 1549.9751308052646 117.64067418498543 L 1549.7260117930975 117.66892590262901 L 1549.4762802849543 117.69605007202905 L 1549.2259612537778 117.72204398079124 L 1548.9750797312627 117.74690502954634 L 1548.7236608053518 117.77063073221021 L 1548.4717296177287 117.79321871623235 L 1548.2193113613016 117.81466672283318 L 1547.9664312776863 117.8349726072299 L 1547.71311465468 117.85413433885101 L 1547.4593868237343 117.87215000153931 L 1547.2052731574208 117.88901779374355 L 1546.9507990668942 117.90473602869855 L 1546.6959899993517 117.91930313459393 L 1546.4408714354872 117.93271765473123 L 1546.1854688869453 117.94497824766962 L 1545.9298078937672 117.95608368736002 L 1545.67391402184 117.96603286326771 L 1545.4178128603369 117.9748247804834 L 1545.1615300191609 117.9824585598227 L 1544.9050911263826 117.98893343791403 L 1544.6485218256776 117.99424876727495 L 1544.3918477737623 117.99840401637701 L 1544.1350946378275 118.00139876969871 L 1543.8782880929734 118.00323272776726 L 1543.6214538196402 118.00390570718832 L 1543.364617501041 118.00341764066458 L 1543.1078048205943 118.00176857700224 L 1542.8510414593534 117.99895868110629 L 1542.5943530934408 117.994988233964 L 1542.3377653914793 117.98985763261678 L 1542.081304012025 117.98356739012044 L 1541.8249946010023 117.97611813549406 L 1541.5688627891386 117.96751061365684 L 1541.3129341894019 117.95774568535381 L 1541.0572343944384 117.94682432706966 L 1540.801788974015 117.93474763093113 L 1540.5466234724606 117.92151680459776 L 1540.291763406113 117.90713317114114 L 1540.0372342607661 117.89159816891267 L 1539.7830614891225 117.87491335139958 L 1539.5292705082475 117.85708038706976 L 1539.2758866970278 117.83810105920475 L 1539.0229353936334 117.81797726572154 L 1538.7704418929836 117.79671101898269 L 1538.5184314442183 117.77430444559518 L 1538.2669292481723 117.75075978619765 L 1538.0159604548558 117.72607939523644 L 1537.7655501609383 117.70026574073006 L 1537.5157234072415 117.67332140402246 L 1537.2665051762317 117.64524907952486 L 1537.017920389525 117.61605157444632 L 1536.7699939053925 117.58573180851299 L 1536.5227505162761 117.55429281367623 L 1536.2762149463088 117.52173773380929 L 1536.030411848842 117.48806982439307 L 1535.7853658039808 117.45329245219042 L 1535.5411013161252 117.4174090949096 L 1535.2976428115207 117.38042334085642 L 1535.0550146358146 117.34233888857548 L 1534.8132410516225 117.30315954648026 L 1534.5723462361016 117.26288923247232 L 1534.332354278532 117.2215319735495 L 1534.09328917791 117.17909190540324 L 1533.8551748405464 117.13557327200499 L 1533.6180350776763 117.0909804251818 L 1533.3818936030787 117.04531782418121 L 1533.146774030704 116.99859003522528 L 1532.9126998723132 116.95080173105393 L 1532.6796945351277 116.90195769045778 L 1532.447781319487 116.85206279780019 L 1532.2169834165188 116.80112204252883 L 1531.9873239058218 116.7491405186768 L 1531.7588257531552 116.69612342435313 L 1531.531511808144 116.64207606122312 L 1531.3054048019933 116.587003833978 L 1531.0805273452152 116.53091224979462 L 1530.856901925368 116.47380691778466 L 1530.6345509048076 116.41569354843372 L 1530.4134965184503 116.35657795303031 L 1530.193760871551 116.29646604308472 L 1529.9753659374908 116.23536382973785 L 1529.7583335555817 116.1732774231601 L 1529.5426854288803 116.1102130319404 L 1529.3284431220202 116.04617696246532 L 1529.1156280590533 115.98117561828846 L 1528.9042615213084 115.91521549949003 L 1528.6943646452635 115.84830320202698 L 1528.4859584204307 115.78044541707327 L 1528.2790636872596 115.71164893035086 L 1528.0737011350504 115.64192062145109 L 1527.8698912998877 115.57126746314675 L 1527.667654562585 115.4996965206948 L 1527.4670111466473 115.42721495112981 L 1527.2679811162493 115.35383000254836 L 1527.0705843742278 115.27954901338416 L 1526.874840660093 115.20437941167421 L 1526.6807695480527 115.12832871431604 L 1526.488390445057 115.05140452631602 L 1526.297722588855 114.97361454002885 L 1526.1087850460742 114.89496653438832 L 1525.9215967103112 114.81546837412947 L 1525.7361763002434 114.73512800900205 L 1525.5525423577574 114.65395347297566 L 1525.3707132460945 114.57195288343623 L 1525.1907071480143 114.48913444037439 L 1525.0125420639768 114.40550642556543 L 1524.8362358103416 114.32107720174115 L 1524.6618060175872 114.23585521175356 L 1524.4892701285476 114.14984897773064 L 1524.318645396668 114.06306710022413 L 1524.1499488842792 113.97551825734946 L 1523.9831974608921 113.88721120391797 L 1523.81840780151 113.79815477056141 L 1523.6555963849614 113.70835786284889 L 1523.4947794922523 113.61782946039635 L 1523.335973204938 113.5265786159686 L 1523.179193403515 113.43461445457406 L 1523.0244557658327 113.3419461725522 L 1522.8717757655259 113.24858303665403 L 1522.7211686704673 113.15453438311532 L 1522.5726495412412 113.05980961672304 L 1522.4262332296364 112.96441820987492 L 1522.2819343771623 112.86836970163213 L 1522.1397674135837 112.77167369676546 L 1521.9997465554789 112.67433986479483 L 1521.8618858048164 112.57637793902231 L 1521.726198947557 112.47779771555884 L 1521.5926995522727 112.37860905234463 L 1521.4614009687925 112.27882186816333 L 1521.3323163268649 112.17844614165021 L 1521.2054585348465 112.07749191029428 L 1521.080840278411 111.97596926943456 L 1520.95847401928 111.8738883712505 L 1520.8383719939775 111.77125942374687 L 1520.720546212606 111.66809268973289 L 1520.6050084576455 111.564398485796 L 1520.491770282775 111.46018718127017 L 1520.3808430117178 111.35546919719903 L 1520.2722377371085 111.2502550052937 L 1520.1659653193842 111.14455512688569 L 1520.0620363856979 111.03838013187479 L 1519.9604613288566 110.931740637672 L 1519.861250306281 110.82464730813786 L 1519.764413238991 110.7171108525161 L 1519.6699598106125 110.60914202436265 L 1519.5778994664095 110.5007516204704 L 1519.48824141234 110.39195047978936 L 1519.4009946141343 110.28274948234294 L 1519.3161677964 110.1731595481399 L 1519.2337694417479 110.06319163608234 L 1519.1538077899447 109.95285674286981 L 1519.0762908370891 109.84216590189969 L 1519.0012263348117 109.73113018216384 L 1518.9286217895005 109.6197606871417 L 1518.858484461549 109.50806855368997 L 1518.790821364632 109.3960649509289 L 1518.7256392650024 109.28376107912547 L 1518.6629446808163 109.17116816857322 L 1518.6027438814795 109.05829747846943 L 1518.545042887022 108.94516029578901 L 1518.489847467495 108.83176793415598 L 1518.4371631423946 108.71813173271198 L 1518.3869951801091 108.60426305498248 L 1518.3393485973934 108.49017328774036 L 1518.2942281588657 108.37587383986727 L 1518.2516383765324 108.26137614121274 L 1518.2115835093362 108.14669164145123 L 1518.1740675627304 108.03183180893713 L 1518.1390942882786 107.91680812955799 L 1518.106667183279 107.8016321055859 L 1518.0767894904147 107.68631525452726 L 1518.0494641974308 107.57086910797109 L 1518.0246940368331 107.45530521043584 L 1518.0024814856176 107.33963511821496 L 1517.9828287650205 107.22387039822128 L 1517.9657378402978 107.10802262683032 L 1517.9512104205276 106.9921033887227 L 1517.9392479584396 106.87612427572562 L 1517.9298516502702 106.76009688565372 L 1517.9230224356425 106.64403282114934 L 1517.9187609974722 106.5279436885222 L 1517.9170677618995 106.41184109658882 L 1517.9179428982463 106.29573665551163 L 1517.9213863190002 106.17964197563802 L 1517.9273976798218 106.0635686663392 L 1517.9359763795799 105.94752833484938 L 1517.9471215604117 105.83153258510501 L 1517.9608321078085 105.7155930165844 L 1517.977106650727 105.59972122314781 L 1517.9959435617263 105.48392879187799 L 1518.0173409571314 105.36822730192158 L 1518.04129669722 105.25262832333117 L 1518.0678083864384 105.13714341590828 L 1518.09687337364 105.02178412804743 L 1518.1284887523498 104.90656199558124 L 1518.1626513610563 104.79148854062697 L 1518.1993577835276 104.67657527043421 L 1518.2386043491517 104.56183367623422 L 1518.2803871333047 104.4472752320908 L 1518.3247019577432 104.3329113937529 L 1518.3715443910216 104.21875359750905 L 1518.4209097489354 104.10481325904375 L 1518.4727930949903 103.99110177229588 L 1518.5271892408946 103.87763050831938 L 1518.5840927470795 103.76441081414606 L 1518.6434979232413 103.65145401165103 L 1518.705398828912 103.53877139642036 L 1518.7697892740528 103.4263742366217 L 1518.8366628196727 103.31427377187735 L 1518.906012778473 103.20248121214038 L 1518.9778322155155 103.09100773657362 L 1519.0521139489165 102.97986449243169 L 1519.1288505505643 102.86906259394641 L 1519.2080343468626 102.7586131212153 L 1519.2896574194983 102.64852711909359 L 1519.3737116062316 102.53881559608973 L 1519.4601885017144 102.42948952326464 L 1519.5490794583286 102.32055983313444 L 1519.640375587053 102.21203741857742 L 1519.7340677583509 102.10393313174457 L 1519.830146603083 101.99625778297451 L 1519.928602513445 101.88902213971235 L 1520.0294256439279 101.7822369254331 L 1520.1326059123026 101.67591281856917 L 1520.2381330006283 101.57006045144266 L 1520.345996356284 101.46469040920205 L 1520.4561851930243 101.35981322876378 L 1520.5686884920572 101.25543939775848 L 1520.6834950031464 101.15157935348229 L 1520.8005932457365 101.04824348185306 L 1520.919971510101 100.94544211637188 L 1521.041617858513 100.8431855370896 L 1521.1655201264389 100.74148396957892 L 1521.2916659237549 100.64034758391189 L 1521.4200426359869 100.53978649364277 L 1521.5506374255701 100.43981075479677 L 1521.683437233135 100.34043036486447 L 1521.818428778811 100.24165526180207 L 1521.9555985635561 100.14349532303754 L 1522.0949328705065 100.04596036448298 L 1522.2364177663471 99.94906013955293 L 1522.3800391027066 99.85280433818917 L 1522.5257825175709 99.7572025858916 L 1522.67363343672 99.66226444275578 L 1522.823577075185 99.56799940251693 L 1522.9755984387273 99.47441689160051 L 1523.1296823253372 99.38152626817963 L 1523.2858133267544 99.2893368212392 L 1523.4439758300086 99.19785776964713 L 1523.6041540189817 99.10709826123231 L 1523.7663318759878 99.01706737186997 L 1523.930493183377 98.92777410457401 L 1524.0966215251547 98.83922738859675 L 1524.2647002886256 98.75143607853602 L 1524.4347126660532 98.66440895344962 L 1524.6066416563415 98.57815471597759 L 1524.7804700667348 98.49268199147176 L 1524.9561805145368 98.40799932713338 L 1525.1337554288493 98.32411519115828 L 1525.3131770523287 98.24103797189021 L 1525.4944274429622 98.15877597698181 L 1525.677488475862 98.07733743256405 L 1525.862341845077 97.9967304824235 L 1526.0489690654244 97.916963187188 L 1526.2373514743379 97.83804352352061 L 1526.4274702337334 97.7599793833219 L 1526.6193063318935 97.68277857294089 L 1526.8128405853683 97.60644881239423 L 1527.0080536408936 97.5309977345944 L 1527.2049259773264 97.45643288458629 L 1527.4034379075974 97.38276171879278 L 1527.603569580679 97.30999160426903 L 1527.8053009835705 97.23812981796587 L 1528.0086119432997 97.16718354600205 L 1528.21348212894 97.09715988294563 L 1528.4198910536438 97.02806583110457 L 1528.6278180766906 96.95990829982648 L 1528.8372424055513 96.89269410480767 L 1529.0481430979673 96.82642996741167 L 1529.2604990640455 96.76112251399695 L 1529.474289068366 96.69677827525447 L 1529.6894917321065 96.63340368555447 L 1529.9060855351802 96.5710050823031 L 1530.124048818387 96.50958870530869 L 1530.3433597855808 96.44916069615776 L 1530.563996505847 96.38972709760088 L 1530.7859369156974 96.33129385294836 L 1531.0091588212763 96.27386680547599 L 1531.2336399005792 96.21745169784064 L 1531.459357705685 96.16205417150607 L 1531.6862896650016 96.10767976617876 L 1531.9144130855218 96.05433391925392 L 1532.1437051550938 96.0020219652718 L 1532.3741429447018 95.95074913538417 L 1532.6057034107587 95.90052055683134 L 1532.838363397411 95.85134125242926 L 1533.072099638854 95.80321614006743 L 1533.3068887616582 95.75615003221696 L 1533.5427072871069 95.71014763544943 L 1533.7795316335444 95.66521354996615 L 1534.0173381187328 95.62135226913826 L 1534.2561029622225 95.57856817905726 L 1534.4958022877274 95.53686555809652 L 1534.7364121255152 95.49624857648338 L 1534.9779084148026 95.45672129588218 L 1535.2202670061617 95.418287668988 L 1535.4634636639355 95.38095153913152 L 1535.7074740686608 95.34471663989461 L 1535.9522738195003 95.309586594737 L 1536.1978384366832 95.27556491663394 L 1536.4441433639524 95.24265500772486 L 1536.6911639710204 95.21086015897328 L 1536.9388755560321 95.18018354983751 L 1537.1872533480357 95.15062824795295 L 1537.4362725094588 95.12219720882514 L 1537.685908138593 95.09489327553432 L 1537.9361352720832 95.06871917845103 L 1538.1869288874245 95.0436775349632 L 1538.4382639054647 95.0197708492143 L 1538.6901151929112 94.99700151185297 L 1538.9424575648452 94.97537179979399 L 1539.1952657872398 94.95488387599053 L 1539.4485145794833 94.9355397892179 L 1539.7021786169078 94.91734147386866 L 1539.9562325333206 94.90029074975918 L 1540.210650923542 94.88438932194765 L 1540.465408345945 94.86963878056362 L 1540.7204793249994 94.85604060064892 L 1540.97583835382 94.84359614201021 L 1541.231459896717 94.83230664908301 L 1541.4873183917487 94.82217325080717 L 1541.7433882532791 94.81319696051409 L 1541.9996438745352 94.80537867582531 L 1542.2560596301687 94.79871917856279 L 1542.5126098788176 94.79321913467072 L 1542.7692689656706 94.78887909414888 L 1543.0260112250332 94.78569949099773 L 1543.2828109828934 94.7836806431749 L 1543.539642559489 94.78282275256353 L 1543.796480271877 94.78312590495196 L 1544.0532984364997 94.78459007002517 L 1544.310071371755 94.78721510136792 L 1544.566773400563 94.79100073647922 L 1544.8233788529349 94.79594659679874 L 1545.0798620685393 94.80205218774456 L 1545.3361973992687 94.80931689876269 L 1545.5923592118031 94.81774000338805 L 1545.848321890175 94.82732065931722 L 1546.1040598383297 94.8380579084926 L 1546.3595474826857 94.8499506771982 L 1546.6147592746913 94.86299777616705 L 1546.86966969338 94.87719790070015 L 1547.1242532479225 94.89254963079688 L 1547.3784844801755 94.909051431297 L 1547.6323379672274 94.92670165203424 L 1547.8857883239411 94.94549852800121 L 1548.1388102054925 94.965440179526 L 1548.3913783099038 94.98652461246006 L 1548.6434673805752 95.00874971837766 L 1548.8950522088098 95.03211327478675 L 1549.1461076363346 95.05661294535115 L 1549.3966085578156 95.08224628012421 L 1549.6465299233696 95.10901071579383 L 1549.8958467410685 95.13690357593875 L 1550.144534079438 95.16592207129617 L 1550.3925670699518 95.19606330004076 L 1550.6399209095173 95.22732424807475 L 1550.8865708629567 95.25970178932941 L 1551.1324922654803 95.29319268607757 L 1551.3776605251528 95.32779358925748 L 1551.6220511253525 95.36350103880766 L 1551.865639627223 95.40031146401289 L 1552.108401672117 95.43822118386134 L 1552.3503129840324 95.47722640741262 L 1552.5913493720398 95.51732323417686 L 1552.831486732701 95.55850765450482 L 1553.0707010524802 95.60077554998877 L 1553.3089684101446 95.6441226938744 L 1553.5462649791573 95.68854475148342 L 1553.7825670300588 95.73403728064713 L 1554.017850932841 95.78059573215047 L 1554.2520931593099 95.82821545018713 L 1554.4852702854378 95.87689167282498 L 1554.7173589937065 95.9266195324823 L 1554.9483360754386 95.9773940564146 L 1555.1781784331185 96.02921016721176 L 1555.4068630827019 96.08206268330589 L 1555.634367155914 96.13594631948945 L 1555.860667902538 96.1908556874437 L 1556.0857426926868 96.24678529627761 L 1556.3095690190696 96.30372955307689 L 1556.5321244992401 96.36168276346334 L 1556.7533868778357 96.4206391321642 L 1556.973334028803 96.48059276359173 L 1557.1919439576104 96.54153766243275 L 1557.4091948034466 96.60346773424817 L 1557.6250648414086 96.6663767860824 L 1557.8395324846722 96.7302585270827 L 1558.0525762866519 96.79510656912818 L 1558.264174943145 96.86091442746871 L 1558.4743072944623 96.92767552137326 L 1558.6829523275437 96.9953831747881 L 1558.8900891780597 97.0640306170043 L 1559.0956971324981 97.13361098333485 L 1559.2997556302344 97.20411731580108 L 1559.502244265589 97.27554256382854 L 1559.7031427898676 97.3478795849519 L 1559.9024311133844 97.42112114552937 L 1560.1000893074738 97.49525992146589 L 1560.2960976064805 97.57028849894567 L 1560.4904364097385 97.6461993751735 L 1560.683086283529 97.72298495912497 L 1560.8740279630256 97.80063757230572 L 1561.063242354219 97.87914944951912 L 1561.250710535828 97.95851273964287 L 1561.4364137611906 98.03871950641411 L 1561.620333460139 98.11976172922299 L 1561.8024512408567 98.20163130391475 L 1561.9827488917172 98.28432004360019 L 1562.1612083831058 98.36781967947421 L 1562.3378118692222 98.45212186164281 L 1562.5125416898645 98.53721815995803 L 1562.6853803721967 98.62310006486096 L 1562.8563106324946 98.70975898823266 L 1563.0253153778742 98.79718626425303 L 1563.1923777080021 98.88537315026731 L 1563.3574809167847 98.97431082766039 L 1563.5206084940382 99.06399040273865 L 1563.681744127141 99.1544029076193 L 1563.8408717026643 99.24553930112721 L 1563.997975307983 99.33739046969897 L 1564.1530392328675 99.42994722829427 L 1564.3060479710546 99.52320032131436 L 1564.4569862217977 99.61714042352769 L 1564.6058388913978 99.71175814100229 L 1564.752591094712 99.80704401204527 L 1564.897228156642 99.90298850814892 L 1565.0397356136023 99.9995820349436 L 1565.180099214966 100.0968149331571 L 1565.31830492449 100.19467747958066 L 1565.4543389217183 100.29315988804117 L 1565.5881876033648 100.39225231037986 L 1565.7198375846724 100.49194483743705 L 1565.8492757007532 100.59222750004314 L 1565.9764890079032 100.69309027001542 L 1566.1014647848979 100.79452306116096 L 1566.2241905342635 100.89651573028516 L 1566.3446539835275 100.99905807820609 L 1566.462843086445 101.10213985077445 L 1566.5787460242047 101.20575073989883 L 1566.6923512066094 101.30988038457672 L 1566.803647273235 101.41451837193037 L 1566.912623094568 101.51965423824828 L 1567.019267773117 101.6252774700314 L 1567.1235706445032 101.7313775050446 L 1567.225521278526 101.8379437333728 L 1567.3251094802072 101.94496549848195 L 1567.4223252908096 102.05243209828473 L 1567.517158988833 102.1603327862107 L 1567.6096010909869 102.268656772281 L 1567.6996423531377 102.37739322418732 L 1567.7872737712346 102.48653126837503 L 1567.872486582209 102.59605999113069 L 1567.9552722648502 102.70596843967328 L 1568.0356225406592 102.81624562324957 L 1568.1135293746756 102.92688051423308 L 1568.1889849762806 103.03786204922689 L 1568.261981799977 103.14917913017 L 1568.3325125461436 103.26082062544708 L 1568.400570161764 103.37277537100164 L 1568.4661478411338 103.48503217145242 L 1568.5292390265395 103.5975798012129 L 1568.5898374089152 103.71040700561393 L 1568.647936928473 103.82350250202907 L 1568.7035317753096 103.93685498100292 L 1568.7566163899864 104.05045310738205 L 1568.8071854640864 104.1642855214485 L 1568.8552339407443 104.2783408400557 L 1568.9007570151523 104.39260765776685 L 1568.9437501350412 104.5070745479954 L 1568.9842090011343 104.62173006414771 L 1569.0221295675794 104.73656274076771 L 1569.057508042351 104.85156109468343 L 1569.090340887631 104.96671362615533 L 1569.120624820163 105.08200882002619 L 1569.148356811578 105.19743514687273 L 1569.1735340887003 105.31298106415845 L 1569.1961541338235 105.42863501738789 L 1569.2162146849616 105.54438544126212 L 1569.2337137360764 105.66022076083522 L 1569.248649537277 105.77612939267175 L 1569.2610205949964 105.8920997460051 L 1569.2708256721385 106.00812022389661 L 1569.278063788204 106.12417922439515 L 1569.2827342193875 106.2402651416974 L 1569.2848364986494 106.35636636730837 M 1569.284966795633 143.33604004452724 L 1569.2836826080443 143.4521437082836 L 1569.2798301736962 143.56823576177032 L 1569.273409877829 143.68430459587884 L 1569.2644223624666 143.80033860382244 L 1569.2528685263533 143.916326182297 L 1569.238749524863 144.0322557326414 L 1569.2220667698841 144.14811566199714 L 1569.2028219296783 144.26389438446785 L 1569.1810169287132 144.37958032227777 L 1569.1566539474713 144.49516190692955 L 1569.12973542223 144.610627580361 L 1569.1002640448194 144.72596579610106 L 1569.068242762353 144.8411650204242 L 1569.033674776932 144.95621373350403 L 1568.9965635453264 145.07110043056508 L 1568.9569127786283 145.18581362303343 L 1568.9147264418814 145.3003418396854 L 1568.870008753684 145.41467362779474 L 1568.822764185768 145.52879755427796 L 1568.7729974625506 145.6427022068375 L 1568.7207135606627 145.75637619510303 L 1568.665917708451 145.86980815177043 L 1568.6086153854549 145.98298673373856 L 1568.548812321859 146.09590062324355 L 1568.4865144979199 146.20853852899057 L 1568.421728143368 146.3208891872829 L 1568.3544597367847 146.43294136314827 L 1568.284716004955 146.54468385146254 L 1568.2125039221935 146.65610547806997 L 1568.1378307096484 146.76719510090078 L 1568.0607038345788 146.87794161108522 L 1567.981131009608 146.9883339340646 L 1567.899120191952 147.09836103069858 L 1567.8146795826244 147.2080118983692 L 1567.7278176256157 147.31727557208106 L 1567.638543007049 147.42614112555785 L 1567.5468646543122 147.53459767233497 L 1567.452791735164 147.64263436684806 L 1567.356333656818 147.75024040551776 L 1567.2575000650013 147.85740502782983 L 1567.156300842991 147.96411751741138 L 1567.0527461106249 148.07036720310236 L 1566.9468462232899 148.17614346002273 L 1566.8386117708865 148.28143571063495 L 1566.72805357677 148.38623342580172 L 1566.6151826966673 148.49052612583884 L 1566.5000104175724 148.59430338156324 L 1566.3825482566176 148.69755481533576 L 1566.2628079599208 148.80027010209915 L 1566.140801501412 148.9024389704103 L 1566.016541081635 149.0040512034675 L 1565.890039126529 149.10509664013213 L 1565.7613082861833 149.2055651759447 L 1565.6303614335752 149.30544676413544 L 1565.4972116632807 149.40473141662866 L 1565.3618722901656 149.50340920504192 L 1565.2243568480549 149.6014702616786 L 1565.0846790883777 149.6989047805147 L 1564.942852978794 149.7957030181796 L 1564.7988927017964 149.89185529493017 L 1564.6528126532926 149.98735199561887 L 1564.5046274411657 150.08218357065516 L 1564.3543518838135 150.17634053696065 L 1564.2020010086665 150.26981347891711 L 1564.0475900506851 150.36259304930826 L 1563.891134450837 150.45466997025437 L 1563.7326498545508 150.54603503414006 L 1563.572152110155 150.63667910453512 L 1563.4096572672897 150.72659311710802 L 1563.2451815753043 150.81576808053245 L 1563.0787414816305 150.90419507738633 L 1562.9103536301388 150.9918652650437 L 1562.7400348594747 151.0787698765589 L 1562.5678022013728 151.16490022154312 L 1562.3936728789556 151.25024768703366 L 1562.21766430501 151.3348037383551 L 1562.039794080247 151.4185599199728 L 1561.860079991541 151.50150785633835 L 1561.6785400101505 151.58363925272724 L 1561.495192289923 151.6649458960683 L 1561.310055165477 151.74541965576492 L 1561.1231471503716 151.82505248450823 L 1560.9344869352517 151.9038364190817 L 1560.7440933859823 151.9817635811575 L 1560.551985541759 152.0588261780844 L 1560.3581826132067 152.1350165036669 L 1560.1627039804564 152.21032693893594 L 1559.9655691912087 152.28474995291074 L 1559.766797958778 152.35827810335195 L 1559.5664101601221 152.4309040375058 L 1559.3644258338538 152.50262049283936 L 1559.1608651782374 152.5734202977669 L 1558.955748549169 152.64329637236688 L 1558.7490964581402 152.7122417290901 L 1558.5409295701884 152.78024947345835 L 1558.3312687018283 152.84731280475387 L 1558.1201348189727 152.91342501669936 L 1557.9075490348334 152.9785794981288 L 1557.693532607812 153.0427697336483 L 1557.4781069393725 153.1059893042878 L 1557.2612935719026 153.16823188814288 L 1557.0431141865581 153.2294912610071 L 1556.823590601096 153.2897612969942 L 1556.6027447676915 153.34903596915078 L 1556.3805987707444 153.40730935005902 L 1556.157174824669 153.4645756124294 L 1555.9324952716736 153.52082902968343 L 1555.7065825795264 153.57606397652623 L 1555.4794593393085 153.63027492950917 L 1555.2511482631544 153.6834564675821 L 1555.0216721819816 153.73560327263553 L 1554.791054043207 153.78671013003242 L 1554.5593169084523 153.83677192912964 L 1554.3264839512376 153.885783663789 L 1554.092578454665 153.9337404328778 L 1553.857623809089 153.9806374407592 L 1553.6216435097786 154.02646999777144 L 1553.3846611545666 154.071233520697 L 1553.1467004414915 154.11492353322092 L 1552.907785166426 154.15753566637835 L 1552.6679392206986 154.19906565899146 L 1552.4271865887042 154.23950935809563 L 1552.1855513455052 154.27886271935463 L 1551.9430576544246 154.31712180746513 L 1551.6997297646294 154.35428279655022 L 1551.455592008706 154.39034197054195 L 1551.210668800226 154.42529572355295 L 1550.9649846313066 154.45914056023707 L 1550.71856407016 154.49187309613882 L 1550.4714317586368 154.52349005803194 L 1550.2236124097622 154.55398828424654 L 1549.9751308052646 154.58336472498542 L 1549.7260117930975 154.61161644262899 L 1549.4762802849543 154.63874061202904 L 1549.2259612537778 154.66473452079123 L 1548.9750797312627 154.68959556954633 L 1548.7236608053518 154.7133212722102 L 1548.4717296177287 154.73590925623233 L 1548.2193113613016 154.75735726283315 L 1547.9664312776863 154.77766314722987 L 1547.71311465468 154.796824878851 L 1547.4593868237343 154.8148405415393 L 1547.2052731574208 154.83170833374353 L 1546.9507990668942 154.84742656869855 L 1546.6959899993517 154.86199367459392 L 1546.4408714354872 154.87540819473122 L 1546.1854688869453 154.8876687876696 L 1545.9298078937672 154.89877422736 L 1545.67391402184 154.9087234032677 L 1545.4178128603369 154.9175153204834 L 1545.1615300191609 154.92514909982268 L 1544.9050911263826 154.931623977914 L 1544.6485218256776 154.93693930727494 L 1544.3918477737623 154.94109455637698 L 1544.1350946378275 154.9440893096987 L 1543.8782880929734 154.94592326776723 L 1543.6214538196402 154.94659624718832 L 1543.364617501041 154.94610818066457 L 1543.1078048205943 154.94445911700222 L 1542.8510414593534 154.94164922110627 L 1542.5943530934408 154.937678773964 L 1542.3377653914793 154.93254817261675 L 1542.081304012025 154.92625793012044 L 1541.8249946010023 154.91880867549403 L 1541.5688627891386 154.91020115365683 L 1541.3129341894019 154.9004362253538 L 1541.0572343944384 154.88951486706966 L 1540.801788974015 154.87743817093113 L 1540.5466234724606 154.86420734459773 L 1540.291763406113 154.84982371114114 L 1540.0372342607661 154.83428870891265 L 1539.7830614891225 154.81760389139956 L 1539.5292705082475 154.79977092706974 L 1539.2758866970278 154.78079159920475 L 1539.0229353936334 154.7606678057215 L 1538.7704418929836 154.73940155898268 L 1538.5184314442183 154.71699498559516 L 1538.2669292481723 154.69345032619765 L 1538.0159604548558 154.6687699352364 L 1537.7655501609383 154.64295628073006 L 1537.5157234072415 154.61601194402246 L 1537.2665051762317 154.58793961952486 L 1537.017920389525 154.5587421144463 L 1536.7699939053925 154.52842234851298 L 1536.5227505162761 154.4969833536762 L 1536.2762149463088 154.4644282738093 L 1536.030411848842 154.43076036439305 L 1535.7853658039808 154.3959829921904 L 1535.5411013161252 154.36009963490957 L 1535.2976428115207 154.3231138808564 L 1535.0550146358146 154.28502942857546 L 1534.8132410516225 154.24585008648023 L 1534.5723462361016 154.2055797724723 L 1534.332354278532 154.16422251354948 L 1534.09328917791 154.12178244540323 L 1533.8551748405464 154.07826381200496 L 1533.6180350776763 154.03367096518178 L 1533.3818936030787 153.9880083641812 L 1533.146774030704 153.94128057522525 L 1532.9126998723132 153.89349227105393 L 1532.6796945351277 153.84464823045778 L 1532.447781319487 153.7947533378002 L 1532.2169834165188 153.74381258252882 L 1531.9873239058218 153.69183105867677 L 1531.7588257531552 153.63881396435312 L 1531.531511808144 153.5847666012231 L 1531.3054048019933 153.52969437397797 L 1531.0805273452152 153.4736027897946 L 1530.856901925368 153.41649745778463 L 1530.6345509048076 153.3583840884337 L 1530.4134965184503 153.2992684930303 L 1530.193760871551 153.2391565830847 L 1529.9753659374908 153.17805436973782 L 1529.7583335555817 153.1159679631601 L 1529.5426854288803 153.0529035719404 L 1529.3284431220202 152.98886750246533 L 1529.1156280590533 152.92386615828843 L 1528.9042615213084 152.85790603949002 L 1528.6943646452635 152.79099374202696 L 1528.4859584204307 152.72313595707325 L 1528.2790636872596 152.65433947035086 L 1528.0737011350504 152.58461116145108 L 1527.8698912998877 152.51395800314674 L 1527.667654562585 152.44238706069478 L 1527.4670111466473 152.3699054911298 L 1527.2679811162493 152.29652054254836 L 1527.0705843742278 152.22223955338416 L 1526.874840660093 152.14706995167418 L 1526.6807695480527 152.07101925431604 L 1526.488390445057 151.99409506631602 L 1526.297722588855 151.91630508002885 L 1526.1087850460742 151.83765707438832 L 1525.9215967103112 151.75815891412944 L 1525.7361763002434 151.67781854900204 L 1525.5525423577574 151.59664401297564 L 1525.3707132460945 151.5146434234362 L 1525.1907071480143 151.4318249803744 L 1525.0125420639768 151.34819696556542 L 1524.8362358103416 151.26376774174113 L 1524.6618060175872 151.17854575175355 L 1524.4892701285476 151.09253951773061 L 1524.318645396668 151.00575764022412 L 1524.1499488842792 150.91820879734945 L 1523.9831974608921 150.82990174391796 L 1523.81840780151 150.74084531056138 L 1523.6555963849614 150.65104840284886 L 1523.4947794922523 150.56052000039634 L 1523.335973204938 150.4692691559686 L 1523.179193403515 150.37730499457405 L 1523.0244557658327 150.28463671255219 L 1522.8717757655259 150.19127357665403 L 1522.7211686704673 150.0972249231153 L 1522.5726495412412 150.00250015672302 L 1522.4262332296364 149.9071087498749 L 1522.2819343771623 149.8110602416321 L 1522.1397674135837 149.71436423676545 L 1521.9997465554789 149.6170304047948 L 1521.8618858048164 149.51906847902228 L 1521.726198947557 149.42048825555884 L 1521.5926995522727 149.32129959234462 L 1521.4614009687925 149.2215124081633 L 1521.3323163268649 149.1211366816502 L 1521.2054585348465 149.02018245029427 L 1521.080840278411 148.91865980943453 L 1520.95847401928 148.81657891125047 L 1520.8383719939775 148.71394996374684 L 1520.720546212606 148.61078322973287 L 1520.6050084576455 148.50708902579598 L 1520.491770282775 148.40287772127016 L 1520.3808430117178 148.298159737199 L 1520.2722377371085 148.19294554529367 L 1520.1659653193842 148.08724566688568 L 1520.0620363856979 147.98107067187476 L 1519.9604613288566 147.87443117767197 L 1519.861250306281 147.76733784813783 L 1519.764413238991 147.65980139251607 L 1519.6699598106125 147.55183256436266 L 1519.5778994664095 147.44344216047037 L 1519.48824141234 147.33464101978933 L 1519.4009946141343 147.22544002234292 L 1519.3161677964 147.1158500881399 L 1519.2337694417479 147.00588217608234 L 1519.1538077899447 146.89554728286979 L 1519.0762908370891 146.78485644189968 L 1519.0012263348117 146.67382072216384 L 1518.9286217895005 146.56245122714168 L 1518.858484461549 146.45075909368995 L 1518.790821364632 146.3387554909289 L 1518.7256392650024 146.22645161912544 L 1518.6629446808163 146.11385870857322 L 1518.6027438814795 146.0009880184694 L 1518.545042887022 145.887850835789 L 1518.489847467495 145.77445847415595 L 1518.4371631423946 145.66082227271198 L 1518.3869951801091 145.54695359498248 L 1518.3393485973934 145.43286382774036 L 1518.2942281588657 145.31856437986727 L 1518.2516383765324 145.20406668121274 L 1518.2115835093362 145.0893821814512 L 1518.1740675627304 144.9745223489371 L 1518.1390942882786 144.85949866955798 L 1518.106667183279 144.7443226455859 L 1518.0767894904147 144.62900579452725 L 1518.0494641974308 144.51355964797108 L 1518.0246940368331 144.39799575043583 L 1518.0024814856176 144.28232565821494 L 1517.9828287650205 144.16656093822127 L 1517.9657378402978 144.05071316683032 L 1517.9512104205276 143.93479392872268 L 1517.9392479584396 143.8188148157256 L 1517.9298516502702 143.70278742565372 L 1517.9230224356425 143.58672336114932 L 1517.9187609974722 143.4706342285222 L 1517.9170677618995 143.3545316365888" stroke-miterlimit="10" stroke-width="2.990598758" stroke-dasharray=""/></g><g><g/><text fill="black" stroke="none" font-family="sans-serif" font-size="11pt" font-style="normal" font-weight="normal" text-decoration="normal" x="1512.2230560453438" y="173.82255561872725" text-anchor="start" dominant-baseline="alphabetic" xml:space="preserve">Database</text></g><path fill="none" stroke="none"/><g><path fill="white" stroke="black" paint-order="fill stroke markers" d=" M 1751.7269216772227 131.60233785872725 L 1859.9654120662774 131.60233785872725 L 1859.9654120662774 179.10008283872725 L 1751.7269216772227 179.10008283872725 L 1751.7269216772227 131.60233785872725 Z" stroke-miterlimit="10" stroke-width="2.814681184" stroke-dasharray=""/></g><g><g/><text fill="black" stroke="none" font-family="sans-serif" font-size="11pt" font-style="normal" font-weight="normal" text-decoration="normal" x="1770.8139784562227" y="161.50832543872727" text-anchor="start" dominant-baseline="alphabetic" xml:space="preserve">k8s cluster</text></g></g><g><path fill="white" stroke="black" paint-order="fill stroke markers" d=" M 1797.05028817175 187.89596153872725 L 1814.64204557175 187.89596153872725 L 1814.64204557175 893.3254332787269 L 1797.05028817175 893.3254332787269 L 1797.05028817175 187.89596153872725" stroke-miterlimit="10" stroke-width="1.4659797833333332" stroke-dasharray=""/><g><text fill="black" stroke="none" font-family="sans-serif" font-size="16pt" font-style="normal" font-weight="normal" text-decoration="normal" x="656.3771591186523" y="26.547561167272725" text-anchor="start" dominant-baseline="alphabetic" xml:space="preserve">User fails to deploy a job but is succeful on re attempt when other job completes</text></g><path fill="white" stroke="black" paint-order="fill stroke markers" d=" M 1561.1927583916329 214.28359763872726 L 2034.6669936918674 214.28359763872726 L 2050.4995753518674 230.11617929872725 L 2050.4995753518674 254.74463965872724 L 1561.1927583916329 254.74463965872724 L 1561.1927583916329 214.28359763872726 M 2034.6669936918674 214.28359763872726 L 2034.6669936918674 230.11617929872725 L 2050.4995753518674 230.11617929872725" stroke-miterlimit="10" stroke-width="1.4659797833333332" stroke-dasharray=""/><g><text fill="black" stroke="none" font-family="sans-serif" font-size="11pt" font-style="normal" font-weight="normal" text-decoration="normal" x="1585.8212187516328" y="238.91205799872728" text-anchor="start" dominant-baseline="alphabetic" xml:space="preserve">Job 2 is running and consuming all the free resources on the cluster</text></g><path fill="white" stroke="black" paint-order="fill stroke markers" d=" M 8.7958787 281.13227575872725 L 221.5043211535547 281.13227575872725 L 237.3369028135547 296.96485741872726 L 237.3369028135547 339.18507517872723 L 8.7958787 339.18507517872723 L 8.7958787 281.13227575872725 M 221.5043211535547 281.13227575872725 L 221.5043211535547 296.96485741872726 L 237.3369028135547 296.96485741872726" stroke-miterlimit="10" stroke-width="1.4659797833333332" stroke-dasharray=""/><g><text fill="black" stroke="none" font-family="sans-serif" font-size="11pt" font-style="normal" font-weight="normal" text-decoration="normal" x="33.42433906000001" y="305.7607361187272" text-anchor="start" dominant-baseline="alphabetic" xml:space="preserve">Wants to deploy a</text><text fill="black" stroke="none" font-family="sans-serif" font-size="11pt" font-style="normal" font-weight="normal" text-decoration="normal" x="33.42433906000001" y="323.3524935187272" text-anchor="start" dominant-baseline="alphabetic" xml:space="preserve"> job which needs 2 devices.</text></g><g><text fill="black" stroke="none" font-family="sans-serif" font-size="11pt" font-style="normal" font-weight="normal" text-decoration="normal" x="235.77208524259896" y="381.40529293872726" text-anchor="start" dominant-baseline="alphabetic" xml:space="preserve">vdk execute --start -n job1 -t 'Team A'</text></g><g><path fill="none" stroke="black" paint-order="fill stroke markers" d=" M 123.06639075677735 388.4419958987272 L 575.8692199036576 388.4419958987272" stroke-miterlimit="10" stroke-width="1.4659797833333332" stroke-dasharray=""/><g transform="translate(590.3531001629909,388.4419958987272) translate(-590.3531001629909,-388.4419958987272)"><path fill="black" stroke="none" paint-order="stroke fill markers" d=" M 575.6933023296576 381.11209698206056 L 590.3531001629909 388.4419958987272 L 575.6933023296576 395.77189481539386 Z"/></g></g><g><text fill="black" stroke="none" font-family="sans-serif" font-size="11pt" font-style="normal" font-weight="normal" text-decoration="normal" x="613.8087766963242" y="430.66221365872724" text-anchor="start" dominant-baseline="alphabetic" xml:space="preserve">tryProvisionResources(jobTeamId, amountOfResources)</text></g><g><path fill="none" stroke="black" paint-order="fill stroke markers" d=" M 590.3531001629909 437.6989166187272 L 989.4232273892696 437.6989166187272" stroke-miterlimit="10" stroke-width="1.4659797833333332" stroke-dasharray=""/><g transform="translate(1003.907107648603,437.6989166187272) translate(-1003.907107648603,-437.6989166187272)"><path fill="black" stroke="none" paint-order="stroke fill markers" d=" M 989.2473098152697 430.36901770206055 L 1003.907107648603 437.6989166187272 L 989.2473098152697 445.02881553539385 Z"/></g></g><g><text fill="black" stroke="none" font-family="sans-serif" font-size="11pt" font-style="normal" font-weight="normal" text-decoration="normal" x="1084.283839476368" y="479.9191343787272" text-anchor="start" dominant-baseline="alphabetic" xml:space="preserve">Checks to see if there is anywhere to put this job </text><text fill="black" stroke="none" font-family="sans-serif" font-size="11pt" font-style="normal" font-weight="normal" text-decoration="normal" x="1084.283839476368" y="497.5108917787272" text-anchor="start" dominant-baseline="alphabetic" xml:space="preserve">Checks to see does this users team have available budget</text></g><g><path fill="none" stroke="black" paint-order="fill stroke markers" d=" M 1003.907107648603 504.5475947387272 L 1529.1171207322996 504.5475947387272" stroke-miterlimit="10" stroke-width="1.4659797833333332" stroke-dasharray=""/><g transform="translate(1543.6010009916329,504.5475947387272) translate(-1543.6010009916329,-504.5475947387272)"><path fill="black" stroke="none" paint-order="stroke fill markers" d=" M 1528.9412031582995 497.21769582206053 L 1543.6010009916329 504.5475947387272 L 1528.9412031582995 511.87749365539383 Z"/></g></g><g><text fill="black" stroke="none" font-family="sans-serif" font-size="11pt" font-style="normal" font-weight="normal" text-decoration="normal" x="1176.3811524036141" y="546.767812498727" text-anchor="start" dominant-baseline="alphabetic" xml:space="preserve">No nodes with free resources </text><text fill="black" stroke="none" font-family="sans-serif" font-size="11pt" font-style="normal" font-weight="normal" text-decoration="normal" x="1176.3811524036141" y="564.359569898727" text-anchor="start" dominant-baseline="alphabetic" xml:space="preserve">Team has no budget</text></g><g><path fill="none" stroke="black" paint-order="fill stroke markers" d=" M 1543.6010009916329 571.3962728587271 L 1018.3909879079363 571.3962728587271" stroke-miterlimit="10" stroke-width="1.4659797833333332" stroke-dasharray=""/><g transform="translate(1003.907107648603,571.3962728587271) translate(-1003.907107648603,-571.3962728587271)"><path fill="black" stroke="none" paint-order="stroke fill markers" d=" M 1018.5669054819363 564.0663739420604 L 1003.907107648603 571.3962728587271 L 1018.5669054819363 578.7261717753938 Z"/></g></g><g><text fill="black" stroke="none" font-family="sans-serif" font-size="11pt" font-style="normal" font-weight="normal" text-decoration="normal" x="675.3119505244492" y="613.6164906187271" text-anchor="start" dominant-baseline="alphabetic" xml:space="preserve">Throws TeamHasNoBudgetException</text></g><g><path fill="none" stroke="black" paint-order="fill stroke markers" d=" M 1003.907107648603 620.6531935787272 L 604.8369804223242 620.6531935787272" stroke-miterlimit="10" stroke-width="1.4659797833333332" stroke-dasharray=""/><g transform="translate(590.3531001629909,620.6531935787272) translate(-590.3531001629909,-620.6531935787272)"><path fill="black" stroke="none" paint-order="stroke fill markers" d=" M 605.0128979963242 613.3232946620604 L 590.3531001629909 620.6531935787272 L 605.0128979963242 627.9830924953939 Z"/></g></g><g><text fill="black" stroke="none" font-family="sans-serif" font-size="11pt" font-style="normal" font-weight="normal" text-decoration="normal" x="613.8087766963242" y="662.8734113387271" text-anchor="start" dominant-baseline="alphabetic" xml:space="preserve">Catches the exception, doesn't deploy the job.</text></g><g><path fill="none" stroke="black" paint-order="fill stroke markers" d=" M 590.3531001629909 669.9101142987271 L 660.720129762991 669.9101142987271 L 660.720129762991 692.7793989187271 L 604.8369804223242 692.7793989187271" stroke-miterlimit="10" stroke-width="1.4659797833333332" stroke-dasharray=""/><g transform="translate(590.3531001629909,692.7793989187271) translate(-590.3531001629909,-692.7793989187271)"><path fill="black" stroke="none" paint-order="stroke fill markers" d=" M 605.0128979963242 685.4495000020604 L 590.3531001629909 692.7793989187271 L 605.0128979963242 700.1092978353938 Z"/></g></g><g><text fill="black" stroke="none" font-family="sans-serif" font-size="11pt" font-style="normal" font-weight="normal" text-decoration="normal" x="176.84583097013802" y="734.999616678727" text-anchor="start" dominant-baseline="alphabetic" xml:space="preserve">returns a 400 and an message explaining that </text><text fill="black" stroke="none" font-family="sans-serif" font-size="11pt" font-style="normal" font-weight="normal" text-decoration="normal" x="176.84583097013802" y="752.591374078727" text-anchor="start" dominant-baseline="alphabetic" xml:space="preserve">we can't run their job because their team is over budget</text></g><g><path fill="none" stroke="black" paint-order="fill stroke markers" d=" M 590.3531001629909 759.628077038727 L 137.55027101611068 759.628077038727" stroke-miterlimit="10" stroke-width="1.4659797833333332" stroke-dasharray=""/><g transform="translate(123.06639075677735,759.628077038727) translate(-123.06639075677735,-759.628077038727)"><path fill="black" stroke="none" paint-order="stroke fill markers" d=" M 137.7261885901107 752.2981781220603 L 123.06639075677735 759.628077038727 L 137.7261885901107 766.9579759553937 Z"/></g></g><path fill="none" stroke="black" paint-order="fill stroke markers" d=" M 8.7958787 800.3823150153937 L 2059.2041213 800.3823150153937 M 8.7958787 806.246234148727 L 2059.2041213 806.246234148727 M 8.7958787 812.1101532820603 L 2059.2041213 812.1101532820603" stroke-miterlimit="10" stroke-width="1.4659797833333332" stroke-dasharray=""/><path fill="white" stroke="black" paint-order="fill stroke markers" d=" M 874.5040164466407 786.0157131387269 L 1193.4959835533593 786.0157131387269 L 1193.4959835533593 826.476755158727 L 874.5040164466407 826.476755158727 Z" stroke-miterlimit="10" stroke-width="1.4659797833333332" stroke-dasharray=""/><g><text fill="black" stroke="none" font-family="sans-serif" font-size="11pt" font-style="normal" font-weight="normal" text-decoration="normal" x="899.1324768066406" y="810.644173498727" text-anchor="start" dominant-baseline="alphabetic" xml:space="preserve">Enough time passes for job 2 to complete</text></g><path fill="white" stroke="black" paint-order="fill stroke markers" d=" M 1745.355157683625 852.8643912587269 L 1850.504594399875 852.8643912587269 L 1866.337176059875 868.6969729187268 L 1866.337176059875 893.3254332787269 L 1745.355157683625 893.3254332787269 L 1745.355157683625 852.8643912587269 M 1850.504594399875 852.8643912587269 L 1850.504594399875 868.6969729187268 L 1866.337176059875 868.6969729187268" stroke-miterlimit="10" stroke-width="1.4659797833333332" stroke-dasharray=""/><g><text fill="black" stroke="none" font-family="sans-serif" font-size="11pt" font-style="normal" font-weight="normal" text-decoration="normal" x="1769.983618043625" y="877.492851618727" text-anchor="start" dominant-baseline="alphabetic" xml:space="preserve">Job 2 ends</text></g><g><text fill="black" stroke="none" font-family="sans-serif" font-size="11pt" font-style="normal" font-weight="normal" text-decoration="normal" x="1147.573533358679" y="935.5456510387269" text-anchor="start" dominant-baseline="alphabetic" xml:space="preserve">Job2 is finished</text></g><g><path fill="none" stroke="black" paint-order="fill stroke markers" d=" M 1805.84616687175 942.582353998727 L 604.8369804223242 942.582353998727" stroke-miterlimit="10" stroke-width="1.4659797833333332" stroke-dasharray=""/><g transform="translate(590.3531001629909,942.582353998727) translate(-590.3531001629909,-942.582353998727)"><path fill="black" stroke="none" paint-order="stroke fill markers" d=" M 605.0128979963242 935.2524550820602 L 590.3531001629909 942.582353998727 L 605.0128979963242 949.9122529153937 Z"/></g></g><g><text fill="black" stroke="none" font-family="sans-serif" font-size="11pt" font-style="normal" font-weight="normal" text-decoration="normal" x="720.9418714839219" y="984.8025717587269" text-anchor="start" dominant-baseline="alphabetic" xml:space="preserve">jobFinished(jobTeamId)</text></g><g><path fill="none" stroke="black" paint-order="fill stroke markers" d=" M 590.3531001629909 991.839274718727 L 989.4232273892696 991.839274718727" stroke-miterlimit="10" stroke-width="1.4659797833333332" stroke-dasharray=""/><g transform="translate(1003.907107648603,991.839274718727) translate(-1003.907107648603,-991.839274718727)"><path fill="black" stroke="none" paint-order="stroke fill markers" d=" M 989.2473098152697 984.5093758020603 L 1003.907107648603 991.839274718727 L 989.2473098152697 999.1691736353937 Z"/></g></g><g><text fill="black" stroke="none" font-family="sans-serif" font-size="11pt" font-style="normal" font-weight="normal" text-decoration="normal" x="1181.2773697498055" y="1034.0594924787267" text-anchor="start" dominant-baseline="alphabetic" xml:space="preserve">mark resoruces as released </text></g><g><path fill="none" stroke="black" paint-order="fill stroke markers" d=" M 1003.907107648603 1041.096195438727 L 1529.1171207322996 1041.096195438727" stroke-miterlimit="10" stroke-width="1.4659797833333332" stroke-dasharray=""/><g transform="translate(1543.6010009916329,1041.096195438727) translate(-1543.6010009916329,-1041.096195438727)"><path fill="black" stroke="none" paint-order="stroke fill markers" d=" M 1528.9412031582995 1033.7662965220602 L 1543.6010009916329 1041.096195438727 L 1528.9412031582995 1048.4260943553936 Z"/></g></g><g><text fill="black" stroke="none" font-family="sans-serif" font-size="11pt" font-style="normal" font-weight="normal" text-decoration="normal" x="251.20156674894662" y="1083.3164131987269" text-anchor="start" dominant-baseline="alphabetic" xml:space="preserve">vdk execute --start -n job -t team</text></g><g><path fill="none" stroke="black" paint-order="fill stroke markers" d=" M 123.06639075677735 1090.3531161587268 L 575.8692199036576 1090.3531161587268" stroke-miterlimit="10" stroke-width="1.4659797833333332" stroke-dasharray=""/><g transform="translate(590.3531001629909,1090.3531161587268) translate(-590.3531001629909,-1090.3531161587268)"><path fill="black" stroke="none" paint-order="stroke fill markers" d=" M 575.6933023296576 1083.0232172420601 L 590.3531001629909 1090.3531161587268 L 575.6933023296576 1097.6830150753935 Z"/></g></g><g><text fill="black" stroke="none" font-family="sans-serif" font-size="11pt" font-style="normal" font-weight="normal" text-decoration="normal" x="613.8087766963242" y="1132.5733339187268" text-anchor="start" dominant-baseline="alphabetic" xml:space="preserve">tryProvisionResources(jobTeamId, amountOfResources)</text></g><g><path fill="none" stroke="black" paint-order="fill stroke markers" d=" M 590.3531001629909 1139.6100368787268 L 989.4232273892696 1139.6100368787268" stroke-miterlimit="10" stroke-width="1.4659797833333332" stroke-dasharray=""/><g transform="translate(1003.907107648603,1139.6100368787268) translate(-1003.907107648603,-1139.6100368787268)"><path fill="black" stroke="none" paint-order="stroke fill markers" d=" M 989.2473098152697 1132.28013796206 L 1003.907107648603 1139.6100368787268 L 989.2473098152697 1146.9399357953935 Z"/></g></g><g><text fill="black" stroke="none" font-family="sans-serif" font-size="11pt" font-style="normal" font-weight="normal" text-decoration="normal" x="1084.283839476368" y="1181.8302546387267" text-anchor="start" dominant-baseline="alphabetic" xml:space="preserve">Checks to see if there is anywhere to put this job </text><text fill="black" stroke="none" font-family="sans-serif" font-size="11pt" font-style="normal" font-weight="normal" text-decoration="normal" x="1084.283839476368" y="1199.4220120387267" text-anchor="start" dominant-baseline="alphabetic" xml:space="preserve">Checks to see does this users team have available budget</text></g><g><path fill="none" stroke="black" paint-order="fill stroke markers" d=" M 1003.907107648603 1206.4587149987267 L 1529.1171207322996 1206.4587149987267" stroke-miterlimit="10" stroke-width="1.4659797833333332" stroke-dasharray=""/><g transform="translate(1543.6010009916329,1206.4587149987267) translate(-1543.6010009916329,-1206.4587149987267)"><path fill="black" stroke="none" paint-order="stroke fill markers" d=" M 1528.9412031582995 1199.12881608206 L 1543.6010009916329 1206.4587149987267 L 1528.9412031582995 1213.7886139153934 Z"/></g></g><g><text fill="black" stroke="none" font-family="sans-serif" font-size="11pt" font-style="normal" font-weight="normal" text-decoration="normal" x="1149.4699204089852" y="1248.6789327587267" text-anchor="start" dominant-baseline="alphabetic" xml:space="preserve">Machine 4 has space to run the job on</text><text fill="black" stroke="none" font-family="sans-serif" font-size="11pt" font-style="normal" font-weight="normal" text-decoration="normal" x="1149.4699204089852" y="1266.2706901587267" text-anchor="start" dominant-baseline="alphabetic" xml:space="preserve">Team has budget</text></g><g><path fill="none" stroke="black" paint-order="fill stroke markers" d=" M 1543.6010009916329 1273.3073931187266 L 1018.3909879079363 1273.3073931187266" stroke-miterlimit="10" stroke-width="1.4659797833333332" stroke-dasharray=""/><g transform="translate(1003.907107648603,1273.3073931187266) translate(-1003.907107648603,-1273.3073931187266)"><path fill="black" stroke="none" paint-order="stroke fill markers" d=" M 1018.5669054819363 1265.97749420206 L 1003.907107648603 1273.3073931187266 L 1018.5669054819363 1280.6372920353933 Z"/></g></g><g><text fill="black" stroke="none" font-family="sans-serif" font-size="11pt" font-style="normal" font-weight="normal" text-decoration="normal" x="647.9855116206406" y="1315.5276108787266" text-anchor="start" dominant-baseline="alphabetic" xml:space="preserve">List&lt;JobActions&gt;</text><text fill="black" stroke="none" font-family="sans-serif" font-size="11pt" font-style="normal" font-weight="normal" text-decoration="normal" x="647.9855116206406" y="1333.1193682787266" text-anchor="start" dominant-baseline="alphabetic" xml:space="preserve">[CreateJob{name=job1,machine=machine_4}]</text></g><g><path fill="none" stroke="black" paint-order="fill stroke markers" d=" M 1003.907107648603 1340.1560712387266 L 604.8369804223242 1340.1560712387266" stroke-miterlimit="10" stroke-width="1.4659797833333332" stroke-dasharray=""/><g transform="translate(590.3531001629909,1340.1560712387266) translate(-590.3531001629909,-1340.1560712387266)"><path fill="black" stroke="none" paint-order="stroke fill markers" d=" M 605.0128979963242 1332.8261723220598 L 590.3531001629909 1340.1560712387266 L 605.0128979963242 1347.4859701553933 Z"/></g></g><g><text fill="black" stroke="none" font-family="sans-serif" font-size="11pt" font-style="normal" font-weight="normal" text-decoration="normal" x="613.8087766963242" y="1382.3762889987265" text-anchor="start" dominant-baseline="alphabetic" xml:space="preserve">Creates a yaml file to run this job. </text><text fill="black" stroke="none" font-family="sans-serif" font-size="11pt" font-style="normal" font-weight="normal" text-decoration="normal" x="613.8087766963242" y="1399.9680463987265" text-anchor="start" dominant-baseline="alphabetic" xml:space="preserve">Explicitly set the node to run on to be machine4</text><text fill="black" stroke="none" font-family="sans-serif" font-size="11pt" font-style="normal" font-weight="normal" text-decoration="normal" x="613.8087766963242" y="1417.5598037987265" text-anchor="start" dominant-baseline="alphabetic" xml:space="preserve">Deploy it</text></g><g><path fill="none" stroke="black" paint-order="fill stroke markers" d=" M 590.3531001629909 1424.5965067587267 L 660.720129762991 1424.5965067587267 L 660.720129762991 1447.4657913787266 L 604.8369804223242 1447.4657913787266" stroke-miterlimit="10" stroke-width="1.4659797833333332" stroke-dasharray=""/><g transform="translate(590.3531001629909,1447.4657913787266) translate(-590.3531001629909,-1447.4657913787266)"><path fill="black" stroke="none" paint-order="stroke fill markers" d=" M 605.0128979963242 1440.13589246206 L 590.3531001629909 1447.4657913787266 L 605.0128979963242 1454.7956902953933 Z"/></g></g><g><text fill="black" stroke="none" font-family="sans-serif" font-size="11pt" font-style="normal" font-weight="normal" text-decoration="normal" x="1141.8720257903196" y="1489.6860091387266" text-anchor="start" dominant-baseline="alphabetic" xml:space="preserve">Deploy job to k8s</text></g><g><path fill="none" stroke="black" paint-order="fill stroke markers" d=" M 590.3531001629909 1496.7227120987266 L 1791.3622866124167 1496.7227120987266" stroke-miterlimit="10" stroke-width="1.4659797833333332" stroke-dasharray=""/><g transform="translate(1805.84616687175,1496.7227120987266) translate(-1805.84616687175,-1496.7227120987266)"><path fill="black" stroke="none" paint-order="stroke fill markers" d=" M 1791.1863690384166 1489.3928131820599 L 1805.84616687175 1496.7227120987266 L 1791.1863690384166 1504.0526110153933 Z"/></g></g></g><g/><g/><g/><g/><g/></g></svg>