<svg id="bb2fb1cf-c125-4746-a686-00a70526930b" data-name="09b97304-1e73-4fd6-8f1f-1a730810c417"
     xmlns="http://www.w3.org/2000/svg" xmlns:xlink="http://www.w3.org/1999/xlink" width="920" height="686"
     viewBox="350 50 380 520">
    <defs>
        <linearGradient id="a78a88dc-faa4-4fc6-9604-6be1d6c11646" x1="574.65" y1="100" x2="574.65" y2="-355.2"
                        gradientTransform="matrix(1, 0, 0, -1, 0, 176)" gradientUnits="userSpaceOnUse">
            <stop offset="0.13" stop-color="#81c6ed" stop-opacity="0"/>
            <stop offset="0.19" stop-color="#81c6ed" stop-opacity="0.1"/>
            <stop offset="0.32" stop-color="#81c6ed" stop-opacity="0.27"/>
            <stop offset="0.43" stop-color="#81c6ed" stop-opacity="0.4"/>
            <stop offset="0.53" stop-color="#81c6ed" stop-opacity="0.47"/>
            <stop offset="0.6" stop-color="#81c6ed" stop-opacity="0.5"/>
            <stop offset="0.65" stop-color="#81c6ed" stop-opacity="0.47"/>
            <stop offset="0.73" stop-color="#81c6ed" stop-opacity="0.4"/>
            <stop offset="0.82" stop-color="#81c6ed" stop-opacity="0.27"/>
            <stop offset="0.91" stop-color="#81c6ed" stop-opacity="0.1"/>
            <stop offset="0.96" stop-color="#81c6ed" stop-opacity="0"/>
        </linearGradient>
        <linearGradient id="a8e2473a-bc41-421a-8112-be7c37a4553b" x1="618.3" y1="-75.7" x2="618.3" y2="-354.1"
                        gradientTransform="matrix(1, 0, 0, -1, 0, 176)" gradientUnits="userSpaceOnUse">
            <stop offset="0.12" stop-color="#81c6ed" stop-opacity="0"/>
            <stop offset="0.23" stop-color="#81c6ed" stop-opacity="0.1"/>
            <stop offset="0.47" stop-color="#81c6ed" stop-opacity="0.27"/>
            <stop offset="0.68" stop-color="#81c6ed" stop-opacity="0.4"/>
            <stop offset="0.87" stop-color="#81c6ed" stop-opacity="0.47"/>
            <stop offset="1" stop-color="#81c6ed" stop-opacity="0.5"/>
        </linearGradient>
        <radialGradient id="b1d926c1-15c4-4542-9dbf-60cf1c55dc99" cx="35.81" cy="-281" r="221.9"
                        gradientTransform="translate(568.61 176) rotate(180)" gradientUnits="userSpaceOnUse">
            <stop offset="0.34" stop-color="#fafafa"/>
            <stop offset="0.4" stop-color="#fafafa" stop-opacity="0.97"/>
            <stop offset="0.49" stop-color="#fafafa" stop-opacity="0.9"/>
            <stop offset="0.59" stop-color="#fafafa" stop-opacity="0.79"/>
            <stop offset="0.69" stop-color="#fafafa" stop-opacity="0.62"/>
            <stop offset="0.81" stop-color="#fafafa" stop-opacity="0.41"/>
            <stop offset="0.93" stop-color="#fafafa" stop-opacity="0.16"/>
            <stop offset="1" stop-color="#fafafa" stop-opacity="0"/>
        </radialGradient>
        <linearGradient id="e1600d78-ccc5-4841-a24a-12cfab13da81" x1="166.53" y1="-345.3" x2="166.53" y2="-213.2"
                        gradientTransform="translate(568.61 176) rotate(180)" gradientUnits="userSpaceOnUse">
            <stop offset="0.28" stop-color="#22b9a5"/>
            <stop offset="0.84" stop-color="#02958a"/>
        </linearGradient>
        <linearGradient id="a485f572-4980-427c-9654-8094cf0dabb8" x1="404.58" y1="-331.9" x2="404.58" y2="-209.8"
                        gradientTransform="matrix(1, 0, 0, -1, 90.52, 176)"
                        xlink:href="#e1600d78-ccc5-4841-a24a-12cfab13da81"/>
        <linearGradient id="e41fbd7d-c912-4299-b71a-e1073dfff783" x1="-258.34" y1="-38.18" x2="-356.94" y2="-95.11"
                        gradientTransform="translate(150.95 165.71) rotate(173.09)" gradientUnits="userSpaceOnUse">
            <stop offset="0.05" stop-color="#cee6f7"/>
            <stop offset="0.17" stop-color="#c7e3f6"/>
            <stop offset="0.34" stop-color="#b5dcf4"/>
            <stop offset="0.54" stop-color="#97cff0"/>
            <stop offset="0.66" stop-color="#81c6ed"/>
        </linearGradient>
        <linearGradient id="b721a70f-534d-4b23-8748-835f10218f75" x1="-186.18" y1="-78.71" x2="-186.18" y2="-123.09"
                        gradientTransform="translate(150.95 165.71) rotate(173.09)" gradientUnits="userSpaceOnUse">
            <stop offset="0.28" stop-color="#22b9a5"/>
            <stop offset="0.55" stop-color="#1fb6a3"/>
            <stop offset="0.79" stop-color="#02958a"/>
        </linearGradient>
        <linearGradient id="b139383b-e80b-40ef-bc25-20a5199c5378" x1="-256.76" y1="-94.08" x2="-256.76" y2="-268.34"
                        gradientTransform="translate(150.95 165.71) rotate(173.09)" gradientUnits="userSpaceOnUse">
            <stop offset="0.48" stop-color="#cee6f7"/>
            <stop offset="0.58" stop-color="#c7e3f6"/>
            <stop offset="0.72" stop-color="#b5dcf4"/>
            <stop offset="0.89" stop-color="#97cff0"/>
            <stop offset="1" stop-color="#81c6ed"/>
        </linearGradient>
        <linearGradient id="a19fd80f-42e9-442e-be9c-3235cef0e8af" x1="-477.98" y1="-529.67" x2="-564.38" y2="-529.67"
                        gradientTransform="matrix(-0.97, 0.24, -0.24, -0.97, -139.13, -69.81)"
                        gradientUnits="userSpaceOnUse">
            <stop offset="0" stop-color="#4896d1"/>
            <stop offset="1" stop-color="#81c6ed"/>
        </linearGradient>
        <linearGradient id="a88e7098-bb26-42fc-a158-b1bfb318b284" x1="-327.14" y1="-46.17" x2="-235.75" y2="-46.17"
                        gradientTransform="translate(150.95 165.71) rotate(173.09)"
                        xlink:href="#e1600d78-ccc5-4841-a24a-12cfab13da81"/>
        <linearGradient id="a153c65f-4dc0-4108-a7f6-50db364352f0" x1="-292.97" y1="-150.38" x2="-242.34" y2="-99.75"
                        gradientTransform="translate(150.95 165.71) rotate(173.09)" gradientUnits="userSpaceOnUse">
            <stop offset="0" stop-color="#cee6f7"/>
            <stop offset="1" stop-color="#81c6ed"/>
        </linearGradient>
        <linearGradient id="a4e49d6c-2cf1-49d0-b636-024977e38ed2" x1="-602.27" y1="-523.24" x2="-538.08" y2="-523.24"
                        gradientTransform="matrix(-0.97, 0.24, -0.24, -0.97, -139.13, -69.81)"
                        xlink:href="#e1600d78-ccc5-4841-a24a-12cfab13da81"/>
    </defs>
    <title>success_01</title>
    <polygon points="912.8 76 457.5 531.2 236.5 531.2 690.5 77.2 912.8 76"
             fill="url(#a78a88dc-faa4-4fc6-9604-6be1d6c11646)"/>
    <polygon points="855.1 251.7 577.1 530.1 381.5 530.1 658.6 252.5 855.1 251.7"
             fill="url(#a8e2473a-bc41-421a-8112-be7c37a4553b)"/>
    <circle cx="532.8" cy="457" r="221.9" fill="url(#b1d926c1-15c4-4542-9dbf-60cf1c55dc99)"/>
    <circle cx="408.8" cy="182.3" r="16.1" fill="#4896d1"/>
    <rect x="399.29" y="113.5" width="4.5" height="65.3" transform="translate(-1.76 4.93) rotate(-0.7)" fill="#4896d1"/>
    <circle cx="401.1" cy="111.1" r="6.4" fill="#4896d1"/>
    <path d="M389.9,521.3c-13.7-90,13.6-130.5,14.8-132.1l13.3,9.3-6.6-4.6,6.7,4.6c-.2.4-24.7,37.6-12.1,120.5Z"
          fill="url(#e1600d78-ccc5-4841-a24a-12cfab13da81)"/>
    <path
        d="M512.5,507.9l-16.2-.8c2.1-44.8-3.2-72.3-8.1-87.4-5.2-16.2-11-22.1-11-22.1l.1.1,10.9-11.9C491.2,388.4,516.9,414.8,512.5,507.9Z"
        fill="url(#a485f572-4980-427c-9654-8094cf0dabb8)"/>
    <path d="M502.2,237.6l-1.6-68.8a45.13,45.13,0,0,0-45.2-42.7h0a45.09,45.09,0,0,0-44.5,39.6l-2,75Z"
          fill="url(#e41fbd7d-c912-4299-b71a-e1073dfff783)"/>
    <path
        d="M364.3,271.5c-23.5,0-52.1-4.9-70.4-25.3l12-10.8c28.4,31.5,93.7,16.1,94.4,16l3.8,15.7A186.28,186.28,0,0,1,364.3,271.5Z"
        fill="url(#b721a70f-534d-4b23-8748-835f10218f75)"/>
    <path d="M398.4,239.4l88.6-4.1,3.6,168.3L386,400.3a21.48,21.48,0,0,1-20.8-22.2v-.7l5.8-101Z"
          fill="url(#b139383b-e80b-40ef-bc25-20a5199c5378)"/>
    <path
        d="M514.3,236.9,487,235.3l-23.8,37.4-2.6,98.9a30.81,30.81,0,0,0,29.9,31.9h.1a33.65,33.65,0,0,0,34.7-32.6v-1.3l-.5-67.1C523.8,259.2,514.3,236.9,514.3,236.9Z"
        fill="url(#a19fd80f-42e9-442e-be9c-3235cef0e8af)"/>
    <line x1="366.1" y1="360.5" x2="525.2" y2="362.2" fill="none" stroke="#4896d1" stroke-miterlimit="10"
          stroke-width="5.69"/>
    <path
        d="M439.2,293.9l-.8,39.2a6.42,6.42,0,0,1-6.4,6.3l-38.7.4a6.4,6.4,0,0,1-6.5-6.4v-.3l1.2-38.6a6.39,6.39,0,0,1,6.3-6.2l38.2-1a6.4,6.4,0,0,1,6.6,6.3A.37.37,0,0,1,439.2,293.9Z"
        fill="#81c6ed"/>
    <circle cx="444.6" cy="176.5" r="25.6" fill="url(#a88e7098-bb26-42fc-a158-b1bfb318b284)"/>
    <path
        d="M307.39,249.3a18.26,18.26,0,0,0,1.21-6.5,18.5,18.5,0,0,0-.61-4.61l-.79-25.09-4.8,1.2a7.78,7.78,0,0,0-6,7.2l-.27,4a18.3,18.3,0,1,0,11.22,23.95S307.38,249.33,307.39,249.3Z"
        fill="#0065ab"/>
    <path d="M388.9,501.6a27.7,27.7,0,0,1,27.7,27.7h-70S359.1,501.6,388.9,501.6Z" fill="#0065ab"/>
    <path d="M504.9,501.6a27.7,27.7,0,0,0-27.7,27.7h60.2C537.3,529.3,534.6,501.6,504.9,501.6Z" fill="#0065ab"/>
    <line x1="477.1" y1="529.3" x2="537.3" y2="529.3" fill="none" stroke="#4896d1" stroke-miterlimit="10"
          stroke-width="5.69"/>
    <line x1="416.6" y1="529.3" x2="346.6" y2="529.3" fill="none" stroke="#4896d1" stroke-miterlimit="10"
          stroke-width="5.69"/>
    <circle cx="452.5" cy="175.4" r="5.5" fill="#fffcc0"/>
    <circle cx="432.3" cy="175.3" r="5.5" fill="#fffcc0"/>
    <polygon points="463.2 272.7 370.9 276.4 398.4 239.4 487 235.3 463.2 272.7"
             fill="url(#a153c65f-4dc0-4108-a7f6-50db364352f0)"/>
    <polyline points="429.9 298.5 407.4 327.8 398.4 316.4" fill="none" stroke="#cee6f7" stroke-linecap="round"
              stroke-linejoin="round" stroke-width="4.25"/>
    <path d="M445.3,212.4l24.6-10.3s4,10.9-4.9,16.1C454.2,224.6,445.3,212.4,445.3,212.4Z" fill="#fff"/>
    <path
        d="M398.4,239.4l172.5-26A34.22,34.22,0,0,1,601.1,224l10.5,11.3h46.8a34.3,34.3,0,0,1,25.1,11l24.3,26.3L522.4,272c-1.6-15.3-8.2-35.1-8.2-35.1Z"
        fill="#0065ab"/>
    <path
        d="M525.3,362a8.05,8.05,0,0,1-4.9-14.5c24.2-18.3,35.5-34.6,32.7-47.2-4.2-18.6-38-29.6-50.6-32.2a8.12,8.12,0,0,1,3.3-15.9,145.47,145.47,0,0,1,27.8,9.3c20.3,9.2,32.1,21.1,35.3,35.2,4.4,19.5-8.6,40.9-38.7,63.7A8.2,8.2,0,0,1,525.3,362Z"
        fill="url(#a4e49d6c-2cf1-49d0-b636-024977e38ed2)"/>
    <circle cx="525.3" cy="354" r="21.2" fill="#0065ab"/>
    <rect width="920" height="686" fill="none"/>
</svg>
