<?xml version="1.0" encoding="utf-8"?>
<!-- Generator: Adobe Illustrator 25.4.1, SVG Export Plug-In . SVG Version: 6.00 Build 0)  -->
<svg version="1.1" id="artwork" xmlns="http://www.w3.org/2000/svg" xmlns:xlink="http://www.w3.org/1999/xlink" x="0px" y="0px"
	 viewBox="0 0 526.7 160" style="enable-background:new 0 0 526.7 160;" xml:space="preserve">
<style type="text/css">
	.st0{fill:#717074;}
	.st1{fill:url(#SVGID_1_);}
	.st2{fill:#78BE43;}
	.st3{fill:#EC7700;}
	.st4{fill:#1ABFD3;}
	.st5{fill:#218FCF;}
	.st6{fill:#FFFFFF;}
</style>
<g>
	<path class="st0" d="M208.3,27.2l-18.2,41.2H185l-18.2-41.2h5.1l15.7,35.5l15.6-35.5H208.3z"/>
	<path class="st0" d="M219.3,31.7v13.6h22.4v4.4h-22.4V64h24.8v4.4h-29.6V27.2h29.6v4.4H219.3z"/>
	<path class="st0" d="M282.5,46.7c-1.1,1.9-2.7,3.5-4.6,4.6c-2,1.2-4.3,2-6.6,2.2l10.5,14.9h-5.3L266,53.7h-9.1v14.8h-4.7V27.2H269
		c2.7,0,5.3,0.5,7.7,1.7c2.2,1,4.1,2.7,5.5,4.7C284.7,37.6,284.8,42.6,282.5,46.7L282.5,46.7z M256.9,49.2h11.2
		c2.9,0.1,5.8-0.7,8.2-2.3c2-1.5,3.2-3.9,3.1-6.4c0.1-2.5-1.1-4.9-3.1-6.4c-2.4-1.7-5.3-2.5-8.2-2.3h-11.2V49.2z"/>
	<path class="st0" d="M288,62.6l3-3.7c1.8,1.8,3.8,3.3,6.1,4.4c2.3,1.1,4.8,1.6,7.4,1.6c1.8,0,3.6-0.3,5.2-1
		c1.3-0.6,2.5-1.5,3.3-2.6c0.7-1,1.1-2.3,1.1-3.6c0.1-1.9-0.9-3.8-2.6-4.8c-2.7-1.4-5.5-2.4-8.5-3c-2.5-0.6-5-1.4-7.4-2.4
		c-1.8-0.8-3.3-2-4.5-3.6c-1.1-1.7-1.7-3.7-1.6-5.7c0-2.1,0.6-4.2,1.8-5.9c1.3-1.8,3-3.3,5-4.2c2.2-1,4.6-1.6,7-1.5
		c2.7,0,5.4,0.5,7.9,1.5c2.4,1.1,4.6,2.5,6.6,4.3l-2.9,3.7c-1.7-1.6-3.6-2.9-5.6-3.9c-2-0.9-4.1-1.4-6.2-1.4c-1.6,0-3.1,0.3-4.5,1
		c-1.3,0.6-2.4,1.5-3.2,2.6c-0.7,1-1.1,2.3-1.1,3.5c-0.1,1.9,0.9,3.6,2.6,4.5c2.7,1.4,5.6,2.4,8.5,3c4.4,1,7.8,2.5,10,4.2
		c2.3,1.9,3.6,4.7,3.5,7.7c0,2.1-0.5,4.2-1.6,6.1c-1.2,1.9-2.9,3.4-5,4.3c-2.5,1.1-5.2,1.6-7.9,1.6C298.2,69.3,292.3,66.9,288,62.6z
		"/>
	<path class="st0" d="M353.9,59.1h-23l-4.1,9.4h-5.1l18.2-41.2h5.1l18.2,41.2h-5.1L353.9,59.1z M352,54.7L342.5,33l-9.6,21.7
		L352,54.7z"/>
	<path class="st0" d="M378.2,31.7h-13.9v-4.4h32.4v4.4h-13.9v36.8h-4.7V31.7z"/>
	<path class="st0" d="M403,27.2h4.7v41.2H403V27.2z"/>
	<path class="st0" d="M446.1,64v4.4H419V27.2h4.7V64H446.1z"/>
	<path class="st0" d="M457.1,31.7v13.6h22.4v4.4h-22.4V64H482v4.4h-29.6V27.2H482v4.4H457.1z"/>
	<path class="st0" d="M171.9,92.2h13.9c4-0.1,8,0.8,11.6,2.6c3.3,1.7,6,4.2,7.9,7.3c3.8,6.6,3.8,14.7,0,21.3
		c-1.9,3.1-4.6,5.7-7.9,7.4c-3.6,1.8-7.5,2.7-11.6,2.6h-13.9V92.2z M185.8,129.2c3.2,0.1,6.3-0.7,9.1-2.1c2.6-1.3,4.7-3.3,6.2-5.8
		c3-5.2,3-11.7,0-16.9c-1.5-2.5-3.7-4.5-6.2-5.8c-2.8-1.4-5.9-2.2-9.1-2.1h-9.2v32.7H185.8z"/>
	<path class="st0" d="M243.4,124.1h-23l-4.1,9.4h-5.1l18.2-41.2h5.1l18.2,41.2h-5.1L243.4,124.1z M241.5,119.7L231.9,98l-9.6,21.7
		L241.5,119.7z"/>
	<path class="st0" d="M267.7,96.7h-13.9v-4.4h32.4v4.4h-13.9v36.8h-4.7V96.7z"/>
	<path class="st0" d="M318.2,124.1h-23l-4.2,9.4h-5.1l18.2-41.2h5.1l18.2,41.2h-5.1L318.2,124.1z M316.2,119.7L306.7,98l-9.6,21.7
		L316.2,119.7z"/>
	<path class="st0" d="M353.4,92.2h4.7v22.8L379,92.2h6.2l-17.3,18.8l18.5,22.4h-6.1l-15.7-19.2l-6.5,6.8v12.4h-4.7V92.2z"/>
	<path class="st0" d="M395.4,92.2h4.7v41.2h-4.7V92.2z"/>
	<path class="st0" d="M424.7,96.7h-13.9v-4.4h32.4v4.4h-13.9v36.8h-4.7V96.7z"/>
</g>
<g>
	<path class="st0" d="M92.5,27.5C63.5,27.5,40,51,40,80c0,29,23.5,52.5,52.5,52.5c29,0,52.5-23.5,52.5-52.4
		C145,51,121.5,27.5,92.5,27.5C92.5,27.5,92.5,27.5,92.5,27.5z M92.5,123.4c-24,0-43.5-19.5-43.5-43.5c0-24,19.5-43.5,43.5-43.5
		S136,55.9,136,80c0,0,0,0,0,0C136,104,116.5,123.5,92.5,123.4z"/>

		<linearGradient id="SVGID_1_" gradientUnits="userSpaceOnUse" x1="61.7383" y1="50.2934" x2="123.0984" y2="111.6434" gradientTransform="matrix(1 0 0 -1 0 161)">
		<stop  offset="0" style="stop-color:#218FCF"/>
		<stop  offset="5.000000e-02" style="stop-color:#207FC0"/>
		<stop  offset="0.13" style="stop-color:#1F69AB"/>
		<stop  offset="0.23" style="stop-color:#1F589B"/>
		<stop  offset="0.35" style="stop-color:#1E4D90"/>
		<stop  offset="0.52" style="stop-color:#1E468A"/>
		<stop  offset="1" style="stop-color:#1E4488"/>
	</linearGradient>
	<circle class="st1" cx="92.5" cy="79.9" r="43.5"/>
	<rect x="110.7" y="60.2" class="st2" width="7.2" height="7.2"/>
	<rect x="101.9" y="60.2" class="st2" width="7.2" height="7.2"/>
	<rect x="101.8" y="51.3" class="st3" width="7.2" height="7.2"/>
	<rect x="101.9" y="42.3" class="st4" width="7.2" height="7.2"/>
	<rect x="101.8" y="69.2" class="st5" width="7.2" height="7.2"/>
	<rect x="110.7" y="69.2" class="st5" width="7.2" height="7.2"/>
	<rect x="119.7" y="60.2" class="st2" width="7.2" height="7.2"/>
	<rect x="110.8" y="51.3" class="st3" width="7.2" height="7.2"/>
	<rect x="119.7" y="69.2" class="st5" width="7.2" height="7.2"/>
	<path class="st6" d="M126.5,78.3h-24.5c-1,0-1.9,0.9-1.9,1.9v3.6c0,1,0.9,1.9,1.9,1.9h2c-0.3,2.3-1.3,4.5-2.9,6.1l0,0
		C97,96.4,90,96.7,85.6,92.5c-2.3-2.1-3.6-5.1-3.6-8.2v-3V81V64h1.6c1,0,1.9-0.9,1.9-1.9v-3.6c0-1-0.9-1.9-1.9-1.9H59.1
		c-1,0-1.9,0.9-1.9,1.9v3.6c0,1,0.9,1.9,1.9,1.9h2v17v0.3v3c0,17.7,14.3,32,32,32c10.6,0,20.5-5.3,26.5-14.1l0,0
		c3.3-4.9,5.2-10.6,5.5-16.5h1.5c1,0,1.9-0.9,1.9-1.9v-3.6C128.5,79.2,127.6,78.3,126.5,78.3z"/>
	<rect x="69.9" y="62.7" class="st2" width="7.2" height="7.2"/>
	<rect x="61" y="42.8" class="st2" width="7.2" height="7.2"/>
	<rect x="72.1" y="34.3" class="st3" width="7.2" height="7.2"/>
	<rect x="64.2" y="53.2" class="st4" width="7.2" height="7.2"/>
	<rect x="69.7" y="94" class="st4" width="7.2" height="7.2"/>
	<rect x="73.1" y="82.8" class="st5" width="7.2" height="7.2"/>
	<rect x="64.3" y="75.1" class="st3" width="7.2" height="7.2"/>
	<rect x="74.2" y="44.5" class="st5" width="7.2" height="7.2"/>
</g>
</svg>
