<?xml version="1.0" encoding="utf-8"?>
<!-- Generator: Adobe Illustrator 25.4.1, SVG Export Plug-In . SVG Version: 6.00 Build 0)  -->
<svg version="1.1" id="artwork" xmlns="http://www.w3.org/2000/svg" xmlns:xlink="http://www.w3.org/1999/xlink" x="0px" y="0px"
	 viewBox="0 0 398.7 303.5" style="enable-background:new 0 0 398.7 303.5;" xml:space="preserve">
<style type="text/css">
	.st0{fill:#717074;}
	.st1{fill:url(#SVGID_1_);}
	.st2{fill:#78BE43;}
	.st3{fill:#EC7700;}
	.st4{fill:#1ABFD3;}
	.st5{fill:#218FCF;}
	.st6{fill:#FFFFFF;}
</style>
<g>
	<g>
		<path class="st0" d="M83.2,162.7L65.1,204H60l-18.2-41.3h5.1l15.7,35.5l15.6-35.5L83.2,162.7z"/>
		<path class="st0" d="M94.2,167.2v13.6h22.4v4.4H94.2v14.3h24.8v4.5H89.5v-41.3h29.6v4.4L94.2,167.2z"/>
		<path class="st0" d="M157.4,182.2c-1.1,1.9-2.7,3.5-4.6,4.6c-2,1.2-4.3,2-6.6,2.2l10.5,15h-5.3L141,189.1h-9.1V204h-4.7v-41.3
			h16.7c2.7,0,5.3,0.5,7.7,1.7c2.2,1,4.1,2.7,5.5,4.7C159.7,173.1,159.8,178.1,157.4,182.2L157.4,182.2z M131.9,184.7h11.2
			c2.9,0.1,5.8-0.7,8.2-2.3c3.5-2.8,4.1-8,1.3-11.5c-0.4-0.5-0.8-0.9-1.3-1.3c-2.4-1.7-5.3-2.5-8.2-2.3h-11.2V184.7z"/>
		<path class="st0" d="M163,198.1l2.9-3.7c1.8,1.8,3.8,3.3,6.1,4.4c2.3,1.1,4.8,1.6,7.4,1.6c1.8,0,3.6-0.3,5.2-1
			c1.3-0.6,2.4-1.5,3.3-2.6c0.7-1,1.1-2.3,1.1-3.6c0.1-1.9-0.9-3.8-2.6-4.8c-2.7-1.4-5.5-2.4-8.5-3c-2.5-0.6-5-1.4-7.4-2.4
			c-1.8-0.8-3.3-2-4.5-3.6c-1.1-1.7-1.7-3.7-1.6-5.7c0-2.1,0.6-4.2,1.8-5.9c1.3-1.8,3-3.3,5-4.2c2.2-1,4.6-1.6,7-1.5
			c2.7,0,5.4,0.5,7.9,1.5c2.4,1.1,4.6,2.5,6.6,4.4l-2.9,3.7c-1.7-1.6-3.6-2.9-5.6-3.9c-1.9-0.9-4-1.4-6.2-1.4c-1.6,0-3.1,0.3-4.5,1
			c-1.3,0.6-2.4,1.5-3.2,2.6c-0.7,1-1.1,2.3-1.1,3.5c-0.1,1.9,0.9,3.6,2.6,4.5c2.7,1.4,5.6,2.4,8.5,3c4.4,1,7.7,2.5,10,4.2
			c2.3,1.9,3.6,4.7,3.4,7.7c0,2.1-0.5,4.2-1.6,6.1c-1.2,1.9-2.9,3.4-5,4.3c-2.5,1.1-5.2,1.6-7.9,1.6
			C173.1,204.8,167.3,202.4,163,198.1z"/>
		<path class="st0" d="M228.9,194.6h-23l-4.1,9.4h-5.1l18.2-41.2h5.1l18.2,41.2H233L228.9,194.6z M227,190.2l-9.5-21.7l-9.6,21.7
			H227z"/>
		<path class="st0" d="M253.2,167.2h-13.9v-4.4h32.4v4.4h-13.9V204h-4.7L253.2,167.2z"/>
		<path class="st0" d="M278,162.7h4.7V204H278V162.7z"/>
		<path class="st0" d="M321.1,199.5v4.5h-27.2v-41.3h4.7v36.8H321.1z"/>
		<path class="st0" d="M332.1,167.2v13.6h22.4v4.4h-22.4v14.3h24.8v4.5h-29.6v-41.3h29.6v4.4L332.1,167.2z"/>
		<path class="st0" d="M74.5,227.7h13.9c4-0.1,8,0.8,11.6,2.6c3.3,1.7,6,4.2,7.9,7.3c3.8,6.6,3.8,14.7,0,21.3
			c-1.9,3.1-4.6,5.7-7.9,7.4c-3.6,1.8-7.5,2.7-11.6,2.7H74.5V227.7z M88.4,264.7c3.2,0.1,6.3-0.7,9.1-2.1c2.6-1.3,4.7-3.3,6.2-5.8
			c3-5.2,3-11.7,0-16.9c-1.5-2.5-3.7-4.5-6.2-5.8c-2.8-1.4-5.9-2.2-9.1-2.1h-9.2v32.7H88.4z"/>
		<path class="st0" d="M146,259.6h-23l-4.1,9.4h-5.1l18.2-41.2h5.1l18.2,41.2h-5.1L146,259.6z M144.1,255.2l-9.5-21.7l-9.6,21.7
			H144.1z"/>
		<path class="st0" d="M170.3,232.2h-13.9v-4.4h32.4v4.4H175V269h-4.7L170.3,232.2z"/>
		<path class="st0" d="M220.7,259.6h-23l-4.1,9.4h-5.1l18.2-41.2h5.1L230,269h-5.1L220.7,259.6z M218.8,255.2l-9.5-21.7l-9.6,21.7
			H218.8z"/>
		<path class="st0" d="M256,227.7h4.7v22.8l20.9-22.8h6.2l-17.3,18.8l18.5,22.4h-6.1l-15.7-19.2l-6.5,6.8V269H256V227.7z"/>
		<path class="st0" d="M298,227.7h4.7V269H298V227.7z"/>
		<path class="st0" d="M327.3,232.2h-13.9v-4.4h32.4v4.4H332V269h-4.7V232.2z"/>
	</g>
	<g>
		<path class="st0" d="M206.7,26.7c-29,0-52.5,23.5-52.5,52.5s23.5,52.5,52.5,52.5c29,0,52.5-23.5,52.5-52.5c0,0,0,0,0,0
			C259.2,50.2,235.7,26.7,206.7,26.7z M206.7,122.7c-24,0-43.5-19.5-43.5-43.5s19.5-43.5,43.5-43.5s43.5,19.5,43.5,43.5l0,0
			C250.2,103.3,230.8,122.7,206.7,122.7C206.7,122.7,206.7,122.7,206.7,122.7z"/>

			<linearGradient id="SVGID_1_" gradientUnits="userSpaceOnUse" x1="175.9683" y1="195.0134" x2="237.3283" y2="256.3634" gradientTransform="matrix(1 0 0 -1 0 305)">
			<stop  offset="0" style="stop-color:#218FCF"/>
			<stop  offset="5.000000e-02" style="stop-color:#207FC0"/>
			<stop  offset="0.13" style="stop-color:#1F69AB"/>
			<stop  offset="0.23" style="stop-color:#1F589B"/>
			<stop  offset="0.35" style="stop-color:#1E4D90"/>
			<stop  offset="0.52" style="stop-color:#1E468A"/>
			<stop  offset="1" style="stop-color:#1E4488"/>
		</linearGradient>
		<circle class="st1" cx="206.7" cy="79.2" r="43.5"/>
		<rect x="224.9" y="59.5" class="st2" width="7.2" height="7.2"/>
		<rect x="216.1" y="59.5" class="st2" width="7.2" height="7.2"/>
		<rect x="216.1" y="50.6" class="st3" width="7.2" height="7.2"/>
		<rect x="216.1" y="41.6" class="st4" width="7.2" height="7.2"/>
		<rect x="216.1" y="68.5" class="st5" width="7.2" height="7.2"/>
		<rect x="224.9" y="68.5" class="st5" width="7.2" height="7.2"/>
		<rect x="234" y="59.5" class="st2" width="7.2" height="7.2"/>
		<rect x="225" y="50.6" class="st3" width="7.2" height="7.2"/>
		<rect x="234" y="68.5" class="st5" width="7.2" height="7.2"/>
		<path class="st6" d="M240.8,77.6h-24.5c-1,0-1.9,0.9-1.9,1.9v3.6c0,1,0.9,1.9,1.9,1.9h2c-0.3,2.3-1.3,4.5-2.9,6.2l0,0
			c-4.2,4.5-11.2,4.7-15.7,0.6c-2.3-2.1-3.6-5.1-3.6-8.2v-3v-0.3v-17h1.6c1,0,1.9-0.9,1.9-1.9v-3.6c0-1-0.9-1.9-1.9-1.9h-24.5
			c-1,0-1.9,0.9-1.9,1.9v3.6c0,1,0.9,1.9,1.9,1.9h2v17v0.3v3c0,17.7,14.4,32,32,32c10.6,0,20.5-5.3,26.5-14.1l-0.1,0
			c3.3-4.9,5.2-10.6,5.5-16.5h1.5c1,0,1.9-0.9,1.9-1.9v-3.6C242.7,78.5,241.8,77.6,240.8,77.6z"/>
		<rect x="184.2" y="62" class="st2" width="7.2" height="7.2"/>
		<rect x="175.2" y="42.1" class="st2" width="7.2" height="7.2"/>
		<rect x="186.3" y="33.6" class="st3" width="7.2" height="7.2"/>
		<rect x="178.4" y="52.5" class="st4" width="7.2" height="7.2"/>
		<rect x="184" y="93.3" class="st4" width="7.2" height="7.2"/>
		<rect x="187.4" y="82.1" class="st5" width="7.2" height="7.2"/>
		<rect x="178.5" y="74.3" class="st3" width="7.2" height="7.2"/>
		<rect x="188.5" y="43.8" class="st5" width="7.2" height="7.2"/>
	</g>
</g>
</svg>
