<svg viewBox="0 0 60 72" version="1.1" xmlns="http://www.w3.org/2000/svg" xmlns:xlink="http://www.w3.org/1999/xlink">
    <defs>
        <ellipse id="path-1" cx="30" cy="61.7666667" rx="15.4512904" ry="4.73333333"></ellipse>
        <mask id="mask-2" maskContentUnits="userSpaceOnUse" maskUnits="objectBoundingBox" x="0" y="0" width="30.9025808" height="9.46666667" fill="white">
            <use xlink:href="#path-1"></use>
        </mask>
    </defs>
    <g id="Page-1" stroke="none" stroke-width="1" fill="none" fill-rule="evenodd">
        <g id="Artboard">
            <use id="Oval-10" stroke="#C1DFEF" mask="url(#mask-2)" stroke-width="2.8" stroke-linecap="square" stroke-dasharray="3,6,3,5" xlink:href="#path-1"></use>
            <path d="M38.4613647,18.1642456 L30.9890137,34.9141846 L31,47 L32.5977783,46.5167236 L32.5977783,34.9141846 L51.0673218,15.7560425 C51.0673218,15.7560425 48.6295166,16.6542969 44.9628906,17.3392334 C41.2962646,18.0241699 38.4613647,18.1642456 38.4613647,18.1642456 Z" id="Path-195" fill="#C1DFEF"></path>
            <path d="M4.74639226,12.5661855 L4.62065726,12.1605348 L5.3515414,11.1625044 L5.77622385,11.159939 L6.20936309,12.5573481 L4.74639226,12.5661855 Z M6.20936309,12.5573481 L6.32542632,12.9317954 L28.4963855,34.8796718 L28.4963855,47.8096691 L32.6,46.4836513 L32.6,34.8992365 L53.973494,12.7035813 L53.973494,12.2688201 L6.20936309,12.5573481 Z M55.373494,10.8603376 L55.373494,13.2680664 L34,35.4637216 L34,47.5025401 L27.0963855,49.7333333 L27.0963855,35.4637219 L5.09179688,13.680542 L4.31325301,11.1687764 L55.373494,10.8603376 Z" id="Path-149" fill="#7FBDDD"></path>
            <ellipse id="Oval-9" fill="#FFFFFF" cx="30" cy="11.785654" rx="26" ry="6.78565401"></ellipse>
            <path d="M30,17.171308 C36.8772177,17.171308 43.3112282,16.4610701 48.0312371,15.2292106 C50.2777611,14.6428977 52.0507619,13.9579677 53.2216231,13.2354973 C54.1938565,12.6355886 54.6,12.1175891 54.6,11.785654 C54.6,11.4537189 54.1938565,10.9357194 53.2216231,10.3358107 C52.0507619,9.61334032 50.2777611,8.92841034 48.0312371,8.34209746 C43.3112282,7.11023795 36.8772177,6.4 30,6.4 C23.1227823,6.4 16.6887718,7.11023795 11.9687629,8.34209746 C9.72223886,8.92841034 7.94923814,9.61334032 6.77837689,10.3358107 C5.8061435,10.9357194 5.4,11.4537189 5.4,11.785654 C5.4,12.1175891 5.8061435,12.6355886 6.77837689,13.2354973 C7.94923814,13.9579677 9.72223886,14.6428977 11.9687629,15.2292106 C16.6887718,16.4610701 23.1227823,17.171308 30,17.171308 Z M30,18.571308 C15.6405965,18.571308 4,15.5332672 4,11.785654 C4,8.03804078 15.6405965,5 30,5 C44.3594035,5 56,8.03804078 56,11.785654 C56,15.5332672 44.3594035,18.571308 30,18.571308 Z" id="Oval-9-Copy" fill="#7FBDDD"></path>
            <path d="M18.2608643,7.14562988 L22.727356,16.9047241 C22.727356,16.9047241 15.3006592,16.3911743 10.276001,14.7511597 C5.25134277,13.111145 5.38031006,11.8284302 5.38031006,11.6882935 C5.38031006,10.4832831 8.16633152,9.41877716 11.114563,8.57324219 C14.549319,7.58817492 18.2608643,7.14562988 18.2608643,7.14562988 Z" id="Path-196" fill="#C1DFEF"></path>
        </g>
    </g>
</svg>
