<?xml version="1.0" encoding="utf-8"?>
<!-- Generator: Adobe Illustrator 25.1.0, SVG Export Plug-In . SVG Version: 6.00 Build 0)  -->
<svg version="1.1" id="Layer_1" xmlns="http://www.w3.org/2000/svg" xmlns:xlink="http://www.w3.org/1999/xlink" x="0px"
     y="0px"
     viewBox="0 0 215.4 147.5" style="enable-background:new 0 0 215.4 147.5;" xml:space="preserve">
<style type="text/css">
	.st0{fill:#2CB1E5;}
	.st1{fill:#B9C8D1;}
	.st2{opacity:0.4;enable-background:new    ;}
</style>
    <g id="Light">
	<g>
		<g>
			<path class="st0" d="M64.9,99.5c-0.7-1.1-1.4-2.2-1.9-3.4c-0.1-0.2-0.4-0.4-0.7-0.2c-0.2,0.1-0.4,0.4-0.2,0.7
				c0.6,1.2,1.2,2.5,2,3.6c0.1,0.1,0.3,0.2,0.4,0.2s0.2,0,0.3-0.1C65,100.1,65.1,99.8,64.9,99.5z M61.7,92.4
				c-0.3-1.3-0.6-2.5-0.7-3.8c0-0.3-0.3-0.5-0.6-0.5s-0.5,0.3-0.4,0.6c0.2,1.4,0.4,2.7,0.8,4c0.1,0.2,0.3,0.4,0.5,0.4h0.1
				C61.6,93,61.8,92.7,61.7,92.4z"/>
		</g>
        <g>
			<path class="st1"
                  d="M184.1,117.5H31.2c-0.6,0-1-0.4-1-1s0.4-1,1-1h152.9c0.6,0,1,0.4,1,1S184.7,117.5,184.1,117.5z"/>
		</g>
        <g>
			<path class="st1" d="M169.2,125.2h-123c-0.3,0-0.6-0.1-0.7-0.3l-7-7.7c-0.3-0.3-0.3-0.7-0.2-1.1c0.2-0.4,0.5-0.6,0.9-0.6h137
				c0.4,0,0.8,0.2,0.9,0.6c0.2,0.4,0.1,0.8-0.2,1.1l-7,7.7C169.7,125.1,169.5,125.2,169.2,125.2z M46.6,123.2h122.1l5.2-5.7H41.4
				L46.6,123.2z"/>
		</g>
        <g>
			<g>
				<g>
					<path class="st1" d="M176.3,109.9c-0.1,0-0.1,0-0.2,0L41.5,84.6c-0.5-0.1-0.9-0.6-0.8-1.2c0.1-0.5,0.6-0.9,1.2-0.8l134.7,25.3
						c0.5,0.1,0.9,0.6,0.8,1.2C177.2,109.6,176.8,109.9,176.3,109.9z"/>
				</g>
                <g>
					<path class="st1" d="M41.6,84.6c-0.1,0-0.1,0-0.2,0c-0.5-0.1-0.9-0.6-0.8-1.2c7.1-37.7,43.5-62.6,81.1-55.5
						c3.9,0.7,7.7,1.8,11.4,3.1C154,38.8,170,56.2,176,77.7c0.1,0.5-0.2,1.1-0.7,1.2s-1.1-0.2-1.2-0.7
						c-5.8-20.9-21.3-37.8-41.6-45.3c-3.5-1.3-7.3-2.3-11-3.1c-36.6-6.9-71.9,17.3-78.8,53.9C42.5,84.3,42.1,84.6,41.6,84.6z"/>
				</g>
                <g>
					<path class="st1" d="M122.2,30c-0.2,0-0.5,0-0.7-0.1c-1-0.2-1.9-0.8-2.4-1.6s-0.8-1.9-0.6-2.9c0.4-2.1,2.4-3.4,4.5-3
						c1,0.2,1.9,0.8,2.4,1.6s0.8,1.9,0.6,2.9c-0.2,1-0.8,1.9-1.6,2.4C123.7,29.8,122.9,30,122.2,30z M122.1,24.3
						c-0.9,0-1.6,0.6-1.8,1.5c-0.1,0.5,0,1,0.3,1.4s0.7,0.7,1.2,0.8c0.5,0.1,1,0,1.4-0.3s0.7-0.7,0.8-1.2l0,0c0.1-0.5,0-1-0.3-1.4
						s-0.7-0.7-1.2-0.8C122.4,24.4,122.3,24.3,122.1,24.3z"/>
				</g>
			</g>
            <g>
				<g class="st2">
					<path class="st1"
                          d="M176.3,108.9l-111.9-21C70.7,54.6,100,31.5,132.8,32C163.6,43.4,182.6,75.6,176.3,108.9z"/>
				</g>
			</g>
		</g>
        <g class="st2">
			<polygon class="st1" points="62.3,116.5 65.5,124.2 169.2,124.2 176.2,116.5 			"/>
		</g>
        <g>
			<path class="st0" d="M107.2,110.6c-0.9,0-1.9,0-2.9-0.1c-0.3,0-0.5-0.3-0.5-0.5s0.3-0.5,0.5-0.5c1.3,0.1,2.7,0.1,3.9,0.1
				c0.3,0,0.5,0.2,0.5,0.5s-0.2,0.5-0.5,0.5C108,110.6,107.6,110.6,107.2,110.6z M84.7,110.2c-0.2,0-0.4,0-0.6,0
				c-0.3,0-0.5-0.2-0.5-0.5s0.3-0.5,0.5-0.5c1.4,0,2.7-0.1,3.9-0.3c0.3-0.1,0.5,0.1,0.6,0.4s-0.1,0.5-0.4,0.6
				C87.2,110.1,86,110.2,84.7,110.2z M112.3,110.2c-0.2,0-0.4-0.2-0.5-0.4c0-0.3,0.1-0.5,0.4-0.6c1.3-0.2,2.6-0.6,3.8-1
				c0.3-0.1,0.5,0,0.6,0.3s0,0.5-0.3,0.6C115.1,109.5,113.8,109.9,112.3,110.2C112.4,110.1,112.4,110.2,112.3,110.2z M100.4,110
				C100.4,110,100.3,110,100.4,110c-1.4-0.2-2.7-0.5-4-0.9c-0.3-0.1-0.4-0.3-0.4-0.6c0.1-0.3,0.3-0.4,0.6-0.4
				c1.3,0.3,2.6,0.6,3.9,0.8c0.3,0,0.5,0.3,0.4,0.6C100.8,109.8,100.6,110,100.4,110z M80.2,109.7C80.2,109.7,80.1,109.7,80.2,109.7
				c-1.3-0.2-2.7-0.5-4-0.9c-0.3-0.1-0.4-0.4-0.3-0.6c0.1-0.3,0.4-0.4,0.6-0.3c1.3,0.4,2.6,0.7,3.8,0.9c0.3,0,0.5,0.3,0.4,0.6
				C80.6,109.6,80.4,109.7,80.2,109.7z M91.8,108.3c-0.2,0-0.3-0.1-0.4-0.2c-0.1-0.2-0.1-0.3,0-0.5c-0.9-0.3-1.8-0.6-2.7-1
				c-0.3-0.1-0.4-0.4-0.3-0.6c0.1-0.3,0.4-0.4,0.6-0.3c1.1,0.4,2.2,0.8,3.2,1.2c0.7-0.6,1.3-1.4,1.7-2.2c0.1-0.2,0.4-0.3,0.7-0.2
				c0.2,0.1,0.3,0.4,0.2,0.7c-0.5,0.9-1,1.6-1.8,2.3c0,0.1,0,0.1,0,0.2c-0.1,0.3-0.4,0.4-0.6,0.3l0,0c-0.1,0.1-0.3,0.2-0.4,0.3
				C92,108.3,91.9,108.3,91.8,108.3z M72.6,107.4c-0.1,0-0.1,0-0.2-0.1c-1.2-0.6-2.4-1.3-3.5-2.2c-0.2-0.2-0.3-0.5-0.1-0.7
				c0.2-0.2,0.5-0.3,0.7-0.1c1,0.8,2.1,1.5,3.3,2.1c0.2,0.1,0.3,0.4,0.2,0.7C72.9,107.3,72.7,107.4,72.6,107.4z M119.7,107.3
				c-0.2,0-0.3-0.1-0.4-0.2c-0.1-0.2-0.1-0.5,0.2-0.7c1.1-0.7,2.1-1.5,3-2.4c0.2-0.2,0.5-0.2,0.7,0s0.2,0.5,0,0.7
				c-1,1-2,1.8-3.2,2.6C119.9,107.3,119.8,107.3,119.7,107.3z M85.2,105.2c-0.1,0-0.1,0-0.2,0c-1.3-0.6-2.5-1.1-3.6-1.7
				c-0.2-0.1-0.3-0.4-0.2-0.7s0.4-0.3,0.7-0.2c1.1,0.6,2.3,1.2,3.6,1.7c0.3,0.1,0.4,0.4,0.3,0.7C85.5,105.1,85.4,105.2,85.2,105.2z
				 M66.3,102.6c-0.1,0-0.3-0.1-0.4-0.2c-0.6-0.7-1.2-1.5-1.8-2.3c-0.2-0.2-0.1-0.5,0.1-0.7s0.5-0.1,0.7,0.1
				c0.5,0.8,1.1,1.5,1.7,2.2c0.2,0.2,0.2,0.5,0,0.7C66.5,102.5,66.4,102.6,66.3,102.6z M125.4,101.7c-0.1,0-0.2,0-0.3-0.1
				c-0.2-0.1-0.3-0.5-0.2-0.7c0.7-1.1,1.3-2.2,1.8-3.5c0.1-0.3,0.4-0.4,0.6-0.3c0.3,0.1,0.4,0.4,0.3,0.6c-0.5,1.3-1.1,2.5-1.8,3.7
				C125.7,101.7,125.5,101.7,125.4,101.7z M95.4,101.6L95.4,101.6c-0.3,0-0.5-0.2-0.5-0.5c0-0.1,0-0.3,0-0.4c0-1.1-0.2-2.2-0.5-3.4
				c-0.1-0.3,0.1-0.5,0.3-0.6c0.3-0.1,0.5,0.1,0.6,0.3c0.4,1.2,0.5,2.5,0.5,3.7c0,0.2,0,0.3,0,0.5C95.9,101.4,95.7,101.6,95.4,101.6
				z M78.1,101.5c-0.1,0-0.2,0-0.3-0.1c-1.2-0.8-2.3-1.6-3.3-2.4c-0.2-0.2-0.2-0.5-0.1-0.7c0.2-0.2,0.5-0.2,0.7-0.1
				c0.9,0.8,2,1.6,3.2,2.3c0.2,0.1,0.3,0.5,0.2,0.7C78.4,101.4,78.3,101.5,78.1,101.5z M72.1,96.3c-0.2,0-0.3-0.1-0.4-0.2
				c-0.9-1.2-1.6-2.5-1.9-3.7c-0.1-0.3,0.1-0.5,0.4-0.6s0.5,0.1,0.6,0.4c0.3,1.1,0.8,2.2,1.7,3.4c0.2,0.2,0.1,0.5-0.1,0.7
				C72.3,96.2,72.2,96.3,72.1,96.3z M128.3,94.3C128.2,94.3,128.2,94.3,128.3,94.3c-0.4-0.1-0.5-0.3-0.5-0.6
				c0.2-1.3,0.4-2.6,0.4-3.9c0-0.3,0.3-0.5,0.5-0.5c0.3,0,0.5,0.2,0.5,0.5c0,1.4-0.2,2.7-0.5,4C128.7,94.2,128.5,94.3,128.3,94.3z
				 M93.4,93.9c-0.2,0-0.3-0.1-0.4-0.3c-0.6-1.1-1.4-2.2-2.3-3.2c-0.2-0.2-0.2-0.5,0-0.7s0.5-0.2,0.7,0c0.9,1,1.7,2.2,2.4,3.3
				c0.1,0.2,0.1,0.5-0.2,0.7C93.5,93.9,93.5,93.9,93.4,93.9z M70.6,88.8c-0.1,0-0.1,0-0.2,0c-0.3-0.1-0.4-0.4-0.2-0.7
				c0.6-1.2,1.5-2.3,2.8-3.1c0.2-0.1,0.5-0.1,0.7,0.1c0.1,0.2,0.1,0.5-0.1,0.7c-1.1,0.7-2,1.7-2.5,2.7C71,88.7,70.8,88.8,70.6,88.8z
				 M88.1,88c-0.1,0-0.2,0-0.3-0.1c-1-0.8-2.2-1.5-3.3-2c-0.2-0.1-0.4-0.4-0.2-0.7c0.1-0.2,0.4-0.3,0.7-0.2c1.2,0.6,2.4,1.3,3.5,2.1
				c0.2,0.2,0.3,0.5,0.1,0.7C88.4,87.9,88.3,88,88.1,88z M128.6,86.4c-0.3,0-0.5-0.2-0.5-0.4c-0.1-1.3-0.4-2.6-0.7-3.9
				c-0.1-0.3,0.1-0.5,0.4-0.6c0.3-0.1,0.5,0.1,0.6,0.4c0.3,1.3,0.6,2.7,0.7,4C129.1,86.1,128.9,86.3,128.6,86.4L128.6,86.4z
				 M81,84.5L81,84.5c-0.8-0.1-1.5-0.2-2.2-0.2c-0.6,0-1.1,0-1.7,0.1c-0.3,0-0.5-0.1-0.6-0.4c0-0.3,0.1-0.5,0.4-0.6
				c0.6-0.1,1.3-0.2,1.9-0.2c0.8,0,1.5,0.1,2.3,0.2c0.3,0.1,0.4,0.3,0.4,0.6C81.4,84.4,81.2,84.5,81,84.5z M126.6,78.6
				c-0.2,0-0.4-0.1-0.5-0.3c-0.5-1.2-1.1-2.4-1.7-3.5c-0.1-0.2-0.1-0.5,0.2-0.7c0.2-0.1,0.5-0.1,0.7,0.2c0.7,1.2,1.3,2.4,1.8,3.6
				c0.1,0.3,0,0.5-0.3,0.7C126.7,78.6,126.7,78.6,126.6,78.6z M122.5,71.8c-0.1,0-0.3-0.1-0.4-0.2c-0.9-1-1.8-1.9-2.8-2.7
				c-0.2-0.2-0.2-0.5-0.1-0.7c0.2-0.2,0.5-0.2,0.7-0.1c1,0.8,2,1.8,2.9,2.9c0.2,0.2,0.2,0.5-0.1,0.7
				C122.7,71.8,122.6,71.8,122.5,71.8z M116.3,66.8c-0.1,0-0.2,0-0.2-0.1c-1.1-0.6-2.4-1.1-3.6-1.4c-0.3-0.1-0.4-0.3-0.3-0.6
				c0.1-0.3,0.4-0.4,0.6-0.3c1.3,0.4,2.6,0.9,3.8,1.5c0.2,0.1,0.3,0.4,0.2,0.7C116.7,66.7,116.5,66.8,116.3,66.8z"/>
		</g>
        <g>
			<g>
				<path class="st0" d="M106.8,65.1c0.3,0.1,0.5,0.2,0.8,0.2c0.3,0.1,0.7,0.1,1,0.1c0.4,0,0.9,0,1.3,0s0.8-0.1,1.1-0.2
					c0.5-0.1,0.9-0.3,1.3-0.4c0.3-0.1,0.4-0.5,0.2-0.7c-0.2-0.3-0.4-0.7-0.8-1.1c-0.2-0.3-0.5-0.6-0.8-0.8c-0.3-0.3-0.6-0.6-1-0.8
					c-0.3-0.2-0.6-0.4-0.9-0.5c-0.2-0.1-0.5-0.2-0.7-0.3c-0.1,0-0.2-0.1-0.4-0.1c-0.3-0.1-0.7-0.2-1-0.2c-0.4,0-0.8-0.1-1.3,0
					c-0.4,0-0.8,0.1-1.1,0.1c-0.7,0.1-1.3,0.3-1.7,0.5c-0.3,0.1-0.4,0.5-0.2,0.7c0.2,0.4,0.6,0.9,1.1,1.4c0.2,0.3,0.5,0.5,0.8,0.8
					c0.3,0.3,0.6,0.5,1,0.8c0.3,0.2,0.6,0.3,0.9,0.5C106.6,65,106.7,65,106.8,65.1z"/>
			</g>
            <g>
				<circle class="st0" cx="102.4" cy="61" r="1.5"/>
			</g>
            <g>
				<g>
					<g>
						<g>
							<path class="st0" d="M106.3,63.4c-0.1,0-0.2,0-0.2,0c-1-0.1-1.8-0.5-2.2-1.2c-0.4-0.7-0.4-1.6,0.1-2.5
								c0.4-0.8,1.2-1.6,2.2-2.1s2.1-0.9,3.1-0.9c1.2-0.1,2.1,0.3,2.5,1.1c0.8,1.5-0.8,3.8-2.8,4.9
								C108.2,63.1,107.2,63.4,106.3,63.4z M109.4,57.7L109.4,57.7c-1,0-2,0.3-2.8,0.8c-0.8,0.4-1.4,1.1-1.8,1.7
								c-0.3,0.6-0.4,1.1-0.1,1.5c0.2,0.4,0.7,0.6,1.4,0.7c0.7,0,1.6-0.2,2.4-0.6c1.6-0.9,2.8-2.7,2.4-3.5
								C110.7,57.9,110.2,57.7,109.4,57.7z"/>
						</g>
					</g>
				</g>
                <g>
					<g>
						<g>
							<path class="st0" d="M107,69.6c-1.5,0-3.1-1.7-3.8-3.5c-0.4-1-0.5-2.1-0.4-3c0.2-1,0.7-1.7,1.5-2s1.6-0.2,2.5,0.4
								c0.8,0.5,1.4,1.4,1.8,2.4l0,0c0.9,2.1,0.7,4.9-0.9,5.5C107.5,69.6,107.2,69.6,107,69.6z M105.1,61.9c-0.1,0-0.3,0-0.4,0.1
								c-0.4,0.2-0.7,0.6-0.9,1.3c-0.1,0.7,0,1.6,0.3,2.4c0.7,1.7,2.3,3.2,3.2,2.8c0.9-0.4,1.1-2.5,0.3-4.2c-0.3-0.8-0.9-1.5-1.5-2
								C105.8,62.1,105.4,61.9,105.1,61.9z"/>
						</g>
					</g>
				</g>
			</g>
		</g>
	</g>
</g>
    <g id="Dark">
</g>
</svg>
