<svg xmlns="http://www.w3.org/2000/svg" width="146.2" height="103.93" viewBox="0 0 146.2 103.93">
    <title>no events in timeframe</title>
    <g id="eb33776e-eade-44ba-8307-73fb991239df" data-name="Layer 2">
        <path d="M114.27,68.25H100.93V79.06a13.48,13.48,0,0,0,7.45,12.07h5.89Z" fill="#d1dadf" opacity="0.25"/>
        <path
            d="M129.83,85.29H128a1,1,0,0,1,0-2h1.81a5.59,5.59,0,0,0,1.78-10.89,1,1,0,0,1-.63-1.27,1,1,0,0,1,1.27-.63,7.59,7.59,0,0,1-2.42,14.79Z"
            fill="#b9c8d1"/>
        <path d="M122,75.1H101.09a1,1,0,0,1,0-2H122a1,1,0,0,1,0,2Z" fill="#2cb1e5"/>
        <path
            d="M120.76,92.13H108.14l-.21-.1a14.45,14.45,0,0,1-8-13V67.25h29V79.06a14.45,14.45,0,0,1-8,13Zm-12.14-2h11.66A12.44,12.44,0,0,0,127,79.06V69.25h-25v9.81A12.46,12.46,0,0,0,108.62,90.13Z"
            fill="#b9c8d1"/>
        <path d="M144.2,92.06H2.47a1,1,0,1,1,0-2H144.2a1,1,0,0,1,0,2Z" fill="#b9c8d1"/>
        <path
            d="M114.06,36.83a1,1,0,0,1-.62-.22,5.46,5.46,0,0,0-.7-.5,1,1,0,0,1-.34-1.37,1,1,0,0,1,1.36-.35,7.47,7.47,0,0,1,.93.66,1,1,0,0,1,.15,1.41A1,1,0,0,1,114.06,36.83Z"
            fill="#b9c8d1"/>
        <path
            d="M113.68,60.37a1,1,0,0,1-1-.86,12.61,12.61,0,0,1-.11-1.39v-.2a7.19,7.19,0,0,1,.05-.81,1,1,0,0,1,1.1-.89,1,1,0,0,1,.88,1.1q0,.3,0,.6v.14a10.65,10.65,0,0,0,.1,1.16,1,1,0,0,1-.84,1.14Zm1.44-6.17a1,1,0,0,1-.5-.13,1,1,0,0,1-.37-1.37l.65-1.09.47-.77a1,1,0,1,1,1.72,1l-.48.78L116,53.7A1,1,0,0,1,115.12,54.2ZM118,48.43a1.26,1.26,0,0,1-.27,0,1,1,0,0,1-.7-1.23,9.63,9.63,0,0,0,.32-1.92,1,1,0,1,1,2,.12,11.68,11.68,0,0,1-.38,2.33A1,1,0,0,1,118,48.43ZM117.77,42a1,1,0,0,1-.94-.67,10.21,10.21,0,0,0-.82-1.78,1,1,0,1,1,1.73-1,11.47,11.47,0,0,1,1,2.14A1,1,0,0,1,118.1,42,1,1,0,0,1,117.77,42Z"
            fill="#b9c8d1"/>
        <path
            d="M115.85,65.18a1,1,0,0,1-.77-.35,11,11,0,0,1-.67-.87,1,1,0,0,1,1.66-1.13,8.25,8.25,0,0,0,.54.71,1,1,0,0,1-.12,1.41A1,1,0,0,1,115.85,65.18Z"
            fill="#b9c8d1"/>
        <path
            d="M52.05,77.26A37.68,37.68,0,1,1,89.73,39.58,37.72,37.72,0,0,1,52.05,77.26Zm0-73.36A35.68,35.68,0,1,0,87.73,39.58,35.71,35.71,0,0,0,52.05,3.9Z"
            fill="#b9c8d1"/>
        <path
            d="M52,43.62a4.06,4.06,0,1,1,4.06-4.06A4.06,4.06,0,0,1,52,43.62Zm0-6.11a2.06,2.06,0,1,0,2.06,2.05A2.05,2.05,0,0,0,52,37.51Z"
            fill="#2cb1e5"/>
        <path d="M52.39,15.26h0a1,1,0,0,1-1-1l0-2.13a1,1,0,0,1,2,0l0,2.14A1,1,0,0,1,52.39,15.26Z" fill="#b9c8d1"/>
        <path
            d="M65.11,18.88a1,1,0,0,1-.52-.15,1,1,0,0,1-.34-1.37l1.1-1.83a1,1,0,0,1,1.72,1L66,18.39A1,1,0,0,1,65.11,18.88Z"
            fill="#b9c8d1"/>
        <path d="M74.08,28.08a1,1,0,0,1-.49-1.87l1.85-1.05a1,1,0,1,1,1,1.74L74.58,28A1,1,0,0,1,74.08,28.08Z"
              fill="#b9c8d1"/>
        <path d="M79.5,41h0l-2.13,0a1,1,0,1,1,0-2l2.14,0a1,1,0,0,1,0,2Z" fill="#b9c8d1"/>
        <path
            d="M75.57,54.75a1.1,1.1,0,0,1-.52-.14L73.23,53.5a1,1,0,0,1-.34-1.37,1,1,0,0,1,1.37-.34l1.83,1.1a1,1,0,0,1,.34,1.38A1,1,0,0,1,75.57,54.75Z"
            fill="#b9c8d1"/>
        <path d="M65.59,64.47a1,1,0,0,1-.87-.51l-1-1.85a1,1,0,1,1,1.74-1l1,1.85a1,1,0,0,1-.87,1.5Z" fill="#b9c8d1"/>
        <path d="M51.66,68h0a1,1,0,0,1-1-1l0-2.13a1,1,0,0,1,1-1,1,1,0,0,1,1,1l0,2.14A1,1,0,0,1,51.66,68Z"
              fill="#b9c8d1"/>
        <path
            d="M37.87,64.1a1.06,1.06,0,0,1-.51-.14A1,1,0,0,1,37,62.58l1.1-1.82a1,1,0,0,1,1.72,1l-1.11,1.83A1,1,0,0,1,37.87,64.1Z"
            fill="#b9c8d1"/>
        <path
            d="M28.16,54.12a1,1,0,0,1-.5-1.87l1.86-1a1,1,0,0,1,1.36.37,1,1,0,0,1-.37,1.37L28.65,54A1,1,0,0,1,28.16,54.12Z"
            fill="#b9c8d1"/>
        <path d="M26.73,40.22h0l-2.13,0a1,1,0,1,1,0-2l2.13,0a1,1,0,0,1,0,2Z" fill="#b9c8d1"/>
        <path
            d="M30.35,27.51a1,1,0,0,1-.51-.15L28,26.26a1,1,0,1,1,1-1.71l1.83,1.1A1,1,0,0,1,31.21,27,1,1,0,0,1,30.35,27.51Z"
            fill="#b9c8d1"/>
        <path
            d="M39.56,18.54a1,1,0,0,1-.87-.5l-1.06-1.86A1,1,0,0,1,38,14.82a1,1,0,0,1,1.36.37l1.06,1.86a1,1,0,0,1-.38,1.36A1,1,0,0,1,39.56,18.54Z"
            fill="#b9c8d1"/>
        <path d="M52.39,15.26h0a1,1,0,0,1-1-1l0-2.13a1,1,0,0,1,2,0l0,2.14A1,1,0,0,1,52.39,15.26Z" fill="#b9c8d1"/>
        <path
            d="M52.05,71.65A32.07,32.07,0,1,1,64.53,10a1,1,0,0,1-.78,1.84,29.79,29.79,0,0,0-11.7-2.36,30.07,30.07,0,1,0,5.2,59.69,1,1,0,1,1,.34,2A32,32,0,0,1,52.05,71.65Z"
            fill="#b9c8d1"/>
        <path
            d="M60.73,24.73a1,1,0,0,0-1.37.37L53,36.24V19.12a1,1,0,0,0-2,0v18a2.92,2.92,0,0,1,1.15-.24,2.87,2.87,0,0,1,2.22,1.05l6.7-11.79A1,1,0,0,0,60.73,24.73Z"
            fill="#2cb1e5"/>
    </g>
</svg>
