<svg xmlns="http://www.w3.org/2000/svg" width="354.38" height="206.09" viewBox="0 0 354.38 206.09">
    <title>ES-no issues01</title>
    <g id="f02735a8-335a-40e4-92b5-8b4c479b8777" data-name="Layer 3">
        <path
            d="M352.4,104.79H221.84v-1.56a18.72,18.72,0,0,1,18.69-18.69h2.13a25.2,25.2,0,0,1,49,2.36,17,17,0,0,1,3.42-.35,16.69,16.69,0,0,1,16.67,16.23H352.4a1,1,0,0,1,0,2Zm-128.55-2h85.93A14.7,14.7,0,0,0,291.14,89.1l-1.11.32-.15-1.14a23.19,23.19,0,0,0-45.48-2.49l-.19.76h-3.68A16.71,16.71,0,0,0,223.85,102.79Z"
            fill="#b9c8d1"/>
        <path d="M327.8,111.41H282.22a1,1,0,0,1,0-2H327.8a1,1,0,0,1,0,2Z" fill="#b9c8d1"/>
        <path
            d="M126.54,72.65H27.19A25,25,0,0,1,52.1,48.72H58l.18-.77A34.77,34.77,0,0,1,126.57,52l.13,1.23,1.17-.39a22,22,0,0,1,6.82-1.09c.62,0,1.22,0,1.82.09.48-.63,1-1.25,1.5-1.85a24.25,24.25,0,0,0-3.32-.24,23.72,23.72,0,0,0-6.28.85,36.77,36.77,0,0,0-72-3.89H52.1A27,27,0,0,0,25.18,73.65v1h100.9C126.22,74,126.38,73.31,126.54,72.65Z"
            fill="#b9c8d1"/>
        <path
            d="M174.47,141.56h-.09a15.55,15.55,0,0,1-7.2-1.82,1,1,0,1,1,1-1.72,13.58,13.58,0,0,0,6.2,1.54,13.87,13.87,0,0,0,5-1l-4-4.52a1,1,0,0,1-.22-.91l.15-.6a1,1,0,0,1,.89-.75c19.67-1.66,35.08-21.29,35.08-44.68,0-24.7-17-44.8-37.8-44.8s-37.8,20.1-37.8,44.8c0,23.18,15.26,42.79,34.74,44.65a1,1,0,0,1,.9,1.09,1,1,0,0,1-1.09.9c-20.5-1.95-36.55-22.44-36.55-46.64,0-25.8,17.86-46.8,39.8-46.8s39.8,21,39.8,46.8c0,23.9-15.52,44-35.58,46.53l4.11,4.6a1,1,0,0,1,.24.84,1,1,0,0,1-.5.7A16,16,0,0,1,174.47,141.56Z"
            fill="#2cb1e5"/>
        <g opacity="0.3">
            <path
                d="M176,129.75a3.5,3.5,0,0,1,0-7c14.95,0,27.1-16,27.1-35.74,0-17.74-10-33-23.37-35.4A3.5,3.5,0,0,1,181,44.72c16.6,3,29.11,21.22,29.11,42.29C210.07,110.58,194.77,129.75,176,129.75Z"
                fill="#2cb1e5"/>
        </g>
        <path
            d="M173.5,106.48c-7.83,0-14.2-8.7-14.2-19.4s6.37-19.4,14.2-19.4,14.2,8.71,14.2,19.4S181.33,106.48,173.5,106.48Zm0-36.8c-6.73,0-12.2,7.81-12.2,17.4s5.47,17.4,12.2,17.4,12.2-7.8,12.2-17.4S180.23,69.68,173.5,69.68Z"
            fill="#2cb1e5"/>
        <g opacity="0.3">
            <path
                d="M168.69,114.46a3.23,3.23,0,0,1-.69-.07c-9.81-1.93-16.94-13.27-16.94-26.95s7.15-25.06,17-27a3.5,3.5,0,1,1,1.33,6.87c-6.35,1.23-11.33,10.06-11.33,20.1s5,18.84,11.3,20.09a3.5,3.5,0,0,1-.67,6.93Z"
                fill="#2cb1e5"/>
        </g>
        <path d="M173.94,204.76a1,1,0,0,1-1-1V145a1,1,0,1,1,2,0v58.79A1,1,0,0,1,173.94,204.76Z" fill="#b9c8d1"/>
        <path
            d="M217.6,147.88a6.27,6.27,0,1,1,6.27-6.27A6.27,6.27,0,0,1,217.6,147.88Zm0-10.54a4.27,4.27,0,1,0,4.27,4.27A4.28,4.28,0,0,0,217.6,137.34Z"
            fill="#d1dadf"/>
        <path
            d="M208,10.72a4.9,4.9,0,1,1,4.9-4.9A4.91,4.91,0,0,1,208,10.72Zm0-7.8a2.9,2.9,0,1,0,2.9,2.9A2.9,2.9,0,0,0,208,2.92Z"
            fill="#b1e3f0"/>
        <circle cx="142.91" cy="114.25" r="6.08" fill="#b1e3f0" opacity="0.5"/>
        <circle cx="275.4" cy="79.45" r="3.01" fill="#b1e3f0" opacity="0.5"/>
        <circle cx="104.98" cy="86.67" r="3.92" fill="#b1e3f0" opacity="0.5"/>
        <circle cx="227.84" cy="78.75" r="3.92" fill="#d7dee2" opacity="0.65"/>
        <path d="M261.19,144.5a2.92,2.92,0,0,1-1.5-.41l-7.28-4.23a3,3,0,1,1,3-5.18l7.28,4.22a3,3,0,0,1-1.51,5.6Z"
              fill="#b1e3f0"/>
        <path d="M91.42,127.46A3,3,0,0,1,89.67,122l6.94-5a3,3,0,0,1,3.49,4.88l-6.94,5A3,3,0,0,1,91.42,127.46Z"
              fill="#b1e3f0"/>
        <g opacity="0.65">
            <path
                d="M136.87,162.09a3,3,0,0,1-2.69-1.67l-3.78-7.64a3,3,0,0,1,5.38-2.66l3.78,7.63a3,3,0,0,1-1.36,4A2.86,2.86,0,0,1,136.87,162.09Z"
                fill="#d7dee2"/>
        </g>
        <path d="M222.54,41.25a3,3,0,0,1-2.18-5.06L227,29.25a3,3,0,0,1,4.34,4.14l-6.6,6.93A3,3,0,0,1,222.54,41.25Z"
              fill="#b1e3f0"/>
        <path d="M134.7,23.62a3,3,0,0,1-.65-5.93l9.81-2.17a3,3,0,0,1,1.3,5.86l-9.81,2.17A2.94,2.94,0,0,1,134.7,23.62Z"
              fill="#b1e3f0"/>
        <path d="M254.92,59.61a2,2,0,0,1-1-3.74l4.62-2.64a2,2,0,0,1,2,3.47l-4.63,2.64A2,2,0,0,1,254.92,59.61Z"
              fill="#b1e3f0"/>
        <g opacity="0.65">
            <path d="M202.08,35.51a2.76,2.76,0,0,1-.75-.1l-11.56-3a3,3,0,0,1,1.49-5.81l11.56,3a3,3,0,0,1-.74,5.91Z"
                  fill="#d7dee2"/>
        </g>
        <g opacity="0.65">
            <path d="M102.23,54.88a3,3,0,0,1-2.47-1.29L94.58,46.1a3,3,0,0,1,4.94-3.41l5.17,7.49a3,3,0,0,1-2.46,4.7Z"
                  fill="#d7dee2"/>
        </g>
    </g>
</svg>
