<?xml version="1.0" encoding="us-ascii" standalone="no"?><svg xmlns="http://www.w3.org/2000/svg" xmlns:xlink="http://www.w3.org/1999/xlink" contentStyleType="text/css" height="719px" preserveAspectRatio="none" style="width:1344px;height:719px;background:#FFFFFF;" version="1.1" viewBox="0 0 1344 719" width="1344px" zoomAndPan="magnify"><defs/><g><rect fill="#FFFFFF" height="116.5313" style="stroke:#181818;stroke-width:1.0;" width="10" x="717.5" y="139.6953"/><line style="stroke:#181818;stroke-width:0.5;stroke-dasharray:5.0,5.0;" x1="176" x2="176" y1="36.2969" y2="264.2266"/><line style="stroke:#A80036;stroke-width:1.0;stroke-dasharray:1.0,4.0;" x1="176" x2="176" y1="264.2266" y2="292.2266"/><line style="stroke:#181818;stroke-width:0.5;stroke-dasharray:5.0,5.0;" x1="176" x2="176" y1="292.2266" y2="487.0234"/><line style="stroke:#A80036;stroke-width:1.0;stroke-dasharray:1.0,4.0;" x1="176" x2="176" y1="487.0234" y2="515.0234"/><line style="stroke:#181818;stroke-width:0.5;stroke-dasharray:5.0,5.0;" x1="176" x2="176" y1="515.0234" y2="684.6875"/><line style="stroke:#181818;stroke-width:0.5;stroke-dasharray:5.0,5.0;" x1="428" x2="428" y1="36.2969" y2="264.2266"/><line style="stroke:#A80036;stroke-width:1.0;stroke-dasharray:1.0,4.0;" x1="428" x2="428" y1="264.2266" y2="292.2266"/><line style="stroke:#181818;stroke-width:0.5;stroke-dasharray:5.0,5.0;" x1="428" x2="428" y1="292.2266" y2="487.0234"/><line style="stroke:#A80036;stroke-width:1.0;stroke-dasharray:1.0,4.0;" x1="428" x2="428" y1="487.0234" y2="515.0234"/><line style="stroke:#181818;stroke-width:0.5;stroke-dasharray:5.0,5.0;" x1="428" x2="428" y1="515.0234" y2="684.6875"/><line style="stroke:#181818;stroke-width:0.5;stroke-dasharray:5.0,5.0;" x1="722.5" x2="722.5" y1="36.2969" y2="264.2266"/><line style="stroke:#A80036;stroke-width:1.0;stroke-dasharray:1.0,4.0;" x1="722.5" x2="722.5" y1="264.2266" y2="292.2266"/><line style="stroke:#181818;stroke-width:0.5;stroke-dasharray:5.0,5.0;" x1="722.5" x2="722.5" y1="292.2266" y2="487.0234"/><line style="stroke:#A80036;stroke-width:1.0;stroke-dasharray:1.0,4.0;" x1="722.5" x2="722.5" y1="487.0234" y2="515.0234"/><line style="stroke:#181818;stroke-width:0.5;stroke-dasharray:5.0,5.0;" x1="722.5" x2="722.5" y1="515.0234" y2="684.6875"/><line style="stroke:#181818;stroke-width:0.5;stroke-dasharray:5.0,5.0;" x1="1052.5" x2="1052.5" y1="36.2969" y2="264.2266"/><line style="stroke:#A80036;stroke-width:1.0;stroke-dasharray:1.0,4.0;" x1="1052.5" x2="1052.5" y1="264.2266" y2="292.2266"/><line style="stroke:#181818;stroke-width:0.5;stroke-dasharray:5.0,5.0;" x1="1052.5" x2="1052.5" y1="292.2266" y2="487.0234"/><line style="stroke:#A80036;stroke-width:1.0;stroke-dasharray:1.0,4.0;" x1="1052.5" x2="1052.5" y1="487.0234" y2="515.0234"/><line style="stroke:#181818;stroke-width:0.5;stroke-dasharray:5.0,5.0;" x1="1052.5" x2="1052.5" y1="515.0234" y2="684.6875"/><line style="stroke:#181818;stroke-width:0.5;stroke-dasharray:5.0,5.0;" x1="1252.5" x2="1252.5" y1="36.2969" y2="264.2266"/><line style="stroke:#A80036;stroke-width:1.0;stroke-dasharray:1.0,4.0;" x1="1252.5" x2="1252.5" y1="264.2266" y2="292.2266"/><line style="stroke:#181818;stroke-width:0.5;stroke-dasharray:5.0,5.0;" x1="1252.5" x2="1252.5" y1="292.2266" y2="487.0234"/><line style="stroke:#A80036;stroke-width:1.0;stroke-dasharray:1.0,4.0;" x1="1252.5" x2="1252.5" y1="487.0234" y2="515.0234"/><line style="stroke:#181818;stroke-width:0.5;stroke-dasharray:5.0,5.0;" x1="1252.5" x2="1252.5" y1="515.0234" y2="684.6875"/><rect fill="#E2E2F0" height="30.2969" rx="2.5" ry="2.5" style="stroke:#181818;stroke-width:0.5;" width="45" x="154" y="5"/><text fill="#000000" font-family="sans-serif" font-size="14" lengthAdjust="spacing" textLength="31" x="161" y="24.9951">User</text><rect fill="#E2E2F0" height="30.2969" rx="2.5" ry="2.5" style="stroke:#181818;stroke-width:0.5;" width="45" x="154" y="683.6875"/><text fill="#000000" font-family="sans-serif" font-size="14" lengthAdjust="spacing" textLength="31" x="161" y="703.6826">User</text><rect fill="#E2E2F0" height="30.2969" rx="2.5" ry="2.5" style="stroke:#181818;stroke-width:0.5;" width="83" x="387" y="5"/><text fill="#000000" font-family="sans-serif" font-size="14" lengthAdjust="spacing" textLength="69" x="394" y="24.9951">Jupyter UI</text><rect fill="#E2E2F0" height="30.2969" rx="2.5" ry="2.5" style="stroke:#181818;stroke-width:0.5;" width="83" x="387" y="683.6875"/><text fill="#000000" font-family="sans-serif" font-size="14" lengthAdjust="spacing" textLength="69" x="394" y="703.6826">Jupyter UI</text><rect fill="#E2E2F0" height="30.2969" rx="2.5" ry="2.5" style="stroke:#181818;stroke-width:0.5;" width="132" x="656.5" y="5"/><text fill="#000000" font-family="sans-serif" font-size="14" lengthAdjust="spacing" textLength="118" x="663.5" y="24.9951">Jupyter Backend</text><rect fill="#E2E2F0" height="30.2969" rx="2.5" ry="2.5" style="stroke:#181818;stroke-width:0.5;" width="132" x="656.5" y="683.6875"/><text fill="#000000" font-family="sans-serif" font-size="14" lengthAdjust="spacing" textLength="118" x="663.5" y="703.6826">Jupyter Backend</text><rect fill="#E2E2F0" height="30.2969" rx="2.5" ry="2.5" style="stroke:#181818;stroke-width:0.5;" width="220" x="942.5" y="5"/><text fill="#000000" font-family="sans-serif" font-size="14" lengthAdjust="spacing" textLength="206" x="949.5" y="24.9951">OAuth2 Authorization Server</text><rect fill="#E2E2F0" height="30.2969" rx="2.5" ry="2.5" style="stroke:#181818;stroke-width:0.5;" width="220" x="942.5" y="683.6875"/><text fill="#000000" font-family="sans-serif" font-size="14" lengthAdjust="spacing" textLength="206" x="949.5" y="703.6826">OAuth2 Authorization Server</text><rect fill="#E2E2F0" height="30.2969" rx="2.5" ry="2.5" style="stroke:#181818;stroke-width:0.5;" width="160" x="1172.5" y="5"/><text fill="#000000" font-family="sans-serif" font-size="14" lengthAdjust="spacing" textLength="146" x="1179.5" y="24.9951">VDK Control Service</text><rect fill="#E2E2F0" height="30.2969" rx="2.5" ry="2.5" style="stroke:#181818;stroke-width:0.5;" width="160" x="1172.5" y="683.6875"/><text fill="#000000" font-family="sans-serif" font-size="14" lengthAdjust="spacing" textLength="146" x="1179.5" y="703.6826">VDK Control Service</text><rect fill="#FFFFFF" height="116.5313" style="stroke:#181818;stroke-width:1.0;" width="10" x="717.5" y="139.6953"/><rect fill="#EEEEEE" height="3" style="stroke:#EEEEEE;stroke-width:1.0;" width="1337.5" x="0" y="66.8633"/><line style="stroke:#000000;stroke-width:1.0;" x1="0" x2="1337.5" y1="66.8633" y2="66.8633"/><line style="stroke:#000000;stroke-width:1.0;" x1="0" x2="1337.5" y1="69.8633" y2="69.8633"/><rect fill="#EEEEEE" height="23.1328" style="stroke:#000000;stroke-width:2.0;" width="190" x="573.75" y="56.2969"/><text fill="#000000" font-family="sans-serif" font-size="13" font-weight="bold" lengthAdjust="spacing" textLength="171" x="579.75" y="72.3638">Standalone JupyterLab</text><polygon fill="#181818" points="416.5,106.5625,426.5,110.5625,416.5,114.5625,420.5,110.5625" style="stroke:#181818;stroke-width:1.0;"/><line style="stroke:#181818;stroke-width:1.0;" x1="176.5" x2="422.5" y1="110.5625" y2="110.5625"/><text fill="#000000" font-family="sans-serif" font-size="13" lengthAdjust="spacing" textLength="218" x="183.5" y="105.4966">Clicks "Login" from VDK dropdown</text><polygon fill="#181818" points="705.5,135.6953,715.5,139.6953,705.5,143.6953,709.5,139.6953" style="stroke:#181818;stroke-width:1.0;"/><line style="stroke:#181818;stroke-width:1.0;" x1="428.5" x2="711.5" y1="139.6953" y2="139.6953"/><text fill="#000000" font-family="sans-serif" font-size="13" lengthAdjust="spacing" textLength="217" x="435.5" y="134.6294">Initiate OAuth2 Authorization Flow</text><polygon fill="#181818" points="1040.5,164.8281,1050.5,168.8281,1040.5,172.8281,1044.5,168.8281" style="stroke:#181818;stroke-width:1.0;"/><line style="stroke:#181818;stroke-width:1.0;" x1="727.5" x2="1046.5" y1="168.8281" y2="168.8281"/><text fill="#000000" font-family="sans-serif" font-size="13" lengthAdjust="spacing" textLength="150" x="734.5" y="163.7622">Request Authentication</text><polygon fill="#181818" points="738.5,193.9609,728.5,197.9609,738.5,201.9609,734.5,197.9609" style="stroke:#181818;stroke-width:1.0;"/><line style="stroke:#181818;stroke-width:1.0;stroke-dasharray:2.0,2.0;" x1="732.5" x2="1051.5" y1="197.9609" y2="197.9609"/><text fill="#000000" font-family="sans-serif" font-size="13" lengthAdjust="spacing" textLength="215" x="744.5" y="192.895">Redirects with Authorization code</text><polygon fill="#181818" points="1040.5,223.0938,1050.5,227.0938,1040.5,231.0938,1044.5,227.0938" style="stroke:#181818;stroke-width:1.0;"/><line style="stroke:#181818;stroke-width:1.0;" x1="727.5" x2="1046.5" y1="227.0938" y2="227.0938"/><text fill="#000000" font-family="sans-serif" font-size="13" lengthAdjust="spacing" textLength="301" x="734.5" y="222.0278">Exchange Authorization code for Access Token</text><polygon fill="#181818" points="733.5,252.2266,723.5,256.2266,733.5,260.2266,729.5,256.2266" style="stroke:#181818;stroke-width:1.0;"/><line style="stroke:#181818;stroke-width:1.0;stroke-dasharray:2.0,2.0;" x1="727.5" x2="1051.5" y1="256.2266" y2="256.2266"/><text fill="#000000" font-family="sans-serif" font-size="13" lengthAdjust="spacing" textLength="135" x="739.5" y="251.1606">Return Access Token</text><polygon fill="#181818" points="1240.5,309.3594,1250.5,313.3594,1240.5,317.3594,1244.5,313.3594" style="stroke:#181818;stroke-width:1.0;"/><line style="stroke:#181818;stroke-width:1.0;" x1="722.5" x2="1246.5" y1="313.3594" y2="313.3594"/><text fill="#000000" font-family="sans-serif" font-size="13" lengthAdjust="spacing" textLength="160" x="729.5" y="308.2935">Authenticate using token</text><polygon fill="#181818" points="733.5,338.4922,723.5,342.4922,733.5,346.4922,729.5,342.4922" style="stroke:#181818;stroke-width:1.0;"/><line style="stroke:#181818;stroke-width:1.0;stroke-dasharray:2.0,2.0;" x1="727.5" x2="1251.5" y1="342.4922" y2="342.4922"/><text fill="#000000" font-family="sans-serif" font-size="13" lengthAdjust="spacing" textLength="156" x="739.5" y="337.4263">Authentication response</text><rect fill="#EEEEEE" height="3" style="stroke:#EEEEEE;stroke-width:1.0;" width="1337.5" x="0" y="371.0586"/><line style="stroke:#000000;stroke-width:1.0;" x1="0" x2="1337.5" y1="371.0586" y2="371.0586"/><line style="stroke:#000000;stroke-width:1.0;" x1="0" x2="1337.5" y1="374.0586" y2="374.0586"/><rect fill="#EEEEEE" height="23.1328" style="stroke:#000000;stroke-width:2.0;" width="394" x="471.75" y="360.4922"/><text fill="#000000" font-family="sans-serif" font-size="13" font-weight="bold" lengthAdjust="spacing" textLength="375" x="477.75" y="376.5591">Multi-user platform (e.g JupyterHub) Deployment</text><path d="M5,398.625 L5,423.625 L601,423.625 L601,408.625 L591,398.625 L5,398.625 " fill="#FEFFDD" style="stroke:#181818;stroke-width:0.5;"/><path d="M591,398.625 L591,408.625 L601,408.625 L591,398.625 " fill="#FEFFDD" style="stroke:#181818;stroke-width:0.5;"/><text fill="#000000" font-family="sans-serif" font-size="13" lengthAdjust="spacing" textLength="575" x="11" y="415.6919">This flow assumes user is already authenticated with JupyterHub and a token is available.</text><polygon fill="#181818" points="416.5,445.8906,426.5,449.8906,416.5,453.8906,420.5,449.8906" style="stroke:#181818;stroke-width:1.0;"/><line style="stroke:#181818;stroke-width:1.0;" x1="176.5" x2="422.5" y1="449.8906" y2="449.8906"/><text fill="#000000" font-family="sans-serif" font-size="13" lengthAdjust="spacing" textLength="159" x="183.5" y="444.8247">Access Jupyter notebook</text><polygon fill="#181818" points="710.5,475.0234,720.5,479.0234,710.5,483.0234,714.5,479.0234" style="stroke:#181818;stroke-width:1.0;"/><line style="stroke:#181818;stroke-width:1.0;" x1="428.5" x2="716.5" y1="479.0234" y2="479.0234"/><text fill="#000000" font-family="sans-serif" font-size="13" lengthAdjust="spacing" textLength="270" x="435.5" y="473.9575">Re-use browser local storage saved token</text><polygon fill="#181818" points="1240.5,532.1563,1250.5,536.1563,1240.5,540.1563,1244.5,536.1563" style="stroke:#181818;stroke-width:1.0;"/><line style="stroke:#181818;stroke-width:1.0;" x1="722.5" x2="1246.5" y1="536.1563" y2="536.1563"/><text fill="#000000" font-family="sans-serif" font-size="13" lengthAdjust="spacing" textLength="160" x="729.5" y="531.0903">Authenticate using token</text><polygon fill="#181818" points="733.5,561.2891,723.5,565.2891,733.5,569.2891,729.5,565.2891" style="stroke:#181818;stroke-width:1.0;"/><line style="stroke:#181818;stroke-width:1.0;stroke-dasharray:2.0,2.0;" x1="727.5" x2="1251.5" y1="565.2891" y2="565.2891"/><text fill="#000000" font-family="sans-serif" font-size="13" lengthAdjust="spacing" textLength="156" x="739.5" y="560.2231">Authentication response</text><rect fill="#EEEEEE" height="3" style="stroke:#EEEEEE;stroke-width:1.0;" width="1337.5" x="0" y="593.8555"/><line style="stroke:#000000;stroke-width:1.0;" x1="0" x2="1337.5" y1="593.8555" y2="593.8555"/><line style="stroke:#000000;stroke-width:1.0;" x1="0" x2="1337.5" y1="596.8555" y2="596.8555"/><rect fill="#EEEEEE" height="23.1328" style="stroke:#000000;stroke-width:2.0;" width="78" x="629.75" y="583.2891"/><text fill="#000000" font-family="sans-serif" font-size="13" font-weight="bold" lengthAdjust="spacing" textLength="59" x="635.75" y="599.356">Log out</text><polygon fill="#181818" points="416.5,633.5547,426.5,637.5547,416.5,641.5547,420.5,637.5547" style="stroke:#181818;stroke-width:1.0;"/><line style="stroke:#181818;stroke-width:1.0;" x1="176.5" x2="422.5" y1="637.5547" y2="637.5547"/><text fill="#000000" font-family="sans-serif" font-size="13" lengthAdjust="spacing" textLength="228" x="183.5" y="632.4888">Clicks "Logout" from VDK dropdown</text><polygon fill="#181818" points="710.5,662.6875,720.5,666.6875,710.5,670.6875,714.5,666.6875" style="stroke:#181818;stroke-width:1.0;"/><line style="stroke:#181818;stroke-width:1.0;" x1="428.5" x2="716.5" y1="666.6875" y2="666.6875"/><text fill="#000000" font-family="sans-serif" font-size="13" lengthAdjust="spacing" textLength="214" x="435.5" y="661.6216">Delete VDK-specific access token</text><!--SRC=[jLF1ZjD03BtFLrWzWKHpuBXIaPRj8XOM8NLtkJipRZjqEWupavJozNWcYMWWQBbmYPBusNxFVcum9AjjWpx1uYbIM016QEL5DPUX3srpJXJWwQu0llQVyvYtg0_aJG7M_ViK-FcwJVlNa9ySx0zCbZqyKEY6zemvFitvilu8D-nJO5UWLbF1TkQWr6e53mczGSUUOE1nZpMiLafbCR1yCtA6AxXnLXyYBEvvP_q2je6FaEkRm8tXarSZLB860P9rvssoc0XcwRzpV5Aea-qoP9GzPakXNfJKsT2tbc8g-UH5OIcWXlXoqdD3nWRIASB9flrlBJKRckrm-rtlqUze1WzR3d2jDSK8ZooPV-kRsk2dG4D_oAkgwfA0x49oBtIHECdw7QHI88UdRQOZW42nOHz9bOr-QbsooxAznc4IuaTuGTLktE_xjdu9QseSduzI9E_QixHaiL5nyAjXZLVmkBSHjh8XSKniZzGx7EGdka1epe0Nf4q_x5zjGAm5sAieIHrQXxMZQivTmz36QyYSQkR3lAasb1L27VYK2pdMw20c3YZhYzW9cNvu_stKCccv0-0sFNyj0lhdSrcJ8s4bm6LiIDkjrO3zQ0h7dm00]--></g></svg>