<svg xmlns="http://www.w3.org/2000/svg" xmlns:xlink="http://www.w3.org/1999/xlink" width="500" zoomAndPan="magnify" viewBox="0 0 375 374.999991" height="500" preserveAspectRatio="xMidYMid meet" version="1.0"><defs><g/><clipPath id="912eba3782"><path d="M 185 127 L 276.269531 127 L 276.269531 183 L 185 183 Z M 185 127 " clip-rule="nonzero"/></clipPath><clipPath id="781a28f1af"><path d="M 126.269531 52.289062 L 237 52.289062 L 237 202.289062 L 126.269531 202.289062 Z M 126.269531 52.289062 " clip-rule="nonzero"/></clipPath></defs><rect x="-37.5" width="450" fill="#ffffff" y="-37.499999" height="449.999989" fill-opacity="1"/><rect x="-37.5" width="450" fill="#ffffff" y="-37.499999" height="449.999989" fill-opacity="1"/><rect x="-37.5" width="450" fill="#ffffff" y="-37.499999" height="449.999989" fill-opacity="1"/><path fill="#000000" d="M 217.585938 94.980469 C 217.585938 94.980469 145.386719 94.980469 145.058594 94.980469 C 141.90625 94.980469 141.84375 99.925781 145.058594 99.925781 C 145.058594 99.925781 217.226562 99.925781 217.585938 99.925781 C 220.699219 99.925781 220.738281 94.980469 217.585938 94.980469 Z M 217.585938 94.980469 " fill-opacity="1" fill-rule="nonzero"/><path fill="#000000" d="M 204.398438 111.464844 C 204.398438 111.464844 145.328125 111.464844 145.058594 111.464844 C 141.945312 111.464844 141.835938 116.410156 145.058594 116.410156 C 145.058594 116.410156 204.195312 116.410156 204.398438 116.410156 C 207.347656 116.410156 207.597656 111.464844 204.398438 111.464844 Z M 204.398438 111.464844 " fill-opacity="1" fill-rule="nonzero"/><path fill="#000000" d="M 145.058594 132.890625 C 145.058594 132.890625 174.636719 132.890625 174.730469 132.890625 C 177.820312 132.890625 178.011719 127.945312 174.730469 127.945312 C 174.730469 127.945312 145.199219 127.945312 145.058594 127.945312 C 141.863281 127.945312 141.863281 132.890625 145.058594 132.890625 Z M 145.058594 132.890625 " fill-opacity="1" fill-rule="nonzero"/><path fill="#000000" d="M 174.730469 144.429688 C 174.730469 144.429688 145.203125 144.429688 145.058594 144.429688 C 141.933594 144.429688 141.847656 149.375 145.058594 149.375 C 145.058594 149.375 174.59375 149.375 174.730469 149.375 C 177.902344 149.375 177.941406 144.429688 174.730469 144.429688 Z M 174.730469 144.429688 " fill-opacity="1" fill-rule="nonzero"/><path fill="#000000" d="M 145.058594 177.398438 C 141.949219 177.398438 141.863281 182.34375 145.058594 182.34375 C 145.058594 182.34375 174.652344 182.34375 174.730469 182.34375 C 177.8125 182.34375 177.949219 177.398438 174.730469 177.398438 C 174.730469 177.398438 145.058594 177.398438 145.058594 177.398438 Z M 145.058594 177.398438 " fill-opacity="1" fill-rule="nonzero"/><path fill="#000000" d="M 174.730469 160.914062 C 174.730469 160.914062 145.179688 160.914062 145.058594 160.914062 C 141.921875 160.914062 141.84375 165.859375 145.058594 165.859375 C 145.058594 165.859375 174.625 165.859375 174.730469 165.859375 C 177.871094 165.859375 177.941406 160.914062 174.730469 160.914062 Z M 174.730469 160.914062 " fill-opacity="1" fill-rule="nonzero"/><g clip-path="url(#912eba3782)"><path fill="#000000" d="M 263.742188 127.945312 L 197.804688 127.945312 C 190.988281 127.945312 185.445312 133.496094 185.445312 140.308594 L 185.445312 169.980469 C 185.445312 176.796875 190.988281 182.34375 197.804688 182.34375 L 263.742188 182.34375 C 270.558594 182.34375 276.101562 176.796875 276.101562 169.980469 L 276.101562 140.308594 C 276.101562 133.496094 270.558594 127.945312 263.742188 127.945312 Z M 271.15625 169.980469 C 271.15625 174.070312 267.832031 177.398438 263.742188 177.398438 L 197.804688 177.398438 C 193.714844 177.398438 190.390625 174.070312 190.390625 169.980469 L 190.390625 140.308594 C 190.390625 136.222656 193.714844 132.890625 197.804688 132.890625 L 263.742188 132.890625 C 267.832031 132.890625 271.15625 136.222656 271.15625 140.308594 Z M 271.15625 169.980469 " fill-opacity="1" fill-rule="nonzero"/></g><path fill="#000000" d="M 214.289062 141.132812 C 209.289062 141.132812 205.222656 145.199219 205.222656 150.199219 C 205.222656 150.199219 205.222656 166.605469 205.222656 166.683594 C 205.222656 169.796875 210.167969 169.898438 210.167969 166.683594 L 210.167969 162.5625 L 218.410156 162.5625 C 218.410156 162.5625 218.410156 166.664062 218.410156 166.683594 C 218.410156 169.851562 223.355469 169.902344 223.355469 166.683594 L 223.355469 150.199219 C 223.355469 145.199219 219.289062 141.132812 214.289062 141.132812 Z M 218.410156 157.617188 L 210.167969 157.617188 L 210.167969 150.199219 C 210.167969 147.925781 212.015625 146.078125 214.289062 146.078125 C 216.5625 146.078125 218.410156 147.925781 218.410156 150.199219 Z M 218.410156 157.617188 " fill-opacity="1" fill-rule="nonzero"/><path fill="#000000" d="M 237.367188 141.132812 L 230.773438 141.132812 C 229.410156 141.132812 228.300781 142.242188 228.300781 143.605469 C 228.300781 143.605469 228.300781 166.59375 228.300781 166.683594 C 228.300781 169.882812 233.246094 169.878906 233.246094 166.683594 L 233.246094 159.265625 L 237.367188 159.265625 C 242.367188 159.265625 246.433594 155.199219 246.433594 150.199219 C 246.433594 145.199219 242.367188 141.132812 237.367188 141.132812 Z M 237.367188 154.320312 L 233.246094 154.320312 L 233.246094 146.078125 L 237.367188 146.078125 C 239.640625 146.078125 241.488281 147.925781 241.488281 150.199219 C 241.488281 152.472656 239.640625 154.320312 237.367188 154.320312 Z M 237.367188 154.320312 " fill-opacity="1" fill-rule="nonzero"/><path fill="#000000" d="M 253.847656 141.335938 C 252.613281 141.308594 251.378906 142.039062 251.378906 143.605469 C 251.378906 143.605469 251.378906 166.683594 251.378906 166.683594 C 251.378906 169.800781 256.324219 169.726562 256.324219 166.683594 C 256.324219 166.683594 256.324219 143.730469 256.324219 143.605469 C 256.324219 142.144531 255.085938 141.359375 253.847656 141.335938 Z M 253.847656 141.335938 " fill-opacity="1" fill-rule="nonzero"/><g clip-path="url(#781a28f1af)"><path fill="#000000" d="M 234.070312 187.289062 C 232.707031 187.289062 231.597656 188.394531 231.597656 189.761719 C 231.597656 193.847656 228.269531 197.179688 224.179688 197.179688 L 138.464844 197.179688 C 134.375 197.179688 131.046875 193.847656 131.046875 189.761719 L 131.046875 64.484375 C 131.046875 60.394531 134.375 57.066406 138.464844 57.066406 L 201.925781 57.066406 L 201.925781 80.96875 C 201.925781 84.148438 204.515625 86.738281 207.695312 86.738281 L 231.597656 86.738281 L 231.597656 120.53125 C 231.597656 121.894531 232.707031 123.003906 234.070312 123.003906 C 235.433594 123.003906 236.542969 121.894531 236.542969 120.53125 L 236.542969 84.265625 C 236.542969 83.609375 236.28125 82.980469 235.820312 82.519531 L 206.148438 52.847656 C 205.683594 52.382812 205.054688 52.121094 204.398438 52.121094 L 138.464844 52.121094 C 131.648438 52.121094 126.101562 57.667969 126.101562 64.484375 L 126.101562 189.761719 C 126.101562 196.574219 131.648438 202.121094 138.464844 202.121094 L 224.179688 202.121094 C 230.996094 202.121094 236.542969 196.574219 236.542969 189.761719 C 236.542969 188.394531 235.433594 187.289062 234.070312 187.289062 Z M 206.871094 80.96875 L 206.871094 60.5625 L 228.101562 81.792969 L 207.695312 81.792969 C 207.242188 81.792969 206.871094 81.421875 206.871094 80.96875 Z M 206.871094 80.96875 " fill-opacity="1" fill-rule="nonzero"/></g><g fill="#000000" fill-opacity="1"><g transform="translate(142.986324, 245.168715)"><g><path d="M 5.0625 0.171875 C 4.269531 0.171875 3.566406 0.0703125 2.953125 -0.125 C 2.335938 -0.320312 1.820312 -0.578125 1.40625 -0.890625 C 1 -1.210938 0.6875 -1.566406 0.46875 -1.953125 L 1.703125 -3.46875 L 1.90625 -3.46875 C 2.25 -2.957031 2.679688 -2.550781 3.203125 -2.25 C 3.734375 -1.945312 4.351562 -1.796875 5.0625 -1.796875 C 5.664062 -1.796875 6.117188 -1.921875 6.421875 -2.171875 C 6.734375 -2.429688 6.890625 -2.785156 6.890625 -3.234375 C 6.890625 -3.503906 6.835938 -3.726562 6.734375 -3.90625 C 6.640625 -4.09375 6.476562 -4.25 6.25 -4.375 C 6.019531 -4.507812 5.710938 -4.625 5.328125 -4.71875 L 3.859375 -5.046875 C 2.828125 -5.285156 2.0625 -5.675781 1.5625 -6.21875 C 1.0625 -6.757812 0.8125 -7.46875 0.8125 -8.34375 C 0.8125 -8.988281 0.972656 -9.554688 1.296875 -10.046875 C 1.617188 -10.535156 2.085938 -10.914062 2.703125 -11.1875 C 3.316406 -11.457031 4.054688 -11.59375 4.921875 -11.59375 C 5.796875 -11.59375 6.546875 -11.472656 7.171875 -11.234375 C 7.804688 -11.003906 8.335938 -10.648438 8.765625 -10.171875 L 7.65625 -8.640625 L 7.453125 -8.640625 C 7.128906 -8.984375 6.757812 -9.238281 6.34375 -9.40625 C 5.925781 -9.570312 5.453125 -9.65625 4.921875 -9.65625 C 4.296875 -9.65625 3.820312 -9.546875 3.5 -9.328125 C 3.175781 -9.109375 3.015625 -8.804688 3.015625 -8.421875 C 3.015625 -8.066406 3.128906 -7.78125 3.359375 -7.5625 C 3.585938 -7.351562 3.976562 -7.1875 4.53125 -7.0625 L 6.03125 -6.75 C 7.144531 -6.519531 7.953125 -6.125 8.453125 -5.5625 C 8.953125 -5 9.203125 -4.269531 9.203125 -3.375 C 9.203125 -2.65625 9.046875 -2.03125 8.734375 -1.5 C 8.429688 -0.976562 7.96875 -0.566406 7.34375 -0.265625 C 6.726562 0.0234375 5.96875 0.171875 5.0625 0.171875 Z M 5.0625 0.171875 "/></g></g></g><g fill="#000000" fill-opacity="1"><g transform="translate(152.796428, 245.168715)"><g><path d="M 4.625 0 L 2.359375 0 L 0.3125 -8.625 L 2.328125 -8.625 L 3.59375 -2.796875 L 3.75 -2.796875 L 5.390625 -8.625 L 7.265625 -8.625 L 8.96875 -2.796875 L 9.125 -2.796875 L 10.34375 -8.625 L 12.296875 -8.625 L 10.28125 0 L 8 0 L 6.375 -5.875 L 6.203125 -5.875 Z M 4.625 0 "/></g></g></g><g fill="#000000" fill-opacity="1"><g transform="translate(165.394919, 245.168715)"><g><path d="M 3.359375 0.171875 C 2.804688 0.171875 2.328125 0.0664062 1.921875 -0.140625 C 1.515625 -0.347656 1.203125 -0.644531 0.984375 -1.03125 C 0.765625 -1.425781 0.65625 -1.898438 0.65625 -2.453125 C 0.65625 -2.960938 0.765625 -3.390625 0.984375 -3.734375 C 1.203125 -4.085938 1.539062 -4.375 2 -4.59375 C 2.457031 -4.8125 3.054688 -4.984375 3.796875 -5.109375 C 4.316406 -5.191406 4.707031 -5.28125 4.96875 -5.375 C 5.238281 -5.476562 5.421875 -5.59375 5.515625 -5.71875 C 5.609375 -5.84375 5.65625 -6 5.65625 -6.1875 C 5.65625 -6.46875 5.554688 -6.679688 5.359375 -6.828125 C 5.171875 -6.972656 4.851562 -7.046875 4.40625 -7.046875 C 3.925781 -7.046875 3.46875 -6.9375 3.03125 -6.71875 C 2.601562 -6.507812 2.234375 -6.226562 1.921875 -5.875 L 1.765625 -5.875 L 0.859375 -7.25 C 1.296875 -7.726562 1.828125 -8.101562 2.453125 -8.375 C 3.085938 -8.644531 3.773438 -8.78125 4.515625 -8.78125 C 5.660156 -8.78125 6.488281 -8.535156 7 -8.046875 C 7.507812 -7.566406 7.765625 -6.882812 7.765625 -6 L 7.765625 -2.25 C 7.765625 -1.863281 7.929688 -1.671875 8.265625 -1.671875 C 8.398438 -1.671875 8.53125 -1.695312 8.65625 -1.75 L 8.765625 -1.71875 L 8.921875 -0.203125 C 8.796875 -0.128906 8.625 -0.0664062 8.40625 -0.015625 C 8.195312 0.0351562 7.96875 0.0625 7.71875 0.0625 C 7.195312 0.0625 6.789062 -0.0351562 6.5 -0.234375 C 6.21875 -0.429688 6.015625 -0.742188 5.890625 -1.171875 L 5.71875 -1.1875 C 5.300781 -0.28125 4.515625 0.171875 3.359375 0.171875 Z M 4.046875 -1.453125 C 4.546875 -1.453125 4.945312 -1.617188 5.25 -1.953125 C 5.550781 -2.296875 5.703125 -2.765625 5.703125 -3.359375 L 5.703125 -4.234375 L 5.546875 -4.265625 C 5.421875 -4.160156 5.25 -4.070312 5.03125 -4 C 4.820312 -3.9375 4.519531 -3.867188 4.125 -3.796875 C 3.65625 -3.722656 3.316406 -3.585938 3.109375 -3.390625 C 2.910156 -3.203125 2.8125 -2.9375 2.8125 -2.59375 C 2.8125 -2.21875 2.921875 -1.929688 3.140625 -1.734375 C 3.359375 -1.546875 3.660156 -1.453125 4.046875 -1.453125 Z M 4.046875 -1.453125 "/></g></g></g><g fill="#000000" fill-opacity="1"><g transform="translate(174.478643, 245.168715)"><g><path d="M 4.46875 3.65625 C 3.050781 3.65625 2.003906 3.445312 1.328125 3.03125 C 0.648438 2.613281 0.3125 2.035156 0.3125 1.296875 C 0.3125 0.835938 0.453125 0.460938 0.734375 0.171875 C 1.023438 -0.117188 1.441406 -0.3125 1.984375 -0.40625 L 1.984375 -0.578125 C 1.691406 -0.753906 1.484375 -0.945312 1.359375 -1.15625 C 1.234375 -1.375 1.171875 -1.628906 1.171875 -1.921875 C 1.171875 -2.609375 1.617188 -3.070312 2.515625 -3.3125 L 2.515625 -3.484375 C 2.054688 -3.742188 1.707031 -4.070312 1.46875 -4.46875 C 1.238281 -4.863281 1.125 -5.335938 1.125 -5.890625 C 1.125 -6.460938 1.253906 -6.96875 1.515625 -7.40625 C 1.773438 -7.84375 2.160156 -8.179688 2.671875 -8.421875 C 3.179688 -8.660156 3.789062 -8.78125 4.5 -8.78125 C 5.21875 -8.78125 5.789062 -8.65625 6.21875 -8.40625 C 6.476562 -8.789062 6.628906 -9.238281 6.671875 -9.75 L 6.84375 -9.84375 L 8.390625 -9.46875 C 8.347656 -9.050781 8.226562 -8.703125 8.03125 -8.421875 C 7.84375 -8.148438 7.546875 -7.90625 7.140625 -7.6875 L 7.140625 -7.515625 C 7.617188 -7.085938 7.859375 -6.488281 7.859375 -5.71875 C 7.859375 -5.1875 7.722656 -4.707031 7.453125 -4.28125 C 7.191406 -3.863281 6.804688 -3.53125 6.296875 -3.28125 C 5.796875 -3.039062 5.195312 -2.921875 4.5 -2.921875 L 4.171875 -2.9375 C 3.960938 -2.945312 3.816406 -2.953125 3.734375 -2.953125 C 3.535156 -2.953125 3.378906 -2.894531 3.265625 -2.78125 C 3.148438 -2.675781 3.09375 -2.539062 3.09375 -2.375 C 3.09375 -2.195312 3.164062 -2.054688 3.3125 -1.953125 C 3.457031 -1.847656 3.671875 -1.789062 3.953125 -1.78125 L 5.890625 -1.71875 C 7.796875 -1.65625 8.75 -0.832031 8.75 0.75 C 8.75 1.3125 8.601562 1.804688 8.3125 2.234375 C 8.03125 2.671875 7.570312 3.015625 6.9375 3.265625 C 6.300781 3.523438 5.476562 3.65625 4.46875 3.65625 Z M 4.5 -4.4375 C 4.914062 -4.4375 5.238281 -4.554688 5.46875 -4.796875 C 5.707031 -5.046875 5.828125 -5.398438 5.828125 -5.859375 C 5.828125 -6.304688 5.707031 -6.648438 5.46875 -6.890625 C 5.238281 -7.140625 4.914062 -7.265625 4.5 -7.265625 C 4.070312 -7.265625 3.742188 -7.140625 3.515625 -6.890625 C 3.285156 -6.648438 3.171875 -6.304688 3.171875 -5.859375 C 3.171875 -5.398438 3.285156 -5.046875 3.515625 -4.796875 C 3.742188 -4.554688 4.070312 -4.4375 4.5 -4.4375 Z M 4.46875 2.09375 C 5.207031 2.09375 5.742188 1.988281 6.078125 1.78125 C 6.421875 1.570312 6.59375 1.300781 6.59375 0.96875 C 6.59375 0.695312 6.503906 0.492188 6.328125 0.359375 C 6.160156 0.234375 5.890625 0.164062 5.515625 0.15625 L 3.8125 0.078125 C 3.75 0.078125 3.691406 0.0703125 3.640625 0.0625 C 3.597656 0.0625 3.550781 0.0625 3.5 0.0625 C 3.132812 0.0625 2.859375 0.140625 2.671875 0.296875 C 2.484375 0.453125 2.390625 0.671875 2.390625 0.953125 C 2.390625 1.316406 2.5625 1.597656 2.90625 1.796875 C 3.257812 1.992188 3.78125 2.09375 4.46875 2.09375 Z M 4.46875 2.09375 "/></g></g></g><g fill="#000000" fill-opacity="1"><g transform="translate(183.437398, 245.168715)"><g><path d="M 4.46875 3.65625 C 3.050781 3.65625 2.003906 3.445312 1.328125 3.03125 C 0.648438 2.613281 0.3125 2.035156 0.3125 1.296875 C 0.3125 0.835938 0.453125 0.460938 0.734375 0.171875 C 1.023438 -0.117188 1.441406 -0.3125 1.984375 -0.40625 L 1.984375 -0.578125 C 1.691406 -0.753906 1.484375 -0.945312 1.359375 -1.15625 C 1.234375 -1.375 1.171875 -1.628906 1.171875 -1.921875 C 1.171875 -2.609375 1.617188 -3.070312 2.515625 -3.3125 L 2.515625 -3.484375 C 2.054688 -3.742188 1.707031 -4.070312 1.46875 -4.46875 C 1.238281 -4.863281 1.125 -5.335938 1.125 -5.890625 C 1.125 -6.460938 1.253906 -6.96875 1.515625 -7.40625 C 1.773438 -7.84375 2.160156 -8.179688 2.671875 -8.421875 C 3.179688 -8.660156 3.789062 -8.78125 4.5 -8.78125 C 5.21875 -8.78125 5.789062 -8.65625 6.21875 -8.40625 C 6.476562 -8.789062 6.628906 -9.238281 6.671875 -9.75 L 6.84375 -9.84375 L 8.390625 -9.46875 C 8.347656 -9.050781 8.226562 -8.703125 8.03125 -8.421875 C 7.84375 -8.148438 7.546875 -7.90625 7.140625 -7.6875 L 7.140625 -7.515625 C 7.617188 -7.085938 7.859375 -6.488281 7.859375 -5.71875 C 7.859375 -5.1875 7.722656 -4.707031 7.453125 -4.28125 C 7.191406 -3.863281 6.804688 -3.53125 6.296875 -3.28125 C 5.796875 -3.039062 5.195312 -2.921875 4.5 -2.921875 L 4.171875 -2.9375 C 3.960938 -2.945312 3.816406 -2.953125 3.734375 -2.953125 C 3.535156 -2.953125 3.378906 -2.894531 3.265625 -2.78125 C 3.148438 -2.675781 3.09375 -2.539062 3.09375 -2.375 C 3.09375 -2.195312 3.164062 -2.054688 3.3125 -1.953125 C 3.457031 -1.847656 3.671875 -1.789062 3.953125 -1.78125 L 5.890625 -1.71875 C 7.796875 -1.65625 8.75 -0.832031 8.75 0.75 C 8.75 1.3125 8.601562 1.804688 8.3125 2.234375 C 8.03125 2.671875 7.570312 3.015625 6.9375 3.265625 C 6.300781 3.523438 5.476562 3.65625 4.46875 3.65625 Z M 4.5 -4.4375 C 4.914062 -4.4375 5.238281 -4.554688 5.46875 -4.796875 C 5.707031 -5.046875 5.828125 -5.398438 5.828125 -5.859375 C 5.828125 -6.304688 5.707031 -6.648438 5.46875 -6.890625 C 5.238281 -7.140625 4.914062 -7.265625 4.5 -7.265625 C 4.070312 -7.265625 3.742188 -7.140625 3.515625 -6.890625 C 3.285156 -6.648438 3.171875 -6.304688 3.171875 -5.859375 C 3.171875 -5.398438 3.285156 -5.046875 3.515625 -4.796875 C 3.742188 -4.554688 4.070312 -4.4375 4.5 -4.4375 Z M 4.46875 2.09375 C 5.207031 2.09375 5.742188 1.988281 6.078125 1.78125 C 6.421875 1.570312 6.59375 1.300781 6.59375 0.96875 C 6.59375 0.695312 6.503906 0.492188 6.328125 0.359375 C 6.160156 0.234375 5.890625 0.164062 5.515625 0.15625 L 3.8125 0.078125 C 3.75 0.078125 3.691406 0.0703125 3.640625 0.0625 C 3.597656 0.0625 3.550781 0.0625 3.5 0.0625 C 3.132812 0.0625 2.859375 0.140625 2.671875 0.296875 C 2.484375 0.453125 2.390625 0.671875 2.390625 0.953125 C 2.390625 1.316406 2.5625 1.597656 2.90625 1.796875 C 3.257812 1.992188 3.78125 2.09375 4.46875 2.09375 Z M 4.46875 2.09375 "/></g></g></g><g fill="#000000" fill-opacity="1"><g transform="translate(192.396153, 245.168715)"><g><path d="M 8.515625 -3.828125 L 2.984375 -3.828125 C 3.046875 -3.078125 3.257812 -2.53125 3.625 -2.1875 C 3.988281 -1.84375 4.484375 -1.671875 5.109375 -1.671875 C 5.609375 -1.671875 6.007812 -1.765625 6.3125 -1.953125 C 6.625 -2.140625 6.875 -2.421875 7.0625 -2.796875 L 7.21875 -2.796875 L 8.65625 -1.875 C 8.375 -1.269531 7.945312 -0.773438 7.375 -0.390625 C 6.8125 -0.015625 6.054688 0.171875 5.109375 0.171875 C 4.222656 0.171875 3.453125 0 2.796875 -0.34375 C 2.148438 -0.6875 1.648438 -1.191406 1.296875 -1.859375 C 0.953125 -2.523438 0.78125 -3.34375 0.78125 -4.3125 C 0.78125 -5.289062 0.960938 -6.113281 1.328125 -6.78125 C 1.703125 -7.457031 2.203125 -7.957031 2.828125 -8.28125 C 3.460938 -8.613281 4.171875 -8.78125 4.953125 -8.78125 C 6.171875 -8.78125 7.101562 -8.457031 7.75 -7.8125 C 8.40625 -7.164062 8.734375 -6.21875 8.734375 -4.96875 C 8.734375 -4.519531 8.71875 -4.171875 8.6875 -3.921875 Z M 6.65625 -5.21875 C 6.632812 -5.875 6.484375 -6.351562 6.203125 -6.65625 C 5.921875 -6.957031 5.503906 -7.109375 4.953125 -7.109375 C 3.859375 -7.109375 3.21875 -6.476562 3.03125 -5.21875 Z M 6.65625 -5.21875 "/></g></g></g><g fill="#000000" fill-opacity="1"><g transform="translate(201.761058, 245.168715)"><g><path d="M 1.25 0 L 1.25 -8.625 L 3.34375 -8.625 L 3.34375 -7.34375 L 3.515625 -7.3125 C 3.722656 -7.789062 3.992188 -8.140625 4.328125 -8.359375 C 4.671875 -8.585938 5.082031 -8.703125 5.5625 -8.703125 C 6.050781 -8.703125 6.425781 -8.617188 6.6875 -8.453125 L 6.3125 -6.578125 L 6.15625 -6.546875 C 6.007812 -6.609375 5.867188 -6.648438 5.734375 -6.671875 C 5.609375 -6.703125 5.453125 -6.71875 5.265625 -6.71875 C 4.660156 -6.71875 4.195312 -6.503906 3.875 -6.078125 C 3.5625 -5.648438 3.40625 -4.96875 3.40625 -4.03125 L 3.40625 0 Z M 1.25 0 "/></g></g></g><g fill="#000000" fill-opacity="1"><g transform="translate(208.517226, 245.168715)"><g/></g></g><g fill="#000000" fill-opacity="1"><g transform="translate(212.289748, 245.168715)"><g><path d="M 6.0625 0.171875 C 4.488281 0.171875 3.320312 -0.203125 2.5625 -0.953125 C 1.800781 -1.703125 1.421875 -2.8125 1.421875 -4.28125 L 1.421875 -11.421875 L 3.625 -11.421875 L 3.625 -4.296875 C 3.625 -3.460938 3.820312 -2.835938 4.21875 -2.421875 C 4.625 -2.003906 5.238281 -1.796875 6.0625 -1.796875 C 7.675781 -1.796875 8.484375 -2.628906 8.484375 -4.296875 L 8.484375 -11.421875 L 10.703125 -11.421875 L 10.703125 -4.28125 C 10.703125 -2.8125 10.320312 -1.703125 9.5625 -0.953125 C 8.800781 -0.203125 7.632812 0.171875 6.0625 0.171875 Z M 6.0625 0.171875 "/></g></g></g><g fill="#000000" fill-opacity="1"><g transform="translate(224.396166, 245.168715)"><g><path d="M 3.75 0 L 1.484375 0 L 1.484375 -11.421875 L 3.75 -11.421875 Z M 3.75 0 "/></g></g></g><g fill="#000000" fill-opacity="1"><g transform="translate(229.623037, 245.168715)"><g/></g></g><g fill="#000000" fill-opacity="1"><g transform="translate(71.707031, 289.649688)"><g><path d="M 1.515625 0 L 1.515625 -10 L 5.140625 -10 C 5.804688 -10 6.367188 -9.882812 6.828125 -9.65625 C 7.285156 -9.4375 7.628906 -9.125 7.859375 -8.71875 C 8.085938 -8.320312 8.203125 -7.847656 8.203125 -7.296875 C 8.203125 -6.671875 8.046875 -6.15625 7.734375 -5.75 C 7.421875 -5.351562 6.9375 -5.054688 6.28125 -4.859375 L 6.28125 -4.703125 C 6.601562 -4.578125 6.867188 -4.378906 7.078125 -4.109375 C 7.285156 -3.835938 7.472656 -3.429688 7.640625 -2.890625 L 8.5625 0 L 7.359375 0 L 6.359375 -3.0625 C 6.242188 -3.414062 6.109375 -3.695312 5.953125 -3.90625 C 5.796875 -4.113281 5.597656 -4.257812 5.359375 -4.34375 C 5.117188 -4.4375 4.816406 -4.484375 4.453125 -4.484375 L 2.6875 -4.484375 L 2.6875 0 Z M 5.109375 -5.484375 C 5.734375 -5.484375 6.195312 -5.625 6.5 -5.90625 C 6.8125 -6.195312 6.96875 -6.640625 6.96875 -7.234375 C 6.96875 -7.828125 6.8125 -8.269531 6.5 -8.5625 C 6.195312 -8.851562 5.734375 -9 5.109375 -9 L 2.6875 -9 L 2.6875 -5.484375 Z M 5.109375 -5.484375 "/></g></g></g><g fill="#000000" fill-opacity="1"><g transform="translate(80.957725, 289.649688)"><g><path d="M 2.6875 -4.703125 L 2.6875 -0.96875 L 7.78125 -0.96875 L 7.78125 0 L 1.515625 0 L 1.515625 -10 L 7.671875 -10 L 7.671875 -9.03125 L 2.6875 -9.03125 L 2.6875 -5.6875 L 7.078125 -5.6875 L 7.078125 -4.703125 Z M 2.6875 -4.703125 "/></g></g></g><g fill="#000000" fill-opacity="1"><g transform="translate(89.395396, 289.649688)"><g><path d="M 4.375 0.140625 C 3.738281 0.140625 3.171875 0.0546875 2.671875 -0.109375 C 2.171875 -0.285156 1.753906 -0.507812 1.421875 -0.78125 C 1.097656 -1.0625 0.851562 -1.367188 0.6875 -1.703125 L 1.328125 -2.484375 L 1.5 -2.484375 C 2.113281 -1.441406 3.070312 -0.921875 4.375 -0.921875 C 5.125 -0.921875 5.679688 -1.078125 6.046875 -1.390625 C 6.410156 -1.703125 6.59375 -2.140625 6.59375 -2.703125 C 6.59375 -3.023438 6.53125 -3.300781 6.40625 -3.53125 C 6.289062 -3.757812 6.09375 -3.953125 5.8125 -4.109375 C 5.539062 -4.273438 5.164062 -4.421875 4.6875 -4.546875 L 3.515625 -4.828125 C 2.640625 -5.035156 1.992188 -5.367188 1.578125 -5.828125 C 1.171875 -6.285156 0.96875 -6.863281 0.96875 -7.5625 C 0.96875 -8.0625 1.09375 -8.503906 1.34375 -8.890625 C 1.601562 -9.285156 1.976562 -9.59375 2.46875 -9.8125 C 2.96875 -10.03125 3.554688 -10.140625 4.234375 -10.140625 C 4.984375 -10.140625 5.617188 -10.03125 6.140625 -9.8125 C 6.660156 -9.601562 7.078125 -9.285156 7.390625 -8.859375 L 6.8125 -8.09375 L 6.640625 -8.09375 C 6.347656 -8.445312 6.003906 -8.703125 5.609375 -8.859375 C 5.222656 -9.023438 4.765625 -9.109375 4.234375 -9.109375 C 3.546875 -9.109375 3.023438 -8.972656 2.671875 -8.703125 C 2.316406 -8.441406 2.140625 -8.070312 2.140625 -7.59375 C 2.140625 -7.144531 2.269531 -6.785156 2.53125 -6.515625 C 2.789062 -6.253906 3.226562 -6.050781 3.84375 -5.90625 L 5.03125 -5.609375 C 6.007812 -5.378906 6.710938 -5.03125 7.140625 -4.5625 C 7.578125 -4.09375 7.796875 -3.488281 7.796875 -2.75 C 7.796875 -2.1875 7.671875 -1.6875 7.421875 -1.25 C 7.171875 -0.820312 6.785156 -0.484375 6.265625 -0.234375 C 5.753906 0.015625 5.125 0.140625 4.375 0.140625 Z M 4.375 0.140625 "/></g></g></g><g fill="#000000" fill-opacity="1"><g transform="translate(97.956045, 289.649688)"><g><path d="M 7.796875 -10 L 7.796875 -9 L 4.671875 -9 L 4.671875 0 L 3.5 0 L 3.5 -9 L 0.375 -9 L 0.375 -10 Z M 7.796875 -10 "/></g></g></g><g fill="#000000" fill-opacity="1"><g transform="translate(106.113599, 289.649688)"><g/></g></g><g fill="#000000" fill-opacity="1"><g transform="translate(109.543325, 289.649688)"><g><path d="M 9 0 L 7.734375 0 L 6.8125 -2.734375 L 2.5625 -2.734375 L 1.625 0 L 0.390625 0 L 3.890625 -10 L 5.515625 -10 Z M 4.59375 -8.78125 L 2.890625 -3.71875 L 6.484375 -3.71875 L 4.765625 -8.78125 Z M 4.59375 -8.78125 "/></g></g></g><g fill="#000000" fill-opacity="1"><g transform="translate(118.930661, 289.649688)"><g><path d="M 5.09375 -10 C 5.78125 -10 6.367188 -9.875 6.859375 -9.625 C 7.347656 -9.375 7.722656 -9.019531 7.984375 -8.5625 C 8.242188 -8.101562 8.375 -7.566406 8.375 -6.953125 C 8.375 -6.328125 8.242188 -5.785156 7.984375 -5.328125 C 7.722656 -4.878906 7.347656 -4.53125 6.859375 -4.28125 C 6.367188 -4.03125 5.78125 -3.90625 5.09375 -3.90625 L 2.6875 -3.90625 L 2.6875 0 L 1.515625 0 L 1.515625 -10 Z M 5.046875 -4.921875 C 6.441406 -4.921875 7.140625 -5.597656 7.140625 -6.953125 C 7.140625 -8.316406 6.441406 -9 5.046875 -9 L 2.6875 -9 L 2.6875 -4.921875 Z M 5.046875 -4.921875 "/></g></g></g><g fill="#000000" fill-opacity="1"><g transform="translate(128.03788, 289.649688)"><g><path d="M 2.6875 0 L 1.515625 0 L 1.515625 -10 L 2.6875 -10 Z M 2.6875 0 "/></g></g></g><g fill="#000000" fill-opacity="1"><g transform="translate(132.239635, 289.649688)"><g/></g></g><g fill="#000000" fill-opacity="1"><g transform="translate(135.669361, 289.649688)"><g><path d="M 4.375 0.140625 C 3.738281 0.140625 3.171875 0.0546875 2.671875 -0.109375 C 2.171875 -0.285156 1.753906 -0.507812 1.421875 -0.78125 C 1.097656 -1.0625 0.851562 -1.367188 0.6875 -1.703125 L 1.328125 -2.484375 L 1.5 -2.484375 C 2.113281 -1.441406 3.070312 -0.921875 4.375 -0.921875 C 5.125 -0.921875 5.679688 -1.078125 6.046875 -1.390625 C 6.410156 -1.703125 6.59375 -2.140625 6.59375 -2.703125 C 6.59375 -3.023438 6.53125 -3.300781 6.40625 -3.53125 C 6.289062 -3.757812 6.09375 -3.953125 5.8125 -4.109375 C 5.539062 -4.273438 5.164062 -4.421875 4.6875 -4.546875 L 3.515625 -4.828125 C 2.640625 -5.035156 1.992188 -5.367188 1.578125 -5.828125 C 1.171875 -6.285156 0.96875 -6.863281 0.96875 -7.5625 C 0.96875 -8.0625 1.09375 -8.503906 1.34375 -8.890625 C 1.601562 -9.285156 1.976562 -9.59375 2.46875 -9.8125 C 2.96875 -10.03125 3.554688 -10.140625 4.234375 -10.140625 C 4.984375 -10.140625 5.617188 -10.03125 6.140625 -9.8125 C 6.660156 -9.601562 7.078125 -9.285156 7.390625 -8.859375 L 6.8125 -8.09375 L 6.640625 -8.09375 C 6.347656 -8.445312 6.003906 -8.703125 5.609375 -8.859375 C 5.222656 -9.023438 4.765625 -9.109375 4.234375 -9.109375 C 3.546875 -9.109375 3.023438 -8.972656 2.671875 -8.703125 C 2.316406 -8.441406 2.140625 -8.070312 2.140625 -7.59375 C 2.140625 -7.144531 2.269531 -6.785156 2.53125 -6.515625 C 2.789062 -6.253906 3.226562 -6.050781 3.84375 -5.90625 L 5.03125 -5.609375 C 6.007812 -5.378906 6.710938 -5.03125 7.140625 -4.5625 C 7.578125 -4.09375 7.796875 -3.488281 7.796875 -2.75 C 7.796875 -2.1875 7.671875 -1.6875 7.421875 -1.25 C 7.171875 -0.820312 6.785156 -0.484375 6.265625 -0.234375 C 5.753906 0.015625 5.125 0.140625 4.375 0.140625 Z M 4.375 0.140625 "/></g></g></g><g fill="#000000" fill-opacity="1"><g transform="translate(144.23001, 289.649688)"><g><path d="M 3.734375 0 L 2.328125 0 L 0.484375 -7.546875 L 1.59375 -7.546875 L 3.015625 -1.296875 L 3.15625 -1.296875 L 4.921875 -7.546875 L 6.078125 -7.546875 L 7.890625 -1.296875 L 8.046875 -1.296875 L 9.4375 -7.546875 L 10.5 -7.546875 L 8.6875 0 L 7.265625 0 L 5.546875 -5.859375 L 5.40625 -5.859375 Z M 3.734375 0 "/></g></g></g><g fill="#000000" fill-opacity="1"><g transform="translate(155.216063, 289.649688)"><g><path d="M 3.109375 0.140625 C 2.367188 0.140625 1.789062 -0.0507812 1.375 -0.4375 C 0.957031 -0.820312 0.75 -1.375 0.75 -2.09375 C 0.75 -2.539062 0.835938 -2.914062 1.015625 -3.21875 C 1.203125 -3.53125 1.488281 -3.78125 1.875 -3.96875 C 2.269531 -4.164062 2.773438 -4.320312 3.390625 -4.4375 C 3.941406 -4.519531 4.359375 -4.617188 4.640625 -4.734375 C 4.929688 -4.847656 5.125 -4.972656 5.21875 -5.109375 C 5.3125 -5.253906 5.359375 -5.4375 5.359375 -5.65625 C 5.359375 -6 5.238281 -6.257812 5 -6.4375 C 4.769531 -6.625 4.398438 -6.71875 3.890625 -6.71875 C 3.398438 -6.71875 2.976562 -6.617188 2.625 -6.421875 C 2.28125 -6.234375 1.960938 -5.953125 1.671875 -5.578125 L 1.53125 -5.578125 L 0.984375 -6.359375 C 1.304688 -6.765625 1.710938 -7.085938 2.203125 -7.328125 C 2.691406 -7.566406 3.253906 -7.6875 3.890625 -7.6875 C 4.773438 -7.6875 5.425781 -7.488281 5.84375 -7.09375 C 6.269531 -6.707031 6.484375 -6.171875 6.484375 -5.484375 L 6.484375 -1.484375 C 6.484375 -1.066406 6.660156 -0.859375 7.015625 -0.859375 C 7.128906 -0.859375 7.242188 -0.878906 7.359375 -0.921875 L 7.453125 -0.890625 L 7.578125 -0.109375 C 7.492188 -0.0546875 7.382812 -0.015625 7.25 0.015625 C 7.125 0.046875 6.988281 0.0625 6.84375 0.0625 C 6.425781 0.0625 6.109375 -0.03125 5.890625 -0.21875 C 5.679688 -0.40625 5.550781 -0.675781 5.5 -1.03125 L 5.359375 -1.046875 C 5.140625 -0.640625 4.847656 -0.335938 4.484375 -0.140625 C 4.117188 0.046875 3.660156 0.140625 3.109375 0.140625 Z M 3.359375 -0.75 C 3.773438 -0.75 4.132812 -0.84375 4.4375 -1.03125 C 4.75 -1.226562 4.988281 -1.5 5.15625 -1.84375 C 5.320312 -2.195312 5.40625 -2.601562 5.40625 -3.0625 L 5.40625 -4.03125 L 5.265625 -4.046875 C 5.097656 -3.929688 4.894531 -3.832031 4.65625 -3.75 C 4.414062 -3.675781 4.078125 -3.609375 3.640625 -3.546875 C 3.203125 -3.484375 2.851562 -3.390625 2.59375 -3.265625 C 2.34375 -3.140625 2.160156 -2.984375 2.046875 -2.796875 C 1.941406 -2.609375 1.890625 -2.375 1.890625 -2.09375 C 1.890625 -1.65625 2.019531 -1.320312 2.28125 -1.09375 C 2.539062 -0.863281 2.898438 -0.75 3.359375 -0.75 Z M 3.359375 -0.75 "/></g></g></g><g fill="#000000" fill-opacity="1"><g transform="translate(163.011514, 289.649688)"><g><path d="M 3.890625 3.203125 C 2.691406 3.203125 1.816406 3.003906 1.265625 2.609375 C 0.722656 2.210938 0.453125 1.6875 0.453125 1.03125 C 0.453125 0.601562 0.578125 0.265625 0.828125 0.015625 C 1.085938 -0.234375 1.460938 -0.414062 1.953125 -0.53125 L 1.953125 -0.671875 C 1.722656 -0.804688 1.550781 -0.960938 1.4375 -1.140625 C 1.320312 -1.316406 1.265625 -1.523438 1.265625 -1.765625 C 1.265625 -2.054688 1.351562 -2.289062 1.53125 -2.46875 C 1.71875 -2.65625 1.992188 -2.800781 2.359375 -2.90625 L 2.359375 -3.046875 C 1.535156 -3.472656 1.125 -4.175781 1.125 -5.15625 C 1.125 -5.644531 1.234375 -6.082031 1.453125 -6.46875 C 1.679688 -6.851562 2.003906 -7.148438 2.421875 -7.359375 C 2.835938 -7.578125 3.320312 -7.6875 3.875 -7.6875 C 4.5 -7.6875 5.023438 -7.546875 5.453125 -7.265625 C 5.609375 -7.441406 5.726562 -7.628906 5.8125 -7.828125 C 5.894531 -8.035156 5.945312 -8.269531 5.96875 -8.53125 L 6.109375 -8.609375 L 7.03125 -8.390625 C 6.976562 -8.015625 6.859375 -7.691406 6.671875 -7.421875 C 6.492188 -7.160156 6.238281 -6.941406 5.90625 -6.765625 L 5.90625 -6.625 C 6.144531 -6.4375 6.320312 -6.210938 6.4375 -5.953125 C 6.550781 -5.691406 6.609375 -5.390625 6.609375 -5.046875 C 6.609375 -4.578125 6.492188 -4.148438 6.265625 -3.765625 C 6.035156 -3.390625 5.710938 -3.09375 5.296875 -2.875 C 4.890625 -2.664062 4.414062 -2.5625 3.875 -2.5625 C 3.8125 -2.5625 3.695312 -2.566406 3.53125 -2.578125 C 3.34375 -2.578125 3.207031 -2.578125 3.125 -2.578125 C 2.882812 -2.578125 2.691406 -2.515625 2.546875 -2.390625 C 2.410156 -2.273438 2.34375 -2.117188 2.34375 -1.921875 C 2.34375 -1.691406 2.414062 -1.519531 2.5625 -1.40625 C 2.71875 -1.289062 2.972656 -1.226562 3.328125 -1.21875 L 5.109375 -1.15625 C 5.878906 -1.125 6.453125 -0.941406 6.828125 -0.609375 C 7.203125 -0.285156 7.390625 0.175781 7.390625 0.78125 C 7.390625 1.238281 7.265625 1.644531 7.015625 2 C 6.773438 2.363281 6.394531 2.65625 5.875 2.875 C 5.351562 3.09375 4.691406 3.203125 3.890625 3.203125 Z M 3.875 -3.515625 C 4.40625 -3.515625 4.816406 -3.648438 5.109375 -3.921875 C 5.398438 -4.203125 5.546875 -4.59375 5.546875 -5.09375 C 5.546875 -5.613281 5.398438 -6.015625 5.109375 -6.296875 C 4.816406 -6.585938 4.40625 -6.734375 3.875 -6.734375 C 3.332031 -6.734375 2.921875 -6.59375 2.640625 -6.3125 C 2.359375 -6.03125 2.21875 -5.625 2.21875 -5.09375 C 2.21875 -4.59375 2.359375 -4.203125 2.640625 -3.921875 C 2.921875 -3.648438 3.332031 -3.515625 3.875 -3.515625 Z M 3.890625 2.25 C 4.441406 2.25 4.894531 2.1875 5.25 2.0625 C 5.601562 1.9375 5.851562 1.769531 6 1.5625 C 6.15625 1.363281 6.234375 1.140625 6.234375 0.890625 C 6.234375 0.660156 6.191406 0.476562 6.109375 0.34375 C 6.023438 0.207031 5.890625 0.101562 5.703125 0.03125 C 5.515625 -0.03125 5.257812 -0.0703125 4.9375 -0.09375 L 3.25 -0.171875 L 3.015625 -0.171875 C 2.066406 -0.160156 1.59375 0.207031 1.59375 0.9375 C 1.59375 1.8125 2.359375 2.25 3.890625 2.25 Z M 3.890625 2.25 "/></g></g></g><g fill="#000000" fill-opacity="1"><g transform="translate(170.731812, 289.649688)"><g><path d="M 3.890625 3.203125 C 2.691406 3.203125 1.816406 3.003906 1.265625 2.609375 C 0.722656 2.210938 0.453125 1.6875 0.453125 1.03125 C 0.453125 0.601562 0.578125 0.265625 0.828125 0.015625 C 1.085938 -0.234375 1.460938 -0.414062 1.953125 -0.53125 L 1.953125 -0.671875 C 1.722656 -0.804688 1.550781 -0.960938 1.4375 -1.140625 C 1.320312 -1.316406 1.265625 -1.523438 1.265625 -1.765625 C 1.265625 -2.054688 1.351562 -2.289062 1.53125 -2.46875 C 1.71875 -2.65625 1.992188 -2.800781 2.359375 -2.90625 L 2.359375 -3.046875 C 1.535156 -3.472656 1.125 -4.175781 1.125 -5.15625 C 1.125 -5.644531 1.234375 -6.082031 1.453125 -6.46875 C 1.679688 -6.851562 2.003906 -7.148438 2.421875 -7.359375 C 2.835938 -7.578125 3.320312 -7.6875 3.875 -7.6875 C 4.5 -7.6875 5.023438 -7.546875 5.453125 -7.265625 C 5.609375 -7.441406 5.726562 -7.628906 5.8125 -7.828125 C 5.894531 -8.035156 5.945312 -8.269531 5.96875 -8.53125 L 6.109375 -8.609375 L 7.03125 -8.390625 C 6.976562 -8.015625 6.859375 -7.691406 6.671875 -7.421875 C 6.492188 -7.160156 6.238281 -6.941406 5.90625 -6.765625 L 5.90625 -6.625 C 6.144531 -6.4375 6.320312 -6.210938 6.4375 -5.953125 C 6.550781 -5.691406 6.609375 -5.390625 6.609375 -5.046875 C 6.609375 -4.578125 6.492188 -4.148438 6.265625 -3.765625 C 6.035156 -3.390625 5.710938 -3.09375 5.296875 -2.875 C 4.890625 -2.664062 4.414062 -2.5625 3.875 -2.5625 C 3.8125 -2.5625 3.695312 -2.566406 3.53125 -2.578125 C 3.34375 -2.578125 3.207031 -2.578125 3.125 -2.578125 C 2.882812 -2.578125 2.691406 -2.515625 2.546875 -2.390625 C 2.410156 -2.273438 2.34375 -2.117188 2.34375 -1.921875 C 2.34375 -1.691406 2.414062 -1.519531 2.5625 -1.40625 C 2.71875 -1.289062 2.972656 -1.226562 3.328125 -1.21875 L 5.109375 -1.15625 C 5.878906 -1.125 6.453125 -0.941406 6.828125 -0.609375 C 7.203125 -0.285156 7.390625 0.175781 7.390625 0.78125 C 7.390625 1.238281 7.265625 1.644531 7.015625 2 C 6.773438 2.363281 6.394531 2.65625 5.875 2.875 C 5.351562 3.09375 4.691406 3.203125 3.890625 3.203125 Z M 3.875 -3.515625 C 4.40625 -3.515625 4.816406 -3.648438 5.109375 -3.921875 C 5.398438 -4.203125 5.546875 -4.59375 5.546875 -5.09375 C 5.546875 -5.613281 5.398438 -6.015625 5.109375 -6.296875 C 4.816406 -6.585938 4.40625 -6.734375 3.875 -6.734375 C 3.332031 -6.734375 2.921875 -6.59375 2.640625 -6.3125 C 2.359375 -6.03125 2.21875 -5.625 2.21875 -5.09375 C 2.21875 -4.59375 2.359375 -4.203125 2.640625 -3.921875 C 2.921875 -3.648438 3.332031 -3.515625 3.875 -3.515625 Z M 3.890625 2.25 C 4.441406 2.25 4.894531 2.1875 5.25 2.0625 C 5.601562 1.9375 5.851562 1.769531 6 1.5625 C 6.15625 1.363281 6.234375 1.140625 6.234375 0.890625 C 6.234375 0.660156 6.191406 0.476562 6.109375 0.34375 C 6.023438 0.207031 5.890625 0.101562 5.703125 0.03125 C 5.515625 -0.03125 5.257812 -0.0703125 4.9375 -0.09375 L 3.25 -0.171875 L 3.015625 -0.171875 C 2.066406 -0.160156 1.59375 0.207031 1.59375 0.9375 C 1.59375 1.8125 2.359375 2.25 3.890625 2.25 Z M 3.890625 2.25 "/></g></g></g><g fill="#000000" fill-opacity="1"><g transform="translate(178.452111, 289.649688)"><g><path d="M 7.1875 -3.515625 L 2 -3.515625 C 2.03125 -2.597656 2.25 -1.925781 2.65625 -1.5 C 3.070312 -1.070312 3.632812 -0.859375 4.34375 -0.859375 C 4.875 -0.859375 5.300781 -0.953125 5.625 -1.140625 C 5.957031 -1.328125 6.21875 -1.628906 6.40625 -2.046875 L 6.5625 -2.046875 L 7.28125 -1.609375 C 7.0625 -1.066406 6.710938 -0.640625 6.234375 -0.328125 C 5.753906 -0.015625 5.125 0.140625 4.34375 0.140625 C 3.613281 0.140625 2.984375 0 2.453125 -0.28125 C 1.929688 -0.570312 1.53125 -1.007812 1.25 -1.59375 C 0.96875 -2.175781 0.828125 -2.898438 0.828125 -3.765625 C 0.828125 -4.617188 0.972656 -5.335938 1.265625 -5.921875 C 1.566406 -6.515625 1.976562 -6.957031 2.5 -7.25 C 3.019531 -7.539062 3.609375 -7.6875 4.265625 -7.6875 C 5.234375 -7.6875 5.988281 -7.410156 6.53125 -6.859375 C 7.070312 -6.316406 7.347656 -5.507812 7.359375 -4.4375 C 7.359375 -4.019531 7.347656 -3.738281 7.328125 -3.59375 Z M 6.25 -4.4375 C 6.238281 -5.238281 6.0625 -5.820312 5.71875 -6.1875 C 5.382812 -6.550781 4.898438 -6.734375 4.265625 -6.734375 C 3.609375 -6.734375 3.09375 -6.550781 2.71875 -6.1875 C 2.34375 -5.820312 2.113281 -5.238281 2.03125 -4.4375 Z M 6.25 -4.4375 "/></g></g></g><g fill="#000000" fill-opacity="1"><g transform="translate(186.486687, 289.649688)"><g><path d="M 1.3125 0 L 1.3125 -7.546875 L 2.375 -7.546875 L 2.375 -6.359375 L 2.515625 -6.328125 C 2.867188 -7.179688 3.53125 -7.609375 4.5 -7.609375 C 5.007812 -7.609375 5.394531 -7.515625 5.65625 -7.328125 L 5.359375 -6.390625 L 5.234375 -6.359375 C 4.953125 -6.492188 4.640625 -6.5625 4.296875 -6.5625 C 3.691406 -6.5625 3.226562 -6.335938 2.90625 -5.890625 C 2.582031 -5.441406 2.421875 -4.710938 2.421875 -3.703125 L 2.421875 0 Z M 1.3125 0 "/></g></g></g><g fill="#000000" fill-opacity="1"><g transform="translate(192.307655, 289.649688)"><g/></g></g><g fill="#000000" fill-opacity="1"><g transform="translate(195.73738, 289.649688)"><g><path d="M 3.90625 0.140625 C 3.300781 0.140625 2.765625 0 2.296875 -0.28125 C 1.835938 -0.570312 1.476562 -1.007812 1.21875 -1.59375 C 0.957031 -2.175781 0.828125 -2.898438 0.828125 -3.765625 C 0.828125 -4.628906 0.960938 -5.351562 1.234375 -5.9375 C 1.503906 -6.519531 1.878906 -6.957031 2.359375 -7.25 C 2.847656 -7.539062 3.410156 -7.6875 4.046875 -7.6875 C 4.546875 -7.6875 4.992188 -7.585938 5.390625 -7.390625 C 5.796875 -7.203125 6.140625 -6.894531 6.421875 -6.46875 L 6.5625 -6.5 L 6.5625 -10.5625 L 7.6875 -10.5625 L 7.6875 0 L 6.5625 0 L 6.5625 -1.09375 L 6.421875 -1.125 C 6.179688 -0.75 5.847656 -0.441406 5.421875 -0.203125 C 5.003906 0.0234375 4.5 0.140625 3.90625 0.140625 Z M 4.265625 -0.859375 C 4.960938 -0.859375 5.519531 -1.097656 5.9375 -1.578125 C 6.351562 -2.054688 6.5625 -2.785156 6.5625 -3.765625 C 6.5625 -4.753906 6.351562 -5.488281 5.9375 -5.96875 C 5.519531 -6.445312 4.960938 -6.6875 4.265625 -6.6875 C 3.535156 -6.6875 2.972656 -6.453125 2.578125 -5.984375 C 2.191406 -5.515625 2 -4.773438 2 -3.765625 C 2 -1.828125 2.753906 -0.859375 4.265625 -0.859375 Z M 4.265625 -0.859375 "/></g></g></g><g fill="#000000" fill-opacity="1"><g transform="translate(204.735285, 289.649688)"><g><path d="M 4.328125 0.140625 C 3.617188 0.140625 3 -0.0078125 2.46875 -0.3125 C 1.945312 -0.613281 1.539062 -1.054688 1.25 -1.640625 C 0.96875 -2.222656 0.828125 -2.929688 0.828125 -3.765625 C 0.828125 -4.597656 0.96875 -5.304688 1.25 -5.890625 C 1.539062 -6.484375 1.945312 -6.929688 2.46875 -7.234375 C 3 -7.535156 3.617188 -7.6875 4.328125 -7.6875 C 5.035156 -7.6875 5.648438 -7.535156 6.171875 -7.234375 C 6.703125 -6.929688 7.109375 -6.484375 7.390625 -5.890625 C 7.679688 -5.304688 7.828125 -4.597656 7.828125 -3.765625 C 7.828125 -2.929688 7.679688 -2.222656 7.390625 -1.640625 C 7.109375 -1.054688 6.703125 -0.613281 6.171875 -0.3125 C 5.648438 -0.0078125 5.035156 0.140625 4.328125 0.140625 Z M 4.328125 -0.859375 C 5.078125 -0.859375 5.648438 -1.09375 6.046875 -1.5625 C 6.453125 -2.039062 6.65625 -2.773438 6.65625 -3.765625 C 6.65625 -4.765625 6.453125 -5.5 6.046875 -5.96875 C 5.648438 -6.445312 5.078125 -6.6875 4.328125 -6.6875 C 3.578125 -6.6875 3 -6.445312 2.59375 -5.96875 C 2.195312 -5.488281 2 -4.753906 2 -3.765625 C 2 -2.773438 2.195312 -2.039062 2.59375 -1.5625 C 3 -1.09375 3.578125 -0.859375 4.328125 -0.859375 Z M 4.328125 -0.859375 "/></g></g></g><g fill="#000000" fill-opacity="1"><g transform="translate(213.384752, 289.649688)"><g><path d="M 4.328125 0.140625 C 3.660156 0.140625 3.0625 -0.0078125 2.53125 -0.3125 C 2.007812 -0.613281 1.59375 -1.054688 1.28125 -1.640625 C 0.976562 -2.234375 0.828125 -2.941406 0.828125 -3.765625 C 0.828125 -4.585938 0.976562 -5.296875 1.28125 -5.890625 C 1.59375 -6.484375 2.007812 -6.929688 2.53125 -7.234375 C 3.0625 -7.535156 3.660156 -7.6875 4.328125 -7.6875 C 5.128906 -7.6875 5.765625 -7.535156 6.234375 -7.234375 C 6.703125 -6.929688 7.039062 -6.53125 7.25 -6.03125 L 6.5 -5.484375 L 6.359375 -5.484375 C 6.148438 -5.898438 5.882812 -6.203125 5.5625 -6.390625 C 5.25 -6.585938 4.835938 -6.6875 4.328125 -6.6875 C 3.859375 -6.6875 3.445312 -6.578125 3.09375 -6.359375 C 2.75 -6.140625 2.476562 -5.8125 2.28125 -5.375 C 2.09375 -4.9375 2 -4.398438 2 -3.765625 C 2 -3.140625 2.09375 -2.609375 2.28125 -2.171875 C 2.476562 -1.734375 2.75 -1.40625 3.09375 -1.1875 C 3.445312 -0.96875 3.859375 -0.859375 4.328125 -0.859375 C 4.847656 -0.859375 5.28125 -0.972656 5.625 -1.203125 C 5.96875 -1.441406 6.238281 -1.816406 6.4375 -2.328125 L 6.578125 -2.328125 L 7.3125 -1.90625 C 7.113281 -1.269531 6.765625 -0.769531 6.265625 -0.40625 C 5.765625 -0.0390625 5.117188 0.140625 4.328125 0.140625 Z M 4.328125 0.140625 "/></g></g></g><g fill="#000000" fill-opacity="1"><g transform="translate(221.152875, 289.649688)"><g><path d="M 3.71875 0.140625 C 2.875 0.140625 2.242188 -0.0820312 1.828125 -0.53125 C 1.410156 -0.976562 1.203125 -1.640625 1.203125 -2.515625 L 1.203125 -7.546875 L 2.3125 -7.546875 L 2.3125 -2.546875 C 2.3125 -1.398438 2.847656 -0.828125 3.921875 -0.828125 C 4.609375 -0.828125 5.148438 -1.050781 5.546875 -1.5 C 5.941406 -1.945312 6.140625 -2.671875 6.140625 -3.671875 L 6.140625 -7.546875 L 7.25 -7.546875 L 7.25 0 L 6.203125 0 L 6.203125 -1.1875 L 6.0625 -1.21875 C 5.800781 -0.757812 5.488281 -0.414062 5.125 -0.1875 C 4.757812 0.03125 4.289062 0.140625 3.71875 0.140625 Z M 3.71875 0.140625 "/></g></g></g><g fill="#000000" fill-opacity="1"><g transform="translate(229.713525, 289.649688)"><g><path d="M 1.3125 0 L 1.3125 -7.546875 L 2.375 -7.546875 L 2.375 -6.421875 L 2.515625 -6.40625 C 2.773438 -6.820312 3.082031 -7.140625 3.4375 -7.359375 C 3.800781 -7.578125 4.238281 -7.6875 4.75 -7.6875 C 5.332031 -7.6875 5.78125 -7.570312 6.09375 -7.34375 C 6.414062 -7.125 6.664062 -6.769531 6.84375 -6.28125 L 6.984375 -6.28125 C 7.242188 -6.738281 7.5625 -7.085938 7.9375 -7.328125 C 8.320312 -7.566406 8.796875 -7.6875 9.359375 -7.6875 C 10.128906 -7.6875 10.703125 -7.472656 11.078125 -7.046875 C 11.460938 -6.628906 11.65625 -5.992188 11.65625 -5.140625 L 11.65625 0 L 10.546875 0 L 10.546875 -5.109375 C 10.546875 -5.660156 10.425781 -6.066406 10.1875 -6.328125 C 9.957031 -6.585938 9.585938 -6.71875 9.078125 -6.71875 C 8.484375 -6.71875 7.992188 -6.5 7.609375 -6.0625 C 7.234375 -5.625 7.046875 -4.898438 7.046875 -3.890625 L 7.046875 0 L 5.921875 0 L 5.921875 -5.109375 C 5.921875 -5.660156 5.804688 -6.066406 5.578125 -6.328125 C 5.347656 -6.585938 4.976562 -6.71875 4.46875 -6.71875 C 3.863281 -6.71875 3.367188 -6.503906 2.984375 -6.078125 C 2.609375 -5.648438 2.421875 -4.960938 2.421875 -4.015625 L 2.421875 0 Z M 1.3125 0 "/></g></g></g><g fill="#000000" fill-opacity="1"><g transform="translate(242.557914, 289.649688)"><g><path d="M 7.1875 -3.515625 L 2 -3.515625 C 2.03125 -2.597656 2.25 -1.925781 2.65625 -1.5 C 3.070312 -1.070312 3.632812 -0.859375 4.34375 -0.859375 C 4.875 -0.859375 5.300781 -0.953125 5.625 -1.140625 C 5.957031 -1.328125 6.21875 -1.628906 6.40625 -2.046875 L 6.5625 -2.046875 L 7.28125 -1.609375 C 7.0625 -1.066406 6.710938 -0.640625 6.234375 -0.328125 C 5.753906 -0.015625 5.125 0.140625 4.34375 0.140625 C 3.613281 0.140625 2.984375 0 2.453125 -0.28125 C 1.929688 -0.570312 1.53125 -1.007812 1.25 -1.59375 C 0.96875 -2.175781 0.828125 -2.898438 0.828125 -3.765625 C 0.828125 -4.617188 0.972656 -5.335938 1.265625 -5.921875 C 1.566406 -6.515625 1.976562 -6.957031 2.5 -7.25 C 3.019531 -7.539062 3.609375 -7.6875 4.265625 -7.6875 C 5.234375 -7.6875 5.988281 -7.410156 6.53125 -6.859375 C 7.070312 -6.316406 7.347656 -5.507812 7.359375 -4.4375 C 7.359375 -4.019531 7.347656 -3.738281 7.328125 -3.59375 Z M 6.25 -4.4375 C 6.238281 -5.238281 6.0625 -5.820312 5.71875 -6.1875 C 5.382812 -6.550781 4.898438 -6.734375 4.265625 -6.734375 C 3.609375 -6.734375 3.09375 -6.550781 2.71875 -6.1875 C 2.34375 -5.820312 2.113281 -5.238281 2.03125 -4.4375 Z M 6.25 -4.4375 "/></g></g></g><g fill="#000000" fill-opacity="1"><g transform="translate(250.59249, 289.649688)"><g><path d="M 1.3125 0 L 1.3125 -7.546875 L 2.375 -7.546875 L 2.375 -6.359375 L 2.515625 -6.328125 C 2.765625 -6.765625 3.082031 -7.097656 3.46875 -7.328125 C 3.863281 -7.566406 4.34375 -7.6875 4.90625 -7.6875 C 5.8125 -7.6875 6.46875 -7.453125 6.875 -6.984375 C 7.28125 -6.523438 7.484375 -5.816406 7.484375 -4.859375 L 7.484375 0 L 6.375 0 L 6.375 -4.828125 C 6.375 -5.285156 6.3125 -5.648438 6.1875 -5.921875 C 6.070312 -6.203125 5.894531 -6.40625 5.65625 -6.53125 C 5.414062 -6.65625 5.097656 -6.71875 4.703125 -6.71875 C 4.015625 -6.71875 3.460938 -6.488281 3.046875 -6.03125 C 2.628906 -5.582031 2.421875 -4.863281 2.421875 -3.875 L 2.421875 0 Z M 1.3125 0 "/></g></g></g><g fill="#000000" fill-opacity="1"><g transform="translate(259.269286, 289.649688)"><g><path d="M 5.09375 -1.203125 L 5.453125 -0.390625 C 5.273438 -0.210938 5.039062 -0.0820312 4.75 0 C 4.46875 0.09375 4.15625 0.140625 3.8125 0.140625 C 2.375 0.140625 1.65625 -0.585938 1.65625 -2.046875 L 1.65625 -6.625 L 0.34375 -6.625 L 0.34375 -7.546875 L 1.65625 -7.546875 L 1.65625 -9.140625 L 2.765625 -9.328125 L 2.765625 -7.546875 L 5.203125 -7.546875 L 5.203125 -6.625 L 2.765625 -6.625 L 2.765625 -2.15625 C 2.765625 -1.289062 3.140625 -0.859375 3.890625 -0.859375 C 4.304688 -0.859375 4.660156 -0.972656 4.953125 -1.203125 Z M 5.09375 -1.203125 "/></g></g></g><g fill="#000000" fill-opacity="1"><g transform="translate(265.008257, 289.649688)"><g><path d="M 3.109375 0.140625 C 2.367188 0.140625 1.789062 -0.0507812 1.375 -0.4375 C 0.957031 -0.820312 0.75 -1.375 0.75 -2.09375 C 0.75 -2.539062 0.835938 -2.914062 1.015625 -3.21875 C 1.203125 -3.53125 1.488281 -3.78125 1.875 -3.96875 C 2.269531 -4.164062 2.773438 -4.320312 3.390625 -4.4375 C 3.941406 -4.519531 4.359375 -4.617188 4.640625 -4.734375 C 4.929688 -4.847656 5.125 -4.972656 5.21875 -5.109375 C 5.3125 -5.253906 5.359375 -5.4375 5.359375 -5.65625 C 5.359375 -6 5.238281 -6.257812 5 -6.4375 C 4.769531 -6.625 4.398438 -6.71875 3.890625 -6.71875 C 3.398438 -6.71875 2.976562 -6.617188 2.625 -6.421875 C 2.28125 -6.234375 1.960938 -5.953125 1.671875 -5.578125 L 1.53125 -5.578125 L 0.984375 -6.359375 C 1.304688 -6.765625 1.710938 -7.085938 2.203125 -7.328125 C 2.691406 -7.566406 3.253906 -7.6875 3.890625 -7.6875 C 4.773438 -7.6875 5.425781 -7.488281 5.84375 -7.09375 C 6.269531 -6.707031 6.484375 -6.171875 6.484375 -5.484375 L 6.484375 -1.484375 C 6.484375 -1.066406 6.660156 -0.859375 7.015625 -0.859375 C 7.128906 -0.859375 7.242188 -0.878906 7.359375 -0.921875 L 7.453125 -0.890625 L 7.578125 -0.109375 C 7.492188 -0.0546875 7.382812 -0.015625 7.25 0.015625 C 7.125 0.046875 6.988281 0.0625 6.84375 0.0625 C 6.425781 0.0625 6.109375 -0.03125 5.890625 -0.21875 C 5.679688 -0.40625 5.550781 -0.675781 5.5 -1.03125 L 5.359375 -1.046875 C 5.140625 -0.640625 4.847656 -0.335938 4.484375 -0.140625 C 4.117188 0.046875 3.660156 0.140625 3.109375 0.140625 Z M 3.359375 -0.75 C 3.773438 -0.75 4.132812 -0.84375 4.4375 -1.03125 C 4.75 -1.226562 4.988281 -1.5 5.15625 -1.84375 C 5.320312 -2.195312 5.40625 -2.601562 5.40625 -3.0625 L 5.40625 -4.03125 L 5.265625 -4.046875 C 5.097656 -3.929688 4.894531 -3.832031 4.65625 -3.75 C 4.414062 -3.675781 4.078125 -3.609375 3.640625 -3.546875 C 3.203125 -3.484375 2.851562 -3.390625 2.59375 -3.265625 C 2.34375 -3.140625 2.160156 -2.984375 2.046875 -2.796875 C 1.941406 -2.609375 1.890625 -2.375 1.890625 -2.09375 C 1.890625 -1.65625 2.019531 -1.320312 2.28125 -1.09375 C 2.539062 -0.863281 2.898438 -0.75 3.359375 -0.75 Z M 3.359375 -0.75 "/></g></g></g><g fill="#000000" fill-opacity="1"><g transform="translate(272.803697, 289.649688)"><g><path d="M 5.09375 -1.203125 L 5.453125 -0.390625 C 5.273438 -0.210938 5.039062 -0.0820312 4.75 0 C 4.46875 0.09375 4.15625 0.140625 3.8125 0.140625 C 2.375 0.140625 1.65625 -0.585938 1.65625 -2.046875 L 1.65625 -6.625 L 0.34375 -6.625 L 0.34375 -7.546875 L 1.65625 -7.546875 L 1.65625 -9.140625 L 2.765625 -9.328125 L 2.765625 -7.546875 L 5.203125 -7.546875 L 5.203125 -6.625 L 2.765625 -6.625 L 2.765625 -2.15625 C 2.765625 -1.289062 3.140625 -0.859375 3.890625 -0.859375 C 4.304688 -0.859375 4.660156 -0.972656 4.953125 -1.203125 Z M 5.09375 -1.203125 "/></g></g></g><g fill="#000000" fill-opacity="1"><g transform="translate(278.54268, 289.649688)"><g><path d="M 1.875 -9 C 1.632812 -9 1.441406 -9.070312 1.296875 -9.21875 C 1.148438 -9.363281 1.078125 -9.550781 1.078125 -9.78125 C 1.078125 -10.007812 1.148438 -10.195312 1.296875 -10.34375 C 1.441406 -10.488281 1.632812 -10.5625 1.875 -10.5625 C 2.113281 -10.5625 2.304688 -10.488281 2.453125 -10.34375 C 2.597656 -10.195312 2.671875 -10.007812 2.671875 -9.78125 C 2.671875 -9.550781 2.597656 -9.363281 2.453125 -9.21875 C 2.304688 -9.070312 2.113281 -9 1.875 -9 Z M 1.3125 0 L 1.3125 -7.546875 L 2.421875 -7.546875 L 2.421875 0 Z M 1.3125 0 "/></g></g></g><g fill="#000000" fill-opacity="1"><g transform="translate(282.279862, 289.649688)"><g><path d="M 4.328125 0.140625 C 3.617188 0.140625 3 -0.0078125 2.46875 -0.3125 C 1.945312 -0.613281 1.539062 -1.054688 1.25 -1.640625 C 0.96875 -2.222656 0.828125 -2.929688 0.828125 -3.765625 C 0.828125 -4.597656 0.96875 -5.304688 1.25 -5.890625 C 1.539062 -6.484375 1.945312 -6.929688 2.46875 -7.234375 C 3 -7.535156 3.617188 -7.6875 4.328125 -7.6875 C 5.035156 -7.6875 5.648438 -7.535156 6.171875 -7.234375 C 6.703125 -6.929688 7.109375 -6.484375 7.390625 -5.890625 C 7.679688 -5.304688 7.828125 -4.597656 7.828125 -3.765625 C 7.828125 -2.929688 7.679688 -2.222656 7.390625 -1.640625 C 7.109375 -1.054688 6.703125 -0.613281 6.171875 -0.3125 C 5.648438 -0.0078125 5.035156 0.140625 4.328125 0.140625 Z M 4.328125 -0.859375 C 5.078125 -0.859375 5.648438 -1.09375 6.046875 -1.5625 C 6.453125 -2.039062 6.65625 -2.773438 6.65625 -3.765625 C 6.65625 -4.765625 6.453125 -5.5 6.046875 -5.96875 C 5.648438 -6.445312 5.078125 -6.6875 4.328125 -6.6875 C 3.578125 -6.6875 3 -6.445312 2.59375 -5.96875 C 2.195312 -5.488281 2 -4.753906 2 -3.765625 C 2 -2.773438 2.195312 -2.039062 2.59375 -1.5625 C 3 -1.09375 3.578125 -0.859375 4.328125 -0.859375 Z M 4.328125 -0.859375 "/></g></g></g><g fill="#000000" fill-opacity="1"><g transform="translate(290.929329, 289.649688)"><g><path d="M 1.3125 0 L 1.3125 -7.546875 L 2.375 -7.546875 L 2.375 -6.359375 L 2.515625 -6.328125 C 2.765625 -6.765625 3.082031 -7.097656 3.46875 -7.328125 C 3.863281 -7.566406 4.34375 -7.6875 4.90625 -7.6875 C 5.8125 -7.6875 6.46875 -7.453125 6.875 -6.984375 C 7.28125 -6.523438 7.484375 -5.816406 7.484375 -4.859375 L 7.484375 0 L 6.375 0 L 6.375 -4.828125 C 6.375 -5.285156 6.3125 -5.648438 6.1875 -5.921875 C 6.070312 -6.203125 5.894531 -6.40625 5.65625 -6.53125 C 5.414062 -6.65625 5.097656 -6.71875 4.703125 -6.71875 C 4.015625 -6.71875 3.460938 -6.488281 3.046875 -6.03125 C 2.628906 -5.582031 2.421875 -4.863281 2.421875 -3.875 L 2.421875 0 Z M 1.3125 0 "/></g></g></g><g fill="#000000" fill-opacity="1"><g transform="translate(299.606125, 289.649688)"><g><path d="M 1.84375 0.0625 C 1.582031 0.0625 1.375 -0.0078125 1.21875 -0.15625 C 1.070312 -0.300781 1 -0.492188 1 -0.734375 C 1 -0.972656 1.070312 -1.164062 1.21875 -1.3125 C 1.375 -1.46875 1.582031 -1.546875 1.84375 -1.546875 C 2.101562 -1.546875 2.304688 -1.472656 2.453125 -1.328125 C 2.609375 -1.179688 2.6875 -0.988281 2.6875 -0.75 C 2.6875 -0.507812 2.609375 -0.3125 2.453125 -0.15625 C 2.304688 -0.0078125 2.101562 0.0625 1.84375 0.0625 Z M 1.84375 0.0625 "/></g></g></g></svg>
