<svg xmlns="http://www.w3.org/2000/svg" xmlns:xlink="http://www.w3.org/1999/xlink" width="500" zoomAndPan="magnify" viewBox="0 0 375 374.999991" height="500" preserveAspectRatio="xMidYMid meet" version="1.0"><defs><g/><clipPath id="b386c42db9"><path d="M 112.5 58 L 262.5 58 L 262.5 207.992188 L 112.5 207.992188 Z M 112.5 58 " clip-rule="nonzero"/></clipPath></defs><rect x="-37.5" width="450" fill="#ffffff" y="-37.499999" height="449.999989" fill-opacity="1"/><rect x="-37.5" width="450" fill="#ffffff" y="-37.499999" height="449.999989" fill-opacity="1"/><g clip-path="url(#b386c42db9)"><path fill="#000000" d="M 254.195312 166.925781 L 260.253906 163.425781 C 262.042969 162.390625 262.65625 160.105469 261.625 158.316406 L 254.320312 145.664062 C 253.285156 143.875 251 143.261719 249.210938 144.296875 L 243 147.878906 C 241.839844 148.550781 240.429688 148.46875 239.269531 147.796875 L 239.234375 147.777344 C 238.074219 147.109375 237.308594 145.929688 237.308594 144.597656 L 237.308594 136.734375 C 237.308594 134.667969 235.636719 132.992188 233.570312 132.992188 L 218.605469 132.992188 C 216.539062 132.992188 214.867188 134.667969 214.867188 136.734375 L 214.867188 144.597656 C 214.867188 145.929688 214.097656 147.109375 212.941406 147.777344 L 212.90625 147.796875 C 211.746094 148.46875 210.335938 148.550781 209.175781 147.878906 L 202.964844 144.296875 C 201.175781 143.261719 198.890625 143.875 197.855469 145.664062 L 190.550781 158.316406 C 189.519531 160.105469 190.132812 162.390625 191.921875 163.425781 L 198.046875 166.960938 C 199.257812 167.660156 199.910156 168.976562 199.90625 170.375 L 199.90625 170.421875 C 199.910156 171.820312 199.257812 173.136719 198.046875 173.832031 L 191.921875 177.371094 C 190.132812 178.402344 189.519531 180.691406 190.550781 182.480469 L 197.855469 195.132812 C 198.890625 196.921875 201.175781 197.535156 202.964844 196.5 L 209.175781 192.914062 C 210.335938 192.246094 211.746094 192.324219 212.90625 192.996094 L 212.941406 193.019531 C 214.097656 193.6875 214.867188 194.863281 214.867188 196.199219 L 214.867188 204.0625 C 214.867188 206.128906 216.539062 207.804688 218.605469 207.804688 L 233.570312 207.804688 C 235.636719 207.804688 237.308594 206.128906 237.308594 204.0625 L 237.308594 196.199219 C 237.308594 194.863281 238.074219 193.6875 239.234375 193.019531 L 239.269531 192.996094 C 240.429688 192.324219 241.839844 192.246094 243 192.914062 L 249.210938 196.5 C 251 197.535156 253.285156 196.921875 254.320312 195.132812 L 261.625 182.480469 C 262.65625 180.691406 262.042969 178.402344 260.253906 177.371094 L 254.195312 173.871094 C 252.964844 173.160156 252.207031 171.847656 252.207031 170.425781 L 252.207031 170.371094 C 252.207031 168.949219 252.964844 167.636719 254.195312 166.925781 Z M 226.085938 181.621094 C 219.890625 181.621094 214.867188 176.59375 214.867188 170.398438 C 214.867188 164.199219 219.890625 159.175781 226.085938 159.175781 C 232.285156 159.175781 237.308594 164.199219 237.308594 170.398438 C 237.308594 176.59375 232.285156 181.621094 226.085938 181.621094 Z M 235.941406 118.027344 L 138.683594 118.027344 C 134.550781 118.027344 131.203125 114.679688 131.203125 110.546875 L 131.203125 103.066406 C 131.203125 98.933594 134.550781 95.585938 138.683594 95.585938 L 235.941406 95.585938 C 240.074219 95.585938 243.421875 98.933594 243.421875 103.066406 L 243.421875 110.546875 C 243.421875 114.679688 240.074219 118.027344 235.941406 118.027344 Z M 254.644531 58.179688 L 119.980469 58.179688 C 115.847656 58.179688 112.5 61.527344 112.5 65.660156 L 112.5 177.878906 C 112.5 182.011719 115.847656 185.359375 119.980469 185.359375 L 183.574219 185.359375 L 183.664062 185.316406 C 183.113281 184.136719 182.761719 182.898438 182.644531 181.621094 L 119.980469 181.621094 C 117.917969 181.621094 116.242188 179.941406 116.242188 177.878906 L 116.242188 73.140625 L 258.386719 73.140625 L 258.386719 139.082031 C 259.3125 139.878906 260.152344 140.804688 260.796875 141.921875 L 262.125 144.222656 L 262.125 65.660156 C 262.125 61.527344 258.777344 58.179688 254.644531 58.179688 Z M 123.722656 67.53125 L 119.980469 67.53125 C 118.949219 67.53125 118.109375 66.695312 118.109375 65.660156 C 118.109375 64.625 118.949219 63.789062 119.980469 63.789062 L 123.722656 63.789062 C 124.753906 63.789062 125.59375 64.625 125.59375 65.660156 C 125.59375 66.695312 124.753906 67.53125 123.722656 67.53125 Z M 134.945312 67.53125 L 131.203125 67.53125 C 130.167969 67.53125 129.332031 66.695312 129.332031 65.660156 C 129.332031 64.625 130.167969 63.789062 131.203125 63.789062 L 134.945312 63.789062 C 135.976562 63.789062 136.8125 64.625 136.8125 65.660156 C 136.8125 66.695312 135.976562 67.53125 134.945312 67.53125 Z M 146.164062 67.53125 L 142.425781 67.53125 C 141.390625 67.53125 140.554688 66.695312 140.554688 65.660156 C 140.554688 64.625 141.390625 63.789062 142.425781 63.789062 L 146.164062 63.789062 C 147.199219 63.789062 148.035156 64.625 148.035156 65.660156 C 148.035156 66.695312 147.199219 67.53125 146.164062 67.53125 Z M 146.164062 67.53125 " fill-opacity="1" fill-rule="nonzero"/></g><g fill="#000000" fill-opacity="1"><g transform="translate(139.517573, 242.766135)"><g><path d="M 8.734375 -11.421875 L 8.734375 -9.53125 L 3.75 -9.53125 L 3.75 -6.515625 L 8.265625 -6.515625 L 8.265625 -4.640625 L 3.75 -4.640625 L 3.75 0 L 1.484375 0 L 1.484375 -11.421875 Z M 8.734375 -11.421875 "/></g></g></g><g fill="#000000" fill-opacity="1"><g transform="translate(148.749693, 242.766135)"><g><path d="M 1.25 0 L 1.25 -8.625 L 3.34375 -8.625 L 3.34375 -7.34375 L 3.515625 -7.3125 C 3.722656 -7.789062 3.992188 -8.140625 4.328125 -8.359375 C 4.671875 -8.585938 5.082031 -8.703125 5.5625 -8.703125 C 6.050781 -8.703125 6.425781 -8.617188 6.6875 -8.453125 L 6.3125 -6.578125 L 6.15625 -6.546875 C 6.007812 -6.609375 5.867188 -6.648438 5.734375 -6.671875 C 5.609375 -6.703125 5.453125 -6.71875 5.265625 -6.71875 C 4.660156 -6.71875 4.195312 -6.503906 3.875 -6.078125 C 3.5625 -5.648438 3.40625 -4.96875 3.40625 -4.03125 L 3.40625 0 Z M 1.25 0 "/></g></g></g><g fill="#000000" fill-opacity="1"><g transform="translate(155.505861, 242.766135)"><g><path d="M 5.015625 0.171875 C 4.171875 0.171875 3.425781 0 2.78125 -0.34375 C 2.144531 -0.695312 1.648438 -1.207031 1.296875 -1.875 C 0.953125 -2.550781 0.78125 -3.363281 0.78125 -4.3125 C 0.78125 -5.257812 0.953125 -6.066406 1.296875 -6.734375 C 1.648438 -7.410156 2.144531 -7.921875 2.78125 -8.265625 C 3.425781 -8.609375 4.171875 -8.78125 5.015625 -8.78125 C 5.859375 -8.78125 6.597656 -8.609375 7.234375 -8.265625 C 7.867188 -7.921875 8.363281 -7.410156 8.71875 -6.734375 C 9.070312 -6.066406 9.25 -5.257812 9.25 -4.3125 C 9.25 -3.363281 9.070312 -2.550781 8.71875 -1.875 C 8.363281 -1.207031 7.867188 -0.695312 7.234375 -0.34375 C 6.597656 0 5.859375 0.171875 5.015625 0.171875 Z M 5.015625 -1.671875 C 6.347656 -1.671875 7.015625 -2.550781 7.015625 -4.3125 C 7.015625 -5.21875 6.84375 -5.882812 6.5 -6.3125 C 6.15625 -6.738281 5.660156 -6.953125 5.015625 -6.953125 C 3.671875 -6.953125 3 -6.070312 3 -4.3125 C 3 -2.550781 3.671875 -1.671875 5.015625 -1.671875 Z M 5.015625 -1.671875 "/></g></g></g><g fill="#000000" fill-opacity="1"><g transform="translate(165.51904, 242.766135)"><g><path d="M 1.25 0 L 1.25 -8.625 L 3.328125 -8.625 L 3.328125 -7.359375 L 3.484375 -7.3125 C 4.023438 -8.289062 4.894531 -8.78125 6.09375 -8.78125 C 7.09375 -8.78125 7.820312 -8.507812 8.28125 -7.96875 C 8.75 -7.425781 8.984375 -6.640625 8.984375 -5.609375 L 8.984375 0 L 6.828125 0 L 6.828125 -5.34375 C 6.828125 -5.914062 6.710938 -6.328125 6.484375 -6.578125 C 6.253906 -6.828125 5.882812 -6.953125 5.375 -6.953125 C 4.757812 -6.953125 4.273438 -6.75 3.921875 -6.34375 C 3.578125 -5.945312 3.40625 -5.320312 3.40625 -4.46875 L 3.40625 0 Z M 1.25 0 "/></g></g></g><g fill="#000000" fill-opacity="1"><g transform="translate(175.610325, 242.766135)"><g><path d="M 5.953125 -2.0625 L 6.515625 -0.453125 C 6.273438 -0.265625 5.976562 -0.113281 5.625 0 C 5.269531 0.113281 4.867188 0.171875 4.421875 0.171875 C 3.492188 0.171875 2.785156 -0.0820312 2.296875 -0.59375 C 1.816406 -1.101562 1.578125 -1.84375 1.578125 -2.8125 L 1.578125 -6.90625 L 0.265625 -6.90625 L 0.265625 -8.625 L 1.578125 -8.625 L 1.578125 -10.3125 L 3.734375 -10.65625 L 3.734375 -8.625 L 6.1875 -8.625 L 6.1875 -6.90625 L 3.734375 -6.90625 L 3.734375 -2.96875 C 3.734375 -2.539062 3.820312 -2.226562 4 -2.03125 C 4.175781 -1.84375 4.4375 -1.75 4.78125 -1.75 C 5.164062 -1.75 5.5 -1.851562 5.78125 -2.0625 Z M 5.953125 -2.0625 "/></g></g></g><g fill="#000000" fill-opacity="1"><g transform="translate(182.304008, 242.766135)"><g><path d="M 8.515625 -3.828125 L 2.984375 -3.828125 C 3.046875 -3.078125 3.257812 -2.53125 3.625 -2.1875 C 3.988281 -1.84375 4.484375 -1.671875 5.109375 -1.671875 C 5.609375 -1.671875 6.007812 -1.765625 6.3125 -1.953125 C 6.625 -2.140625 6.875 -2.421875 7.0625 -2.796875 L 7.21875 -2.796875 L 8.65625 -1.875 C 8.375 -1.269531 7.945312 -0.773438 7.375 -0.390625 C 6.8125 -0.015625 6.054688 0.171875 5.109375 0.171875 C 4.222656 0.171875 3.453125 0 2.796875 -0.34375 C 2.148438 -0.6875 1.648438 -1.191406 1.296875 -1.859375 C 0.953125 -2.523438 0.78125 -3.34375 0.78125 -4.3125 C 0.78125 -5.289062 0.960938 -6.113281 1.328125 -6.78125 C 1.703125 -7.457031 2.203125 -7.957031 2.828125 -8.28125 C 3.460938 -8.613281 4.171875 -8.78125 4.953125 -8.78125 C 6.171875 -8.78125 7.101562 -8.457031 7.75 -7.8125 C 8.40625 -7.164062 8.734375 -6.21875 8.734375 -4.96875 C 8.734375 -4.519531 8.71875 -4.171875 8.6875 -3.921875 Z M 6.65625 -5.21875 C 6.632812 -5.875 6.484375 -6.351562 6.203125 -6.65625 C 5.921875 -6.957031 5.503906 -7.109375 4.953125 -7.109375 C 3.859375 -7.109375 3.21875 -6.476562 3.03125 -5.21875 Z M 6.65625 -5.21875 "/></g></g></g><g fill="#000000" fill-opacity="1"><g transform="translate(191.668914, 242.766135)"><g><path d="M 1.25 0 L 1.25 -8.625 L 3.328125 -8.625 L 3.328125 -7.359375 L 3.484375 -7.3125 C 4.023438 -8.289062 4.894531 -8.78125 6.09375 -8.78125 C 7.09375 -8.78125 7.820312 -8.507812 8.28125 -7.96875 C 8.75 -7.425781 8.984375 -6.640625 8.984375 -5.609375 L 8.984375 0 L 6.828125 0 L 6.828125 -5.34375 C 6.828125 -5.914062 6.710938 -6.328125 6.484375 -6.578125 C 6.253906 -6.828125 5.882812 -6.953125 5.375 -6.953125 C 4.757812 -6.953125 4.273438 -6.75 3.921875 -6.34375 C 3.578125 -5.945312 3.40625 -5.320312 3.40625 -4.46875 L 3.40625 0 Z M 1.25 0 "/></g></g></g><g fill="#000000" fill-opacity="1"><g transform="translate(201.760199, 242.766135)"><g><path d="M 4.265625 0.171875 C 3.578125 0.171875 2.972656 0.00390625 2.453125 -0.328125 C 1.929688 -0.660156 1.519531 -1.160156 1.21875 -1.828125 C 0.925781 -2.503906 0.78125 -3.332031 0.78125 -4.3125 C 0.78125 -5.289062 0.929688 -6.113281 1.234375 -6.78125 C 1.535156 -7.457031 1.957031 -7.957031 2.5 -8.28125 C 3.039062 -8.613281 3.664062 -8.78125 4.375 -8.78125 C 4.90625 -8.78125 5.367188 -8.6875 5.765625 -8.5 C 6.160156 -8.320312 6.492188 -8.035156 6.765625 -7.640625 L 6.921875 -7.6875 L 6.921875 -12.078125 L 9.09375 -12.078125 L 9.09375 0 L 6.921875 0 L 6.921875 -1.125 L 6.765625 -1.15625 C 6.523438 -0.75 6.195312 -0.425781 5.78125 -0.1875 C 5.363281 0.0507812 4.859375 0.171875 4.265625 0.171875 Z M 4.96875 -1.671875 C 5.570312 -1.671875 6.050781 -1.890625 6.40625 -2.328125 C 6.757812 -2.765625 6.9375 -3.425781 6.9375 -4.3125 C 6.9375 -5.195312 6.757812 -5.859375 6.40625 -6.296875 C 6.050781 -6.734375 5.570312 -6.953125 4.96875 -6.953125 C 4.332031 -6.953125 3.84375 -6.738281 3.5 -6.3125 C 3.164062 -5.882812 3 -5.21875 3 -4.3125 C 3 -3.40625 3.164062 -2.738281 3.5 -2.3125 C 3.84375 -1.882812 4.332031 -1.671875 4.96875 -1.671875 Z M 4.96875 -1.671875 "/></g></g></g><g fill="#000000" fill-opacity="1"><g transform="translate(212.085802, 242.766135)"><g/></g></g><g fill="#000000" fill-opacity="1"><g transform="translate(215.858323, 242.766135)"><g><path d="M 6.0625 0.171875 C 4.488281 0.171875 3.320312 -0.203125 2.5625 -0.953125 C 1.800781 -1.703125 1.421875 -2.8125 1.421875 -4.28125 L 1.421875 -11.421875 L 3.625 -11.421875 L 3.625 -4.296875 C 3.625 -3.460938 3.820312 -2.835938 4.21875 -2.421875 C 4.625 -2.003906 5.238281 -1.796875 6.0625 -1.796875 C 7.675781 -1.796875 8.484375 -2.628906 8.484375 -4.296875 L 8.484375 -11.421875 L 10.703125 -11.421875 L 10.703125 -4.28125 C 10.703125 -2.8125 10.320312 -1.703125 9.5625 -0.953125 C 8.800781 -0.203125 7.632812 0.171875 6.0625 0.171875 Z M 6.0625 0.171875 "/></g></g></g><g fill="#000000" fill-opacity="1"><g transform="translate(227.964741, 242.766135)"><g><path d="M 3.75 0 L 1.484375 0 L 1.484375 -11.421875 L 3.75 -11.421875 Z M 3.75 0 "/></g></g></g><g fill="#000000" fill-opacity="1"><g transform="translate(233.197254, 242.766135)"><g/></g></g><g fill="#000000" fill-opacity="1"><g transform="translate(80.759163, 279.141133)"><g><path d="M 5.4375 0 L 3.890625 0 L 0.4375 -10 L 1.6875 -10 L 4.609375 -1.46875 L 4.78125 -1.46875 L 7.6875 -10 L 8.921875 -10 Z M 5.4375 0 "/></g></g></g><g fill="#000000" fill-opacity="1"><g transform="translate(90.091842, 279.141133)"><g><path d="M 4.75 -10 C 5.757812 -10 6.625 -9.816406 7.34375 -9.453125 C 8.070312 -9.085938 8.632812 -8.53125 9.03125 -7.78125 C 9.425781 -7.039062 9.625 -6.113281 9.625 -5 C 9.625 -3.875 9.425781 -2.941406 9.03125 -2.203125 C 8.632812 -1.460938 8.070312 -0.910156 7.34375 -0.546875 C 6.625 -0.179688 5.757812 0 4.75 0 L 1.515625 0 L 1.515625 -10 Z M 4.625 -1 C 5.457031 -1 6.144531 -1.128906 6.6875 -1.390625 C 7.238281 -1.648438 7.65625 -2.070312 7.9375 -2.65625 C 8.226562 -3.25 8.375 -4.03125 8.375 -5 C 8.375 -5.96875 8.226562 -6.742188 7.9375 -7.328125 C 7.65625 -7.921875 7.238281 -8.347656 6.6875 -8.609375 C 6.144531 -8.867188 5.457031 -9 4.625 -9 L 2.6875 -9 L 2.6875 -1 Z M 4.625 -1 "/></g></g></g><g fill="#000000" fill-opacity="1"><g transform="translate(100.70896, 279.141133)"><g><path d="M 1.515625 0 L 1.515625 -10 L 2.6875 -10 L 2.6875 -5.625 L 2.90625 -5.625 L 7 -10 L 8.28125 -10 L 8.28125 -9.828125 L 3.953125 -5.15625 L 8.625 -0.171875 L 8.625 0 L 7.28125 0 L 2.90625 -4.59375 L 2.6875 -4.59375 L 2.6875 0 Z M 1.515625 0 "/></g></g></g><g fill="#000000" fill-opacity="1"><g transform="translate(109.522398, 279.141133)"><g/></g></g><g fill="#000000" fill-opacity="1"><g transform="translate(112.952124, 279.141133)"><g><path d="M 7.390625 -10 L 7.390625 -9.03125 L 2.6875 -9.03125 L 2.6875 -5.390625 L 6.90625 -5.390625 L 6.90625 -4.40625 L 2.6875 -4.40625 L 2.6875 0 L 1.515625 0 L 1.515625 -10 Z M 7.390625 -10 "/></g></g></g><g fill="#000000" fill-opacity="1"><g transform="translate(120.870554, 279.141133)"><g><path d="M 1.3125 0 L 1.3125 -7.546875 L 2.375 -7.546875 L 2.375 -6.359375 L 2.515625 -6.328125 C 2.867188 -7.179688 3.53125 -7.609375 4.5 -7.609375 C 5.007812 -7.609375 5.394531 -7.515625 5.65625 -7.328125 L 5.359375 -6.390625 L 5.234375 -6.359375 C 4.953125 -6.492188 4.640625 -6.5625 4.296875 -6.5625 C 3.691406 -6.5625 3.226562 -6.335938 2.90625 -5.890625 C 2.582031 -5.441406 2.421875 -4.710938 2.421875 -3.703125 L 2.421875 0 Z M 1.3125 0 "/></g></g></g><g fill="#000000" fill-opacity="1"><g transform="translate(126.691522, 279.141133)"><g><path d="M 4.328125 0.140625 C 3.617188 0.140625 3 -0.0078125 2.46875 -0.3125 C 1.945312 -0.613281 1.539062 -1.054688 1.25 -1.640625 C 0.96875 -2.222656 0.828125 -2.929688 0.828125 -3.765625 C 0.828125 -4.597656 0.96875 -5.304688 1.25 -5.890625 C 1.539062 -6.484375 1.945312 -6.929688 2.46875 -7.234375 C 3 -7.535156 3.617188 -7.6875 4.328125 -7.6875 C 5.035156 -7.6875 5.648438 -7.535156 6.171875 -7.234375 C 6.703125 -6.929688 7.109375 -6.484375 7.390625 -5.890625 C 7.679688 -5.304688 7.828125 -4.597656 7.828125 -3.765625 C 7.828125 -2.929688 7.679688 -2.222656 7.390625 -1.640625 C 7.109375 -1.054688 6.703125 -0.613281 6.171875 -0.3125 C 5.648438 -0.0078125 5.035156 0.140625 4.328125 0.140625 Z M 4.328125 -0.859375 C 5.078125 -0.859375 5.648438 -1.09375 6.046875 -1.5625 C 6.453125 -2.039062 6.65625 -2.773438 6.65625 -3.765625 C 6.65625 -4.765625 6.453125 -5.5 6.046875 -5.96875 C 5.648438 -6.445312 5.078125 -6.6875 4.328125 -6.6875 C 3.578125 -6.6875 3 -6.445312 2.59375 -5.96875 C 2.195312 -5.488281 2 -4.753906 2 -3.765625 C 2 -2.773438 2.195312 -2.039062 2.59375 -1.5625 C 3 -1.09375 3.578125 -0.859375 4.328125 -0.859375 Z M 4.328125 -0.859375 "/></g></g></g><g fill="#000000" fill-opacity="1"><g transform="translate(135.340989, 279.141133)"><g><path d="M 1.3125 0 L 1.3125 -7.546875 L 2.375 -7.546875 L 2.375 -6.359375 L 2.515625 -6.328125 C 2.765625 -6.765625 3.082031 -7.097656 3.46875 -7.328125 C 3.863281 -7.566406 4.34375 -7.6875 4.90625 -7.6875 C 5.8125 -7.6875 6.46875 -7.453125 6.875 -6.984375 C 7.28125 -6.523438 7.484375 -5.816406 7.484375 -4.859375 L 7.484375 0 L 6.375 0 L 6.375 -4.828125 C 6.375 -5.285156 6.3125 -5.648438 6.1875 -5.921875 C 6.070312 -6.203125 5.894531 -6.40625 5.65625 -6.53125 C 5.414062 -6.65625 5.097656 -6.71875 4.703125 -6.71875 C 4.015625 -6.71875 3.460938 -6.488281 3.046875 -6.03125 C 2.628906 -5.582031 2.421875 -4.863281 2.421875 -3.875 L 2.421875 0 Z M 1.3125 0 "/></g></g></g><g fill="#000000" fill-opacity="1"><g transform="translate(144.017784, 279.141133)"><g><path d="M 5.09375 -1.203125 L 5.453125 -0.390625 C 5.273438 -0.210938 5.039062 -0.0820312 4.75 0 C 4.46875 0.09375 4.15625 0.140625 3.8125 0.140625 C 2.375 0.140625 1.65625 -0.585938 1.65625 -2.046875 L 1.65625 -6.625 L 0.34375 -6.625 L 0.34375 -7.546875 L 1.65625 -7.546875 L 1.65625 -9.140625 L 2.765625 -9.328125 L 2.765625 -7.546875 L 5.203125 -7.546875 L 5.203125 -6.625 L 2.765625 -6.625 L 2.765625 -2.15625 C 2.765625 -1.289062 3.140625 -0.859375 3.890625 -0.859375 C 4.304688 -0.859375 4.660156 -0.972656 4.953125 -1.203125 Z M 5.09375 -1.203125 "/></g></g></g><g fill="#000000" fill-opacity="1"><g transform="translate(149.756767, 279.141133)"><g><path d="M 7.1875 -3.515625 L 2 -3.515625 C 2.03125 -2.597656 2.25 -1.925781 2.65625 -1.5 C 3.070312 -1.070312 3.632812 -0.859375 4.34375 -0.859375 C 4.875 -0.859375 5.300781 -0.953125 5.625 -1.140625 C 5.957031 -1.328125 6.21875 -1.628906 6.40625 -2.046875 L 6.5625 -2.046875 L 7.28125 -1.609375 C 7.0625 -1.066406 6.710938 -0.640625 6.234375 -0.328125 C 5.753906 -0.015625 5.125 0.140625 4.34375 0.140625 C 3.613281 0.140625 2.984375 0 2.453125 -0.28125 C 1.929688 -0.570312 1.53125 -1.007812 1.25 -1.59375 C 0.96875 -2.175781 0.828125 -2.898438 0.828125 -3.765625 C 0.828125 -4.617188 0.972656 -5.335938 1.265625 -5.921875 C 1.566406 -6.515625 1.976562 -6.957031 2.5 -7.25 C 3.019531 -7.539062 3.609375 -7.6875 4.265625 -7.6875 C 5.234375 -7.6875 5.988281 -7.410156 6.53125 -6.859375 C 7.070312 -6.316406 7.347656 -5.507812 7.359375 -4.4375 C 7.359375 -4.019531 7.347656 -3.738281 7.328125 -3.59375 Z M 6.25 -4.4375 C 6.238281 -5.238281 6.0625 -5.820312 5.71875 -6.1875 C 5.382812 -6.550781 4.898438 -6.734375 4.265625 -6.734375 C 3.609375 -6.734375 3.09375 -6.550781 2.71875 -6.1875 C 2.34375 -5.820312 2.113281 -5.238281 2.03125 -4.4375 Z M 6.25 -4.4375 "/></g></g></g><g fill="#000000" fill-opacity="1"><g transform="translate(157.791343, 279.141133)"><g><path d="M 1.3125 0 L 1.3125 -7.546875 L 2.375 -7.546875 L 2.375 -6.359375 L 2.515625 -6.328125 C 2.765625 -6.765625 3.082031 -7.097656 3.46875 -7.328125 C 3.863281 -7.566406 4.34375 -7.6875 4.90625 -7.6875 C 5.8125 -7.6875 6.46875 -7.453125 6.875 -6.984375 C 7.28125 -6.523438 7.484375 -5.816406 7.484375 -4.859375 L 7.484375 0 L 6.375 0 L 6.375 -4.828125 C 6.375 -5.285156 6.3125 -5.648438 6.1875 -5.921875 C 6.070312 -6.203125 5.894531 -6.40625 5.65625 -6.53125 C 5.414062 -6.65625 5.097656 -6.71875 4.703125 -6.71875 C 4.015625 -6.71875 3.460938 -6.488281 3.046875 -6.03125 C 2.628906 -5.582031 2.421875 -4.863281 2.421875 -3.875 L 2.421875 0 Z M 1.3125 0 "/></g></g></g><g fill="#000000" fill-opacity="1"><g transform="translate(166.468138, 279.141133)"><g><path d="M 3.90625 0.140625 C 3.300781 0.140625 2.765625 0 2.296875 -0.28125 C 1.835938 -0.570312 1.476562 -1.007812 1.21875 -1.59375 C 0.957031 -2.175781 0.828125 -2.898438 0.828125 -3.765625 C 0.828125 -4.628906 0.960938 -5.351562 1.234375 -5.9375 C 1.503906 -6.519531 1.878906 -6.957031 2.359375 -7.25 C 2.847656 -7.539062 3.410156 -7.6875 4.046875 -7.6875 C 4.546875 -7.6875 4.992188 -7.585938 5.390625 -7.390625 C 5.796875 -7.203125 6.140625 -6.894531 6.421875 -6.46875 L 6.5625 -6.5 L 6.5625 -10.5625 L 7.6875 -10.5625 L 7.6875 0 L 6.5625 0 L 6.5625 -1.09375 L 6.421875 -1.125 C 6.179688 -0.75 5.847656 -0.441406 5.421875 -0.203125 C 5.003906 0.0234375 4.5 0.140625 3.90625 0.140625 Z M 4.265625 -0.859375 C 4.960938 -0.859375 5.519531 -1.097656 5.9375 -1.578125 C 6.351562 -2.054688 6.5625 -2.785156 6.5625 -3.765625 C 6.5625 -4.753906 6.351562 -5.488281 5.9375 -5.96875 C 5.519531 -6.445312 4.960938 -6.6875 4.265625 -6.6875 C 3.535156 -6.6875 2.972656 -6.453125 2.578125 -5.984375 C 2.191406 -5.515625 2 -4.773438 2 -3.765625 C 2 -1.828125 2.753906 -0.859375 4.265625 -0.859375 Z M 4.265625 -0.859375 "/></g></g></g><g fill="#000000" fill-opacity="1"><g transform="translate(175.466043, 279.141133)"><g/></g></g><g fill="#000000" fill-opacity="1"><g transform="translate(178.895769, 279.141133)"><g><path d="M 3.734375 0 L 2.328125 0 L 0.484375 -7.546875 L 1.59375 -7.546875 L 3.015625 -1.296875 L 3.15625 -1.296875 L 4.921875 -7.546875 L 6.078125 -7.546875 L 7.890625 -1.296875 L 8.046875 -1.296875 L 9.4375 -7.546875 L 10.5 -7.546875 L 8.6875 0 L 7.265625 0 L 5.546875 -5.859375 L 5.40625 -5.859375 Z M 3.734375 0 "/></g></g></g><g fill="#000000" fill-opacity="1"><g transform="translate(189.881821, 279.141133)"><g><path d="M 7.1875 -3.515625 L 2 -3.515625 C 2.03125 -2.597656 2.25 -1.925781 2.65625 -1.5 C 3.070312 -1.070312 3.632812 -0.859375 4.34375 -0.859375 C 4.875 -0.859375 5.300781 -0.953125 5.625 -1.140625 C 5.957031 -1.328125 6.21875 -1.628906 6.40625 -2.046875 L 6.5625 -2.046875 L 7.28125 -1.609375 C 7.0625 -1.066406 6.710938 -0.640625 6.234375 -0.328125 C 5.753906 -0.015625 5.125 0.140625 4.34375 0.140625 C 3.613281 0.140625 2.984375 0 2.453125 -0.28125 C 1.929688 -0.570312 1.53125 -1.007812 1.25 -1.59375 C 0.96875 -2.175781 0.828125 -2.898438 0.828125 -3.765625 C 0.828125 -4.617188 0.972656 -5.335938 1.265625 -5.921875 C 1.566406 -6.515625 1.976562 -6.957031 2.5 -7.25 C 3.019531 -7.539062 3.609375 -7.6875 4.265625 -7.6875 C 5.234375 -7.6875 5.988281 -7.410156 6.53125 -6.859375 C 7.070312 -6.316406 7.347656 -5.507812 7.359375 -4.4375 C 7.359375 -4.019531 7.347656 -3.738281 7.328125 -3.59375 Z M 6.25 -4.4375 C 6.238281 -5.238281 6.0625 -5.820312 5.71875 -6.1875 C 5.382812 -6.550781 4.898438 -6.734375 4.265625 -6.734375 C 3.609375 -6.734375 3.09375 -6.550781 2.71875 -6.1875 C 2.34375 -5.820312 2.113281 -5.238281 2.03125 -4.4375 Z M 6.25 -4.4375 "/></g></g></g><g fill="#000000" fill-opacity="1"><g transform="translate(197.916397, 279.141133)"><g><path d="M 5.015625 0.140625 C 4.453125 0.140625 3.960938 0.0351562 3.546875 -0.171875 C 3.140625 -0.390625 2.816406 -0.679688 2.578125 -1.046875 L 2.421875 -1.015625 L 2.421875 0 L 1.3125 0 L 1.3125 -10.5625 L 2.421875 -10.5625 L 2.421875 -6.40625 L 2.578125 -6.390625 C 3.148438 -7.253906 3.984375 -7.6875 5.078125 -7.6875 C 5.691406 -7.6875 6.226562 -7.539062 6.6875 -7.25 C 7.15625 -6.96875 7.519531 -6.53125 7.78125 -5.9375 C 8.039062 -5.351562 8.171875 -4.628906 8.171875 -3.765625 C 8.171875 -2.910156 8.035156 -2.1875 7.765625 -1.59375 C 7.492188 -1.007812 7.117188 -0.570312 6.640625 -0.28125 C 6.171875 0 5.628906 0.140625 5.015625 0.140625 Z M 4.75 -0.859375 C 6.25 -0.859375 7 -1.828125 7 -3.765625 C 7 -4.773438 6.800781 -5.515625 6.40625 -5.984375 C 6.019531 -6.453125 5.46875 -6.6875 4.75 -6.6875 C 4.039062 -6.6875 3.472656 -6.445312 3.046875 -5.96875 C 2.628906 -5.488281 2.421875 -4.753906 2.421875 -3.765625 C 2.421875 -2.785156 2.628906 -2.054688 3.046875 -1.578125 C 3.472656 -1.097656 4.039062 -0.859375 4.75 -0.859375 Z M 4.75 -0.859375 "/></g></g></g><g fill="#000000" fill-opacity="1"><g transform="translate(206.90747, 279.141133)"><g/></g></g><g fill="#000000" fill-opacity="1"><g transform="translate(210.337196, 279.141133)"><g><path d="M 3.109375 0.140625 C 2.367188 0.140625 1.789062 -0.0507812 1.375 -0.4375 C 0.957031 -0.820312 0.75 -1.375 0.75 -2.09375 C 0.75 -2.539062 0.835938 -2.914062 1.015625 -3.21875 C 1.203125 -3.53125 1.488281 -3.78125 1.875 -3.96875 C 2.269531 -4.164062 2.773438 -4.320312 3.390625 -4.4375 C 3.941406 -4.519531 4.359375 -4.617188 4.640625 -4.734375 C 4.929688 -4.847656 5.125 -4.972656 5.21875 -5.109375 C 5.3125 -5.253906 5.359375 -5.4375 5.359375 -5.65625 C 5.359375 -6 5.238281 -6.257812 5 -6.4375 C 4.769531 -6.625 4.398438 -6.71875 3.890625 -6.71875 C 3.398438 -6.71875 2.976562 -6.617188 2.625 -6.421875 C 2.28125 -6.234375 1.960938 -5.953125 1.671875 -5.578125 L 1.53125 -5.578125 L 0.984375 -6.359375 C 1.304688 -6.765625 1.710938 -7.085938 2.203125 -7.328125 C 2.691406 -7.566406 3.253906 -7.6875 3.890625 -7.6875 C 4.773438 -7.6875 5.425781 -7.488281 5.84375 -7.09375 C 6.269531 -6.707031 6.484375 -6.171875 6.484375 -5.484375 L 6.484375 -1.484375 C 6.484375 -1.066406 6.660156 -0.859375 7.015625 -0.859375 C 7.128906 -0.859375 7.242188 -0.878906 7.359375 -0.921875 L 7.453125 -0.890625 L 7.578125 -0.109375 C 7.492188 -0.0546875 7.382812 -0.015625 7.25 0.015625 C 7.125 0.046875 6.988281 0.0625 6.84375 0.0625 C 6.425781 0.0625 6.109375 -0.03125 5.890625 -0.21875 C 5.679688 -0.40625 5.550781 -0.675781 5.5 -1.03125 L 5.359375 -1.046875 C 5.140625 -0.640625 4.847656 -0.335938 4.484375 -0.140625 C 4.117188 0.046875 3.660156 0.140625 3.109375 0.140625 Z M 3.359375 -0.75 C 3.773438 -0.75 4.132812 -0.84375 4.4375 -1.03125 C 4.75 -1.226562 4.988281 -1.5 5.15625 -1.84375 C 5.320312 -2.195312 5.40625 -2.601562 5.40625 -3.0625 L 5.40625 -4.03125 L 5.265625 -4.046875 C 5.097656 -3.929688 4.894531 -3.832031 4.65625 -3.75 C 4.414062 -3.675781 4.078125 -3.609375 3.640625 -3.546875 C 3.203125 -3.484375 2.851562 -3.390625 2.59375 -3.265625 C 2.34375 -3.140625 2.160156 -2.984375 2.046875 -2.796875 C 1.941406 -2.609375 1.890625 -2.375 1.890625 -2.09375 C 1.890625 -1.65625 2.019531 -1.320312 2.28125 -1.09375 C 2.539062 -0.863281 2.898438 -0.75 3.359375 -0.75 Z M 3.359375 -0.75 "/></g></g></g><g fill="#000000" fill-opacity="1"><g transform="translate(218.132647, 279.141133)"><g><path d="M 1.3125 3.0625 L 1.3125 -7.546875 L 2.421875 -7.546875 L 2.421875 -6.40625 L 2.578125 -6.390625 C 3.128906 -7.253906 3.945312 -7.6875 5.03125 -7.6875 C 5.664062 -7.6875 6.21875 -7.539062 6.6875 -7.25 C 7.15625 -6.96875 7.519531 -6.53125 7.78125 -5.9375 C 8.039062 -5.351562 8.171875 -4.628906 8.171875 -3.765625 C 8.171875 -2.898438 8.03125 -2.175781 7.75 -1.59375 C 7.476562 -1.007812 7.101562 -0.570312 6.625 -0.28125 C 6.144531 0 5.585938 0.140625 4.953125 0.140625 C 4.441406 0.140625 3.988281 0.0507812 3.59375 -0.125 C 3.195312 -0.300781 2.859375 -0.59375 2.578125 -1 L 2.421875 -0.96875 L 2.421875 3.0625 Z M 4.703125 -0.859375 C 6.234375 -0.859375 7 -1.828125 7 -3.765625 C 7 -5.710938 6.234375 -6.6875 4.703125 -6.6875 C 4.265625 -6.6875 3.875 -6.582031 3.53125 -6.375 C 3.1875 -6.175781 2.914062 -5.859375 2.71875 -5.421875 C 2.519531 -4.984375 2.421875 -4.429688 2.421875 -3.765625 C 2.421875 -3.109375 2.519531 -2.5625 2.71875 -2.125 C 2.914062 -1.6875 3.1875 -1.363281 3.53125 -1.15625 C 3.875 -0.957031 4.265625 -0.859375 4.703125 -0.859375 Z M 4.703125 -0.859375 "/></g></g></g><g fill="#000000" fill-opacity="1"><g transform="translate(227.12372, 279.141133)"><g><path d="M 1.3125 3.0625 L 1.3125 -7.546875 L 2.421875 -7.546875 L 2.421875 -6.40625 L 2.578125 -6.390625 C 3.128906 -7.253906 3.945312 -7.6875 5.03125 -7.6875 C 5.664062 -7.6875 6.21875 -7.539062 6.6875 -7.25 C 7.15625 -6.96875 7.519531 -6.53125 7.78125 -5.9375 C 8.039062 -5.351562 8.171875 -4.628906 8.171875 -3.765625 C 8.171875 -2.898438 8.03125 -2.175781 7.75 -1.59375 C 7.476562 -1.007812 7.101562 -0.570312 6.625 -0.28125 C 6.144531 0 5.585938 0.140625 4.953125 0.140625 C 4.441406 0.140625 3.988281 0.0507812 3.59375 -0.125 C 3.195312 -0.300781 2.859375 -0.59375 2.578125 -1 L 2.421875 -0.96875 L 2.421875 3.0625 Z M 4.703125 -0.859375 C 6.234375 -0.859375 7 -1.828125 7 -3.765625 C 7 -5.710938 6.234375 -6.6875 4.703125 -6.6875 C 4.265625 -6.6875 3.875 -6.582031 3.53125 -6.375 C 3.1875 -6.175781 2.914062 -5.859375 2.71875 -5.421875 C 2.519531 -4.984375 2.421875 -4.429688 2.421875 -3.765625 C 2.421875 -3.109375 2.519531 -2.5625 2.71875 -2.125 C 2.914062 -1.6875 3.1875 -1.363281 3.53125 -1.15625 C 3.875 -0.957031 4.265625 -0.859375 4.703125 -0.859375 Z M 4.703125 -0.859375 "/></g></g></g><g fill="#000000" fill-opacity="1"><g transform="translate(236.114793, 279.141133)"><g><path d="M 3 0.140625 C 2.46875 0.140625 2.046875 -0.0078125 1.734375 -0.3125 C 1.429688 -0.613281 1.28125 -1.066406 1.28125 -1.671875 L 1.28125 -10.5625 L 2.40625 -10.5625 L 2.40625 -1.75 C 2.40625 -1.425781 2.460938 -1.195312 2.578125 -1.0625 C 2.703125 -0.925781 2.890625 -0.859375 3.140625 -0.859375 C 3.296875 -0.859375 3.453125 -0.882812 3.609375 -0.9375 L 3.71875 -0.90625 L 3.84375 -0.03125 C 3.757812 0.03125 3.640625 0.0703125 3.484375 0.09375 C 3.335938 0.125 3.175781 0.140625 3 0.140625 Z M 3 0.140625 "/></g></g></g><g fill="#000000" fill-opacity="1"><g transform="translate(240.214067, 279.141133)"><g><path d="M 1.875 -9 C 1.632812 -9 1.441406 -9.070312 1.296875 -9.21875 C 1.148438 -9.363281 1.078125 -9.550781 1.078125 -9.78125 C 1.078125 -10.007812 1.148438 -10.195312 1.296875 -10.34375 C 1.441406 -10.488281 1.632812 -10.5625 1.875 -10.5625 C 2.113281 -10.5625 2.304688 -10.488281 2.453125 -10.34375 C 2.597656 -10.195312 2.671875 -10.007812 2.671875 -9.78125 C 2.671875 -9.550781 2.597656 -9.363281 2.453125 -9.21875 C 2.304688 -9.070312 2.113281 -9 1.875 -9 Z M 1.3125 0 L 1.3125 -7.546875 L 2.421875 -7.546875 L 2.421875 0 Z M 1.3125 0 "/></g></g></g><g fill="#000000" fill-opacity="1"><g transform="translate(243.951238, 279.141133)"><g><path d="M 4.328125 0.140625 C 3.660156 0.140625 3.0625 -0.0078125 2.53125 -0.3125 C 2.007812 -0.613281 1.59375 -1.054688 1.28125 -1.640625 C 0.976562 -2.234375 0.828125 -2.941406 0.828125 -3.765625 C 0.828125 -4.585938 0.976562 -5.296875 1.28125 -5.890625 C 1.59375 -6.484375 2.007812 -6.929688 2.53125 -7.234375 C 3.0625 -7.535156 3.660156 -7.6875 4.328125 -7.6875 C 5.128906 -7.6875 5.765625 -7.535156 6.234375 -7.234375 C 6.703125 -6.929688 7.039062 -6.53125 7.25 -6.03125 L 6.5 -5.484375 L 6.359375 -5.484375 C 6.148438 -5.898438 5.882812 -6.203125 5.5625 -6.390625 C 5.25 -6.585938 4.835938 -6.6875 4.328125 -6.6875 C 3.859375 -6.6875 3.445312 -6.578125 3.09375 -6.359375 C 2.75 -6.140625 2.476562 -5.8125 2.28125 -5.375 C 2.09375 -4.9375 2 -4.398438 2 -3.765625 C 2 -3.140625 2.09375 -2.609375 2.28125 -2.171875 C 2.476562 -1.734375 2.75 -1.40625 3.09375 -1.1875 C 3.445312 -0.96875 3.859375 -0.859375 4.328125 -0.859375 C 4.847656 -0.859375 5.28125 -0.972656 5.625 -1.203125 C 5.96875 -1.441406 6.238281 -1.816406 6.4375 -2.328125 L 6.578125 -2.328125 L 7.3125 -1.90625 C 7.113281 -1.269531 6.765625 -0.769531 6.265625 -0.40625 C 5.765625 -0.0390625 5.117188 0.140625 4.328125 0.140625 Z M 4.328125 0.140625 "/></g></g></g><g fill="#000000" fill-opacity="1"><g transform="translate(251.719361, 279.141133)"><g><path d="M 3.109375 0.140625 C 2.367188 0.140625 1.789062 -0.0507812 1.375 -0.4375 C 0.957031 -0.820312 0.75 -1.375 0.75 -2.09375 C 0.75 -2.539062 0.835938 -2.914062 1.015625 -3.21875 C 1.203125 -3.53125 1.488281 -3.78125 1.875 -3.96875 C 2.269531 -4.164062 2.773438 -4.320312 3.390625 -4.4375 C 3.941406 -4.519531 4.359375 -4.617188 4.640625 -4.734375 C 4.929688 -4.847656 5.125 -4.972656 5.21875 -5.109375 C 5.3125 -5.253906 5.359375 -5.4375 5.359375 -5.65625 C 5.359375 -6 5.238281 -6.257812 5 -6.4375 C 4.769531 -6.625 4.398438 -6.71875 3.890625 -6.71875 C 3.398438 -6.71875 2.976562 -6.617188 2.625 -6.421875 C 2.28125 -6.234375 1.960938 -5.953125 1.671875 -5.578125 L 1.53125 -5.578125 L 0.984375 -6.359375 C 1.304688 -6.765625 1.710938 -7.085938 2.203125 -7.328125 C 2.691406 -7.566406 3.253906 -7.6875 3.890625 -7.6875 C 4.773438 -7.6875 5.425781 -7.488281 5.84375 -7.09375 C 6.269531 -6.707031 6.484375 -6.171875 6.484375 -5.484375 L 6.484375 -1.484375 C 6.484375 -1.066406 6.660156 -0.859375 7.015625 -0.859375 C 7.128906 -0.859375 7.242188 -0.878906 7.359375 -0.921875 L 7.453125 -0.890625 L 7.578125 -0.109375 C 7.492188 -0.0546875 7.382812 -0.015625 7.25 0.015625 C 7.125 0.046875 6.988281 0.0625 6.84375 0.0625 C 6.425781 0.0625 6.109375 -0.03125 5.890625 -0.21875 C 5.679688 -0.40625 5.550781 -0.675781 5.5 -1.03125 L 5.359375 -1.046875 C 5.140625 -0.640625 4.847656 -0.335938 4.484375 -0.140625 C 4.117188 0.046875 3.660156 0.140625 3.109375 0.140625 Z M 3.359375 -0.75 C 3.773438 -0.75 4.132812 -0.84375 4.4375 -1.03125 C 4.75 -1.226562 4.988281 -1.5 5.15625 -1.84375 C 5.320312 -2.195312 5.40625 -2.601562 5.40625 -3.0625 L 5.40625 -4.03125 L 5.265625 -4.046875 C 5.097656 -3.929688 4.894531 -3.832031 4.65625 -3.75 C 4.414062 -3.675781 4.078125 -3.609375 3.640625 -3.546875 C 3.203125 -3.484375 2.851562 -3.390625 2.59375 -3.265625 C 2.34375 -3.140625 2.160156 -2.984375 2.046875 -2.796875 C 1.941406 -2.609375 1.890625 -2.375 1.890625 -2.09375 C 1.890625 -1.65625 2.019531 -1.320312 2.28125 -1.09375 C 2.539062 -0.863281 2.898438 -0.75 3.359375 -0.75 Z M 3.359375 -0.75 "/></g></g></g><g fill="#000000" fill-opacity="1"><g transform="translate(259.514812, 279.141133)"><g><path d="M 5.09375 -1.203125 L 5.453125 -0.390625 C 5.273438 -0.210938 5.039062 -0.0820312 4.75 0 C 4.46875 0.09375 4.15625 0.140625 3.8125 0.140625 C 2.375 0.140625 1.65625 -0.585938 1.65625 -2.046875 L 1.65625 -6.625 L 0.34375 -6.625 L 0.34375 -7.546875 L 1.65625 -7.546875 L 1.65625 -9.140625 L 2.765625 -9.328125 L 2.765625 -7.546875 L 5.203125 -7.546875 L 5.203125 -6.625 L 2.765625 -6.625 L 2.765625 -2.15625 C 2.765625 -1.289062 3.140625 -0.859375 3.890625 -0.859375 C 4.304688 -0.859375 4.660156 -0.972656 4.953125 -1.203125 Z M 5.09375 -1.203125 "/></g></g></g><g fill="#000000" fill-opacity="1"><g transform="translate(265.253795, 279.141133)"><g><path d="M 1.875 -9 C 1.632812 -9 1.441406 -9.070312 1.296875 -9.21875 C 1.148438 -9.363281 1.078125 -9.550781 1.078125 -9.78125 C 1.078125 -10.007812 1.148438 -10.195312 1.296875 -10.34375 C 1.441406 -10.488281 1.632812 -10.5625 1.875 -10.5625 C 2.113281 -10.5625 2.304688 -10.488281 2.453125 -10.34375 C 2.597656 -10.195312 2.671875 -10.007812 2.671875 -9.78125 C 2.671875 -9.550781 2.597656 -9.363281 2.453125 -9.21875 C 2.304688 -9.070312 2.113281 -9 1.875 -9 Z M 1.3125 0 L 1.3125 -7.546875 L 2.421875 -7.546875 L 2.421875 0 Z M 1.3125 0 "/></g></g></g><g fill="#000000" fill-opacity="1"><g transform="translate(268.990966, 279.141133)"><g><path d="M 4.328125 0.140625 C 3.617188 0.140625 3 -0.0078125 2.46875 -0.3125 C 1.945312 -0.613281 1.539062 -1.054688 1.25 -1.640625 C 0.96875 -2.222656 0.828125 -2.929688 0.828125 -3.765625 C 0.828125 -4.597656 0.96875 -5.304688 1.25 -5.890625 C 1.539062 -6.484375 1.945312 -6.929688 2.46875 -7.234375 C 3 -7.535156 3.617188 -7.6875 4.328125 -7.6875 C 5.035156 -7.6875 5.648438 -7.535156 6.171875 -7.234375 C 6.703125 -6.929688 7.109375 -6.484375 7.390625 -5.890625 C 7.679688 -5.304688 7.828125 -4.597656 7.828125 -3.765625 C 7.828125 -2.929688 7.679688 -2.222656 7.390625 -1.640625 C 7.109375 -1.054688 6.703125 -0.613281 6.171875 -0.3125 C 5.648438 -0.0078125 5.035156 0.140625 4.328125 0.140625 Z M 4.328125 -0.859375 C 5.078125 -0.859375 5.648438 -1.09375 6.046875 -1.5625 C 6.453125 -2.039062 6.65625 -2.773438 6.65625 -3.765625 C 6.65625 -4.765625 6.453125 -5.5 6.046875 -5.96875 C 5.648438 -6.445312 5.078125 -6.6875 4.328125 -6.6875 C 3.578125 -6.6875 3 -6.445312 2.59375 -5.96875 C 2.195312 -5.488281 2 -4.753906 2 -3.765625 C 2 -2.773438 2.195312 -2.039062 2.59375 -1.5625 C 3 -1.09375 3.578125 -0.859375 4.328125 -0.859375 Z M 4.328125 -0.859375 "/></g></g></g><g fill="#000000" fill-opacity="1"><g transform="translate(277.640422, 279.141133)"><g><path d="M 1.3125 0 L 1.3125 -7.546875 L 2.375 -7.546875 L 2.375 -6.359375 L 2.515625 -6.328125 C 2.765625 -6.765625 3.082031 -7.097656 3.46875 -7.328125 C 3.863281 -7.566406 4.34375 -7.6875 4.90625 -7.6875 C 5.8125 -7.6875 6.46875 -7.453125 6.875 -6.984375 C 7.28125 -6.523438 7.484375 -5.816406 7.484375 -4.859375 L 7.484375 0 L 6.375 0 L 6.375 -4.828125 C 6.375 -5.285156 6.3125 -5.648438 6.1875 -5.921875 C 6.070312 -6.203125 5.894531 -6.40625 5.65625 -6.53125 C 5.414062 -6.65625 5.097656 -6.71875 4.703125 -6.71875 C 4.015625 -6.71875 3.460938 -6.488281 3.046875 -6.03125 C 2.628906 -5.582031 2.421875 -4.863281 2.421875 -3.875 L 2.421875 0 Z M 1.3125 0 "/></g></g></g><g fill="#000000" fill-opacity="1"><g transform="translate(286.317217, 279.141133)"><g/></g></g><g fill="#000000" fill-opacity="1"><g transform="translate(289.746942, 279.141133)"><g><path d="M 4.328125 0.140625 C 3.617188 0.140625 3 -0.0078125 2.46875 -0.3125 C 1.945312 -0.613281 1.539062 -1.054688 1.25 -1.640625 C 0.96875 -2.222656 0.828125 -2.929688 0.828125 -3.765625 C 0.828125 -4.597656 0.96875 -5.304688 1.25 -5.890625 C 1.539062 -6.484375 1.945312 -6.929688 2.46875 -7.234375 C 3 -7.535156 3.617188 -7.6875 4.328125 -7.6875 C 5.035156 -7.6875 5.648438 -7.535156 6.171875 -7.234375 C 6.703125 -6.929688 7.109375 -6.484375 7.390625 -5.890625 C 7.679688 -5.304688 7.828125 -4.597656 7.828125 -3.765625 C 7.828125 -2.929688 7.679688 -2.222656 7.390625 -1.640625 C 7.109375 -1.054688 6.703125 -0.613281 6.171875 -0.3125 C 5.648438 -0.0078125 5.035156 0.140625 4.328125 0.140625 Z M 4.328125 -0.859375 C 5.078125 -0.859375 5.648438 -1.09375 6.046875 -1.5625 C 6.453125 -2.039062 6.65625 -2.773438 6.65625 -3.765625 C 6.65625 -4.765625 6.453125 -5.5 6.046875 -5.96875 C 5.648438 -6.445312 5.078125 -6.6875 4.328125 -6.6875 C 3.578125 -6.6875 3 -6.445312 2.59375 -5.96875 C 2.195312 -5.488281 2 -4.753906 2 -3.765625 C 2 -2.773438 2.195312 -2.039062 2.59375 -1.5625 C 3 -1.09375 3.578125 -0.859375 4.328125 -0.859375 Z M 4.328125 -0.859375 "/></g></g></g><g fill="#000000" fill-opacity="1"><g transform="translate(298.396409, 279.141133)"><g><path d="M 1.3125 0 L 1.3125 -7.546875 L 2.375 -7.546875 L 2.375 -6.359375 L 2.515625 -6.328125 C 2.867188 -7.179688 3.53125 -7.609375 4.5 -7.609375 C 5.007812 -7.609375 5.394531 -7.515625 5.65625 -7.328125 L 5.359375 -6.390625 L 5.234375 -6.359375 C 4.953125 -6.492188 4.640625 -6.5625 4.296875 -6.5625 C 3.691406 -6.5625 3.226562 -6.335938 2.90625 -5.890625 C 2.582031 -5.441406 2.421875 -4.710938 2.421875 -3.703125 L 2.421875 0 Z M 1.3125 0 "/></g></g></g><g fill="#000000" fill-opacity="1"><g transform="translate(104.794318, 298.641132)"><g><path d="M 5.15625 0.140625 C 3.925781 0.140625 2.992188 -0.164062 2.359375 -0.78125 C 1.734375 -1.40625 1.421875 -2.332031 1.421875 -3.5625 L 1.421875 -10 L 2.59375 -10 L 2.59375 -3.5625 C 2.59375 -2.6875 2.800781 -2.03125 3.21875 -1.59375 C 3.644531 -1.15625 4.289062 -0.9375 5.15625 -0.9375 C 6.863281 -0.9375 7.71875 -1.8125 7.71875 -3.5625 L 7.71875 -10 L 8.875 -10 L 8.875 -3.5625 C 8.875 -2.332031 8.5625 -1.40625 7.9375 -0.78125 C 7.3125 -0.164062 6.382812 0.140625 5.15625 0.140625 Z M 5.15625 0.140625 "/></g></g></g><g fill="#000000" fill-opacity="1"><g transform="translate(115.090326, 298.641132)"><g><path d="M 2.6875 0 L 1.515625 0 L 1.515625 -10 L 2.6875 -10 Z M 2.6875 0 "/></g></g></g><g fill="#000000" fill-opacity="1"><g transform="translate(119.292082, 298.641132)"><g/></g></g><g fill="#000000" fill-opacity="1"><g transform="translate(122.721807, 298.641132)"><g><path d="M 1.6875 0 L 1.6875 -6.625 L 0.375 -6.625 L 0.375 -7.546875 L 1.6875 -7.546875 C 1.601562 -7.878906 1.5625 -8.191406 1.5625 -8.484375 C 1.5625 -8.972656 1.664062 -9.382812 1.875 -9.71875 C 2.082031 -10.050781 2.367188 -10.300781 2.734375 -10.46875 C 3.097656 -10.632812 3.523438 -10.71875 4.015625 -10.71875 C 4.765625 -10.71875 5.34375 -10.554688 5.75 -10.234375 L 5.3125 -9.4375 L 5.171875 -9.40625 C 4.867188 -9.644531 4.484375 -9.765625 4.015625 -9.765625 C 3.566406 -9.765625 3.226562 -9.648438 3 -9.421875 C 2.78125 -9.191406 2.671875 -8.867188 2.671875 -8.453125 C 2.671875 -8.191406 2.710938 -7.890625 2.796875 -7.546875 L 5.203125 -7.546875 L 5.203125 -6.625 L 2.796875 -6.625 L 2.796875 0 Z M 1.6875 0 "/></g></g></g><g fill="#000000" fill-opacity="1"><g transform="translate(128.091855, 298.641132)"><g><path d="M 4.328125 0.140625 C 3.617188 0.140625 3 -0.0078125 2.46875 -0.3125 C 1.945312 -0.613281 1.539062 -1.054688 1.25 -1.640625 C 0.96875 -2.222656 0.828125 -2.929688 0.828125 -3.765625 C 0.828125 -4.597656 0.96875 -5.304688 1.25 -5.890625 C 1.539062 -6.484375 1.945312 -6.929688 2.46875 -7.234375 C 3 -7.535156 3.617188 -7.6875 4.328125 -7.6875 C 5.035156 -7.6875 5.648438 -7.535156 6.171875 -7.234375 C 6.703125 -6.929688 7.109375 -6.484375 7.390625 -5.890625 C 7.679688 -5.304688 7.828125 -4.597656 7.828125 -3.765625 C 7.828125 -2.929688 7.679688 -2.222656 7.390625 -1.640625 C 7.109375 -1.054688 6.703125 -0.613281 6.171875 -0.3125 C 5.648438 -0.0078125 5.035156 0.140625 4.328125 0.140625 Z M 4.328125 -0.859375 C 5.078125 -0.859375 5.648438 -1.09375 6.046875 -1.5625 C 6.453125 -2.039062 6.65625 -2.773438 6.65625 -3.765625 C 6.65625 -4.765625 6.453125 -5.5 6.046875 -5.96875 C 5.648438 -6.445312 5.078125 -6.6875 4.328125 -6.6875 C 3.578125 -6.6875 3 -6.445312 2.59375 -5.96875 C 2.195312 -5.488281 2 -4.753906 2 -3.765625 C 2 -2.773438 2.195312 -2.039062 2.59375 -1.5625 C 3 -1.09375 3.578125 -0.859375 4.328125 -0.859375 Z M 4.328125 -0.859375 "/></g></g></g><g fill="#000000" fill-opacity="1"><g transform="translate(136.741322, 298.641132)"><g><path d="M 1.3125 0 L 1.3125 -7.546875 L 2.375 -7.546875 L 2.375 -6.359375 L 2.515625 -6.328125 C 2.867188 -7.179688 3.53125 -7.609375 4.5 -7.609375 C 5.007812 -7.609375 5.394531 -7.515625 5.65625 -7.328125 L 5.359375 -6.390625 L 5.234375 -6.359375 C 4.953125 -6.492188 4.640625 -6.5625 4.296875 -6.5625 C 3.691406 -6.5625 3.226562 -6.335938 2.90625 -5.890625 C 2.582031 -5.441406 2.421875 -4.710938 2.421875 -3.703125 L 2.421875 0 Z M 1.3125 0 "/></g></g></g><g fill="#000000" fill-opacity="1"><g transform="translate(142.56229, 298.641132)"><g/></g></g><g fill="#000000" fill-opacity="1"><g transform="translate(145.992016, 298.641132)"><g><path d="M 1.3125 0 L 1.3125 -7.546875 L 2.375 -7.546875 L 2.375 -6.421875 L 2.515625 -6.40625 C 2.773438 -6.820312 3.082031 -7.140625 3.4375 -7.359375 C 3.800781 -7.578125 4.238281 -7.6875 4.75 -7.6875 C 5.332031 -7.6875 5.78125 -7.570312 6.09375 -7.34375 C 6.414062 -7.125 6.664062 -6.769531 6.84375 -6.28125 L 6.984375 -6.28125 C 7.242188 -6.738281 7.5625 -7.085938 7.9375 -7.328125 C 8.320312 -7.566406 8.796875 -7.6875 9.359375 -7.6875 C 10.128906 -7.6875 10.703125 -7.472656 11.078125 -7.046875 C 11.460938 -6.628906 11.65625 -5.992188 11.65625 -5.140625 L 11.65625 0 L 10.546875 0 L 10.546875 -5.109375 C 10.546875 -5.660156 10.425781 -6.066406 10.1875 -6.328125 C 9.957031 -6.585938 9.585938 -6.71875 9.078125 -6.71875 C 8.484375 -6.71875 7.992188 -6.5 7.609375 -6.0625 C 7.234375 -5.625 7.046875 -4.898438 7.046875 -3.890625 L 7.046875 0 L 5.921875 0 L 5.921875 -5.109375 C 5.921875 -5.660156 5.804688 -6.066406 5.578125 -6.328125 C 5.347656 -6.585938 4.976562 -6.71875 4.46875 -6.71875 C 3.863281 -6.71875 3.367188 -6.503906 2.984375 -6.078125 C 2.609375 -5.648438 2.421875 -4.960938 2.421875 -4.015625 L 2.421875 0 Z M 1.3125 0 "/></g></g></g><g fill="#000000" fill-opacity="1"><g transform="translate(158.836405, 298.641132)"><g><path d="M 3.109375 0.140625 C 2.367188 0.140625 1.789062 -0.0507812 1.375 -0.4375 C 0.957031 -0.820312 0.75 -1.375 0.75 -2.09375 C 0.75 -2.539062 0.835938 -2.914062 1.015625 -3.21875 C 1.203125 -3.53125 1.488281 -3.78125 1.875 -3.96875 C 2.269531 -4.164062 2.773438 -4.320312 3.390625 -4.4375 C 3.941406 -4.519531 4.359375 -4.617188 4.640625 -4.734375 C 4.929688 -4.847656 5.125 -4.972656 5.21875 -5.109375 C 5.3125 -5.253906 5.359375 -5.4375 5.359375 -5.65625 C 5.359375 -6 5.238281 -6.257812 5 -6.4375 C 4.769531 -6.625 4.398438 -6.71875 3.890625 -6.71875 C 3.398438 -6.71875 2.976562 -6.617188 2.625 -6.421875 C 2.28125 -6.234375 1.960938 -5.953125 1.671875 -5.578125 L 1.53125 -5.578125 L 0.984375 -6.359375 C 1.304688 -6.765625 1.710938 -7.085938 2.203125 -7.328125 C 2.691406 -7.566406 3.253906 -7.6875 3.890625 -7.6875 C 4.773438 -7.6875 5.425781 -7.488281 5.84375 -7.09375 C 6.269531 -6.707031 6.484375 -6.171875 6.484375 -5.484375 L 6.484375 -1.484375 C 6.484375 -1.066406 6.660156 -0.859375 7.015625 -0.859375 C 7.128906 -0.859375 7.242188 -0.878906 7.359375 -0.921875 L 7.453125 -0.890625 L 7.578125 -0.109375 C 7.492188 -0.0546875 7.382812 -0.015625 7.25 0.015625 C 7.125 0.046875 6.988281 0.0625 6.84375 0.0625 C 6.425781 0.0625 6.109375 -0.03125 5.890625 -0.21875 C 5.679688 -0.40625 5.550781 -0.675781 5.5 -1.03125 L 5.359375 -1.046875 C 5.140625 -0.640625 4.847656 -0.335938 4.484375 -0.140625 C 4.117188 0.046875 3.660156 0.140625 3.109375 0.140625 Z M 3.359375 -0.75 C 3.773438 -0.75 4.132812 -0.84375 4.4375 -1.03125 C 4.75 -1.226562 4.988281 -1.5 5.15625 -1.84375 C 5.320312 -2.195312 5.40625 -2.601562 5.40625 -3.0625 L 5.40625 -4.03125 L 5.265625 -4.046875 C 5.097656 -3.929688 4.894531 -3.832031 4.65625 -3.75 C 4.414062 -3.675781 4.078125 -3.609375 3.640625 -3.546875 C 3.203125 -3.484375 2.851562 -3.390625 2.59375 -3.265625 C 2.34375 -3.140625 2.160156 -2.984375 2.046875 -2.796875 C 1.941406 -2.609375 1.890625 -2.375 1.890625 -2.09375 C 1.890625 -1.65625 2.019531 -1.320312 2.28125 -1.09375 C 2.539062 -0.863281 2.898438 -0.75 3.359375 -0.75 Z M 3.359375 -0.75 "/></g></g></g><g fill="#000000" fill-opacity="1"><g transform="translate(166.631857, 298.641132)"><g><path d="M 1.3125 0 L 1.3125 -7.546875 L 2.375 -7.546875 L 2.375 -6.359375 L 2.515625 -6.328125 C 2.765625 -6.765625 3.082031 -7.097656 3.46875 -7.328125 C 3.863281 -7.566406 4.34375 -7.6875 4.90625 -7.6875 C 5.8125 -7.6875 6.46875 -7.453125 6.875 -6.984375 C 7.28125 -6.523438 7.484375 -5.816406 7.484375 -4.859375 L 7.484375 0 L 6.375 0 L 6.375 -4.828125 C 6.375 -5.285156 6.3125 -5.648438 6.1875 -5.921875 C 6.070312 -6.203125 5.894531 -6.40625 5.65625 -6.53125 C 5.414062 -6.65625 5.097656 -6.71875 4.703125 -6.71875 C 4.015625 -6.71875 3.460938 -6.488281 3.046875 -6.03125 C 2.628906 -5.582031 2.421875 -4.863281 2.421875 -3.875 L 2.421875 0 Z M 1.3125 0 "/></g></g></g><g fill="#000000" fill-opacity="1"><g transform="translate(175.308652, 298.641132)"><g><path d="M 3.109375 0.140625 C 2.367188 0.140625 1.789062 -0.0507812 1.375 -0.4375 C 0.957031 -0.820312 0.75 -1.375 0.75 -2.09375 C 0.75 -2.539062 0.835938 -2.914062 1.015625 -3.21875 C 1.203125 -3.53125 1.488281 -3.78125 1.875 -3.96875 C 2.269531 -4.164062 2.773438 -4.320312 3.390625 -4.4375 C 3.941406 -4.519531 4.359375 -4.617188 4.640625 -4.734375 C 4.929688 -4.847656 5.125 -4.972656 5.21875 -5.109375 C 5.3125 -5.253906 5.359375 -5.4375 5.359375 -5.65625 C 5.359375 -6 5.238281 -6.257812 5 -6.4375 C 4.769531 -6.625 4.398438 -6.71875 3.890625 -6.71875 C 3.398438 -6.71875 2.976562 -6.617188 2.625 -6.421875 C 2.28125 -6.234375 1.960938 -5.953125 1.671875 -5.578125 L 1.53125 -5.578125 L 0.984375 -6.359375 C 1.304688 -6.765625 1.710938 -7.085938 2.203125 -7.328125 C 2.691406 -7.566406 3.253906 -7.6875 3.890625 -7.6875 C 4.773438 -7.6875 5.425781 -7.488281 5.84375 -7.09375 C 6.269531 -6.707031 6.484375 -6.171875 6.484375 -5.484375 L 6.484375 -1.484375 C 6.484375 -1.066406 6.660156 -0.859375 7.015625 -0.859375 C 7.128906 -0.859375 7.242188 -0.878906 7.359375 -0.921875 L 7.453125 -0.890625 L 7.578125 -0.109375 C 7.492188 -0.0546875 7.382812 -0.015625 7.25 0.015625 C 7.125 0.046875 6.988281 0.0625 6.84375 0.0625 C 6.425781 0.0625 6.109375 -0.03125 5.890625 -0.21875 C 5.679688 -0.40625 5.550781 -0.675781 5.5 -1.03125 L 5.359375 -1.046875 C 5.140625 -0.640625 4.847656 -0.335938 4.484375 -0.140625 C 4.117188 0.046875 3.660156 0.140625 3.109375 0.140625 Z M 3.359375 -0.75 C 3.773438 -0.75 4.132812 -0.84375 4.4375 -1.03125 C 4.75 -1.226562 4.988281 -1.5 5.15625 -1.84375 C 5.320312 -2.195312 5.40625 -2.601562 5.40625 -3.0625 L 5.40625 -4.03125 L 5.265625 -4.046875 C 5.097656 -3.929688 4.894531 -3.832031 4.65625 -3.75 C 4.414062 -3.675781 4.078125 -3.609375 3.640625 -3.546875 C 3.203125 -3.484375 2.851562 -3.390625 2.59375 -3.265625 C 2.34375 -3.140625 2.160156 -2.984375 2.046875 -2.796875 C 1.941406 -2.609375 1.890625 -2.375 1.890625 -2.09375 C 1.890625 -1.65625 2.019531 -1.320312 2.28125 -1.09375 C 2.539062 -0.863281 2.898438 -0.75 3.359375 -0.75 Z M 3.359375 -0.75 "/></g></g></g><g fill="#000000" fill-opacity="1"><g transform="translate(183.104104, 298.641132)"><g><path d="M 3.890625 3.203125 C 2.691406 3.203125 1.816406 3.003906 1.265625 2.609375 C 0.722656 2.210938 0.453125 1.6875 0.453125 1.03125 C 0.453125 0.601562 0.578125 0.265625 0.828125 0.015625 C 1.085938 -0.234375 1.460938 -0.414062 1.953125 -0.53125 L 1.953125 -0.671875 C 1.722656 -0.804688 1.550781 -0.960938 1.4375 -1.140625 C 1.320312 -1.316406 1.265625 -1.523438 1.265625 -1.765625 C 1.265625 -2.054688 1.351562 -2.289062 1.53125 -2.46875 C 1.71875 -2.65625 1.992188 -2.800781 2.359375 -2.90625 L 2.359375 -3.046875 C 1.535156 -3.472656 1.125 -4.175781 1.125 -5.15625 C 1.125 -5.644531 1.234375 -6.082031 1.453125 -6.46875 C 1.679688 -6.851562 2.003906 -7.148438 2.421875 -7.359375 C 2.835938 -7.578125 3.320312 -7.6875 3.875 -7.6875 C 4.5 -7.6875 5.023438 -7.546875 5.453125 -7.265625 C 5.609375 -7.441406 5.726562 -7.628906 5.8125 -7.828125 C 5.894531 -8.035156 5.945312 -8.269531 5.96875 -8.53125 L 6.109375 -8.609375 L 7.03125 -8.390625 C 6.976562 -8.015625 6.859375 -7.691406 6.671875 -7.421875 C 6.492188 -7.160156 6.238281 -6.941406 5.90625 -6.765625 L 5.90625 -6.625 C 6.144531 -6.4375 6.320312 -6.210938 6.4375 -5.953125 C 6.550781 -5.691406 6.609375 -5.390625 6.609375 -5.046875 C 6.609375 -4.578125 6.492188 -4.148438 6.265625 -3.765625 C 6.035156 -3.390625 5.710938 -3.09375 5.296875 -2.875 C 4.890625 -2.664062 4.414062 -2.5625 3.875 -2.5625 C 3.8125 -2.5625 3.695312 -2.566406 3.53125 -2.578125 C 3.34375 -2.578125 3.207031 -2.578125 3.125 -2.578125 C 2.882812 -2.578125 2.691406 -2.515625 2.546875 -2.390625 C 2.410156 -2.273438 2.34375 -2.117188 2.34375 -1.921875 C 2.34375 -1.691406 2.414062 -1.519531 2.5625 -1.40625 C 2.71875 -1.289062 2.972656 -1.226562 3.328125 -1.21875 L 5.109375 -1.15625 C 5.878906 -1.125 6.453125 -0.941406 6.828125 -0.609375 C 7.203125 -0.285156 7.390625 0.175781 7.390625 0.78125 C 7.390625 1.238281 7.265625 1.644531 7.015625 2 C 6.773438 2.363281 6.394531 2.65625 5.875 2.875 C 5.351562 3.09375 4.691406 3.203125 3.890625 3.203125 Z M 3.875 -3.515625 C 4.40625 -3.515625 4.816406 -3.648438 5.109375 -3.921875 C 5.398438 -4.203125 5.546875 -4.59375 5.546875 -5.09375 C 5.546875 -5.613281 5.398438 -6.015625 5.109375 -6.296875 C 4.816406 -6.585938 4.40625 -6.734375 3.875 -6.734375 C 3.332031 -6.734375 2.921875 -6.59375 2.640625 -6.3125 C 2.359375 -6.03125 2.21875 -5.625 2.21875 -5.09375 C 2.21875 -4.59375 2.359375 -4.203125 2.640625 -3.921875 C 2.921875 -3.648438 3.332031 -3.515625 3.875 -3.515625 Z M 3.890625 2.25 C 4.441406 2.25 4.894531 2.1875 5.25 2.0625 C 5.601562 1.9375 5.851562 1.769531 6 1.5625 C 6.15625 1.363281 6.234375 1.140625 6.234375 0.890625 C 6.234375 0.660156 6.191406 0.476562 6.109375 0.34375 C 6.023438 0.207031 5.890625 0.101562 5.703125 0.03125 C 5.515625 -0.03125 5.257812 -0.0703125 4.9375 -0.09375 L 3.25 -0.171875 L 3.015625 -0.171875 C 2.066406 -0.160156 1.59375 0.207031 1.59375 0.9375 C 1.59375 1.8125 2.359375 2.25 3.890625 2.25 Z M 3.890625 2.25 "/></g></g></g><g fill="#000000" fill-opacity="1"><g transform="translate(190.824402, 298.641132)"><g><path d="M 1.875 -9 C 1.632812 -9 1.441406 -9.070312 1.296875 -9.21875 C 1.148438 -9.363281 1.078125 -9.550781 1.078125 -9.78125 C 1.078125 -10.007812 1.148438 -10.195312 1.296875 -10.34375 C 1.441406 -10.488281 1.632812 -10.5625 1.875 -10.5625 C 2.113281 -10.5625 2.304688 -10.488281 2.453125 -10.34375 C 2.597656 -10.195312 2.671875 -10.007812 2.671875 -9.78125 C 2.671875 -9.550781 2.597656 -9.363281 2.453125 -9.21875 C 2.304688 -9.070312 2.113281 -9 1.875 -9 Z M 1.3125 0 L 1.3125 -7.546875 L 2.421875 -7.546875 L 2.421875 0 Z M 1.3125 0 "/></g></g></g><g fill="#000000" fill-opacity="1"><g transform="translate(194.561573, 298.641132)"><g><path d="M 1.3125 0 L 1.3125 -7.546875 L 2.375 -7.546875 L 2.375 -6.359375 L 2.515625 -6.328125 C 2.765625 -6.765625 3.082031 -7.097656 3.46875 -7.328125 C 3.863281 -7.566406 4.34375 -7.6875 4.90625 -7.6875 C 5.8125 -7.6875 6.46875 -7.453125 6.875 -6.984375 C 7.28125 -6.523438 7.484375 -5.816406 7.484375 -4.859375 L 7.484375 0 L 6.375 0 L 6.375 -4.828125 C 6.375 -5.285156 6.3125 -5.648438 6.1875 -5.921875 C 6.070312 -6.203125 5.894531 -6.40625 5.65625 -6.53125 C 5.414062 -6.65625 5.097656 -6.71875 4.703125 -6.71875 C 4.015625 -6.71875 3.460938 -6.488281 3.046875 -6.03125 C 2.628906 -5.582031 2.421875 -4.863281 2.421875 -3.875 L 2.421875 0 Z M 1.3125 0 "/></g></g></g><g fill="#000000" fill-opacity="1"><g transform="translate(203.238369, 298.641132)"><g><path d="M 3.890625 3.203125 C 2.691406 3.203125 1.816406 3.003906 1.265625 2.609375 C 0.722656 2.210938 0.453125 1.6875 0.453125 1.03125 C 0.453125 0.601562 0.578125 0.265625 0.828125 0.015625 C 1.085938 -0.234375 1.460938 -0.414062 1.953125 -0.53125 L 1.953125 -0.671875 C 1.722656 -0.804688 1.550781 -0.960938 1.4375 -1.140625 C 1.320312 -1.316406 1.265625 -1.523438 1.265625 -1.765625 C 1.265625 -2.054688 1.351562 -2.289062 1.53125 -2.46875 C 1.71875 -2.65625 1.992188 -2.800781 2.359375 -2.90625 L 2.359375 -3.046875 C 1.535156 -3.472656 1.125 -4.175781 1.125 -5.15625 C 1.125 -5.644531 1.234375 -6.082031 1.453125 -6.46875 C 1.679688 -6.851562 2.003906 -7.148438 2.421875 -7.359375 C 2.835938 -7.578125 3.320312 -7.6875 3.875 -7.6875 C 4.5 -7.6875 5.023438 -7.546875 5.453125 -7.265625 C 5.609375 -7.441406 5.726562 -7.628906 5.8125 -7.828125 C 5.894531 -8.035156 5.945312 -8.269531 5.96875 -8.53125 L 6.109375 -8.609375 L 7.03125 -8.390625 C 6.976562 -8.015625 6.859375 -7.691406 6.671875 -7.421875 C 6.492188 -7.160156 6.238281 -6.941406 5.90625 -6.765625 L 5.90625 -6.625 C 6.144531 -6.4375 6.320312 -6.210938 6.4375 -5.953125 C 6.550781 -5.691406 6.609375 -5.390625 6.609375 -5.046875 C 6.609375 -4.578125 6.492188 -4.148438 6.265625 -3.765625 C 6.035156 -3.390625 5.710938 -3.09375 5.296875 -2.875 C 4.890625 -2.664062 4.414062 -2.5625 3.875 -2.5625 C 3.8125 -2.5625 3.695312 -2.566406 3.53125 -2.578125 C 3.34375 -2.578125 3.207031 -2.578125 3.125 -2.578125 C 2.882812 -2.578125 2.691406 -2.515625 2.546875 -2.390625 C 2.410156 -2.273438 2.34375 -2.117188 2.34375 -1.921875 C 2.34375 -1.691406 2.414062 -1.519531 2.5625 -1.40625 C 2.71875 -1.289062 2.972656 -1.226562 3.328125 -1.21875 L 5.109375 -1.15625 C 5.878906 -1.125 6.453125 -0.941406 6.828125 -0.609375 C 7.203125 -0.285156 7.390625 0.175781 7.390625 0.78125 C 7.390625 1.238281 7.265625 1.644531 7.015625 2 C 6.773438 2.363281 6.394531 2.65625 5.875 2.875 C 5.351562 3.09375 4.691406 3.203125 3.890625 3.203125 Z M 3.875 -3.515625 C 4.40625 -3.515625 4.816406 -3.648438 5.109375 -3.921875 C 5.398438 -4.203125 5.546875 -4.59375 5.546875 -5.09375 C 5.546875 -5.613281 5.398438 -6.015625 5.109375 -6.296875 C 4.816406 -6.585938 4.40625 -6.734375 3.875 -6.734375 C 3.332031 -6.734375 2.921875 -6.59375 2.640625 -6.3125 C 2.359375 -6.03125 2.21875 -5.625 2.21875 -5.09375 C 2.21875 -4.59375 2.359375 -4.203125 2.640625 -3.921875 C 2.921875 -3.648438 3.332031 -3.515625 3.875 -3.515625 Z M 3.890625 2.25 C 4.441406 2.25 4.894531 2.1875 5.25 2.0625 C 5.601562 1.9375 5.851562 1.769531 6 1.5625 C 6.15625 1.363281 6.234375 1.140625 6.234375 0.890625 C 6.234375 0.660156 6.191406 0.476562 6.109375 0.34375 C 6.023438 0.207031 5.890625 0.101562 5.703125 0.03125 C 5.515625 -0.03125 5.257812 -0.0703125 4.9375 -0.09375 L 3.25 -0.171875 L 3.015625 -0.171875 C 2.066406 -0.160156 1.59375 0.207031 1.59375 0.9375 C 1.59375 1.8125 2.359375 2.25 3.890625 2.25 Z M 3.890625 2.25 "/></g></g></g><g fill="#000000" fill-opacity="1"><g transform="translate(210.958667, 298.641132)"><g/></g></g><g fill="#000000" fill-opacity="1"><g transform="translate(214.388392, 298.641132)"><g><path d="M 3.90625 0.140625 C 3.300781 0.140625 2.765625 0 2.296875 -0.28125 C 1.835938 -0.570312 1.476562 -1.007812 1.21875 -1.59375 C 0.957031 -2.175781 0.828125 -2.898438 0.828125 -3.765625 C 0.828125 -4.628906 0.960938 -5.351562 1.234375 -5.9375 C 1.503906 -6.519531 1.878906 -6.957031 2.359375 -7.25 C 2.847656 -7.539062 3.410156 -7.6875 4.046875 -7.6875 C 4.546875 -7.6875 4.992188 -7.585938 5.390625 -7.390625 C 5.796875 -7.203125 6.140625 -6.894531 6.421875 -6.46875 L 6.5625 -6.5 L 6.5625 -10.5625 L 7.6875 -10.5625 L 7.6875 0 L 6.5625 0 L 6.5625 -1.09375 L 6.421875 -1.125 C 6.179688 -0.75 5.847656 -0.441406 5.421875 -0.203125 C 5.003906 0.0234375 4.5 0.140625 3.90625 0.140625 Z M 4.265625 -0.859375 C 4.960938 -0.859375 5.519531 -1.097656 5.9375 -1.578125 C 6.351562 -2.054688 6.5625 -2.785156 6.5625 -3.765625 C 6.5625 -4.753906 6.351562 -5.488281 5.9375 -5.96875 C 5.519531 -6.445312 4.960938 -6.6875 4.265625 -6.6875 C 3.535156 -6.6875 2.972656 -6.453125 2.578125 -5.984375 C 2.191406 -5.515625 2 -4.773438 2 -3.765625 C 2 -1.828125 2.753906 -0.859375 4.265625 -0.859375 Z M 4.265625 -0.859375 "/></g></g></g><g fill="#000000" fill-opacity="1"><g transform="translate(223.386297, 298.641132)"><g><path d="M 3.109375 0.140625 C 2.367188 0.140625 1.789062 -0.0507812 1.375 -0.4375 C 0.957031 -0.820312 0.75 -1.375 0.75 -2.09375 C 0.75 -2.539062 0.835938 -2.914062 1.015625 -3.21875 C 1.203125 -3.53125 1.488281 -3.78125 1.875 -3.96875 C 2.269531 -4.164062 2.773438 -4.320312 3.390625 -4.4375 C 3.941406 -4.519531 4.359375 -4.617188 4.640625 -4.734375 C 4.929688 -4.847656 5.125 -4.972656 5.21875 -5.109375 C 5.3125 -5.253906 5.359375 -5.4375 5.359375 -5.65625 C 5.359375 -6 5.238281 -6.257812 5 -6.4375 C 4.769531 -6.625 4.398438 -6.71875 3.890625 -6.71875 C 3.398438 -6.71875 2.976562 -6.617188 2.625 -6.421875 C 2.28125 -6.234375 1.960938 -5.953125 1.671875 -5.578125 L 1.53125 -5.578125 L 0.984375 -6.359375 C 1.304688 -6.765625 1.710938 -7.085938 2.203125 -7.328125 C 2.691406 -7.566406 3.253906 -7.6875 3.890625 -7.6875 C 4.773438 -7.6875 5.425781 -7.488281 5.84375 -7.09375 C 6.269531 -6.707031 6.484375 -6.171875 6.484375 -5.484375 L 6.484375 -1.484375 C 6.484375 -1.066406 6.660156 -0.859375 7.015625 -0.859375 C 7.128906 -0.859375 7.242188 -0.878906 7.359375 -0.921875 L 7.453125 -0.890625 L 7.578125 -0.109375 C 7.492188 -0.0546875 7.382812 -0.015625 7.25 0.015625 C 7.125 0.046875 6.988281 0.0625 6.84375 0.0625 C 6.425781 0.0625 6.109375 -0.03125 5.890625 -0.21875 C 5.679688 -0.40625 5.550781 -0.675781 5.5 -1.03125 L 5.359375 -1.046875 C 5.140625 -0.640625 4.847656 -0.335938 4.484375 -0.140625 C 4.117188 0.046875 3.660156 0.140625 3.109375 0.140625 Z M 3.359375 -0.75 C 3.773438 -0.75 4.132812 -0.84375 4.4375 -1.03125 C 4.75 -1.226562 4.988281 -1.5 5.15625 -1.84375 C 5.320312 -2.195312 5.40625 -2.601562 5.40625 -3.0625 L 5.40625 -4.03125 L 5.265625 -4.046875 C 5.097656 -3.929688 4.894531 -3.832031 4.65625 -3.75 C 4.414062 -3.675781 4.078125 -3.609375 3.640625 -3.546875 C 3.203125 -3.484375 2.851562 -3.390625 2.59375 -3.265625 C 2.34375 -3.140625 2.160156 -2.984375 2.046875 -2.796875 C 1.941406 -2.609375 1.890625 -2.375 1.890625 -2.09375 C 1.890625 -1.65625 2.019531 -1.320312 2.28125 -1.09375 C 2.539062 -0.863281 2.898438 -0.75 3.359375 -0.75 Z M 3.359375 -0.75 "/></g></g></g><g fill="#000000" fill-opacity="1"><g transform="translate(231.181749, 298.641132)"><g><path d="M 5.09375 -1.203125 L 5.453125 -0.390625 C 5.273438 -0.210938 5.039062 -0.0820312 4.75 0 C 4.46875 0.09375 4.15625 0.140625 3.8125 0.140625 C 2.375 0.140625 1.65625 -0.585938 1.65625 -2.046875 L 1.65625 -6.625 L 0.34375 -6.625 L 0.34375 -7.546875 L 1.65625 -7.546875 L 1.65625 -9.140625 L 2.765625 -9.328125 L 2.765625 -7.546875 L 5.203125 -7.546875 L 5.203125 -6.625 L 2.765625 -6.625 L 2.765625 -2.15625 C 2.765625 -1.289062 3.140625 -0.859375 3.890625 -0.859375 C 4.304688 -0.859375 4.660156 -0.972656 4.953125 -1.203125 Z M 5.09375 -1.203125 "/></g></g></g><g fill="#000000" fill-opacity="1"><g transform="translate(236.920732, 298.641132)"><g><path d="M 3.109375 0.140625 C 2.367188 0.140625 1.789062 -0.0507812 1.375 -0.4375 C 0.957031 -0.820312 0.75 -1.375 0.75 -2.09375 C 0.75 -2.539062 0.835938 -2.914062 1.015625 -3.21875 C 1.203125 -3.53125 1.488281 -3.78125 1.875 -3.96875 C 2.269531 -4.164062 2.773438 -4.320312 3.390625 -4.4375 C 3.941406 -4.519531 4.359375 -4.617188 4.640625 -4.734375 C 4.929688 -4.847656 5.125 -4.972656 5.21875 -5.109375 C 5.3125 -5.253906 5.359375 -5.4375 5.359375 -5.65625 C 5.359375 -6 5.238281 -6.257812 5 -6.4375 C 4.769531 -6.625 4.398438 -6.71875 3.890625 -6.71875 C 3.398438 -6.71875 2.976562 -6.617188 2.625 -6.421875 C 2.28125 -6.234375 1.960938 -5.953125 1.671875 -5.578125 L 1.53125 -5.578125 L 0.984375 -6.359375 C 1.304688 -6.765625 1.710938 -7.085938 2.203125 -7.328125 C 2.691406 -7.566406 3.253906 -7.6875 3.890625 -7.6875 C 4.773438 -7.6875 5.425781 -7.488281 5.84375 -7.09375 C 6.269531 -6.707031 6.484375 -6.171875 6.484375 -5.484375 L 6.484375 -1.484375 C 6.484375 -1.066406 6.660156 -0.859375 7.015625 -0.859375 C 7.128906 -0.859375 7.242188 -0.878906 7.359375 -0.921875 L 7.453125 -0.890625 L 7.578125 -0.109375 C 7.492188 -0.0546875 7.382812 -0.015625 7.25 0.015625 C 7.125 0.046875 6.988281 0.0625 6.84375 0.0625 C 6.425781 0.0625 6.109375 -0.03125 5.890625 -0.21875 C 5.679688 -0.40625 5.550781 -0.675781 5.5 -1.03125 L 5.359375 -1.046875 C 5.140625 -0.640625 4.847656 -0.335938 4.484375 -0.140625 C 4.117188 0.046875 3.660156 0.140625 3.109375 0.140625 Z M 3.359375 -0.75 C 3.773438 -0.75 4.132812 -0.84375 4.4375 -1.03125 C 4.75 -1.226562 4.988281 -1.5 5.15625 -1.84375 C 5.320312 -2.195312 5.40625 -2.601562 5.40625 -3.0625 L 5.40625 -4.03125 L 5.265625 -4.046875 C 5.097656 -3.929688 4.894531 -3.832031 4.65625 -3.75 C 4.414062 -3.675781 4.078125 -3.609375 3.640625 -3.546875 C 3.203125 -3.484375 2.851562 -3.390625 2.59375 -3.265625 C 2.34375 -3.140625 2.160156 -2.984375 2.046875 -2.796875 C 1.941406 -2.609375 1.890625 -2.375 1.890625 -2.09375 C 1.890625 -1.65625 2.019531 -1.320312 2.28125 -1.09375 C 2.539062 -0.863281 2.898438 -0.75 3.359375 -0.75 Z M 3.359375 -0.75 "/></g></g></g><g fill="#000000" fill-opacity="1"><g transform="translate(244.716183, 298.641132)"><g/></g></g><g fill="#000000" fill-opacity="1"><g transform="translate(248.145909, 298.641132)"><g><path d="M 1.875 -9 C 1.632812 -9 1.441406 -9.070312 1.296875 -9.21875 C 1.148438 -9.363281 1.078125 -9.550781 1.078125 -9.78125 C 1.078125 -10.007812 1.148438 -10.195312 1.296875 -10.34375 C 1.441406 -10.488281 1.632812 -10.5625 1.875 -10.5625 C 2.113281 -10.5625 2.304688 -10.488281 2.453125 -10.34375 C 2.597656 -10.195312 2.671875 -10.007812 2.671875 -9.78125 C 2.671875 -9.550781 2.597656 -9.363281 2.453125 -9.21875 C 2.304688 -9.070312 2.113281 -9 1.875 -9 Z M 0.375 3.203125 C 0.132812 3.203125 -0.0703125 3.179688 -0.25 3.140625 C -0.4375 3.109375 -0.613281 3.0625 -0.78125 3 L -0.609375 2.140625 L -0.484375 2.09375 C -0.253906 2.1875 -0.0195312 2.234375 0.21875 2.234375 C 0.570312 2.234375 0.84375 2.113281 1.03125 1.875 C 1.21875 1.644531 1.3125 1.3125 1.3125 0.875 L 1.3125 -7.546875 L 2.421875 -7.546875 L 2.421875 0.828125 C 2.421875 1.585938 2.238281 2.171875 1.875 2.578125 C 1.519531 2.992188 1.019531 3.203125 0.375 3.203125 Z M 0.375 3.203125 "/></g></g></g><g fill="#000000" fill-opacity="1"><g transform="translate(251.88308, 298.641132)"><g><path d="M 4.328125 0.140625 C 3.617188 0.140625 3 -0.0078125 2.46875 -0.3125 C 1.945312 -0.613281 1.539062 -1.054688 1.25 -1.640625 C 0.96875 -2.222656 0.828125 -2.929688 0.828125 -3.765625 C 0.828125 -4.597656 0.96875 -5.304688 1.25 -5.890625 C 1.539062 -6.484375 1.945312 -6.929688 2.46875 -7.234375 C 3 -7.535156 3.617188 -7.6875 4.328125 -7.6875 C 5.035156 -7.6875 5.648438 -7.535156 6.171875 -7.234375 C 6.703125 -6.929688 7.109375 -6.484375 7.390625 -5.890625 C 7.679688 -5.304688 7.828125 -4.597656 7.828125 -3.765625 C 7.828125 -2.929688 7.679688 -2.222656 7.390625 -1.640625 C 7.109375 -1.054688 6.703125 -0.613281 6.171875 -0.3125 C 5.648438 -0.0078125 5.035156 0.140625 4.328125 0.140625 Z M 4.328125 -0.859375 C 5.078125 -0.859375 5.648438 -1.09375 6.046875 -1.5625 C 6.453125 -2.039062 6.65625 -2.773438 6.65625 -3.765625 C 6.65625 -4.765625 6.453125 -5.5 6.046875 -5.96875 C 5.648438 -6.445312 5.078125 -6.6875 4.328125 -6.6875 C 3.578125 -6.6875 3 -6.445312 2.59375 -5.96875 C 2.195312 -5.488281 2 -4.753906 2 -3.765625 C 2 -2.773438 2.195312 -2.039062 2.59375 -1.5625 C 3 -1.09375 3.578125 -0.859375 4.328125 -0.859375 Z M 4.328125 -0.859375 "/></g></g></g><g fill="#000000" fill-opacity="1"><g transform="translate(260.532547, 298.641132)"><g><path d="M 5.015625 0.140625 C 4.453125 0.140625 3.960938 0.0351562 3.546875 -0.171875 C 3.140625 -0.390625 2.816406 -0.679688 2.578125 -1.046875 L 2.421875 -1.015625 L 2.421875 0 L 1.3125 0 L 1.3125 -10.5625 L 2.421875 -10.5625 L 2.421875 -6.40625 L 2.578125 -6.390625 C 3.148438 -7.253906 3.984375 -7.6875 5.078125 -7.6875 C 5.691406 -7.6875 6.226562 -7.539062 6.6875 -7.25 C 7.15625 -6.96875 7.519531 -6.53125 7.78125 -5.9375 C 8.039062 -5.351562 8.171875 -4.628906 8.171875 -3.765625 C 8.171875 -2.910156 8.035156 -2.1875 7.765625 -1.59375 C 7.492188 -1.007812 7.117188 -0.570312 6.640625 -0.28125 C 6.171875 0 5.628906 0.140625 5.015625 0.140625 Z M 4.75 -0.859375 C 6.25 -0.859375 7 -1.828125 7 -3.765625 C 7 -4.773438 6.800781 -5.515625 6.40625 -5.984375 C 6.019531 -6.453125 5.46875 -6.6875 4.75 -6.6875 C 4.039062 -6.6875 3.472656 -6.445312 3.046875 -5.96875 C 2.628906 -5.488281 2.421875 -4.753906 2.421875 -3.765625 C 2.421875 -2.785156 2.628906 -2.054688 3.046875 -1.578125 C 3.472656 -1.097656 4.039062 -0.859375 4.75 -0.859375 Z M 4.75 -0.859375 "/></g></g></g><g fill="#000000" fill-opacity="1"><g transform="translate(269.52362, 298.641132)"><g><path d="M 3.4375 0.140625 C 2.96875 0.140625 2.53125 0.078125 2.125 -0.046875 C 1.71875 -0.171875 1.375 -0.34375 1.09375 -0.5625 C 0.820312 -0.78125 0.628906 -1.023438 0.515625 -1.296875 L 1.171875 -1.984375 L 1.3125 -1.984375 C 1.5625 -1.609375 1.859375 -1.328125 2.203125 -1.140625 C 2.546875 -0.953125 2.957031 -0.859375 3.4375 -0.859375 C 3.988281 -0.859375 4.410156 -0.960938 4.703125 -1.171875 C 4.992188 -1.390625 5.140625 -1.691406 5.140625 -2.078125 C 5.140625 -2.378906 5.050781 -2.625 4.875 -2.8125 C 4.695312 -3.007812 4.414062 -3.15625 4.03125 -3.25 L 2.75 -3.5625 C 2.070312 -3.726562 1.578125 -3.988281 1.265625 -4.34375 C 0.953125 -4.695312 0.796875 -5.140625 0.796875 -5.671875 C 0.796875 -6.078125 0.898438 -6.429688 1.109375 -6.734375 C 1.316406 -7.035156 1.617188 -7.269531 2.015625 -7.4375 C 2.410156 -7.601562 2.878906 -7.6875 3.421875 -7.6875 C 4.117188 -7.6875 4.664062 -7.585938 5.0625 -7.390625 C 5.457031 -7.203125 5.769531 -6.929688 6 -6.578125 L 5.359375 -5.96875 L 5.234375 -5.96875 C 4.992188 -6.25 4.726562 -6.445312 4.4375 -6.5625 C 4.15625 -6.6875 3.816406 -6.75 3.421875 -6.75 C 2.929688 -6.75 2.550781 -6.660156 2.28125 -6.484375 C 2.019531 -6.304688 1.890625 -6.050781 1.890625 -5.71875 C 1.890625 -5.40625 1.984375 -5.15625 2.171875 -4.96875 C 2.359375 -4.789062 2.679688 -4.644531 3.140625 -4.53125 L 4.390625 -4.21875 C 5.046875 -4.070312 5.519531 -3.816406 5.8125 -3.453125 C 6.101562 -3.085938 6.25 -2.632812 6.25 -2.09375 C 6.25 -1.65625 6.144531 -1.265625 5.9375 -0.921875 C 5.726562 -0.585938 5.410156 -0.328125 4.984375 -0.140625 C 4.566406 0.046875 4.050781 0.140625 3.4375 0.140625 Z M 3.4375 0.140625 "/></g></g></g><g fill="#000000" fill-opacity="1"><g transform="translate(276.492384, 298.641132)"><g><path d="M 1.84375 0.0625 C 1.582031 0.0625 1.375 -0.0078125 1.21875 -0.15625 C 1.070312 -0.300781 1 -0.492188 1 -0.734375 C 1 -0.972656 1.070312 -1.164062 1.21875 -1.3125 C 1.375 -1.46875 1.582031 -1.546875 1.84375 -1.546875 C 2.101562 -1.546875 2.304688 -1.472656 2.453125 -1.328125 C 2.609375 -1.179688 2.6875 -0.988281 2.6875 -0.75 C 2.6875 -0.507812 2.609375 -0.3125 2.453125 -0.15625 C 2.304688 -0.0078125 2.101562 0.0625 1.84375 0.0625 Z M 1.84375 0.0625 "/></g></g></g></svg>
