<svg xmlns="http://www.w3.org/2000/svg" xmlns:xlink="http://www.w3.org/1999/xlink" width="500" zoomAndPan="magnify" viewBox="0 0 375 374.999991" height="500" preserveAspectRatio="xMidYMid meet" version="1.0"><defs><g/><clipPath id="540690f5a9"><path d="M 112.5 48.070312 L 262.5 48.070312 L 262.5 198.070312 L 112.5 198.070312 Z M 112.5 48.070312 " clip-rule="nonzero"/></clipPath></defs><rect x="-37.5" width="450" fill="#ffffff" y="-37.499999" height="449.999989" fill-opacity="1"/><rect x="-37.5" width="450" fill="#ffffff" y="-37.499999" height="449.999989" fill-opacity="1"/><g clip-path="url(#540690f5a9)"><path fill="#000000" d="M 112.5 190.570312 L 112.5 63.070312 C 112.5 62.578125 112.546875 62.089844 112.644531 61.605469 C 112.738281 61.125 112.882812 60.65625 113.070312 60.199219 C 113.257812 59.746094 113.492188 59.3125 113.765625 58.902344 C 114.039062 58.492188 114.347656 58.113281 114.695312 57.765625 C 115.042969 57.417969 115.421875 57.105469 115.832031 56.832031 C 116.242188 56.558594 116.675781 56.328125 117.128906 56.140625 C 117.585938 55.953125 118.054688 55.808594 118.535156 55.714844 C 119.019531 55.617188 119.507812 55.570312 120 55.570312 L 187.5 55.570312 C 187.992188 55.570312 188.480469 55.617188 188.964844 55.714844 C 189.445312 55.808594 189.914062 55.953125 190.371094 56.140625 C 190.824219 56.328125 191.257812 56.558594 191.667969 56.832031 C 192.078125 57.105469 192.453125 57.417969 192.804688 57.765625 C 193.152344 58.113281 193.460938 58.492188 193.734375 58.902344 C 194.007812 59.3125 194.242188 59.746094 194.429688 60.199219 C 194.617188 60.65625 194.761719 61.125 194.855469 61.605469 C 194.953125 62.089844 195 62.578125 195 63.070312 C 195 63.5625 194.953125 64.050781 194.855469 64.53125 C 194.761719 65.015625 194.617188 65.484375 194.429688 65.941406 C 194.242188 66.394531 194.007812 66.828125 193.734375 67.238281 C 193.460938 67.644531 193.152344 68.023438 192.804688 68.375 C 192.453125 68.722656 192.078125 69.03125 191.667969 69.304688 C 191.257812 69.578125 190.824219 69.808594 190.371094 70 C 189.914062 70.1875 189.445312 70.328125 188.964844 70.425781 C 188.480469 70.523438 187.992188 70.570312 187.5 70.570312 L 127.5 70.570312 L 127.5 183.070312 L 240 183.070312 L 240 123.070312 C 240 122.578125 240.046875 122.089844 240.144531 121.605469 C 240.238281 121.125 240.382812 120.65625 240.570312 120.199219 C 240.757812 119.746094 240.992188 119.3125 241.265625 118.902344 C 241.539062 118.492188 241.847656 118.113281 242.195312 117.765625 C 242.542969 117.417969 242.921875 117.105469 243.332031 116.832031 C 243.742188 116.558594 244.175781 116.328125 244.628906 116.140625 C 245.085938 115.953125 245.554688 115.808594 246.035156 115.714844 C 246.519531 115.617188 247.007812 115.570312 247.5 115.570312 C 247.992188 115.570312 248.480469 115.617188 248.964844 115.714844 C 249.445312 115.808594 249.914062 115.953125 250.371094 116.140625 C 250.824219 116.328125 251.257812 116.558594 251.667969 116.832031 C 252.078125 117.105469 252.453125 117.417969 252.804688 117.765625 C 253.152344 118.113281 253.460938 118.492188 253.734375 118.902344 C 254.007812 119.3125 254.242188 119.746094 254.429688 120.199219 C 254.617188 120.65625 254.761719 121.125 254.855469 121.605469 C 254.953125 122.089844 255 122.578125 255 123.070312 L 255 190.570312 C 255 191.0625 254.953125 191.550781 254.855469 192.03125 C 254.761719 192.515625 254.617188 192.984375 254.429688 193.441406 C 254.242188 193.894531 254.007812 194.328125 253.734375 194.738281 C 253.460938 195.144531 253.152344 195.523438 252.804688 195.875 C 252.453125 196.222656 252.078125 196.53125 251.667969 196.804688 C 251.257812 197.078125 250.824219 197.308594 250.371094 197.5 C 249.914062 197.6875 249.445312 197.828125 248.964844 197.925781 C 248.480469 198.023438 247.992188 198.070312 247.5 198.070312 L 120 198.070312 C 119.507812 198.070312 119.019531 198.023438 118.535156 197.925781 C 118.054688 197.828125 117.585938 197.6875 117.128906 197.5 C 116.675781 197.308594 116.242188 197.078125 115.832031 196.804688 C 115.421875 196.53125 115.042969 196.222656 114.695312 195.875 C 114.347656 195.523438 114.039062 195.144531 113.765625 194.738281 C 113.492188 194.328125 113.257812 193.894531 113.070312 193.441406 C 112.882812 192.984375 112.738281 192.515625 112.644531 192.03125 C 112.546875 191.550781 112.5 191.0625 112.5 190.570312 Z M 250.914062 50.265625 C 250.5625 49.917969 250.183594 49.605469 249.777344 49.332031 C 249.367188 49.058594 248.933594 48.828125 248.476562 48.640625 C 248.023438 48.449219 247.554688 48.308594 247.070312 48.210938 C 246.585938 48.117188 246.097656 48.066406 245.605469 48.066406 C 245.113281 48.066406 244.625 48.117188 244.140625 48.210938 C 243.660156 48.308594 243.1875 48.449219 242.734375 48.640625 C 242.277344 48.828125 241.847656 49.058594 241.4375 49.332031 C 241.027344 49.605469 240.648438 49.917969 240.300781 50.265625 L 190.605469 99.960938 L 190.605469 119.964844 L 210.609375 119.964844 L 260.300781 70.269531 C 260.652344 69.921875 260.960938 69.542969 261.238281 69.132812 C 261.511719 68.722656 261.742188 68.289062 261.929688 67.835938 C 262.121094 67.378906 262.261719 66.910156 262.359375 66.429688 C 262.453125 65.945312 262.503906 65.457031 262.503906 64.964844 C 262.503906 64.472656 262.453125 63.984375 262.359375 63.5 C 262.261719 63.015625 262.121094 62.546875 261.929688 62.089844 C 261.742188 61.636719 261.511719 61.203125 261.238281 60.792969 C 260.960938 60.382812 260.652344 60.003906 260.300781 59.65625 Z M 250.914062 50.265625 " fill-opacity="1" fill-rule="nonzero"/></g><g fill="#000000" fill-opacity="1"><g transform="translate(128.847651, 242.291936)"><g><path d="M 4 0.171875 C 3.03125 0.171875 2.222656 -0.0078125 1.578125 -0.375 C 0.941406 -0.75 0.476562 -1.25 0.1875 -1.875 L 1.46875 -3.421875 L 1.65625 -3.421875 C 1.863281 -2.921875 2.160156 -2.523438 2.546875 -2.234375 C 2.929688 -1.941406 3.375 -1.796875 3.875 -1.796875 C 4.445312 -1.796875 4.867188 -1.960938 5.140625 -2.296875 C 5.421875 -2.628906 5.5625 -3.164062 5.5625 -3.90625 L 5.5625 -11.421875 L 7.8125 -11.421875 L 7.8125 -3.875 C 7.8125 -2.488281 7.492188 -1.46875 6.859375 -0.8125 C 6.234375 -0.15625 5.28125 0.171875 4 0.171875 Z M 4 0.171875 "/></g></g></g><g fill="#000000" fill-opacity="1"><g transform="translate(138.06415, 242.291936)"><g><path d="M 5.015625 0.171875 C 4.171875 0.171875 3.425781 0 2.78125 -0.34375 C 2.144531 -0.695312 1.648438 -1.207031 1.296875 -1.875 C 0.953125 -2.550781 0.78125 -3.363281 0.78125 -4.3125 C 0.78125 -5.257812 0.953125 -6.066406 1.296875 -6.734375 C 1.648438 -7.410156 2.144531 -7.921875 2.78125 -8.265625 C 3.425781 -8.609375 4.171875 -8.78125 5.015625 -8.78125 C 5.859375 -8.78125 6.597656 -8.609375 7.234375 -8.265625 C 7.867188 -7.921875 8.363281 -7.410156 8.71875 -6.734375 C 9.070312 -6.066406 9.25 -5.257812 9.25 -4.3125 C 9.25 -3.363281 9.070312 -2.550781 8.71875 -1.875 C 8.363281 -1.207031 7.867188 -0.695312 7.234375 -0.34375 C 6.597656 0 5.859375 0.171875 5.015625 0.171875 Z M 5.015625 -1.671875 C 6.347656 -1.671875 7.015625 -2.550781 7.015625 -4.3125 C 7.015625 -5.21875 6.84375 -5.882812 6.5 -6.3125 C 6.15625 -6.738281 5.660156 -6.953125 5.015625 -6.953125 C 3.671875 -6.953125 3 -6.070312 3 -4.3125 C 3 -2.550781 3.671875 -1.671875 5.015625 -1.671875 Z M 5.015625 -1.671875 "/></g></g></g><g fill="#000000" fill-opacity="1"><g transform="translate(148.077329, 242.291936)"><g><path d="M 6.03125 0.171875 C 4.925781 0.171875 4.109375 -0.242188 3.578125 -1.078125 L 3.40625 -1.046875 L 3.40625 0 L 1.25 0 L 1.25 -12.078125 L 3.40625 -12.078125 L 3.40625 -7.609375 L 3.578125 -7.578125 C 3.867188 -7.984375 4.21875 -8.285156 4.625 -8.484375 C 5.03125 -8.679688 5.515625 -8.78125 6.078125 -8.78125 C 6.773438 -8.78125 7.382812 -8.613281 7.90625 -8.28125 C 8.425781 -7.957031 8.832031 -7.460938 9.125 -6.796875 C 9.414062 -6.128906 9.5625 -5.300781 9.5625 -4.3125 C 9.5625 -3.332031 9.410156 -2.503906 9.109375 -1.828125 C 8.804688 -1.160156 8.390625 -0.660156 7.859375 -0.328125 C 7.328125 0.00390625 6.71875 0.171875 6.03125 0.171875 Z M 5.375 -1.671875 C 6.007812 -1.671875 6.492188 -1.882812 6.828125 -2.3125 C 7.160156 -2.738281 7.328125 -3.40625 7.328125 -4.3125 C 7.328125 -5.21875 7.160156 -5.882812 6.828125 -6.3125 C 6.492188 -6.738281 6.007812 -6.953125 5.375 -6.953125 C 4.757812 -6.953125 4.273438 -6.734375 3.921875 -6.296875 C 3.566406 -5.859375 3.390625 -5.195312 3.390625 -4.3125 C 3.390625 -3.425781 3.566406 -2.765625 3.921875 -2.328125 C 4.273438 -1.890625 4.757812 -1.671875 5.375 -1.671875 Z M 5.375 -1.671875 "/></g></g></g><g fill="#000000" fill-opacity="1"><g transform="translate(158.395127, 242.291936)"><g/></g></g><g fill="#000000" fill-opacity="1"><g transform="translate(162.167649, 242.291936)"><g><path d="M 10.96875 0 L 8.59375 0 L 7.734375 -2.640625 L 3.359375 -2.640625 L 2.5 0 L 0.171875 0 L 4.125 -11.421875 L 7.015625 -11.421875 Z M 5.4375 -9.046875 L 3.96875 -4.53125 L 7.109375 -4.53125 L 5.625 -9.046875 Z M 5.4375 -9.046875 "/></g></g></g><g fill="#000000" fill-opacity="1"><g transform="translate(173.297748, 242.291936)"><g><path d="M 1.25 0 L 1.25 -8.625 L 3.34375 -8.625 L 3.34375 -7.34375 L 3.515625 -7.3125 C 3.722656 -7.789062 3.992188 -8.140625 4.328125 -8.359375 C 4.671875 -8.585938 5.082031 -8.703125 5.5625 -8.703125 C 6.050781 -8.703125 6.425781 -8.617188 6.6875 -8.453125 L 6.3125 -6.578125 L 6.15625 -6.546875 C 6.007812 -6.609375 5.867188 -6.648438 5.734375 -6.671875 C 5.609375 -6.703125 5.453125 -6.71875 5.265625 -6.71875 C 4.660156 -6.71875 4.195312 -6.503906 3.875 -6.078125 C 3.5625 -5.648438 3.40625 -4.96875 3.40625 -4.03125 L 3.40625 0 Z M 1.25 0 "/></g></g></g><g fill="#000000" fill-opacity="1"><g transform="translate(180.053916, 242.291936)"><g><path d="M 4.46875 3.65625 C 3.050781 3.65625 2.003906 3.445312 1.328125 3.03125 C 0.648438 2.613281 0.3125 2.035156 0.3125 1.296875 C 0.3125 0.835938 0.453125 0.460938 0.734375 0.171875 C 1.023438 -0.117188 1.441406 -0.3125 1.984375 -0.40625 L 1.984375 -0.578125 C 1.691406 -0.753906 1.484375 -0.945312 1.359375 -1.15625 C 1.234375 -1.375 1.171875 -1.628906 1.171875 -1.921875 C 1.171875 -2.609375 1.617188 -3.070312 2.515625 -3.3125 L 2.515625 -3.484375 C 2.054688 -3.742188 1.707031 -4.070312 1.46875 -4.46875 C 1.238281 -4.863281 1.125 -5.335938 1.125 -5.890625 C 1.125 -6.460938 1.253906 -6.96875 1.515625 -7.40625 C 1.773438 -7.84375 2.160156 -8.179688 2.671875 -8.421875 C 3.179688 -8.660156 3.789062 -8.78125 4.5 -8.78125 C 5.21875 -8.78125 5.789062 -8.65625 6.21875 -8.40625 C 6.476562 -8.789062 6.628906 -9.238281 6.671875 -9.75 L 6.84375 -9.84375 L 8.390625 -9.46875 C 8.347656 -9.050781 8.226562 -8.703125 8.03125 -8.421875 C 7.84375 -8.148438 7.546875 -7.90625 7.140625 -7.6875 L 7.140625 -7.515625 C 7.617188 -7.085938 7.859375 -6.488281 7.859375 -5.71875 C 7.859375 -5.1875 7.722656 -4.707031 7.453125 -4.28125 C 7.191406 -3.863281 6.804688 -3.53125 6.296875 -3.28125 C 5.796875 -3.039062 5.195312 -2.921875 4.5 -2.921875 L 4.171875 -2.9375 C 3.960938 -2.945312 3.816406 -2.953125 3.734375 -2.953125 C 3.535156 -2.953125 3.378906 -2.894531 3.265625 -2.78125 C 3.148438 -2.675781 3.09375 -2.539062 3.09375 -2.375 C 3.09375 -2.195312 3.164062 -2.054688 3.3125 -1.953125 C 3.457031 -1.847656 3.671875 -1.789062 3.953125 -1.78125 L 5.890625 -1.71875 C 7.796875 -1.65625 8.75 -0.832031 8.75 0.75 C 8.75 1.3125 8.601562 1.804688 8.3125 2.234375 C 8.03125 2.671875 7.570312 3.015625 6.9375 3.265625 C 6.300781 3.523438 5.476562 3.65625 4.46875 3.65625 Z M 4.5 -4.4375 C 4.914062 -4.4375 5.238281 -4.554688 5.46875 -4.796875 C 5.707031 -5.046875 5.828125 -5.398438 5.828125 -5.859375 C 5.828125 -6.304688 5.707031 -6.648438 5.46875 -6.890625 C 5.238281 -7.140625 4.914062 -7.265625 4.5 -7.265625 C 4.070312 -7.265625 3.742188 -7.140625 3.515625 -6.890625 C 3.285156 -6.648438 3.171875 -6.304688 3.171875 -5.859375 C 3.171875 -5.398438 3.285156 -5.046875 3.515625 -4.796875 C 3.742188 -4.554688 4.070312 -4.4375 4.5 -4.4375 Z M 4.46875 2.09375 C 5.207031 2.09375 5.742188 1.988281 6.078125 1.78125 C 6.421875 1.570312 6.59375 1.300781 6.59375 0.96875 C 6.59375 0.695312 6.503906 0.492188 6.328125 0.359375 C 6.160156 0.234375 5.890625 0.164062 5.515625 0.15625 L 3.8125 0.078125 C 3.75 0.078125 3.691406 0.0703125 3.640625 0.0625 C 3.597656 0.0625 3.550781 0.0625 3.5 0.0625 C 3.132812 0.0625 2.859375 0.140625 2.671875 0.296875 C 2.484375 0.453125 2.390625 0.671875 2.390625 0.953125 C 2.390625 1.316406 2.5625 1.597656 2.90625 1.796875 C 3.257812 1.992188 3.78125 2.09375 4.46875 2.09375 Z M 4.46875 2.09375 "/></g></g></g><g fill="#000000" fill-opacity="1"><g transform="translate(189.012671, 242.291936)"><g><path d="M 3.953125 0.171875 C 2.984375 0.171875 2.265625 -0.09375 1.796875 -0.625 C 1.335938 -1.15625 1.109375 -1.914062 1.109375 -2.90625 L 1.109375 -8.625 L 3.28125 -8.625 L 3.28125 -3.1875 C 3.28125 -2.65625 3.390625 -2.269531 3.609375 -2.03125 C 3.835938 -1.789062 4.191406 -1.671875 4.671875 -1.671875 C 5.265625 -1.671875 5.726562 -1.863281 6.0625 -2.25 C 6.394531 -2.644531 6.5625 -3.265625 6.5625 -4.109375 L 6.5625 -8.625 L 8.734375 -8.625 L 8.734375 0 L 6.65625 0 L 6.65625 -1.265625 L 6.484375 -1.3125 C 6.210938 -0.8125 5.875 -0.4375 5.46875 -0.1875 C 5.070312 0.0507812 4.566406 0.171875 3.953125 0.171875 Z M 3.953125 0.171875 "/></g></g></g><g fill="#000000" fill-opacity="1"><g transform="translate(198.978987, 242.291936)"><g><path d="M 1.25 0 L 1.25 -8.625 L 3.328125 -8.625 L 3.328125 -7.46875 L 3.484375 -7.4375 C 3.765625 -7.894531 4.09375 -8.234375 4.46875 -8.453125 C 4.851562 -8.671875 5.335938 -8.78125 5.921875 -8.78125 C 6.578125 -8.78125 7.101562 -8.648438 7.5 -8.390625 C 7.894531 -8.140625 8.179688 -7.765625 8.359375 -7.265625 L 8.53125 -7.265625 C 8.789062 -7.785156 9.128906 -8.164062 9.546875 -8.40625 C 9.972656 -8.65625 10.5 -8.78125 11.125 -8.78125 C 12.90625 -8.78125 13.796875 -7.785156 13.796875 -5.796875 L 13.796875 0 L 11.640625 0 L 11.640625 -5.53125 C 11.640625 -6.03125 11.539062 -6.390625 11.34375 -6.609375 C 11.144531 -6.835938 10.828125 -6.953125 10.390625 -6.953125 C 9.203125 -6.953125 8.609375 -6.160156 8.609375 -4.578125 L 8.609375 0 L 6.4375 0 L 6.4375 -5.53125 C 6.4375 -6.03125 6.335938 -6.390625 6.140625 -6.609375 C 5.941406 -6.835938 5.625 -6.953125 5.1875 -6.953125 C 4.625 -6.953125 4.1875 -6.765625 3.875 -6.390625 C 3.5625 -6.023438 3.40625 -5.4375 3.40625 -4.625 L 3.40625 0 Z M 1.25 0 "/></g></g></g><g fill="#000000" fill-opacity="1"><g transform="translate(213.881597, 242.291936)"><g><path d="M 8.515625 -3.828125 L 2.984375 -3.828125 C 3.046875 -3.078125 3.257812 -2.53125 3.625 -2.1875 C 3.988281 -1.84375 4.484375 -1.671875 5.109375 -1.671875 C 5.609375 -1.671875 6.007812 -1.765625 6.3125 -1.953125 C 6.625 -2.140625 6.875 -2.421875 7.0625 -2.796875 L 7.21875 -2.796875 L 8.65625 -1.875 C 8.375 -1.269531 7.945312 -0.773438 7.375 -0.390625 C 6.8125 -0.015625 6.054688 0.171875 5.109375 0.171875 C 4.222656 0.171875 3.453125 0 2.796875 -0.34375 C 2.148438 -0.6875 1.648438 -1.191406 1.296875 -1.859375 C 0.953125 -2.523438 0.78125 -3.34375 0.78125 -4.3125 C 0.78125 -5.289062 0.960938 -6.113281 1.328125 -6.78125 C 1.703125 -7.457031 2.203125 -7.957031 2.828125 -8.28125 C 3.460938 -8.613281 4.171875 -8.78125 4.953125 -8.78125 C 6.171875 -8.78125 7.101562 -8.457031 7.75 -7.8125 C 8.40625 -7.164062 8.734375 -6.21875 8.734375 -4.96875 C 8.734375 -4.519531 8.71875 -4.171875 8.6875 -3.921875 Z M 6.65625 -5.21875 C 6.632812 -5.875 6.484375 -6.351562 6.203125 -6.65625 C 5.921875 -6.957031 5.503906 -7.109375 4.953125 -7.109375 C 3.859375 -7.109375 3.21875 -6.476562 3.03125 -5.21875 Z M 6.65625 -5.21875 "/></g></g></g><g fill="#000000" fill-opacity="1"><g transform="translate(223.246502, 242.291936)"><g><path d="M 1.25 0 L 1.25 -8.625 L 3.328125 -8.625 L 3.328125 -7.359375 L 3.484375 -7.3125 C 4.023438 -8.289062 4.894531 -8.78125 6.09375 -8.78125 C 7.09375 -8.78125 7.820312 -8.507812 8.28125 -7.96875 C 8.75 -7.425781 8.984375 -6.640625 8.984375 -5.609375 L 8.984375 0 L 6.828125 0 L 6.828125 -5.34375 C 6.828125 -5.914062 6.710938 -6.328125 6.484375 -6.578125 C 6.253906 -6.828125 5.882812 -6.953125 5.375 -6.953125 C 4.757812 -6.953125 4.273438 -6.75 3.921875 -6.34375 C 3.578125 -5.945312 3.40625 -5.320312 3.40625 -4.46875 L 3.40625 0 Z M 1.25 0 "/></g></g></g><g fill="#000000" fill-opacity="1"><g transform="translate(233.337787, 242.291936)"><g><path d="M 5.953125 -2.0625 L 6.515625 -0.453125 C 6.273438 -0.265625 5.976562 -0.113281 5.625 0 C 5.269531 0.113281 4.867188 0.171875 4.421875 0.171875 C 3.492188 0.171875 2.785156 -0.0820312 2.296875 -0.59375 C 1.816406 -1.101562 1.578125 -1.84375 1.578125 -2.8125 L 1.578125 -6.90625 L 0.265625 -6.90625 L 0.265625 -8.625 L 1.578125 -8.625 L 1.578125 -10.3125 L 3.734375 -10.65625 L 3.734375 -8.625 L 6.1875 -8.625 L 6.1875 -6.90625 L 3.734375 -6.90625 L 3.734375 -2.96875 C 3.734375 -2.539062 3.820312 -2.226562 4 -2.03125 C 4.175781 -1.84375 4.4375 -1.75 4.78125 -1.75 C 5.164062 -1.75 5.5 -1.851562 5.78125 -2.0625 Z M 5.953125 -2.0625 "/></g></g></g><g fill="#000000" fill-opacity="1"><g transform="translate(240.031471, 242.291936)"><g><path d="M 4.03125 0.171875 C 3.445312 0.171875 2.910156 0.101562 2.421875 -0.03125 C 1.929688 -0.175781 1.507812 -0.367188 1.15625 -0.609375 C 0.8125 -0.859375 0.554688 -1.140625 0.390625 -1.453125 L 1.59375 -2.75 L 1.765625 -2.75 C 2.046875 -2.363281 2.378906 -2.070312 2.765625 -1.875 C 3.160156 -1.6875 3.585938 -1.59375 4.046875 -1.59375 C 4.472656 -1.59375 4.789062 -1.664062 5 -1.8125 C 5.21875 -1.96875 5.328125 -2.1875 5.328125 -2.46875 C 5.328125 -2.6875 5.25 -2.867188 5.09375 -3.015625 C 4.9375 -3.160156 4.6875 -3.273438 4.34375 -3.359375 L 3.203125 -3.640625 C 2.347656 -3.835938 1.722656 -4.144531 1.328125 -4.5625 C 0.941406 -4.988281 0.75 -5.523438 0.75 -6.171875 C 0.75 -6.703125 0.882812 -7.164062 1.15625 -7.5625 C 1.425781 -7.957031 1.8125 -8.257812 2.3125 -8.46875 C 2.8125 -8.675781 3.390625 -8.78125 4.046875 -8.78125 C 4.828125 -8.78125 5.472656 -8.664062 5.984375 -8.4375 C 6.492188 -8.21875 6.890625 -7.921875 7.171875 -7.546875 L 6.015625 -6.296875 L 5.859375 -6.296875 C 5.617188 -6.566406 5.347656 -6.765625 5.046875 -6.890625 C 4.753906 -7.015625 4.421875 -7.078125 4.046875 -7.078125 C 3.191406 -7.078125 2.765625 -6.8125 2.765625 -6.28125 C 2.765625 -6.0625 2.84375 -5.878906 3 -5.734375 C 3.164062 -5.597656 3.445312 -5.484375 3.84375 -5.390625 L 4.90625 -5.15625 C 5.78125 -4.96875 6.421875 -4.664062 6.828125 -4.25 C 7.234375 -3.84375 7.4375 -3.289062 7.4375 -2.59375 C 7.4375 -2.039062 7.300781 -1.554688 7.03125 -1.140625 C 6.757812 -0.722656 6.367188 -0.398438 5.859375 -0.171875 C 5.347656 0.0546875 4.738281 0.171875 4.03125 0.171875 Z M 4.03125 0.171875 "/></g></g></g><g fill="#000000" fill-opacity="1"><g transform="translate(81.011718, 288.113887)"><g><path d="M 5.09375 -10 C 5.78125 -10 6.367188 -9.875 6.859375 -9.625 C 7.347656 -9.375 7.722656 -9.019531 7.984375 -8.5625 C 8.242188 -8.101562 8.375 -7.566406 8.375 -6.953125 C 8.375 -6.328125 8.242188 -5.785156 7.984375 -5.328125 C 7.722656 -4.878906 7.347656 -4.53125 6.859375 -4.28125 C 6.367188 -4.03125 5.78125 -3.90625 5.09375 -3.90625 L 2.6875 -3.90625 L 2.6875 0 L 1.515625 0 L 1.515625 -10 Z M 5.046875 -4.921875 C 6.441406 -4.921875 7.140625 -5.597656 7.140625 -6.953125 C 7.140625 -8.316406 6.441406 -9 5.046875 -9 L 2.6875 -9 L 2.6875 -4.921875 Z M 5.046875 -4.921875 "/></g></g></g><g fill="#000000" fill-opacity="1"><g transform="translate(90.118937, 288.113887)"><g><path d="M 3.109375 0.140625 C 2.367188 0.140625 1.789062 -0.0507812 1.375 -0.4375 C 0.957031 -0.820312 0.75 -1.375 0.75 -2.09375 C 0.75 -2.539062 0.835938 -2.914062 1.015625 -3.21875 C 1.203125 -3.53125 1.488281 -3.78125 1.875 -3.96875 C 2.269531 -4.164062 2.773438 -4.320312 3.390625 -4.4375 C 3.941406 -4.519531 4.359375 -4.617188 4.640625 -4.734375 C 4.929688 -4.847656 5.125 -4.972656 5.21875 -5.109375 C 5.3125 -5.253906 5.359375 -5.4375 5.359375 -5.65625 C 5.359375 -6 5.238281 -6.257812 5 -6.4375 C 4.769531 -6.625 4.398438 -6.71875 3.890625 -6.71875 C 3.398438 -6.71875 2.976562 -6.617188 2.625 -6.421875 C 2.28125 -6.234375 1.960938 -5.953125 1.671875 -5.578125 L 1.53125 -5.578125 L 0.984375 -6.359375 C 1.304688 -6.765625 1.710938 -7.085938 2.203125 -7.328125 C 2.691406 -7.566406 3.253906 -7.6875 3.890625 -7.6875 C 4.773438 -7.6875 5.425781 -7.488281 5.84375 -7.09375 C 6.269531 -6.707031 6.484375 -6.171875 6.484375 -5.484375 L 6.484375 -1.484375 C 6.484375 -1.066406 6.660156 -0.859375 7.015625 -0.859375 C 7.128906 -0.859375 7.242188 -0.878906 7.359375 -0.921875 L 7.453125 -0.890625 L 7.578125 -0.109375 C 7.492188 -0.0546875 7.382812 -0.015625 7.25 0.015625 C 7.125 0.046875 6.988281 0.0625 6.84375 0.0625 C 6.425781 0.0625 6.109375 -0.03125 5.890625 -0.21875 C 5.679688 -0.40625 5.550781 -0.675781 5.5 -1.03125 L 5.359375 -1.046875 C 5.140625 -0.640625 4.847656 -0.335938 4.484375 -0.140625 C 4.117188 0.046875 3.660156 0.140625 3.109375 0.140625 Z M 3.359375 -0.75 C 3.773438 -0.75 4.132812 -0.84375 4.4375 -1.03125 C 4.75 -1.226562 4.988281 -1.5 5.15625 -1.84375 C 5.320312 -2.195312 5.40625 -2.601562 5.40625 -3.0625 L 5.40625 -4.03125 L 5.265625 -4.046875 C 5.097656 -3.929688 4.894531 -3.832031 4.65625 -3.75 C 4.414062 -3.675781 4.078125 -3.609375 3.640625 -3.546875 C 3.203125 -3.484375 2.851562 -3.390625 2.59375 -3.265625 C 2.34375 -3.140625 2.160156 -2.984375 2.046875 -2.796875 C 1.941406 -2.609375 1.890625 -2.375 1.890625 -2.09375 C 1.890625 -1.65625 2.019531 -1.320312 2.28125 -1.09375 C 2.539062 -0.863281 2.898438 -0.75 3.359375 -0.75 Z M 3.359375 -0.75 "/></g></g></g><g fill="#000000" fill-opacity="1"><g transform="translate(97.914389, 288.113887)"><g><path d="M 3.4375 0.140625 C 2.96875 0.140625 2.53125 0.078125 2.125 -0.046875 C 1.71875 -0.171875 1.375 -0.34375 1.09375 -0.5625 C 0.820312 -0.78125 0.628906 -1.023438 0.515625 -1.296875 L 1.171875 -1.984375 L 1.3125 -1.984375 C 1.5625 -1.609375 1.859375 -1.328125 2.203125 -1.140625 C 2.546875 -0.953125 2.957031 -0.859375 3.4375 -0.859375 C 3.988281 -0.859375 4.410156 -0.960938 4.703125 -1.171875 C 4.992188 -1.390625 5.140625 -1.691406 5.140625 -2.078125 C 5.140625 -2.378906 5.050781 -2.625 4.875 -2.8125 C 4.695312 -3.007812 4.414062 -3.15625 4.03125 -3.25 L 2.75 -3.5625 C 2.070312 -3.726562 1.578125 -3.988281 1.265625 -4.34375 C 0.953125 -4.695312 0.796875 -5.140625 0.796875 -5.671875 C 0.796875 -6.078125 0.898438 -6.429688 1.109375 -6.734375 C 1.316406 -7.035156 1.617188 -7.269531 2.015625 -7.4375 C 2.410156 -7.601562 2.878906 -7.6875 3.421875 -7.6875 C 4.117188 -7.6875 4.664062 -7.585938 5.0625 -7.390625 C 5.457031 -7.203125 5.769531 -6.929688 6 -6.578125 L 5.359375 -5.96875 L 5.234375 -5.96875 C 4.992188 -6.25 4.726562 -6.445312 4.4375 -6.5625 C 4.15625 -6.6875 3.816406 -6.75 3.421875 -6.75 C 2.929688 -6.75 2.550781 -6.660156 2.28125 -6.484375 C 2.019531 -6.304688 1.890625 -6.050781 1.890625 -5.71875 C 1.890625 -5.40625 1.984375 -5.15625 2.171875 -4.96875 C 2.359375 -4.789062 2.679688 -4.644531 3.140625 -4.53125 L 4.390625 -4.21875 C 5.046875 -4.070312 5.519531 -3.816406 5.8125 -3.453125 C 6.101562 -3.085938 6.25 -2.632812 6.25 -2.09375 C 6.25 -1.65625 6.144531 -1.265625 5.9375 -0.921875 C 5.726562 -0.585938 5.410156 -0.328125 4.984375 -0.140625 C 4.566406 0.046875 4.050781 0.140625 3.4375 0.140625 Z M 3.4375 0.140625 "/></g></g></g><g fill="#000000" fill-opacity="1"><g transform="translate(104.883154, 288.113887)"><g><path d="M 3.4375 0.140625 C 2.96875 0.140625 2.53125 0.078125 2.125 -0.046875 C 1.71875 -0.171875 1.375 -0.34375 1.09375 -0.5625 C 0.820312 -0.78125 0.628906 -1.023438 0.515625 -1.296875 L 1.171875 -1.984375 L 1.3125 -1.984375 C 1.5625 -1.609375 1.859375 -1.328125 2.203125 -1.140625 C 2.546875 -0.953125 2.957031 -0.859375 3.4375 -0.859375 C 3.988281 -0.859375 4.410156 -0.960938 4.703125 -1.171875 C 4.992188 -1.390625 5.140625 -1.691406 5.140625 -2.078125 C 5.140625 -2.378906 5.050781 -2.625 4.875 -2.8125 C 4.695312 -3.007812 4.414062 -3.15625 4.03125 -3.25 L 2.75 -3.5625 C 2.070312 -3.726562 1.578125 -3.988281 1.265625 -4.34375 C 0.953125 -4.695312 0.796875 -5.140625 0.796875 -5.671875 C 0.796875 -6.078125 0.898438 -6.429688 1.109375 -6.734375 C 1.316406 -7.035156 1.617188 -7.269531 2.015625 -7.4375 C 2.410156 -7.601562 2.878906 -7.6875 3.421875 -7.6875 C 4.117188 -7.6875 4.664062 -7.585938 5.0625 -7.390625 C 5.457031 -7.203125 5.769531 -6.929688 6 -6.578125 L 5.359375 -5.96875 L 5.234375 -5.96875 C 4.992188 -6.25 4.726562 -6.445312 4.4375 -6.5625 C 4.15625 -6.6875 3.816406 -6.75 3.421875 -6.75 C 2.929688 -6.75 2.550781 -6.660156 2.28125 -6.484375 C 2.019531 -6.304688 1.890625 -6.050781 1.890625 -5.71875 C 1.890625 -5.40625 1.984375 -5.15625 2.171875 -4.96875 C 2.359375 -4.789062 2.679688 -4.644531 3.140625 -4.53125 L 4.390625 -4.21875 C 5.046875 -4.070312 5.519531 -3.816406 5.8125 -3.453125 C 6.101562 -3.085938 6.25 -2.632812 6.25 -2.09375 C 6.25 -1.65625 6.144531 -1.265625 5.9375 -0.921875 C 5.726562 -0.585938 5.410156 -0.328125 4.984375 -0.140625 C 4.566406 0.046875 4.050781 0.140625 3.4375 0.140625 Z M 3.4375 0.140625 "/></g></g></g><g fill="#000000" fill-opacity="1"><g transform="translate(111.851918, 288.113887)"><g/></g></g><g fill="#000000" fill-opacity="1"><g transform="translate(115.281644, 288.113887)"><g><path d="M 3.109375 0.140625 C 2.367188 0.140625 1.789062 -0.0507812 1.375 -0.4375 C 0.957031 -0.820312 0.75 -1.375 0.75 -2.09375 C 0.75 -2.539062 0.835938 -2.914062 1.015625 -3.21875 C 1.203125 -3.53125 1.488281 -3.78125 1.875 -3.96875 C 2.269531 -4.164062 2.773438 -4.320312 3.390625 -4.4375 C 3.941406 -4.519531 4.359375 -4.617188 4.640625 -4.734375 C 4.929688 -4.847656 5.125 -4.972656 5.21875 -5.109375 C 5.3125 -5.253906 5.359375 -5.4375 5.359375 -5.65625 C 5.359375 -6 5.238281 -6.257812 5 -6.4375 C 4.769531 -6.625 4.398438 -6.71875 3.890625 -6.71875 C 3.398438 -6.71875 2.976562 -6.617188 2.625 -6.421875 C 2.28125 -6.234375 1.960938 -5.953125 1.671875 -5.578125 L 1.53125 -5.578125 L 0.984375 -6.359375 C 1.304688 -6.765625 1.710938 -7.085938 2.203125 -7.328125 C 2.691406 -7.566406 3.253906 -7.6875 3.890625 -7.6875 C 4.773438 -7.6875 5.425781 -7.488281 5.84375 -7.09375 C 6.269531 -6.707031 6.484375 -6.171875 6.484375 -5.484375 L 6.484375 -1.484375 C 6.484375 -1.066406 6.660156 -0.859375 7.015625 -0.859375 C 7.128906 -0.859375 7.242188 -0.878906 7.359375 -0.921875 L 7.453125 -0.890625 L 7.578125 -0.109375 C 7.492188 -0.0546875 7.382812 -0.015625 7.25 0.015625 C 7.125 0.046875 6.988281 0.0625 6.84375 0.0625 C 6.425781 0.0625 6.109375 -0.03125 5.890625 -0.21875 C 5.679688 -0.40625 5.550781 -0.675781 5.5 -1.03125 L 5.359375 -1.046875 C 5.140625 -0.640625 4.847656 -0.335938 4.484375 -0.140625 C 4.117188 0.046875 3.660156 0.140625 3.109375 0.140625 Z M 3.359375 -0.75 C 3.773438 -0.75 4.132812 -0.84375 4.4375 -1.03125 C 4.75 -1.226562 4.988281 -1.5 5.15625 -1.84375 C 5.320312 -2.195312 5.40625 -2.601562 5.40625 -3.0625 L 5.40625 -4.03125 L 5.265625 -4.046875 C 5.097656 -3.929688 4.894531 -3.832031 4.65625 -3.75 C 4.414062 -3.675781 4.078125 -3.609375 3.640625 -3.546875 C 3.203125 -3.484375 2.851562 -3.390625 2.59375 -3.265625 C 2.34375 -3.140625 2.160156 -2.984375 2.046875 -2.796875 C 1.941406 -2.609375 1.890625 -2.375 1.890625 -2.09375 C 1.890625 -1.65625 2.019531 -1.320312 2.28125 -1.09375 C 2.539062 -0.863281 2.898438 -0.75 3.359375 -0.75 Z M 3.359375 -0.75 "/></g></g></g><g fill="#000000" fill-opacity="1"><g transform="translate(123.077095, 288.113887)"><g><path d="M 1.3125 0 L 1.3125 -7.546875 L 2.375 -7.546875 L 2.375 -6.359375 L 2.515625 -6.328125 C 2.867188 -7.179688 3.53125 -7.609375 4.5 -7.609375 C 5.007812 -7.609375 5.394531 -7.515625 5.65625 -7.328125 L 5.359375 -6.390625 L 5.234375 -6.359375 C 4.953125 -6.492188 4.640625 -6.5625 4.296875 -6.5625 C 3.691406 -6.5625 3.226562 -6.335938 2.90625 -5.890625 C 2.582031 -5.441406 2.421875 -4.710938 2.421875 -3.703125 L 2.421875 0 Z M 1.3125 0 "/></g></g></g><g fill="#000000" fill-opacity="1"><g transform="translate(128.898064, 288.113887)"><g><path d="M 3.890625 3.203125 C 2.691406 3.203125 1.816406 3.003906 1.265625 2.609375 C 0.722656 2.210938 0.453125 1.6875 0.453125 1.03125 C 0.453125 0.601562 0.578125 0.265625 0.828125 0.015625 C 1.085938 -0.234375 1.460938 -0.414062 1.953125 -0.53125 L 1.953125 -0.671875 C 1.722656 -0.804688 1.550781 -0.960938 1.4375 -1.140625 C 1.320312 -1.316406 1.265625 -1.523438 1.265625 -1.765625 C 1.265625 -2.054688 1.351562 -2.289062 1.53125 -2.46875 C 1.71875 -2.65625 1.992188 -2.800781 2.359375 -2.90625 L 2.359375 -3.046875 C 1.535156 -3.472656 1.125 -4.175781 1.125 -5.15625 C 1.125 -5.644531 1.234375 -6.082031 1.453125 -6.46875 C 1.679688 -6.851562 2.003906 -7.148438 2.421875 -7.359375 C 2.835938 -7.578125 3.320312 -7.6875 3.875 -7.6875 C 4.5 -7.6875 5.023438 -7.546875 5.453125 -7.265625 C 5.609375 -7.441406 5.726562 -7.628906 5.8125 -7.828125 C 5.894531 -8.035156 5.945312 -8.269531 5.96875 -8.53125 L 6.109375 -8.609375 L 7.03125 -8.390625 C 6.976562 -8.015625 6.859375 -7.691406 6.671875 -7.421875 C 6.492188 -7.160156 6.238281 -6.941406 5.90625 -6.765625 L 5.90625 -6.625 C 6.144531 -6.4375 6.320312 -6.210938 6.4375 -5.953125 C 6.550781 -5.691406 6.609375 -5.390625 6.609375 -5.046875 C 6.609375 -4.578125 6.492188 -4.148438 6.265625 -3.765625 C 6.035156 -3.390625 5.710938 -3.09375 5.296875 -2.875 C 4.890625 -2.664062 4.414062 -2.5625 3.875 -2.5625 C 3.8125 -2.5625 3.695312 -2.566406 3.53125 -2.578125 C 3.34375 -2.578125 3.207031 -2.578125 3.125 -2.578125 C 2.882812 -2.578125 2.691406 -2.515625 2.546875 -2.390625 C 2.410156 -2.273438 2.34375 -2.117188 2.34375 -1.921875 C 2.34375 -1.691406 2.414062 -1.519531 2.5625 -1.40625 C 2.71875 -1.289062 2.972656 -1.226562 3.328125 -1.21875 L 5.109375 -1.15625 C 5.878906 -1.125 6.453125 -0.941406 6.828125 -0.609375 C 7.203125 -0.285156 7.390625 0.175781 7.390625 0.78125 C 7.390625 1.238281 7.265625 1.644531 7.015625 2 C 6.773438 2.363281 6.394531 2.65625 5.875 2.875 C 5.351562 3.09375 4.691406 3.203125 3.890625 3.203125 Z M 3.875 -3.515625 C 4.40625 -3.515625 4.816406 -3.648438 5.109375 -3.921875 C 5.398438 -4.203125 5.546875 -4.59375 5.546875 -5.09375 C 5.546875 -5.613281 5.398438 -6.015625 5.109375 -6.296875 C 4.816406 -6.585938 4.40625 -6.734375 3.875 -6.734375 C 3.332031 -6.734375 2.921875 -6.59375 2.640625 -6.3125 C 2.359375 -6.03125 2.21875 -5.625 2.21875 -5.09375 C 2.21875 -4.59375 2.359375 -4.203125 2.640625 -3.921875 C 2.921875 -3.648438 3.332031 -3.515625 3.875 -3.515625 Z M 3.890625 2.25 C 4.441406 2.25 4.894531 2.1875 5.25 2.0625 C 5.601562 1.9375 5.851562 1.769531 6 1.5625 C 6.15625 1.363281 6.234375 1.140625 6.234375 0.890625 C 6.234375 0.660156 6.191406 0.476562 6.109375 0.34375 C 6.023438 0.207031 5.890625 0.101562 5.703125 0.03125 C 5.515625 -0.03125 5.257812 -0.0703125 4.9375 -0.09375 L 3.25 -0.171875 L 3.015625 -0.171875 C 2.066406 -0.160156 1.59375 0.207031 1.59375 0.9375 C 1.59375 1.8125 2.359375 2.25 3.890625 2.25 Z M 3.890625 2.25 "/></g></g></g><g fill="#000000" fill-opacity="1"><g transform="translate(136.618362, 288.113887)"><g><path d="M 3.71875 0.140625 C 2.875 0.140625 2.242188 -0.0820312 1.828125 -0.53125 C 1.410156 -0.976562 1.203125 -1.640625 1.203125 -2.515625 L 1.203125 -7.546875 L 2.3125 -7.546875 L 2.3125 -2.546875 C 2.3125 -1.398438 2.847656 -0.828125 3.921875 -0.828125 C 4.609375 -0.828125 5.148438 -1.050781 5.546875 -1.5 C 5.941406 -1.945312 6.140625 -2.671875 6.140625 -3.671875 L 6.140625 -7.546875 L 7.25 -7.546875 L 7.25 0 L 6.203125 0 L 6.203125 -1.1875 L 6.0625 -1.21875 C 5.800781 -0.757812 5.488281 -0.414062 5.125 -0.1875 C 4.757812 0.03125 4.289062 0.140625 3.71875 0.140625 Z M 3.71875 0.140625 "/></g></g></g><g fill="#000000" fill-opacity="1"><g transform="translate(145.179011, 288.113887)"><g><path d="M 1.3125 0 L 1.3125 -7.546875 L 2.375 -7.546875 L 2.375 -6.421875 L 2.515625 -6.40625 C 2.773438 -6.820312 3.082031 -7.140625 3.4375 -7.359375 C 3.800781 -7.578125 4.238281 -7.6875 4.75 -7.6875 C 5.332031 -7.6875 5.78125 -7.570312 6.09375 -7.34375 C 6.414062 -7.125 6.664062 -6.769531 6.84375 -6.28125 L 6.984375 -6.28125 C 7.242188 -6.738281 7.5625 -7.085938 7.9375 -7.328125 C 8.320312 -7.566406 8.796875 -7.6875 9.359375 -7.6875 C 10.128906 -7.6875 10.703125 -7.472656 11.078125 -7.046875 C 11.460938 -6.628906 11.65625 -5.992188 11.65625 -5.140625 L 11.65625 0 L 10.546875 0 L 10.546875 -5.109375 C 10.546875 -5.660156 10.425781 -6.066406 10.1875 -6.328125 C 9.957031 -6.585938 9.585938 -6.71875 9.078125 -6.71875 C 8.484375 -6.71875 7.992188 -6.5 7.609375 -6.0625 C 7.234375 -5.625 7.046875 -4.898438 7.046875 -3.890625 L 7.046875 0 L 5.921875 0 L 5.921875 -5.109375 C 5.921875 -5.660156 5.804688 -6.066406 5.578125 -6.328125 C 5.347656 -6.585938 4.976562 -6.71875 4.46875 -6.71875 C 3.863281 -6.71875 3.367188 -6.503906 2.984375 -6.078125 C 2.609375 -5.648438 2.421875 -4.960938 2.421875 -4.015625 L 2.421875 0 Z M 1.3125 0 "/></g></g></g><g fill="#000000" fill-opacity="1"><g transform="translate(158.023401, 288.113887)"><g><path d="M 7.1875 -3.515625 L 2 -3.515625 C 2.03125 -2.597656 2.25 -1.925781 2.65625 -1.5 C 3.070312 -1.070312 3.632812 -0.859375 4.34375 -0.859375 C 4.875 -0.859375 5.300781 -0.953125 5.625 -1.140625 C 5.957031 -1.328125 6.21875 -1.628906 6.40625 -2.046875 L 6.5625 -2.046875 L 7.28125 -1.609375 C 7.0625 -1.066406 6.710938 -0.640625 6.234375 -0.328125 C 5.753906 -0.015625 5.125 0.140625 4.34375 0.140625 C 3.613281 0.140625 2.984375 0 2.453125 -0.28125 C 1.929688 -0.570312 1.53125 -1.007812 1.25 -1.59375 C 0.96875 -2.175781 0.828125 -2.898438 0.828125 -3.765625 C 0.828125 -4.617188 0.972656 -5.335938 1.265625 -5.921875 C 1.566406 -6.515625 1.976562 -6.957031 2.5 -7.25 C 3.019531 -7.539062 3.609375 -7.6875 4.265625 -7.6875 C 5.234375 -7.6875 5.988281 -7.410156 6.53125 -6.859375 C 7.070312 -6.316406 7.347656 -5.507812 7.359375 -4.4375 C 7.359375 -4.019531 7.347656 -3.738281 7.328125 -3.59375 Z M 6.25 -4.4375 C 6.238281 -5.238281 6.0625 -5.820312 5.71875 -6.1875 C 5.382812 -6.550781 4.898438 -6.734375 4.265625 -6.734375 C 3.609375 -6.734375 3.09375 -6.550781 2.71875 -6.1875 C 2.34375 -5.820312 2.113281 -5.238281 2.03125 -4.4375 Z M 6.25 -4.4375 "/></g></g></g><g fill="#000000" fill-opacity="1"><g transform="translate(166.057977, 288.113887)"><g><path d="M 1.3125 0 L 1.3125 -7.546875 L 2.375 -7.546875 L 2.375 -6.359375 L 2.515625 -6.328125 C 2.765625 -6.765625 3.082031 -7.097656 3.46875 -7.328125 C 3.863281 -7.566406 4.34375 -7.6875 4.90625 -7.6875 C 5.8125 -7.6875 6.46875 -7.453125 6.875 -6.984375 C 7.28125 -6.523438 7.484375 -5.816406 7.484375 -4.859375 L 7.484375 0 L 6.375 0 L 6.375 -4.828125 C 6.375 -5.285156 6.3125 -5.648438 6.1875 -5.921875 C 6.070312 -6.203125 5.894531 -6.40625 5.65625 -6.53125 C 5.414062 -6.65625 5.097656 -6.71875 4.703125 -6.71875 C 4.015625 -6.71875 3.460938 -6.488281 3.046875 -6.03125 C 2.628906 -5.582031 2.421875 -4.863281 2.421875 -3.875 L 2.421875 0 Z M 1.3125 0 "/></g></g></g><g fill="#000000" fill-opacity="1"><g transform="translate(174.734772, 288.113887)"><g><path d="M 5.09375 -1.203125 L 5.453125 -0.390625 C 5.273438 -0.210938 5.039062 -0.0820312 4.75 0 C 4.46875 0.09375 4.15625 0.140625 3.8125 0.140625 C 2.375 0.140625 1.65625 -0.585938 1.65625 -2.046875 L 1.65625 -6.625 L 0.34375 -6.625 L 0.34375 -7.546875 L 1.65625 -7.546875 L 1.65625 -9.140625 L 2.765625 -9.328125 L 2.765625 -7.546875 L 5.203125 -7.546875 L 5.203125 -6.625 L 2.765625 -6.625 L 2.765625 -2.15625 C 2.765625 -1.289062 3.140625 -0.859375 3.890625 -0.859375 C 4.304688 -0.859375 4.660156 -0.972656 4.953125 -1.203125 Z M 5.09375 -1.203125 "/></g></g></g><g fill="#000000" fill-opacity="1"><g transform="translate(180.473755, 288.113887)"><g><path d="M 3.4375 0.140625 C 2.96875 0.140625 2.53125 0.078125 2.125 -0.046875 C 1.71875 -0.171875 1.375 -0.34375 1.09375 -0.5625 C 0.820312 -0.78125 0.628906 -1.023438 0.515625 -1.296875 L 1.171875 -1.984375 L 1.3125 -1.984375 C 1.5625 -1.609375 1.859375 -1.328125 2.203125 -1.140625 C 2.546875 -0.953125 2.957031 -0.859375 3.4375 -0.859375 C 3.988281 -0.859375 4.410156 -0.960938 4.703125 -1.171875 C 4.992188 -1.390625 5.140625 -1.691406 5.140625 -2.078125 C 5.140625 -2.378906 5.050781 -2.625 4.875 -2.8125 C 4.695312 -3.007812 4.414062 -3.15625 4.03125 -3.25 L 2.75 -3.5625 C 2.070312 -3.726562 1.578125 -3.988281 1.265625 -4.34375 C 0.953125 -4.695312 0.796875 -5.140625 0.796875 -5.671875 C 0.796875 -6.078125 0.898438 -6.429688 1.109375 -6.734375 C 1.316406 -7.035156 1.617188 -7.269531 2.015625 -7.4375 C 2.410156 -7.601562 2.878906 -7.6875 3.421875 -7.6875 C 4.117188 -7.6875 4.664062 -7.585938 5.0625 -7.390625 C 5.457031 -7.203125 5.769531 -6.929688 6 -6.578125 L 5.359375 -5.96875 L 5.234375 -5.96875 C 4.992188 -6.25 4.726562 -6.445312 4.4375 -6.5625 C 4.15625 -6.6875 3.816406 -6.75 3.421875 -6.75 C 2.929688 -6.75 2.550781 -6.660156 2.28125 -6.484375 C 2.019531 -6.304688 1.890625 -6.050781 1.890625 -5.71875 C 1.890625 -5.40625 1.984375 -5.15625 2.171875 -4.96875 C 2.359375 -4.789062 2.679688 -4.644531 3.140625 -4.53125 L 4.390625 -4.21875 C 5.046875 -4.070312 5.519531 -3.816406 5.8125 -3.453125 C 6.101562 -3.085938 6.25 -2.632812 6.25 -2.09375 C 6.25 -1.65625 6.144531 -1.265625 5.9375 -0.921875 C 5.726562 -0.585938 5.410156 -0.328125 4.984375 -0.140625 C 4.566406 0.046875 4.050781 0.140625 3.4375 0.140625 Z M 3.4375 0.140625 "/></g></g></g><g fill="#000000" fill-opacity="1"><g transform="translate(187.44252, 288.113887)"><g/></g></g><g fill="#000000" fill-opacity="1"><g transform="translate(190.872245, 288.113887)"><g><path d="M 5.09375 -1.203125 L 5.453125 -0.390625 C 5.273438 -0.210938 5.039062 -0.0820312 4.75 0 C 4.46875 0.09375 4.15625 0.140625 3.8125 0.140625 C 2.375 0.140625 1.65625 -0.585938 1.65625 -2.046875 L 1.65625 -6.625 L 0.34375 -6.625 L 0.34375 -7.546875 L 1.65625 -7.546875 L 1.65625 -9.140625 L 2.765625 -9.328125 L 2.765625 -7.546875 L 5.203125 -7.546875 L 5.203125 -6.625 L 2.765625 -6.625 L 2.765625 -2.15625 C 2.765625 -1.289062 3.140625 -0.859375 3.890625 -0.859375 C 4.304688 -0.859375 4.660156 -0.972656 4.953125 -1.203125 Z M 5.09375 -1.203125 "/></g></g></g><g fill="#000000" fill-opacity="1"><g transform="translate(196.611228, 288.113887)"><g><path d="M 4.328125 0.140625 C 3.617188 0.140625 3 -0.0078125 2.46875 -0.3125 C 1.945312 -0.613281 1.539062 -1.054688 1.25 -1.640625 C 0.96875 -2.222656 0.828125 -2.929688 0.828125 -3.765625 C 0.828125 -4.597656 0.96875 -5.304688 1.25 -5.890625 C 1.539062 -6.484375 1.945312 -6.929688 2.46875 -7.234375 C 3 -7.535156 3.617188 -7.6875 4.328125 -7.6875 C 5.035156 -7.6875 5.648438 -7.535156 6.171875 -7.234375 C 6.703125 -6.929688 7.109375 -6.484375 7.390625 -5.890625 C 7.679688 -5.304688 7.828125 -4.597656 7.828125 -3.765625 C 7.828125 -2.929688 7.679688 -2.222656 7.390625 -1.640625 C 7.109375 -1.054688 6.703125 -0.613281 6.171875 -0.3125 C 5.648438 -0.0078125 5.035156 0.140625 4.328125 0.140625 Z M 4.328125 -0.859375 C 5.078125 -0.859375 5.648438 -1.09375 6.046875 -1.5625 C 6.453125 -2.039062 6.65625 -2.773438 6.65625 -3.765625 C 6.65625 -4.765625 6.453125 -5.5 6.046875 -5.96875 C 5.648438 -6.445312 5.078125 -6.6875 4.328125 -6.6875 C 3.578125 -6.6875 3 -6.445312 2.59375 -5.96875 C 2.195312 -5.488281 2 -4.753906 2 -3.765625 C 2 -2.773438 2.195312 -2.039062 2.59375 -1.5625 C 3 -1.09375 3.578125 -0.859375 4.328125 -0.859375 Z M 4.328125 -0.859375 "/></g></g></g><g fill="#000000" fill-opacity="1"><g transform="translate(205.260695, 288.113887)"><g/></g></g><g fill="#000000" fill-opacity="1"><g transform="translate(208.69042, 288.113887)"><g><path d="M 3.90625 0.140625 C 3.300781 0.140625 2.765625 0 2.296875 -0.28125 C 1.835938 -0.570312 1.476562 -1.007812 1.21875 -1.59375 C 0.957031 -2.175781 0.828125 -2.898438 0.828125 -3.765625 C 0.828125 -4.628906 0.960938 -5.351562 1.234375 -5.9375 C 1.503906 -6.519531 1.878906 -6.957031 2.359375 -7.25 C 2.847656 -7.539062 3.410156 -7.6875 4.046875 -7.6875 C 4.546875 -7.6875 4.992188 -7.585938 5.390625 -7.390625 C 5.796875 -7.203125 6.140625 -6.894531 6.421875 -6.46875 L 6.5625 -6.5 L 6.5625 -10.5625 L 7.6875 -10.5625 L 7.6875 0 L 6.5625 0 L 6.5625 -1.09375 L 6.421875 -1.125 C 6.179688 -0.75 5.847656 -0.441406 5.421875 -0.203125 C 5.003906 0.0234375 4.5 0.140625 3.90625 0.140625 Z M 4.265625 -0.859375 C 4.960938 -0.859375 5.519531 -1.097656 5.9375 -1.578125 C 6.351562 -2.054688 6.5625 -2.785156 6.5625 -3.765625 C 6.5625 -4.753906 6.351562 -5.488281 5.9375 -5.96875 C 5.519531 -6.445312 4.960938 -6.6875 4.265625 -6.6875 C 3.535156 -6.6875 2.972656 -6.453125 2.578125 -5.984375 C 2.191406 -5.515625 2 -4.773438 2 -3.765625 C 2 -1.828125 2.753906 -0.859375 4.265625 -0.859375 Z M 4.265625 -0.859375 "/></g></g></g><g fill="#000000" fill-opacity="1"><g transform="translate(217.688325, 288.113887)"><g><path d="M 3.109375 0.140625 C 2.367188 0.140625 1.789062 -0.0507812 1.375 -0.4375 C 0.957031 -0.820312 0.75 -1.375 0.75 -2.09375 C 0.75 -2.539062 0.835938 -2.914062 1.015625 -3.21875 C 1.203125 -3.53125 1.488281 -3.78125 1.875 -3.96875 C 2.269531 -4.164062 2.773438 -4.320312 3.390625 -4.4375 C 3.941406 -4.519531 4.359375 -4.617188 4.640625 -4.734375 C 4.929688 -4.847656 5.125 -4.972656 5.21875 -5.109375 C 5.3125 -5.253906 5.359375 -5.4375 5.359375 -5.65625 C 5.359375 -6 5.238281 -6.257812 5 -6.4375 C 4.769531 -6.625 4.398438 -6.71875 3.890625 -6.71875 C 3.398438 -6.71875 2.976562 -6.617188 2.625 -6.421875 C 2.28125 -6.234375 1.960938 -5.953125 1.671875 -5.578125 L 1.53125 -5.578125 L 0.984375 -6.359375 C 1.304688 -6.765625 1.710938 -7.085938 2.203125 -7.328125 C 2.691406 -7.566406 3.253906 -7.6875 3.890625 -7.6875 C 4.773438 -7.6875 5.425781 -7.488281 5.84375 -7.09375 C 6.269531 -6.707031 6.484375 -6.171875 6.484375 -5.484375 L 6.484375 -1.484375 C 6.484375 -1.066406 6.660156 -0.859375 7.015625 -0.859375 C 7.128906 -0.859375 7.242188 -0.878906 7.359375 -0.921875 L 7.453125 -0.890625 L 7.578125 -0.109375 C 7.492188 -0.0546875 7.382812 -0.015625 7.25 0.015625 C 7.125 0.046875 6.988281 0.0625 6.84375 0.0625 C 6.425781 0.0625 6.109375 -0.03125 5.890625 -0.21875 C 5.679688 -0.40625 5.550781 -0.675781 5.5 -1.03125 L 5.359375 -1.046875 C 5.140625 -0.640625 4.847656 -0.335938 4.484375 -0.140625 C 4.117188 0.046875 3.660156 0.140625 3.109375 0.140625 Z M 3.359375 -0.75 C 3.773438 -0.75 4.132812 -0.84375 4.4375 -1.03125 C 4.75 -1.226562 4.988281 -1.5 5.15625 -1.84375 C 5.320312 -2.195312 5.40625 -2.601562 5.40625 -3.0625 L 5.40625 -4.03125 L 5.265625 -4.046875 C 5.097656 -3.929688 4.894531 -3.832031 4.65625 -3.75 C 4.414062 -3.675781 4.078125 -3.609375 3.640625 -3.546875 C 3.203125 -3.484375 2.851562 -3.390625 2.59375 -3.265625 C 2.34375 -3.140625 2.160156 -2.984375 2.046875 -2.796875 C 1.941406 -2.609375 1.890625 -2.375 1.890625 -2.09375 C 1.890625 -1.65625 2.019531 -1.320312 2.28125 -1.09375 C 2.539062 -0.863281 2.898438 -0.75 3.359375 -0.75 Z M 3.359375 -0.75 "/></g></g></g><g fill="#000000" fill-opacity="1"><g transform="translate(225.483777, 288.113887)"><g><path d="M 5.09375 -1.203125 L 5.453125 -0.390625 C 5.273438 -0.210938 5.039062 -0.0820312 4.75 0 C 4.46875 0.09375 4.15625 0.140625 3.8125 0.140625 C 2.375 0.140625 1.65625 -0.585938 1.65625 -2.046875 L 1.65625 -6.625 L 0.34375 -6.625 L 0.34375 -7.546875 L 1.65625 -7.546875 L 1.65625 -9.140625 L 2.765625 -9.328125 L 2.765625 -7.546875 L 5.203125 -7.546875 L 5.203125 -6.625 L 2.765625 -6.625 L 2.765625 -2.15625 C 2.765625 -1.289062 3.140625 -0.859375 3.890625 -0.859375 C 4.304688 -0.859375 4.660156 -0.972656 4.953125 -1.203125 Z M 5.09375 -1.203125 "/></g></g></g><g fill="#000000" fill-opacity="1"><g transform="translate(231.22276, 288.113887)"><g><path d="M 3.109375 0.140625 C 2.367188 0.140625 1.789062 -0.0507812 1.375 -0.4375 C 0.957031 -0.820312 0.75 -1.375 0.75 -2.09375 C 0.75 -2.539062 0.835938 -2.914062 1.015625 -3.21875 C 1.203125 -3.53125 1.488281 -3.78125 1.875 -3.96875 C 2.269531 -4.164062 2.773438 -4.320312 3.390625 -4.4375 C 3.941406 -4.519531 4.359375 -4.617188 4.640625 -4.734375 C 4.929688 -4.847656 5.125 -4.972656 5.21875 -5.109375 C 5.3125 -5.253906 5.359375 -5.4375 5.359375 -5.65625 C 5.359375 -6 5.238281 -6.257812 5 -6.4375 C 4.769531 -6.625 4.398438 -6.71875 3.890625 -6.71875 C 3.398438 -6.71875 2.976562 -6.617188 2.625 -6.421875 C 2.28125 -6.234375 1.960938 -5.953125 1.671875 -5.578125 L 1.53125 -5.578125 L 0.984375 -6.359375 C 1.304688 -6.765625 1.710938 -7.085938 2.203125 -7.328125 C 2.691406 -7.566406 3.253906 -7.6875 3.890625 -7.6875 C 4.773438 -7.6875 5.425781 -7.488281 5.84375 -7.09375 C 6.269531 -6.707031 6.484375 -6.171875 6.484375 -5.484375 L 6.484375 -1.484375 C 6.484375 -1.066406 6.660156 -0.859375 7.015625 -0.859375 C 7.128906 -0.859375 7.242188 -0.878906 7.359375 -0.921875 L 7.453125 -0.890625 L 7.578125 -0.109375 C 7.492188 -0.0546875 7.382812 -0.015625 7.25 0.015625 C 7.125 0.046875 6.988281 0.0625 6.84375 0.0625 C 6.425781 0.0625 6.109375 -0.03125 5.890625 -0.21875 C 5.679688 -0.40625 5.550781 -0.675781 5.5 -1.03125 L 5.359375 -1.046875 C 5.140625 -0.640625 4.847656 -0.335938 4.484375 -0.140625 C 4.117188 0.046875 3.660156 0.140625 3.109375 0.140625 Z M 3.359375 -0.75 C 3.773438 -0.75 4.132812 -0.84375 4.4375 -1.03125 C 4.75 -1.226562 4.988281 -1.5 5.15625 -1.84375 C 5.320312 -2.195312 5.40625 -2.601562 5.40625 -3.0625 L 5.40625 -4.03125 L 5.265625 -4.046875 C 5.097656 -3.929688 4.894531 -3.832031 4.65625 -3.75 C 4.414062 -3.675781 4.078125 -3.609375 3.640625 -3.546875 C 3.203125 -3.484375 2.851562 -3.390625 2.59375 -3.265625 C 2.34375 -3.140625 2.160156 -2.984375 2.046875 -2.796875 C 1.941406 -2.609375 1.890625 -2.375 1.890625 -2.09375 C 1.890625 -1.65625 2.019531 -1.320312 2.28125 -1.09375 C 2.539062 -0.863281 2.898438 -0.75 3.359375 -0.75 Z M 3.359375 -0.75 "/></g></g></g><g fill="#000000" fill-opacity="1"><g transform="translate(239.018211, 288.113887)"><g/></g></g><g fill="#000000" fill-opacity="1"><g transform="translate(242.447937, 288.113887)"><g><path d="M 1.875 -9 C 1.632812 -9 1.441406 -9.070312 1.296875 -9.21875 C 1.148438 -9.363281 1.078125 -9.550781 1.078125 -9.78125 C 1.078125 -10.007812 1.148438 -10.195312 1.296875 -10.34375 C 1.441406 -10.488281 1.632812 -10.5625 1.875 -10.5625 C 2.113281 -10.5625 2.304688 -10.488281 2.453125 -10.34375 C 2.597656 -10.195312 2.671875 -10.007812 2.671875 -9.78125 C 2.671875 -9.550781 2.597656 -9.363281 2.453125 -9.21875 C 2.304688 -9.070312 2.113281 -9 1.875 -9 Z M 0.375 3.203125 C 0.132812 3.203125 -0.0703125 3.179688 -0.25 3.140625 C -0.4375 3.109375 -0.613281 3.0625 -0.78125 3 L -0.609375 2.140625 L -0.484375 2.09375 C -0.253906 2.1875 -0.0195312 2.234375 0.21875 2.234375 C 0.570312 2.234375 0.84375 2.113281 1.03125 1.875 C 1.21875 1.644531 1.3125 1.3125 1.3125 0.875 L 1.3125 -7.546875 L 2.421875 -7.546875 L 2.421875 0.828125 C 2.421875 1.585938 2.238281 2.171875 1.875 2.578125 C 1.519531 2.992188 1.019531 3.203125 0.375 3.203125 Z M 0.375 3.203125 "/></g></g></g><g fill="#000000" fill-opacity="1"><g transform="translate(246.185108, 288.113887)"><g><path d="M 4.328125 0.140625 C 3.617188 0.140625 3 -0.0078125 2.46875 -0.3125 C 1.945312 -0.613281 1.539062 -1.054688 1.25 -1.640625 C 0.96875 -2.222656 0.828125 -2.929688 0.828125 -3.765625 C 0.828125 -4.597656 0.96875 -5.304688 1.25 -5.890625 C 1.539062 -6.484375 1.945312 -6.929688 2.46875 -7.234375 C 3 -7.535156 3.617188 -7.6875 4.328125 -7.6875 C 5.035156 -7.6875 5.648438 -7.535156 6.171875 -7.234375 C 6.703125 -6.929688 7.109375 -6.484375 7.390625 -5.890625 C 7.679688 -5.304688 7.828125 -4.597656 7.828125 -3.765625 C 7.828125 -2.929688 7.679688 -2.222656 7.390625 -1.640625 C 7.109375 -1.054688 6.703125 -0.613281 6.171875 -0.3125 C 5.648438 -0.0078125 5.035156 0.140625 4.328125 0.140625 Z M 4.328125 -0.859375 C 5.078125 -0.859375 5.648438 -1.09375 6.046875 -1.5625 C 6.453125 -2.039062 6.65625 -2.773438 6.65625 -3.765625 C 6.65625 -4.765625 6.453125 -5.5 6.046875 -5.96875 C 5.648438 -6.445312 5.078125 -6.6875 4.328125 -6.6875 C 3.578125 -6.6875 3 -6.445312 2.59375 -5.96875 C 2.195312 -5.488281 2 -4.753906 2 -3.765625 C 2 -2.773438 2.195312 -2.039062 2.59375 -1.5625 C 3 -1.09375 3.578125 -0.859375 4.328125 -0.859375 Z M 4.328125 -0.859375 "/></g></g></g><g fill="#000000" fill-opacity="1"><g transform="translate(254.834575, 288.113887)"><g><path d="M 5.015625 0.140625 C 4.453125 0.140625 3.960938 0.0351562 3.546875 -0.171875 C 3.140625 -0.390625 2.816406 -0.679688 2.578125 -1.046875 L 2.421875 -1.015625 L 2.421875 0 L 1.3125 0 L 1.3125 -10.5625 L 2.421875 -10.5625 L 2.421875 -6.40625 L 2.578125 -6.390625 C 3.148438 -7.253906 3.984375 -7.6875 5.078125 -7.6875 C 5.691406 -7.6875 6.226562 -7.539062 6.6875 -7.25 C 7.15625 -6.96875 7.519531 -6.53125 7.78125 -5.9375 C 8.039062 -5.351562 8.171875 -4.628906 8.171875 -3.765625 C 8.171875 -2.910156 8.035156 -2.1875 7.765625 -1.59375 C 7.492188 -1.007812 7.117188 -0.570312 6.640625 -0.28125 C 6.171875 0 5.628906 0.140625 5.015625 0.140625 Z M 4.75 -0.859375 C 6.25 -0.859375 7 -1.828125 7 -3.765625 C 7 -4.773438 6.800781 -5.515625 6.40625 -5.984375 C 6.019531 -6.453125 5.46875 -6.6875 4.75 -6.6875 C 4.039062 -6.6875 3.472656 -6.445312 3.046875 -5.96875 C 2.628906 -5.488281 2.421875 -4.753906 2.421875 -3.765625 C 2.421875 -2.785156 2.628906 -2.054688 3.046875 -1.578125 C 3.472656 -1.097656 4.039062 -0.859375 4.75 -0.859375 Z M 4.75 -0.859375 "/></g></g></g><g fill="#000000" fill-opacity="1"><g transform="translate(263.825647, 288.113887)"><g/></g></g><g fill="#000000" fill-opacity="1"><g transform="translate(267.255373, 288.113887)"><g><path d="M 1.3125 0 L 1.3125 -7.546875 L 2.375 -7.546875 L 2.375 -6.359375 L 2.515625 -6.328125 C 2.867188 -7.179688 3.53125 -7.609375 4.5 -7.609375 C 5.007812 -7.609375 5.394531 -7.515625 5.65625 -7.328125 L 5.359375 -6.390625 L 5.234375 -6.359375 C 4.953125 -6.492188 4.640625 -6.5625 4.296875 -6.5625 C 3.691406 -6.5625 3.226562 -6.335938 2.90625 -5.890625 C 2.582031 -5.441406 2.421875 -4.710938 2.421875 -3.703125 L 2.421875 0 Z M 1.3125 0 "/></g></g></g><g fill="#000000" fill-opacity="1"><g transform="translate(273.076341, 288.113887)"><g><path d="M 3.71875 0.140625 C 2.875 0.140625 2.242188 -0.0820312 1.828125 -0.53125 C 1.410156 -0.976562 1.203125 -1.640625 1.203125 -2.515625 L 1.203125 -7.546875 L 2.3125 -7.546875 L 2.3125 -2.546875 C 2.3125 -1.398438 2.847656 -0.828125 3.921875 -0.828125 C 4.609375 -0.828125 5.148438 -1.050781 5.546875 -1.5 C 5.941406 -1.945312 6.140625 -2.671875 6.140625 -3.671875 L 6.140625 -7.546875 L 7.25 -7.546875 L 7.25 0 L 6.203125 0 L 6.203125 -1.1875 L 6.0625 -1.21875 C 5.800781 -0.757812 5.488281 -0.414062 5.125 -0.1875 C 4.757812 0.03125 4.289062 0.140625 3.71875 0.140625 Z M 3.71875 0.140625 "/></g></g></g><g fill="#000000" fill-opacity="1"><g transform="translate(281.636979, 288.113887)"><g><path d="M 1.3125 0 L 1.3125 -7.546875 L 2.375 -7.546875 L 2.375 -6.359375 L 2.515625 -6.328125 C 2.765625 -6.765625 3.082031 -7.097656 3.46875 -7.328125 C 3.863281 -7.566406 4.34375 -7.6875 4.90625 -7.6875 C 5.8125 -7.6875 6.46875 -7.453125 6.875 -6.984375 C 7.28125 -6.523438 7.484375 -5.816406 7.484375 -4.859375 L 7.484375 0 L 6.375 0 L 6.375 -4.828125 C 6.375 -5.285156 6.3125 -5.648438 6.1875 -5.921875 C 6.070312 -6.203125 5.894531 -6.40625 5.65625 -6.53125 C 5.414062 -6.65625 5.097656 -6.71875 4.703125 -6.71875 C 4.015625 -6.71875 3.460938 -6.488281 3.046875 -6.03125 C 2.628906 -5.582031 2.421875 -4.863281 2.421875 -3.875 L 2.421875 0 Z M 1.3125 0 "/></g></g></g><g fill="#000000" fill-opacity="1"><g transform="translate(290.313774, 288.113887)"><g><path d="M 1.84375 0.0625 C 1.582031 0.0625 1.375 -0.0078125 1.21875 -0.15625 C 1.070312 -0.300781 1 -0.492188 1 -0.734375 C 1 -0.972656 1.070312 -1.164062 1.21875 -1.3125 C 1.375 -1.46875 1.582031 -1.546875 1.84375 -1.546875 C 2.101562 -1.546875 2.304688 -1.472656 2.453125 -1.328125 C 2.609375 -1.179688 2.6875 -0.988281 2.6875 -0.75 C 2.6875 -0.507812 2.609375 -0.3125 2.453125 -0.15625 C 2.304688 -0.0078125 2.101562 0.0625 1.84375 0.0625 Z M 1.84375 0.0625 "/></g></g></g></svg>
