<?xml version="1.0" encoding="us-ascii" standalone="no"?><svg xmlns="http://www.w3.org/2000/svg" xmlns:xlink="http://www.w3.org/1999/xlink" contentStyleType="text/css" height="594px" preserveAspectRatio="none" style="width:604px;height:594px;background:#FFFFFF;" version="1.1" viewBox="0 0 604 594" width="604px" zoomAndPan="magnify"><defs/><g><text fill="#000000" font-family="sans-serif" font-size="14" font-weight="bold" lengthAdjust="spacing" textLength="434" x="81" y="22.9951">Plugin Configuration Provider Hooks Invocation Order</text><!--cluster group1--><g id="cluster_group1"><rect fill="none" height="87" rx="2.5" ry="2.5" style="stroke:#181818;stroke-width:1.0;" width="230" x="19.25" y="44.2969"/><text fill="#000000" font-family="sans-serif" font-size="14" font-weight="bold" lengthAdjust="spacing" textLength="214" x="27.25" y="59.292">Hooks with @hookwrapper</text></g><!--cluster group5--><g id="cluster_group5"><rect fill="none" height="87" rx="2.5" ry="2.5" style="stroke:#181818;stroke-width:1.0;" width="230" x="66.25" y="428.2969"/><text fill="#000000" font-family="sans-serif" font-size="14" font-weight="bold" lengthAdjust="spacing" textLength="214" x="74.25" y="443.292">Hooks with @hookwrapper</text></g><!--entity group1_1--><g id="elem_group1_1"><rect fill="#F1F1F1" height="36.2969" rx="2.5" ry="2.5" style="stroke:#181818;stroke-width:0.5;" width="107" x="123.75" y="79.2969"/><text fill="#000000" font-family="sans-serif" font-size="14" lengthAdjust="spacing" textLength="87" x="133.75" y="102.292">Before yield</text></g><!--entity group5_1--><g id="elem_group5_1"><rect fill="#F1F1F1" height="36.2969" rx="2.5" ry="2.5" style="stroke:#181818;stroke-width:0.5;" width="96" x="129.25" y="463.2969"/><text fill="#000000" font-family="sans-serif" font-size="14" lengthAdjust="spacing" textLength="76" x="139.25" y="486.292">After yield</text></g><!--entity group2--><g id="elem_group2"><rect fill="#F1F1F1" height="36.2969" rx="2.5" ry="2.5" style="stroke:#181818;stroke-width:0.5;" width="199" x="77.75" y="175.2969"/><text fill="#000000" font-family="sans-serif" font-size="14" lengthAdjust="spacing" textLength="179" x="87.75" y="198.292">Hooks with tryFirst=True</text></g><!--entity group3--><g id="elem_group3"><rect fill="#F1F1F1" height="36.2969" rx="2.5" ry="2.5" style="stroke:#181818;stroke-width:0.5;" width="198" x="78.25" y="271.2969"/><text fill="#000000" font-family="sans-serif" font-size="14" lengthAdjust="spacing" textLength="178" x="88.25" y="294.292">Hooks without decorator</text></g><!--entity group4--><g id="elem_group4"><rect fill="#F1F1F1" height="36.2969" rx="2.5" ry="2.5" style="stroke:#181818;stroke-width:0.5;" width="197" x="78.75" y="367.2969"/><text fill="#000000" font-family="sans-serif" font-size="14" lengthAdjust="spacing" textLength="177" x="88.75" y="390.292">Hooks with tryLast=True</text></g><!--entity env_var--><g id="elem_env_var"><rect fill="#808080" height="36.2969" rx="2.5" ry="2.5" style="stroke:#181818;stroke-width:0.5;" width="281" x="310.75" y="367.2969"/><text fill="#000000" font-family="sans-serif" font-size="14" lengthAdjust="spacing" textLength="261" x="320.75" y="390.292">Environment Variable Provider Hook</text></g><!--entity ini_var--><g id="elem_ini_var"><rect fill="#808080" height="36.2969" rx="2.5" ry="2.5" style="stroke:#181818;stroke-width:0.5;" width="216" x="312.25" y="175.2969"/><text fill="#000000" font-family="sans-serif" font-size="14" lengthAdjust="spacing" textLength="196" x="322.25" y="198.292">Job ConfigIni Provider Hook</text></g><!--entity prop_var--><g id="elem_prop_var"><rect fill="#008000" height="36.2969" rx="2.5" ry="2.5" style="stroke:#181818;stroke-width:0.5;" width="228" x="266.25" y="79.2969"/><text fill="#000000" font-family="sans-serif" font-size="14" lengthAdjust="spacing" textLength="208" x="276.25" y="102.292">Properties API Provider Hook</text></g><!--link group1_1 to group2--><g id="link_group1_1_group2"><path d="M177.25,115.5379 C177.25,130.7759 177.25,153.1039 177.25,169.7549 " fill="none" id="group1_1-to-group2" style="stroke:#181818;stroke-width:1.0;"/><polygon fill="#181818" points="177.25,175.1649,181.25,166.1649,177.25,170.1649,173.25,166.1649,177.25,175.1649" style="stroke:#181818;stroke-width:1.0;"/></g><!--link group2 to group3--><g id="link_group2_group3"><path d="M177.25,211.5379 C177.25,226.7759 177.25,249.1039 177.25,265.7549 " fill="none" id="group2-to-group3" style="stroke:#181818;stroke-width:1.0;"/><polygon fill="#181818" points="177.25,271.1649,181.25,262.1649,177.25,266.1649,173.25,262.1649,177.25,271.1649" style="stroke:#181818;stroke-width:1.0;"/></g><!--link group3 to group4--><g id="link_group3_group4"><path d="M177.25,307.5379 C177.25,322.7759 177.25,345.1039 177.25,361.7549 " fill="none" id="group3-to-group4" style="stroke:#181818;stroke-width:1.0;"/><polygon fill="#181818" points="177.25,367.1649,181.25,358.1649,177.25,362.1649,173.25,358.1649,177.25,367.1649" style="stroke:#181818;stroke-width:1.0;"/></g><!--link group4 to group5_1--><g id="link_group4_group5_1"><path d="M177.25,403.5379 C177.25,418.7759 177.25,441.1038 177.25,457.7545 " fill="none" id="group4-to-group5_1" style="stroke:#181818;stroke-width:1.0;"/><polygon fill="#181818" points="177.25,463.1652,181.25,454.1652,177.25,458.1652,173.25,454.1652,177.25,463.1652" style="stroke:#181818;stroke-width:1.0;"/></g><!--link group4 to env_var--><g id="link_group4_env_var"><path d="M275.986,385.2969 C285.8,385.2969 295.614,385.2969 305.428,385.2969 " fill="none" id="group4-to-env_var" style="stroke:#181818;stroke-width:1.0;stroke-dasharray:7.0,7.0;"/><polygon fill="#181818" points="310.56,385.2969,301.56,381.2969,305.56,385.2969,301.56,389.2969,310.56,385.2969" style="stroke:#181818;stroke-width:1.0;"/></g><!--link group2 to ini_var--><g id="link_group2_ini_var"><path d="M276.918,193.2969 C286.93,193.2969 296.943,193.2969 306.955,193.2969 " fill="none" id="group2-to-ini_var" style="stroke:#181818;stroke-width:1.0;stroke-dasharray:7.0,7.0;"/><polygon fill="#181818" points="312.191,193.2969,303.191,189.2969,307.191,193.2969,303.191,197.2969,312.191,193.2969" style="stroke:#181818;stroke-width:1.0;"/></g><!--link group1_1 to prop_var--><g id="link_group1_1_prop_var"><path d="M230.775,97.2969 C240.803,97.2969 250.83,97.2969 260.857,97.2969 " fill="none" id="group1_1-to-prop_var" style="stroke:#181818;stroke-width:1.0;stroke-dasharray:7.0,7.0;"/><polygon fill="#181818" points="266.1,97.2969,257.1,93.2969,261.1,97.2969,257.1,101.2969,266.1,97.2969" style="stroke:#181818;stroke-width:1.0;"/></g><rect fill="#DDDDDD" height="42.5938" id="_legend" rx="7.5" ry="7.5" style="stroke:#000000;stroke-width:1.0;" width="572" x="12" y="532.2969"/><text fill="#000000" font-family="sans-serif" font-size="14" lengthAdjust="spacing" textLength="562" x="17" y="550.292">This diagram shows the order in which all vdk configuration hooks are invoked.</text><text fill="#000000" font-family="sans-serif" font-size="14" lengthAdjust="spacing" textLength="494" x="17" y="566.5889">In green is the new plugin hook. In grey are the current existing ones</text><!--SRC=[bLBBJiCm4BpxArPmRgNIzWZY8H15IFI0k5OcsIQhXjrexIHKY7_7gPkIGel4oT9uPZopNa- -G9WNLKOCDy9BoYgrdeHXhb9JYWht8Yi7CwubYJTF6c1ZJ84PScgUStAGaitKle7BfN7WSmHfMH1icvoI76nHG9sk8Dbx9DzuMyL0h6M5wT3C6395PA3emzX06GEsx254mdgZQWb9fOhi0T_9UU8CXD6Pa6oRpoWctd8MYfx4BWtv72vRjqPjMQAUW7N1LAfo11y6eAUungM4XzQ4HTgZBKRcyvYpr_KTgVFdprhXj-Ri25yg3oac4aOYlIJZF-mVxI_toVzwJd_sl5hwy5q_QavZpQuo359fU73HzOd7FZgEw7WVdKHqie-szltKjroJ2h-rl_bYbUnhkvpzFTn4GwuNjLKu3HktxkiVv7Mxn3Ec0q9YEYmCr30TJ-ZWQZuxe2m3ePE6tJHTdQ5IbllXHPUf6yaEtpxvFSBTJMVv1G00]--></g></svg>
