<?xml version="1.0" encoding="us-ascii" standalone="no"?><svg xmlns="http://www.w3.org/2000/svg" xmlns:xlink="http://www.w3.org/1999/xlink" contentStyleType="text/css" height="580px" preserveAspectRatio="none" style="width:1544px;height:580px;background:#FFFFFF;" version="1.1" viewBox="0 0 1544 580" width="1544px" zoomAndPan="magnify"><defs/><g><rect fill="#FFBBBB" height="79.3984" style="stroke:#181818;stroke-width:1.0;" width="10" x="299.5" y="127.5625"/><rect fill="#BBFFBB" height="238.1953" style="stroke:#181818;stroke-width:1.0;" width="10" x="1359.5" y="243.0938"/><rect fill="none" height="119.6641" style="stroke:#000000;stroke-width:1.5;" width="749" x="475" y="258.0938"/><rect fill="none" height="61.3984" style="stroke:#000000;stroke-width:1.5;" width="372.5" x="1057" y="391.7578"/><line style="stroke:#181818;stroke-width:0.5;stroke-dasharray:5.0,5.0;" x1="23" x2="23" y1="81.2969" y2="499.2891"/><line style="stroke:#181818;stroke-width:0.5;stroke-dasharray:5.0,5.0;" x1="304" x2="304" y1="81.2969" y2="499.2891"/><line style="stroke:#181818;stroke-width:0.5;stroke-dasharray:5.0,5.0;" x1="543" x2="543" y1="81.2969" y2="499.2891"/><line style="stroke:#181818;stroke-width:0.5;stroke-dasharray:5.0,5.0;" x1="853" x2="853" y1="81.2969" y2="499.2891"/><line style="stroke:#181818;stroke-width:0.5;stroke-dasharray:5.0,5.0;" x1="1140" x2="1140" y1="81.2969" y2="499.2891"/><line style="stroke:#181818;stroke-width:0.5;stroke-dasharray:5.0,5.0;" x1="1364.5" x2="1364.5" y1="81.2969" y2="499.2891"/><line style="stroke:#181818;stroke-width:0.5;stroke-dasharray:5.0,5.0;" x1="1524" x2="1524" y1="81.2969" y2="499.2891"/><text fill="#000000" font-family="sans-serif" font-size="14" lengthAdjust="spacing" textLength="31" x="5" y="77.9951">User</text><ellipse cx="23.5" cy="13.5" fill="#E2E2F0" rx="8" ry="8" style="stroke:#181818;stroke-width:0.5;"/><path d="M23.5,21.5 L23.5,48.5 M10.5,29.5 L36.5,29.5 M23.5,48.5 L10.5,63.5 M23.5,48.5 L36.5,63.5 " fill="none" style="stroke:#181818;stroke-width:0.5;"/><text fill="#000000" font-family="sans-serif" font-size="14" lengthAdjust="spacing" textLength="31" x="5" y="511.2842">User</text><ellipse cx="23.5" cy="523.0859" fill="#E2E2F0" rx="8" ry="8" style="stroke:#181818;stroke-width:0.5;"/><path d="M23.5,531.0859 L23.5,558.0859 M10.5,539.0859 L36.5,539.0859 M23.5,558.0859 L10.5,573.0859 M23.5,558.0859 L36.5,573.0859 " fill="none" style="stroke:#181818;stroke-width:0.5;"/><rect fill="#E2E2F0" height="30.2969" rx="2.5" ry="2.5" style="stroke:#181818;stroke-width:0.5;" width="71" x="269" y="50"/><text fill="#000000" font-family="sans-serif" font-size="14" lengthAdjust="spacing" textLength="57" x="276" y="69.9951">VDK CLI</text><rect fill="#E2E2F0" height="30.2969" rx="2.5" ry="2.5" style="stroke:#181818;stroke-width:0.5;" width="71" x="269" y="498.2891"/><text fill="#000000" font-family="sans-serif" font-size="14" lengthAdjust="spacing" textLength="57" x="276" y="518.2842">VDK CLI</text><rect fill="#E2E2F0" height="30.2969" rx="2.5" ry="2.5" style="stroke:#181818;stroke-width:0.5;" width="117" x="485" y="50"/><text fill="#000000" font-family="sans-serif" font-size="14" lengthAdjust="spacing" textLength="103" x="492" y="69.9951">Properties API</text><rect fill="#E2E2F0" height="30.2969" rx="2.5" ry="2.5" style="stroke:#181818;stroke-width:0.5;" width="117" x="485" y="498.2891"/><text fill="#000000" font-family="sans-serif" font-size="14" lengthAdjust="spacing" textLength="103" x="492" y="518.2842">Properties API</text><rect fill="#E2E2F0" height="30.2969" rx="2.5" ry="2.5" style="stroke:#181818;stroke-width:0.5;" width="223" x="742" y="50"/><text fill="#000000" font-family="sans-serif" font-size="14" lengthAdjust="spacing" textLength="209" x="749" y="69.9951">VDK Properties Config Plugin</text><rect fill="#E2E2F0" height="30.2969" rx="2.5" ry="2.5" style="stroke:#181818;stroke-width:0.5;" width="223" x="742" y="498.2891"/><text fill="#000000" font-family="sans-serif" font-size="14" lengthAdjust="spacing" textLength="209" x="749" y="518.2842">VDK Properties Config Plugin</text><rect fill="#E2E2F0" height="30.2969" rx="2.5" ry="2.5" style="stroke:#181818;stroke-width:0.5;" width="147" x="1067" y="50"/><text fill="#000000" font-family="sans-serif" font-size="14" lengthAdjust="spacing" textLength="133" x="1074" y="69.9951">VDK Configuration</text><rect fill="#E2E2F0" height="30.2969" rx="2.5" ry="2.5" style="stroke:#181818;stroke-width:0.5;" width="147" x="1067" y="498.2891"/><text fill="#000000" font-family="sans-serif" font-size="14" lengthAdjust="spacing" textLength="133" x="1074" y="518.2842">VDK Configuration</text><rect fill="#E2E2F0" height="30.2969" rx="2.5" ry="2.5" style="stroke:#181818;stroke-width:0.5;" width="110" x="1309.5" y="50"/><text fill="#000000" font-family="sans-serif" font-size="14" lengthAdjust="spacing" textLength="96" x="1316.5" y="69.9951">VDK Data Job</text><rect fill="#E2E2F0" height="30.2969" rx="2.5" ry="2.5" style="stroke:#181818;stroke-width:0.5;" width="110" x="1309.5" y="498.2891"/><text fill="#000000" font-family="sans-serif" font-size="14" lengthAdjust="spacing" textLength="96" x="1316.5" y="518.2842">VDK Data Job</text><text fill="#000000" font-family="sans-serif" font-size="14" lengthAdjust="spacing" textLength="31" x="1506" y="77.9951">User</text><ellipse cx="1524.5" cy="13.5" fill="#E2E2F0" rx="8" ry="8" style="stroke:#181818;stroke-width:0.5;"/><path d="M1524.5,21.5 L1524.5,48.5 M1511.5,29.5 L1537.5,29.5 M1524.5,48.5 L1511.5,63.5 M1524.5,48.5 L1537.5,63.5 " fill="none" style="stroke:#181818;stroke-width:0.5;"/><text fill="#000000" font-family="sans-serif" font-size="14" lengthAdjust="spacing" textLength="31" x="1506" y="511.2842">User</text><ellipse cx="1524.5" cy="523.0859" fill="#E2E2F0" rx="8" ry="8" style="stroke:#181818;stroke-width:0.5;"/><path d="M1524.5,531.0859 L1524.5,558.0859 M1511.5,539.0859 L1537.5,539.0859 M1524.5,558.0859 L1511.5,573.0859 M1524.5,558.0859 L1537.5,573.0859 " fill="none" style="stroke:#181818;stroke-width:0.5;"/><rect fill="#FFBBBB" height="79.3984" style="stroke:#181818;stroke-width:1.0;" width="10" x="299.5" y="127.5625"/><rect fill="#BBFFBB" height="238.1953" style="stroke:#181818;stroke-width:1.0;" width="10" x="1359.5" y="243.0938"/><polygon fill="#181818" points="287.5,123.5625,297.5,127.5625,287.5,131.5625,291.5,127.5625" style="stroke:#181818;stroke-width:1.0;"/><line style="stroke:#181818;stroke-width:1.0;" x1="23.5" x2="293.5" y1="127.5625" y2="127.5625"/><text fill="#000000" font-family="sans-serif" font-size="13" lengthAdjust="spacing" textLength="92" x="30.5" y="107.3638">vdk properties</text><text fill="#000000" font-family="sans-serif" font-size="13" lengthAdjust="spacing" textLength="253" x="34.5" y="122.4966">--set-secret 'vdk.config.trino_password'</text><polygon fill="#181818" points="531.5,152.6953,541.5,156.6953,531.5,160.6953,535.5,156.6953" style="stroke:#181818;stroke-width:1.0;"/><line style="stroke:#181818;stroke-width:1.0;" x1="309.5" x2="537.5" y1="156.6953" y2="156.6953"/><text fill="#000000" font-family="sans-serif" font-size="13" lengthAdjust="spacing" textLength="210" x="316.5" y="151.6294">sends vdk.config.trino_password</text><line style="stroke:#181818;stroke-width:1.0;" x1="543.5" x2="585.5" y1="205.9609" y2="205.9609"/><line style="stroke:#181818;stroke-width:1.0;" x1="585.5" x2="585.5" y1="205.9609" y2="218.9609"/><line style="stroke:#181818;stroke-width:1.0;" x1="538.5" x2="585.5" y1="218.9609" y2="218.9609"/><polygon fill="#181818" points="548.5,214.9609,538.5,218.9609,548.5,222.9609,544.5,218.9609" style="stroke:#181818;stroke-width:1.0;"/><text fill="#000000" font-family="sans-serif" font-size="13" lengthAdjust="spacing" textLength="212" x="550.5" y="185.7622">stores vdk.config.trino_password</text><text fill="#000000" font-family="sans-serif" font-size="13" lengthAdjust="spacing" textLength="142" x="550.5" y="200.895">in db/backend storage</text><polygon fill="#181818" points="1380.5,239.0938,1370.5,243.0938,1380.5,247.0938,1376.5,243.0938" style="stroke:#181818;stroke-width:1.0;"/><line style="stroke:#181818;stroke-width:1.0;" x1="1374.5" x2="1523.5" y1="243.0938" y2="243.0938"/><text fill="#000000" font-family="sans-serif" font-size="13" lengthAdjust="spacing" textLength="104" x="1386.5" y="238.0278">vdk run data job</text><path d="M475,258.0938 L677,258.0938 L677,265.2266 L667,275.2266 L475,275.2266 L475,258.0938 " fill="#EEEEEE" style="stroke:#000000;stroke-width:1.5;"/><rect fill="none" height="119.6641" style="stroke:#000000;stroke-width:1.5;" width="749" x="475" y="258.0938"/><text fill="#000000" font-family="sans-serif" font-size="13" font-weight="bold" lengthAdjust="spacing" textLength="157" x="490" y="271.1606">VDK configure phase</text><polygon fill="#181818" points="554.5,292.3594,544.5,296.3594,554.5,300.3594,550.5,296.3594" style="stroke:#181818;stroke-width:1.0;"/><line style="stroke:#181818;stroke-width:1.0;" x1="548.5" x2="852.5" y1="296.3594" y2="296.3594"/><text fill="#000000" font-family="sans-serif" font-size="13" lengthAdjust="spacing" textLength="286" x="560.5" y="291.2935">fetches all properties during configure phase</text><polygon fill="#181818" points="841.5,321.4922,851.5,325.4922,841.5,329.4922,845.5,325.4922" style="stroke:#181818;stroke-width:1.0;"/><line style="stroke:#181818;stroke-width:1.0;" x1="543.5" x2="847.5" y1="325.4922" y2="325.4922"/><text fill="#000000" font-family="sans-serif" font-size="13" lengthAdjust="spacing" textLength="133" x="550.5" y="320.4263">returns all properties</text><polygon fill="#181818" points="1128.5,365.7578,1138.5,369.7578,1128.5,373.7578,1132.5,369.7578" style="stroke:#181818;stroke-width:1.0;"/><line style="stroke:#181818;stroke-width:1.0;" x1="853.5" x2="1134.5" y1="369.7578" y2="369.7578"/><text fill="#000000" font-family="sans-serif" font-size="13" lengthAdjust="spacing" textLength="217" x="860.5" y="349.5591">updates VDK configuration values</text><text fill="#000000" font-family="sans-serif" font-size="13" lengthAdjust="spacing" textLength="263" x="860.5" y="364.6919">for all properties starting with vdk.config.</text><path d="M1057,391.7578 L1212,391.7578 L1212,398.8906 L1202,408.8906 L1057,408.8906 L1057,391.7578 " fill="#EEEEEE" style="stroke:#000000;stroke-width:1.5;"/><rect fill="none" height="61.3984" style="stroke:#000000;stroke-width:1.5;" width="372.5" x="1057" y="391.7578"/><text fill="#000000" font-family="sans-serif" font-size="13" font-weight="bold" lengthAdjust="spacing" textLength="110" x="1072" y="404.8247">VDK run phase</text><polygon fill="#181818" points="1151.5,441.1563,1141.5,445.1563,1151.5,449.1563,1147.5,445.1563" style="stroke:#181818;stroke-width:1.0;"/><line style="stroke:#181818;stroke-width:1.0;" x1="1145.5" x2="1358.5" y1="445.1563" y2="445.1563"/><text fill="#000000" font-family="sans-serif" font-size="13" lengthAdjust="spacing" textLength="195" x="1157.5" y="424.9575">uses VDK configuration values</text><text fill="#000000" font-family="sans-serif" font-size="13" lengthAdjust="spacing" textLength="86" x="1157.5" y="440.0903">to run the job</text><polygon fill="#181818" points="1512.5,477.2891,1522.5,481.2891,1512.5,485.2891,1516.5,481.2891" style="stroke:#181818;stroke-width:1.0;"/><line style="stroke:#181818;stroke-width:1.0;" x1="1364.5" x2="1518.5" y1="481.2891" y2="481.2891"/><text fill="#000000" font-family="sans-serif" font-size="13" lengthAdjust="spacing" textLength="131" x="1371.5" y="476.2231">data job run finished</text><!--SRC=[ZL9DQy904BtlhnZqu4aB7ZqKgYBqu-2bFGbbaaoIrR2xx8V-_SwcagI92Gq4aftPz-QzDvXwRU7JaHK6hPUfDAWypBxsxx3xU9tzFJrQROZ_oS7BiL-CLpeDEwroMS2n2eLK3rf_wy6Yb_fHVOyUuKqdCu7DZ80Embg8-dlvt8u96xXc5p0j_Kd1Skd8yvjQyh3W-YgjELVUIgM_3JftqpPRH09vHKyTlFdXiEL7j2UHhgUVMHsfpC4ejXXS6O5XXJI1mtAaWYnvIZ2zC6Lz0GiI6Gs75s7TcDEuU7V81eQ9PsUTz7IthVFjDieNXTN1GAobzx08J8cEn7JO8o9pycd9lrXLtQIom5AB8SKZvwPfDy191wlw5FyPTxYI31SCUyNzNGlg8bon2kHEAkVDxEbnFguoAxf9NtOZ5HnSnzCOHSVDrlxnSTpaB5xNcBwaEjt8DaJctTWq6r3tvr99Lr8ssANctWy0]--></g></svg>
