<?xml version="1.0" encoding="us-ascii" standalone="no"?><svg xmlns="http://www.w3.org/2000/svg" xmlns:xlink="http://www.w3.org/1999/xlink" contentStyleType="text/css" height="690px" preserveAspectRatio="none" style="width:1544px;height:690px;background:#FFFFFF;" version="1.1" viewBox="0 0 1544 690" width="1544px" zoomAndPan="magnify"><defs/><g><rect fill="#FFBBBB" height="79.3984" style="stroke:#181818;stroke-width:1.0;" width="10" x="299.5" y="127.5625"/><rect fill="#BBFFBB" height="238.1953" style="stroke:#181818;stroke-width:1.0;" width="10" x="1359.5" y="283.8984"/><rect fill="none" height="119.6641" style="stroke:#000000;stroke-width:1.5;" width="749" x="475" y="298.8984"/><rect fill="none" height="61.3984" style="stroke:#000000;stroke-width:1.5;" width="372.5" x="1057" y="432.5625"/><line style="stroke:#181818;stroke-width:0.5;stroke-dasharray:5.0,5.0;" x1="23" x2="23" y1="81.2969" y2="221.9609"/><line style="stroke:#A80036;stroke-width:1.0;stroke-dasharray:1.0,4.0;" x1="23" x2="23" y1="221.9609" y2="262.7656"/><line style="stroke:#181818;stroke-width:0.5;stroke-dasharray:5.0,5.0;" x1="23" x2="23" y1="262.7656" y2="540.0938"/><line style="stroke:#181818;stroke-width:0.5;stroke-dasharray:5.0,5.0;" x1="304" x2="304" y1="81.2969" y2="221.9609"/><line style="stroke:#A80036;stroke-width:1.0;stroke-dasharray:1.0,4.0;" x1="304" x2="304" y1="221.9609" y2="262.7656"/><line style="stroke:#181818;stroke-width:0.5;stroke-dasharray:5.0,5.0;" x1="304" x2="304" y1="262.7656" y2="540.0938"/><line style="stroke:#181818;stroke-width:0.5;stroke-dasharray:5.0,5.0;" x1="543" x2="543" y1="81.2969" y2="221.9609"/><line style="stroke:#A80036;stroke-width:1.0;stroke-dasharray:1.0,4.0;" x1="543" x2="543" y1="221.9609" y2="262.7656"/><line style="stroke:#181818;stroke-width:0.5;stroke-dasharray:5.0,5.0;" x1="543" x2="543" y1="262.7656" y2="540.0938"/><line style="stroke:#181818;stroke-width:0.5;stroke-dasharray:5.0,5.0;" x1="853" x2="853" y1="81.2969" y2="221.9609"/><line style="stroke:#A80036;stroke-width:1.0;stroke-dasharray:1.0,4.0;" x1="853" x2="853" y1="221.9609" y2="262.7656"/><line style="stroke:#181818;stroke-width:0.5;stroke-dasharray:5.0,5.0;" x1="853" x2="853" y1="262.7656" y2="540.0938"/><line style="stroke:#181818;stroke-width:0.5;stroke-dasharray:5.0,5.0;" x1="1140" x2="1140" y1="81.2969" y2="221.9609"/><line style="stroke:#A80036;stroke-width:1.0;stroke-dasharray:1.0,4.0;" x1="1140" x2="1140" y1="221.9609" y2="262.7656"/><line style="stroke:#181818;stroke-width:0.5;stroke-dasharray:5.0,5.0;" x1="1140" x2="1140" y1="262.7656" y2="540.0938"/><line style="stroke:#181818;stroke-width:0.5;stroke-dasharray:5.0,5.0;" x1="1364.5" x2="1364.5" y1="81.2969" y2="221.9609"/><line style="stroke:#A80036;stroke-width:1.0;stroke-dasharray:1.0,4.0;" x1="1364.5" x2="1364.5" y1="221.9609" y2="262.7656"/><line style="stroke:#181818;stroke-width:0.5;stroke-dasharray:5.0,5.0;" x1="1364.5" x2="1364.5" y1="262.7656" y2="540.0938"/><line style="stroke:#181818;stroke-width:0.5;stroke-dasharray:5.0,5.0;" x1="1524" x2="1524" y1="81.2969" y2="221.9609"/><line style="stroke:#A80036;stroke-width:1.0;stroke-dasharray:1.0,4.0;" x1="1524" x2="1524" y1="221.9609" y2="262.7656"/><line style="stroke:#181818;stroke-width:0.5;stroke-dasharray:5.0,5.0;" x1="1524" x2="1524" y1="262.7656" y2="540.0938"/><text fill="#000000" font-family="sans-serif" font-size="14" lengthAdjust="spacing" textLength="31" x="5" y="77.9951">User</text><ellipse cx="23.5" cy="13.5" fill="#E2E2F0" rx="8" ry="8" style="stroke:#181818;stroke-width:0.5;"/><path d="M23.5,21.5 L23.5,48.5 M10.5,29.5 L36.5,29.5 M23.5,48.5 L10.5,63.5 M23.5,48.5 L36.5,63.5 " fill="none" style="stroke:#181818;stroke-width:0.5;"/><text fill="#000000" font-family="sans-serif" font-size="14" lengthAdjust="spacing" textLength="31" x="5" y="552.0889">User</text><ellipse cx="23.5" cy="563.8906" fill="#E2E2F0" rx="8" ry="8" style="stroke:#181818;stroke-width:0.5;"/><path d="M23.5,571.8906 L23.5,598.8906 M10.5,579.8906 L36.5,579.8906 M23.5,598.8906 L10.5,613.8906 M23.5,598.8906 L36.5,613.8906 " fill="none" style="stroke:#181818;stroke-width:0.5;"/><rect fill="#E2E2F0" height="30.2969" rx="2.5" ry="2.5" style="stroke:#181818;stroke-width:0.5;" width="71" x="269" y="50"/><text fill="#000000" font-family="sans-serif" font-size="14" lengthAdjust="spacing" textLength="57" x="276" y="69.9951">VDK CLI</text><rect fill="#E2E2F0" height="30.2969" rx="2.5" ry="2.5" style="stroke:#181818;stroke-width:0.5;" width="71" x="269" y="539.0938"/><text fill="#000000" font-family="sans-serif" font-size="14" lengthAdjust="spacing" textLength="57" x="276" y="559.0889">VDK CLI</text><rect fill="#E2E2F0" height="30.2969" rx="2.5" ry="2.5" style="stroke:#181818;stroke-width:0.5;" width="117" x="485" y="50"/><text fill="#000000" font-family="sans-serif" font-size="14" lengthAdjust="spacing" textLength="103" x="492" y="69.9951">Properties API</text><rect fill="#E2E2F0" height="30.2969" rx="2.5" ry="2.5" style="stroke:#181818;stroke-width:0.5;" width="117" x="485" y="539.0938"/><text fill="#000000" font-family="sans-serif" font-size="14" lengthAdjust="spacing" textLength="103" x="492" y="559.0889">Properties API</text><rect fill="#E2E2F0" height="30.2969" rx="2.5" ry="2.5" style="stroke:#181818;stroke-width:0.5;" width="223" x="742" y="50"/><text fill="#000000" font-family="sans-serif" font-size="14" lengthAdjust="spacing" textLength="209" x="749" y="69.9951">VDK Properties Config Plugin</text><rect fill="#E2E2F0" height="30.2969" rx="2.5" ry="2.5" style="stroke:#181818;stroke-width:0.5;" width="223" x="742" y="539.0938"/><text fill="#000000" font-family="sans-serif" font-size="14" lengthAdjust="spacing" textLength="209" x="749" y="559.0889">VDK Properties Config Plugin</text><rect fill="#E2E2F0" height="30.2969" rx="2.5" ry="2.5" style="stroke:#181818;stroke-width:0.5;" width="147" x="1067" y="50"/><text fill="#000000" font-family="sans-serif" font-size="14" lengthAdjust="spacing" textLength="133" x="1074" y="69.9951">VDK Configuration</text><rect fill="#E2E2F0" height="30.2969" rx="2.5" ry="2.5" style="stroke:#181818;stroke-width:0.5;" width="147" x="1067" y="539.0938"/><text fill="#000000" font-family="sans-serif" font-size="14" lengthAdjust="spacing" textLength="133" x="1074" y="559.0889">VDK Configuration</text><rect fill="#E2E2F0" height="30.2969" rx="2.5" ry="2.5" style="stroke:#181818;stroke-width:0.5;" width="110" x="1309.5" y="50"/><text fill="#000000" font-family="sans-serif" font-size="14" lengthAdjust="spacing" textLength="96" x="1316.5" y="69.9951">VDK Data Job</text><rect fill="#E2E2F0" height="30.2969" rx="2.5" ry="2.5" style="stroke:#181818;stroke-width:0.5;" width="110" x="1309.5" y="539.0938"/><text fill="#000000" font-family="sans-serif" font-size="14" lengthAdjust="spacing" textLength="96" x="1316.5" y="559.0889">VDK Data Job</text><text fill="#000000" font-family="sans-serif" font-size="14" lengthAdjust="spacing" textLength="31" x="1506" y="77.9951">User</text><ellipse cx="1524.5" cy="13.5" fill="#E2E2F0" rx="8" ry="8" style="stroke:#181818;stroke-width:0.5;"/><path d="M1524.5,21.5 L1524.5,48.5 M1511.5,29.5 L1537.5,29.5 M1524.5,48.5 L1511.5,63.5 M1524.5,48.5 L1537.5,63.5 " fill="none" style="stroke:#181818;stroke-width:0.5;"/><text fill="#000000" font-family="sans-serif" font-size="14" lengthAdjust="spacing" textLength="31" x="1506" y="552.0889">User</text><ellipse cx="1524.5" cy="563.8906" fill="#E2E2F0" rx="8" ry="8" style="stroke:#181818;stroke-width:0.5;"/><path d="M1524.5,571.8906 L1524.5,598.8906 M1511.5,579.8906 L1537.5,579.8906 M1524.5,598.8906 L1511.5,613.8906 M1524.5,598.8906 L1537.5,613.8906 " fill="none" style="stroke:#181818;stroke-width:0.5;"/><rect fill="#FFBBBB" height="79.3984" style="stroke:#181818;stroke-width:1.0;" width="10" x="299.5" y="127.5625"/><rect fill="#BBFFBB" height="238.1953" style="stroke:#181818;stroke-width:1.0;" width="10" x="1359.5" y="283.8984"/><polygon fill="#181818" points="287.5,123.5625,297.5,127.5625,287.5,131.5625,291.5,127.5625" style="stroke:#181818;stroke-width:1.0;"/><line style="stroke:#181818;stroke-width:1.0;" x1="23.5" x2="293.5" y1="127.5625" y2="127.5625"/><text fill="#000000" font-family="sans-serif" font-size="13" lengthAdjust="spacing" textLength="92" x="30.5" y="107.3638">vdk properties</text><text fill="#000000" font-family="sans-serif" font-size="13" lengthAdjust="spacing" textLength="253" x="34.5" y="122.4966">--set-secret 'vdk.config.trino_password'</text><polygon fill="#181818" points="531.5,152.6953,541.5,156.6953,531.5,160.6953,535.5,156.6953" style="stroke:#181818;stroke-width:1.0;"/><line style="stroke:#181818;stroke-width:1.0;" x1="309.5" x2="537.5" y1="156.6953" y2="156.6953"/><text fill="#000000" font-family="sans-serif" font-size="13" lengthAdjust="spacing" textLength="210" x="316.5" y="151.6294">sends vdk.config.trino_password</text><line style="stroke:#181818;stroke-width:1.0;" x1="543.5" x2="585.5" y1="205.9609" y2="205.9609"/><line style="stroke:#181818;stroke-width:1.0;" x1="585.5" x2="585.5" y1="205.9609" y2="218.9609"/><line style="stroke:#181818;stroke-width:1.0;" x1="538.5" x2="585.5" y1="218.9609" y2="218.9609"/><polygon fill="#181818" points="548.5,214.9609,538.5,218.9609,548.5,222.9609,544.5,218.9609" style="stroke:#181818;stroke-width:1.0;"/><text fill="#000000" font-family="sans-serif" font-size="13" lengthAdjust="spacing" textLength="212" x="550.5" y="185.7622">stores vdk.config.trino_password</text><text fill="#000000" font-family="sans-serif" font-size="13" lengthAdjust="spacing" textLength="142" x="550.5" y="200.895">in db/backend storage</text><text fill="#000000" font-family="sans-serif" font-size="11" lengthAdjust="spacing" textLength="70" x="739" y="246.1714">time passes</text><polygon fill="#181818" points="1380.5,279.8984,1370.5,283.8984,1380.5,287.8984,1376.5,283.8984" style="stroke:#181818;stroke-width:1.0;"/><line style="stroke:#181818;stroke-width:1.0;" x1="1374.5" x2="1523.5" y1="283.8984" y2="283.8984"/><text fill="#000000" font-family="sans-serif" font-size="13" lengthAdjust="spacing" textLength="104" x="1386.5" y="278.8325">vdk run data job</text><path d="M475,298.8984 L677,298.8984 L677,306.0313 L667,316.0313 L475,316.0313 L475,298.8984 " fill="#EEEEEE" style="stroke:#000000;stroke-width:1.5;"/><rect fill="none" height="119.6641" style="stroke:#000000;stroke-width:1.5;" width="749" x="475" y="298.8984"/><text fill="#000000" font-family="sans-serif" font-size="13" font-weight="bold" lengthAdjust="spacing" textLength="157" x="490" y="311.9653">VDK configure phase</text><polygon fill="#181818" points="554.5,333.1641,544.5,337.1641,554.5,341.1641,550.5,337.1641" style="stroke:#181818;stroke-width:1.0;"/><line style="stroke:#181818;stroke-width:1.0;" x1="548.5" x2="852.5" y1="337.1641" y2="337.1641"/><text fill="#000000" font-family="sans-serif" font-size="13" lengthAdjust="spacing" textLength="286" x="560.5" y="332.0981">fetches all properties during configure phase</text><polygon fill="#181818" points="841.5,362.2969,851.5,366.2969,841.5,370.2969,845.5,366.2969" style="stroke:#181818;stroke-width:1.0;"/><line style="stroke:#181818;stroke-width:1.0;" x1="543.5" x2="847.5" y1="366.2969" y2="366.2969"/><text fill="#000000" font-family="sans-serif" font-size="13" lengthAdjust="spacing" textLength="133" x="550.5" y="361.231">returns all properties</text><polygon fill="#181818" points="1128.5,406.5625,1138.5,410.5625,1128.5,414.5625,1132.5,410.5625" style="stroke:#181818;stroke-width:1.0;"/><line style="stroke:#181818;stroke-width:1.0;" x1="853.5" x2="1134.5" y1="410.5625" y2="410.5625"/><text fill="#000000" font-family="sans-serif" font-size="13" lengthAdjust="spacing" textLength="217" x="860.5" y="390.3638">updates VDK configuration values</text><text fill="#000000" font-family="sans-serif" font-size="13" lengthAdjust="spacing" textLength="263" x="860.5" y="405.4966">for all properties starting with vdk.config.</text><path d="M1057,432.5625 L1212,432.5625 L1212,439.6953 L1202,449.6953 L1057,449.6953 L1057,432.5625 " fill="#EEEEEE" style="stroke:#000000;stroke-width:1.5;"/><rect fill="none" height="61.3984" style="stroke:#000000;stroke-width:1.5;" width="372.5" x="1057" y="432.5625"/><text fill="#000000" font-family="sans-serif" font-size="13" font-weight="bold" lengthAdjust="spacing" textLength="110" x="1072" y="445.6294">VDK run phase</text><polygon fill="#181818" points="1151.5,481.9609,1141.5,485.9609,1151.5,489.9609,1147.5,485.9609" style="stroke:#181818;stroke-width:1.0;"/><line style="stroke:#181818;stroke-width:1.0;" x1="1145.5" x2="1358.5" y1="485.9609" y2="485.9609"/><text fill="#000000" font-family="sans-serif" font-size="13" lengthAdjust="spacing" textLength="195" x="1157.5" y="465.7622">uses VDK configuration values</text><text fill="#000000" font-family="sans-serif" font-size="13" lengthAdjust="spacing" textLength="86" x="1157.5" y="480.895">to run the job</text><polygon fill="#181818" points="1512.5,518.0938,1522.5,522.0938,1512.5,526.0938,1516.5,522.0938" style="stroke:#181818;stroke-width:1.0;"/><line style="stroke:#181818;stroke-width:1.0;" x1="1364.5" x2="1518.5" y1="522.0938" y2="522.0938"/><text fill="#000000" font-family="sans-serif" font-size="13" lengthAdjust="spacing" textLength="131" x="1371.5" y="517.0278">data job run finished</text><rect fill="#DDDDDD" height="42.5938" id="_legend" rx="7.5" ry="7.5" style="stroke:#000000;stroke-width:1.0;" width="780" x="383.5" y="628.3906"/><text fill="#000000" font-family="sans-serif" font-size="14" lengthAdjust="spacing" textLength="766" x="388.5" y="646.3857">The diagram shows how the VDK CLI can be used to set a new (secret) VDK configuration value by the user.</text><text fill="#000000" font-family="sans-serif" font-size="14" lengthAdjust="spacing" textLength="736" x="388.5" y="662.6826">The diagram also demonstrates how VDK properties are fetched and used during the run of a Data Job.</text><!--SRC=[ZLHDZzem4BtxLupWiEs1LEB8eL9XjL8_3XpQFQsqciIJnDrWH_u0zT_lE669IGWg1mJZcVTctZoxeOgq5Bzh0gcmidW0LvkJ0_u2pz7dnv-m-_KT2jIG4mH74hm1HnuGD9tWawF2al_SPHP6bweA5hqo6exO18ByNmV4bJQ3AoPid0591wETvnBgMIDEQqrBrYiEeIKeoHSr4wEMVGSoMAMh3jS63QRaPXxH8_mmEPFmI4q_cC326mj_c5oqo8Y5Qb5xM9pdMbn7zmFlj_tuC9Oa2RjkLjWteLBwHkekrUB6-KU_YwH7G0TXBKJtU_LrQ1CsS9HlgIul6bOhNiEgrnyU-3phzSyygsDUMtJkPAnyY0Jgo08dUCkdfor_n129TAFvcTMnYWvciSMaP0Q69wGxE3oEqY3pBpaMRqpP5M15GjAqUP5b6NXr88Zb3Cl_HLXV1BieUrOjMaJ6s5-JZxGOKfVRRPH4LDQ4zihCJ5EZ8t7V03E3zzPb6pTDkhspWISKjzIyJxi1tdwmUapnF-rERSfmePNTNPovp-v5b-pMqJpEHtlpH2VbwtJDyIucciPL96eEyi-tu-xsmczHn8mlGTnkP9iYipSs5mTq-QNIol6JCl7NfUuT]--></g></svg>
