<?xml version="1.0" encoding="us-ascii" standalone="no"?><svg xmlns="http://www.w3.org/2000/svg" xmlns:xlink="http://www.w3.org/1999/xlink" contentStyleType="text/css" height="305px" preserveAspectRatio="none" style="width:801px;height:305px;background:#FFFFFF;" version="1.1" viewBox="0 0 801 305" width="801px" zoomAndPan="magnify"><defs/><g><!--cluster Control Service--><g id="cluster_Control Service"><path d="M267.7768,208.2615 C271.6975,202.5226 275.5258,202.4098 279.6735,208.0236 C282.3608,202.267 286.6153,203.0804 290.1441,207.1246 C294.0625,201.7445 297.7965,200.8591 302.1325,206.6776 C305.3209,202.0501 309.6895,201.9742 313.0087,206.5225 C315.2036,200.4653 320.9163,200.8833 324.2212,205.3386 C327.9938,200.0981 333.8007,199.1596 337.0917,205.8578 C339.9267,201.1633 345.479,200.4826 348.541,205.5927 C351.5722,199.5592 356.802,200.239 360.0149,205.4065 C364.0374,200.7951 367.5354,199.5838 371.2523,205.7258 C374.4583,200.9498 379.3223,201.0338 382.0138,206.2783 C385.4922,200.153 389.3443,200.3493 393.4058,205.6995 C398.2049,201.5395 402.3923,202.5968 405.1576,208.158 C408.2221,203.0308 413.1962,202.3115 416.7037,207.6702 C420.9347,202.9466 425.3594,203.5409 428.5426,208.9004 C435.7141,212.1885 434.982,218.1659 429.3954,222.2679 C435.8753,223.7105 436.6808,229.7898 432.6118,234.1 C439.8199,237.1029 441.5745,242.3239 435.1087,247.8161 C440.2828,253.2951 438.5381,259.1476 431.867,261.9002 C438.588,266.3883 436.6711,272.8256 429.8516,275.2731 C434.7834,279.7828 434.5478,286.2453 427.1703,288.2023 C424.4816,294.6578 419.0449,294.0582 415.3573,289.2499 C411.8382,294.8834 408.5579,294.7579 404.8727,289.4083 C402.2379,295.1944 398.1422,296.0001 393.8748,291.0864 C390.4423,296.5667 386.0867,296.4496 382.0033,291.8531 C378.2287,296.8265 373.991,296.0159 371.3415,290.6885 C367.8774,296.8391 363.328,297.1079 358.8395,291.807 C355.4091,297.5925 351.3281,297.9052 346.8692,292.9537 C343.4901,297.956 339.0661,296.9979 336.6641,291.9605 C333.5281,297.4343 328.0172,298.5408 324.5932,292.2562 C320.68,297.4643 316.7609,295.5933 314.2914,290.7731 C311.2192,296.4716 305.0839,298.3704 301.225,291.5973 C297.1875,295.8738 291.5169,295.0612 289.718,289.0849 C286.832,294.261 282.0349,294.3704 278.3555,290.0325 C274.6943,295.6524 270.8455,295.1105 267.541,289.6834 C260.4675,285.8741 260.4474,280.7675 265.5637,275.2842 C257.19,272.5023 256.2467,267.0516 262.7651,261.2912 C255.5868,259.275 254.8253,252.7619 259.4236,247.8238 C252.6124,243.2004 254.4604,237.4429 260.8311,234.1794 C256.3921,228.8707 255.93,223.4962 263.751,220.8791 C259.6581,215.8066 260.2454,209.6252 267.7768,208.2615 " fill="none" style="stroke:#181818;stroke-width:1.0;"/><text fill="#000000" font-family="sans-serif" font-size="14" font-weight="bold" lengthAdjust="spacing" textLength="123" x="285" y="224.9951">Control Service</text></g><!--cluster VDK SDK--><g id="cluster_VDK SDK"><rect fill="none" height="120" rx="2.5" ry="2.5" style="stroke:#181818;stroke-width:1.0;" width="247" x="296.5" y="7"/><rect fill="none" height="10" style="stroke:#181818;stroke-width:1.0;" width="15" x="523.5" y="12"/><rect fill="none" height="2" style="stroke:#181818;stroke-width:1.0;" width="4" x="521.5" y="14"/><rect fill="none" height="2" style="stroke:#181818;stroke-width:1.0;" width="4" x="521.5" y="18"/><text fill="#000000" font-family="sans-serif" font-size="14" font-weight="bold" lengthAdjust="spacing" textLength="68" x="386" y="32.9951">VDK SDK</text></g><!--entity Properties API--><g id="elem_Properties API"><rect fill="#F1F1F1" height="46.2969" rx="2.5" ry="2.5" style="stroke:#181818;stroke-width:0.5;" width="143" x="275" y="234"/><rect fill="#F1F1F1" height="10" style="stroke:#181818;stroke-width:0.5;" width="15" x="398" y="239"/><rect fill="#F1F1F1" height="2" style="stroke:#181818;stroke-width:0.5;" width="4" x="396" y="241"/><rect fill="#F1F1F1" height="2" style="stroke:#181818;stroke-width:0.5;" width="4" x="396" y="245"/><text fill="#000000" font-family="sans-serif" font-size="14" lengthAdjust="spacing" textLength="103" x="290" y="266.9951">Properties API</text></g><!--entity propPlugin--><g id="elem_propPlugin"><rect fill="#008000" height="52.5938" rx="2.5" ry="2.5" style="stroke:#181818;stroke-width:0.5;" width="180" x="320.5" y="50"/><text fill="#000000" font-family="sans-serif" font-size="14" lengthAdjust="spacing" textLength="160" x="330.5" y="72.9951">vdk-properties-config</text><text fill="#000000" font-family="sans-serif" font-size="14" lengthAdjust="spacing" textLength="44" x="330.5" y="89.292">plugin</text></g><!--entity VDK CLI--><g id="elem_VDK CLI"><rect fill="#F1F1F1" height="46.2969" rx="2.5" ry="2.5" style="stroke:#181818;stroke-width:0.5;" width="97" x="7" y="53.5"/><rect fill="#F1F1F1" height="10" style="stroke:#181818;stroke-width:0.5;" width="15" x="84" y="58.5"/><rect fill="#F1F1F1" height="2" style="stroke:#181818;stroke-width:0.5;" width="4" x="82" y="60.5"/><rect fill="#F1F1F1" height="2" style="stroke:#181818;stroke-width:0.5;" width="4" x="82" y="64.5"/><text fill="#000000" font-family="sans-serif" font-size="14" lengthAdjust="spacing" textLength="57" x="22" y="86.4951">VDK CLI</text></g><!--entity VDK Data Job--><g id="elem_VDK Data Job"><rect fill="#F1F1F1" height="36.2969" rx="2.5" ry="2.5" style="stroke:#181818;stroke-width:0.5;" width="116" x="601.5" y="239"/><text fill="#000000" font-family="sans-serif" font-size="14" lengthAdjust="spacing" textLength="96" x="611.5" y="261.9951">VDK Data Job</text></g><!--link VDK CLI to Properties API--><g id="link_VDK CLI_Properties API"><path d="M53.5844,99.913 C52.8504,123.62 55.587,160.624 76.5,183 C102.7271,211.062 199.652,232.3192 269.878,244.4652 " fill="none" id="VDK CLI-to-Properties API" style="stroke:#181818;stroke-width:1.0;"/><polygon fill="#181818" points="274.887,245.3239,266.6932,239.8593,269.959,244.4782,265.3401,247.744,274.887,245.3239" style="stroke:#181818;stroke-width:1.0;"/><text fill="#000000" font-family="sans-serif" font-size="13" lengthAdjust="spacing" textLength="266" x="77.5" y="171.5669">set vdk properties with vdk. config. prefix</text></g><!--link propPlugin to Properties API--><g id="link_propPlugin_Properties API"><path d="M388.756,103.043 C378.509,116.469 367.11,133.7 360.5,151 C350.838,176.288 347.659,207.21 346.701,228.9264 " fill="none" id="propPlugin-to-Properties API" style="stroke:#181818;stroke-width:1.0;"/><polygon fill="#181818" points="346.512,233.9642,350.8478,225.1211,346.7001,228.9677,342.8534,224.8201,346.512,233.9642" style="stroke:#181818;stroke-width:1.0;"/><text fill="#000000" font-family="sans-serif" font-size="13" lengthAdjust="spacing" textLength="254" x="361.5" y="164.0669">fetch vdk properties (vdk.config. prefix)</text><text fill="#000000" font-family="sans-serif" font-size="13" lengthAdjust="spacing" textLength="191" x="393" y="179.1997">during `vdk_configure` phase</text></g><!--link VDK SDK to VDK Data Job--><g id="link_VDK SDK_VDK Data Job"><path d="M543.5585,82.4366 C543.6405,82.4887 543.723,82.5412 543.806,82.5941 C543.972,82.6999 544.1402,82.8071 544.3104,82.916 C544.9912,83.3512 545.7049,83.8109 546.4493,84.2944 C552.4042,88.1621 560.3181,93.5508 568.9896,100.1209 C586.3328,113.261 606.7065,131.1265 620.5,151 C638.258,176.586 649.061,211.255 654.661,233.6278 " fill="none" id="VDK SDK-to-VDK Data Job" style="stroke:#181818;stroke-width:1.0;"/><polygon fill="#181818" points="655.909,238.7604,657.6703,229.0703,654.7281,233.9018,649.8966,230.9597,655.909,238.7604" style="stroke:#181818;stroke-width:1.0;"/><text fill="#000000" font-family="sans-serif" font-size="13" lengthAdjust="spacing" textLength="156" x="637.5" y="171.5669">User runs configured job</text></g><!--SRC=[TP1DIyD048Rl-ojUreiUqX_WGP06nDP3eEYfOFCnILRJcMLtKmNnlxjfC6ahxctddNcUOO9O144X8SWUbN5K1YEiLDb9Nq4lXOEJ3Xjo1rEInfT2VANihJ1nWCwSM7B1aCTzzgZLTvoTqvTqZULJB0_Wd9kEnbgQXnmhAVHbyoPT_qfEHWxLUs8dKL8ArwRPiktwnh16xZ6asV6BgmT7nCCYanv9SlTdLTp2Kq1aOsRZmuHsg2qmMXOnfDfygXF3FxIQGjbUygu7rZdgPijLxmmtsCNmTGnxHplODlUavaCSHMVtYffdJmwkPuzfiiAR53y0]--></g></svg>
