<?xml version="1.0" encoding="us-ascii" standalone="no"?><svg xmlns="http://www.w3.org/2000/svg" xmlns:xlink="http://www.w3.org/1999/xlink" contentStyleType="text/css" height="341px" preserveAspectRatio="none" style="width:1177px;height:341px;background:#FFFFFF;" version="1.1" viewBox="0 0 1177 341" width="1177px" zoomAndPan="magnify"><defs/><g><!--cluster Control Service--><g id="cluster_Control Service"><path d="M436.9038,75.0068 C440.1935,69.514 444.3057,69.5969 447.3811,75.209 C451.7363,68.4401 456.7777,68.923 460.2209,76.0517 C462.3746,70.4815 467.8458,68.8494 471.5171,74.5276 C474.7109,68.6288 478.756,69.1253 482.2322,74.2532 C484.9345,68.5452 488.9555,68.194 492.8831,73.0136 C496.5905,66.514 500.9591,66.152 505.1,72.6048 C507.8364,67.4745 512.8256,68.1555 515.7677,72.37 C519.6507,67.4077 524.8366,68.1886 527.774,73.4775 C531.5511,68.9545 536.3253,68.7226 539.3099,74.3759 C541.8255,68.8155 546.8975,68.1663 550.0999,73.7085 C554.1287,67.5555 558.6929,68.5515 562.5822,73.8604 C565.8283,68.9294 570.0773,68.7793 573.1336,74.0567 C576.7836,68.4284 580.8404,69.663 583.8557,74.6951 C588.0289,70.0879 592.5686,69.4199 595.6241,75.8833 C603.6623,79.1401 604.9382,83.6185 599.0876,90.2287 C606.4939,92.863 605.8352,98.6518 601.0237,103.121 C606.9889,105.6742 607.5302,112.0531 602.7513,116.0427 C608.07,121.2872 605.7897,126.7219 599.5294,129.112 C607.8322,133.9465 607.0633,140.1928 599.1811,144.6648 C603.7322,149.8609 602.7049,155.1772 595.9798,157.5777 C592.967,163.5764 587.7016,162.9588 584.3672,157.916 C582.2813,163.4875 578.3797,164.91 573.6032,160.9567 C570.0054,166.1378 565.5578,167.4489 561.5022,161.4524 C559.2767,167.2765 554.9309,167.0927 551.4925,162.6329 C547.4327,169.2095 543.6687,168.5731 539.2549,162.9892 C536.5945,168.8888 532.4987,170.5054 527.4486,165.6004 C523.7038,170.3249 520.0756,170.5343 516.0537,165.9392 C512.6128,170.2828 507.18,169.1902 505.029,164.3848 C502.5583,169.8943 497.4376,169.2351 494.6517,164.7108 C490.7471,170.2609 485.1418,169.6769 483.158,162.9174 C478.7128,168.1454 473.5438,167.1379 471.1475,160.7913 C467.2446,166.2888 461.9716,165.119 458.9571,159.791 C454.9352,164.9651 450.6805,163.1852 448.1802,158.18 C443.4596,163.5383 439.1351,162.6468 436.6377,156.036 C429.3895,153.574 429.3864,148.2461 433.8943,143.2597 C427.0554,140.3688 425.7835,134.2333 431.3964,129.1397 C424.3984,126.9862 423.3342,121.9999 428.8527,117.1834 C422.4768,111.4187 424.5767,105.5303 431.9152,102.657 C426.0685,96.2757 427.4679,91.768 435.5696,89.1647 C428.7951,84.7701 430.7792,78.186 436.9038,75.0068 " fill="none" style="stroke:#181818;stroke-width:1.0;"/><text fill="#000000" font-family="sans-serif" font-size="14" font-weight="bold" lengthAdjust="spacing" textLength="123" x="454" y="92.9951">Control Service</text></g><!--cluster VDK SDK--><g id="cluster_VDK SDK"><rect fill="none" height="182" rx="2.5" ry="2.5" style="stroke:#181818;stroke-width:1.0;" width="280" x="891" y="15"/><text fill="#000000" font-family="sans-serif" font-size="14" font-weight="bold" lengthAdjust="spacing" textLength="68" x="997" y="29.9951">VDK SDK</text></g><!--cluster vdk-plugin-control-cli--><g id="cluster_vdk-plugin-control-cli"><path d="M917.5,58 L1092.5,58 A3.75,3.75 0 0 1 1095,60.5 L1102,80.2969 L1144.5,80.2969 A2.5,2.5 0 0 1 1147,82.7969 L1147,170.5 A2.5,2.5 0 0 1 1144.5,173 L917.5,173 A2.5,2.5 0 0 1 915,170.5 L915,60.5 A2.5,2.5 0 0 1 917.5,58 " fill="none" style="stroke:#000000;stroke-width:1.5;"/><line style="stroke:#000000;stroke-width:1.5;" x1="915" x2="1102" y1="80.2969" y2="80.2969"/><text fill="#000000" font-family="sans-serif" font-size="14" font-weight="bold" lengthAdjust="spacing" textLength="174" x="919" y="72.9951">vdk-plugin-control-cli</text></g><!--cluster Client--><g id="cluster_Client"><path d="M8.5,6 L56.5,6 A3.75,3.75 0 0 1 59,8.5 L66,28.2969 L125.5,28.2969 A2.5,2.5 0 0 1 128,30.7969 L128,181.5 A2.5,2.5 0 0 1 125.5,184 L8.5,184 A2.5,2.5 0 0 1 6,181.5 L6,8.5 A2.5,2.5 0 0 1 8.5,6 " fill="none" style="stroke:#000000;stroke-width:1.5;"/><line style="stroke:#000000;stroke-width:1.5;" x1="6" x2="66" y1="28.2969" y2="28.2969"/><text fill="#000000" font-family="sans-serif" font-size="14" font-weight="bold" lengthAdjust="spacing" textLength="47" x="10" y="20.9951">Client</text></g><!--entity Properties API--><g id="elem_Properties API"><rect fill="#F1F1F1" height="46.2969" rx="2.5" ry="2.5" style="stroke:#181818;stroke-width:0.5;" width="143" x="444" y="102"/><rect fill="#F1F1F1" height="10" style="stroke:#181818;stroke-width:0.5;" width="15" x="567" y="107"/><rect fill="#F1F1F1" height="2" style="stroke:#181818;stroke-width:0.5;" width="4" x="565" y="109"/><rect fill="#F1F1F1" height="2" style="stroke:#181818;stroke-width:0.5;" width="4" x="565" y="113"/><text fill="#000000" font-family="sans-serif" font-size="14" lengthAdjust="spacing" textLength="103" x="459" y="134.9951">Properties API</text></g><!--entity propPlugin--><g id="elem_propPlugin"><rect fill="#008000" height="62.5938" rx="2.5" ry="2.5" style="stroke:#181818;stroke-width:0.5;" width="200" x="931" y="93.5"/><rect fill="#008000" height="10" style="stroke:#181818;stroke-width:0.5;" width="15" x="1111" y="98.5"/><rect fill="#008000" height="2" style="stroke:#181818;stroke-width:0.5;" width="4" x="1109" y="100.5"/><rect fill="#008000" height="2" style="stroke:#181818;stroke-width:0.5;" width="4" x="1109" y="104.5"/><text fill="#000000" font-family="sans-serif" font-size="14" lengthAdjust="spacing" textLength="160" x="946" y="126.4951">vdk-properties-config</text><text fill="#000000" font-family="sans-serif" font-size="14" lengthAdjust="spacing" textLength="44" x="946" y="142.792">plugin</text></g><!--entity Web UI--><g id="elem_Web UI"><rect fill="#F1F1F1" height="46.2969" rx="2.5" ry="2.5" style="stroke:#181818;stroke-width:0.5;" width="90" x="22" y="41"/><rect fill="#F1F1F1" height="10" style="stroke:#181818;stroke-width:0.5;" width="15" x="92" y="46"/><rect fill="#F1F1F1" height="2" style="stroke:#181818;stroke-width:0.5;" width="4" x="90" y="48"/><rect fill="#F1F1F1" height="2" style="stroke:#181818;stroke-width:0.5;" width="4" x="90" y="52"/><text fill="#000000" font-family="sans-serif" font-size="14" lengthAdjust="spacing" textLength="50" x="37" y="73.9951">Web UI</text></g><!--entity CLI--><g id="elem_CLI"><rect fill="#F1F1F1" height="46.2969" rx="2.5" ry="2.5" style="stroke:#181818;stroke-width:0.5;" width="62" x="36" y="122"/><rect fill="#F1F1F1" height="10" style="stroke:#181818;stroke-width:0.5;" width="15" x="78" y="127"/><rect fill="#F1F1F1" height="2" style="stroke:#181818;stroke-width:0.5;" width="4" x="76" y="129"/><rect fill="#F1F1F1" height="2" style="stroke:#181818;stroke-width:0.5;" width="4" x="76" y="133"/><text fill="#000000" font-family="sans-serif" font-size="14" lengthAdjust="spacing" textLength="22" x="51" y="154.9951">CLI</text></g><!--link Web UI to Properties API--><g id="link_Web UI_Properties API"><path d="M112.033,69.406 C177.509,77.524 304.384,93.564 412,109 C420.725,110.251 429.859,111.609 438.928,112.987 " fill="none" id="Web UI-to-Properties API" style="stroke:#181818;stroke-width:1.0;"/><polygon fill="#181818" points="443.957,113.7534,435.6635,108.4413,439.0142,112.999,434.4565,116.3498,443.957,113.7534" style="stroke:#181818;stroke-width:1.0;"/><text fill="#000000" font-family="sans-serif" font-size="13" lengthAdjust="spacing" textLength="266" x="145" y="70.0669">set vdk properties with vdk. config. prefix</text></g><!--link CLI to Properties API--><g id="link_CLI_Properties API"><path d="M98.373,143.7283 C158.334,141.2062 296.152,135.3513 412,130 C420.71,129.5977 429.835,129.1665 438.899,128.7321 " fill="none" id="CLI-to-Properties API" style="stroke:#181818;stroke-width:1.0;"/><polygon fill="#181818" points="443.925,128.4906,434.7434,124.9272,438.9308,128.7306,435.1274,132.918,443.925,128.4906" style="stroke:#181818;stroke-width:1.0;"/><text fill="#000000" font-family="sans-serif" font-size="13" lengthAdjust="spacing" textLength="266" x="145" y="126.0669">set vdk properties with vdk. config. prefix</text></g><!--reverse link Properties API to propPlugin--><g id="link_Properties API_propPlugin"><path d="M592.116,125 C681.847,125 831.737,125 930.733,125 " fill="none" id="Properties API-backto-propPlugin" style="stroke:#181818;stroke-width:1.0;"/><polygon fill="#181818" points="587.092,125,596.092,129,592.092,125,596.092,121,587.092,125" style="stroke:#181818;stroke-width:1.0;"/><text fill="#000000" font-family="sans-serif" font-size="13" lengthAdjust="spacing" textLength="254" x="620" y="106.0669">fetch vdk properties (vdk.config. prefix)</text><text fill="#000000" font-family="sans-serif" font-size="13" lengthAdjust="spacing" textLength="191" x="651.5" y="121.1997">during `vdk_configure` phase</text></g><rect fill="#DDDDDD" height="107.7813" id="_legend" rx="7.5" ry="7.5" style="stroke:#000000;stroke-width:1.0;" width="629" x="267" y="214"/><text fill="#000000" font-family="sans-serif" font-size="14" lengthAdjust="spacing" textLength="401" x="272" y="231.9951">This is a component diagram for the proposed changes.</text><text fill="#000000" font-family="sans-serif" font-size="14" lengthAdjust="spacing" textLength="225" x="272" y="248.292">The new additions are in green.</text><text fill="#000000" font-family="sans-serif" font-size="14" lengthAdjust="spacing" textLength="241" x="272" y="264.5889">The arrows represent operations.</text><text fill="#000000" font-family="sans-serif" font-size="14" lengthAdjust="spacing" textLength="483" x="272" y="280.8857">It shows user would set the vdk config in Properties API with prefix.</text><text fill="#000000" font-family="sans-serif" font-size="14" lengthAdjust="spacing" textLength="394" x="272" y="297.1826">Then during run of a job it can be fetched by VDK SDK.</text><text fill="#000000" font-family="sans-serif" font-size="14" lengthAdjust="spacing" textLength="619" x="272" y="313.4795">The new plugin will be built within the existing vdk-plugin-control-cli python package.</text><!--SRC=[hP9FRzGm4CNl-HHFuGA7v0DmG49R2QtAOQNovq0HTPn9FDIrhR7Jj4BxtR6JT6bXZqW-sJE_zsQUBGq9oKDuD0az2-d4tbMLfP5SNm6V34Vaew3zNV2ENAbJewWx35wG32683pvI3ssK6ocsIn_1qGpLzroGcI04TXY5oBNOIfI8doE4Wb0iR1z8rD9GAFk4Q4h154am-ydsY9GMrVl-Ddjo0uy5Uv3IcPWYtX_sc3cPx8i6VdZISkWdOJT29WS_v8b- -WwSe9L3HnWeQPE7w1xnvU8ILnUN9vTba62dCUlCR6sfxYQsQP79byKEFN1C1PzzDMjna-qbyRRHbX4Ua_4EGUbRDL9RvVLkIwwqzLEFUhTMuuhadZNL-9NbyMplzSiXw-fOLIMnl7HBg3VNQz-cW_gydJFmfV0aqAohlNPhRmqLbvmFwnfUVIWnPiInc3Y9xIndrXFysrVgy7d_7KtpxX_pUBiaMLByexhcbk_QBTfs2t7bxJx-7zWHrRDPcYcSHou_uc_ewm9yoNjpxRQlTPCVVwoFaz0DWb6HVWC0]--></g></svg>
