<?xml version="1.0" encoding="utf-8"?><svg id="a7ad5b9a-6671-400e-9505-a737e2450960" data-name="Layer 1" xmlns="http://www.w3.org/2000/svg" xmlns:xlink="http://www.w3.org/1999/xlink" width="327.26" height="295.57" viewBox="0 0 327.26 295.57"><defs><linearGradient id="bdf001b5-3423-446f-89fb-9f10e43f59c1" x1="59.42" y1="34.13" x2="320.86" y2="34.13" gradientTransform="matrix(1, 0, 0, -1, 0, 298)" gradientUnits="userSpaceOnUse"><stop offset="0.13" stop-color="#81c6ed" stop-opacity="0"/><stop offset="0.19" stop-color="#81c6ed" stop-opacity="0.1"/><stop offset="0.32" stop-color="#81c6ed" stop-opacity="0.27"/><stop offset="0.43" stop-color="#81c6ed" stop-opacity="0.4"/><stop offset="0.53" stop-color="#81c6ed" stop-opacity="0.47"/><stop offset="0.6" stop-color="#81c6ed" stop-opacity="0.5"/></linearGradient><linearGradient id="ee77c08d-b191-4b15-b3a5-8814fef4fb80" x1="10848.03" y1="83.45" x2="10848.03" y2="170.4" gradientTransform="translate(11069.83 233.56) rotate(179.43)" gradientUnits="userSpaceOnUse"><stop offset="0" stop-color="#22b9a5"/><stop offset="0.28" stop-color="#22b9a5"/><stop offset="0.84" stop-color="#08968b"/><stop offset="1" stop-color="#08968b"/></linearGradient><linearGradient id="a3389440-a544-4f8e-9e5f-ef5a96b1899d" x1="195.5" y1="36.18" x2="240" y2="36.18" gradientTransform="matrix(1, 0, 0, -1, 0, 298)" gradientUnits="userSpaceOnUse"><stop offset="0.28" stop-color="#3673ac"/><stop offset="1" stop-color="#4896d1"/></linearGradient><linearGradient id="ed750c3e-8b98-4a34-9843-2a09fe37a27a" x1="11026.43" y1="2491.25" x2="10958.49" y2="2429.67" gradientTransform="matrix(-0.92, 0.39, -0.39, -0.92, 11254.29, -1952.45)" gradientUnits="userSpaceOnUse"><stop offset="0.13" stop-color="#cee6f7"/><stop offset="0.24" stop-color="#c7e3f6"/><stop offset="0.38" stop-color="#b5dcf4"/><stop offset="0.55" stop-color="#97cff0"/><stop offset="0.66" stop-color="#81c6ed"/></linearGradient><linearGradient id="f55000b1-a443-4c57-a212-90e952823da3" x1="10969.87" y1="2472.83" x2="11024.48" y2="2472.83" gradientTransform="matrix(-0.92, 0.39, -0.39, -0.92, 11254.29, -1952.45)" xlink:href="#ee77c08d-b191-4b15-b3a5-8814fef4fb80"/><linearGradient id="b7604b30-0ffb-47a0-a2be-5b1ac394f284" x1="116.2" y1="157.47" x2="168.71" y2="157.47" gradientTransform="matrix(1, 0, 0, -1, 0, 298)" gradientUnits="userSpaceOnUse"><stop offset="0.28" stop-color="#22b9a5"/><stop offset="0.84" stop-color="#02958a"/></linearGradient><linearGradient id="bfa1b81c-6566-4639-a2d2-9c6217e7639d" x1="137.14" y1="165.96" x2="108.59" y2="158.63" gradientUnits="userSpaceOnUse"><stop offset="0" stop-color="#2b6396"/><stop offset="0.99" stop-color="#4896d1"/></linearGradient><linearGradient id="ad9e05f9-7f4c-4bc4-8d22-9a73b0282cb9" x1="10897.78" y1="-110.08" x2="10897.78" y2="-19.31" gradientTransform="matrix(-1, 0.01, -0.01, -0.93, 11068.43, 48.05)" xlink:href="#ee77c08d-b191-4b15-b3a5-8814fef4fb80"/><linearGradient id="fecbe6ac-6d39-4a20-9d8b-1803be9a549e" x1="10884.13" y1="2352.74" x2="10884.13" y2="2241.84" gradientTransform="translate(11176.87 -1702.82) rotate(158.3)" gradientUnits="userSpaceOnUse"><stop offset="0.48" stop-color="#cee6f7"/><stop offset="0.58" stop-color="#c7e3f6"/><stop offset="0.72" stop-color="#b5dcf4"/><stop offset="0.89" stop-color="#97cff0"/><stop offset="1" stop-color="#81c6ed"/></linearGradient><linearGradient id="affe81a5-0ed4-4ac8-b604-9ffb2987c349" x1="10605.39" y1="2620.19" x2="10561.25" y2="2620.19" gradientTransform="matrix(-0.88, 0.47, -0.47, -0.88, 10767.87, -2532.61)" gradientUnits="userSpaceOnUse"><stop offset="0" stop-color="#4896d1"/><stop offset="1" stop-color="#81c6ed"/></linearGradient><linearGradient id="f430719d-a31b-499b-97a3-17d41ba96b8d" x1="134.17" y1="36.18" x2="178.67" y2="36.18" gradientTransform="matrix(1, 0, 0, -1, 0, 298)" gradientUnits="userSpaceOnUse"><stop offset="0.46" stop-color="#3673ac"/><stop offset="1" stop-color="#4896d1"/></linearGradient><linearGradient id="e2830ba9-8346-4358-9c2d-3f4a717006e5" x1="10846.94" y1="2353.14" x2="10899.4" y2="2405.6" gradientTransform="translate(11176.87 -1702.82) rotate(158.3)" gradientUnits="userSpaceOnUse"><stop offset="0" stop-color="#eaf7ff"/><stop offset="0.32" stop-color="#cfe6f7"/><stop offset="0.33" stop-color="#cee6f7"/><stop offset="0.74" stop-color="#9bd1f0"/></linearGradient><linearGradient id="e8e4b104-a691-4ad9-a56d-64db1a4b31ce" x1="152.39" y1="174.34" x2="209.36" y2="191.02" gradientTransform="matrix(1, 0, 0, -1, 0, 298)" gradientUnits="userSpaceOnUse"><stop offset="0" stop-color="#fff"/><stop offset="1" stop-color="#fff" stop-opacity="0"/></linearGradient><linearGradient id="a2c72ca1-2267-457f-8f01-ee050295f043" x1="10525.29" y1="3214.12" x2="10550.81" y2="3214.12" gradientTransform="translate(10489.78 -3920.13) rotate(141.52)" xlink:href="#b7604b30-0ffb-47a0-a2be-5b1ac394f284"/><linearGradient id="b00c802e-7e72-48d7-8664-b39145f3fd21" x1="263.17" y1="201.8" x2="300.85" y2="201.8" gradientTransform="matrix(0.12, 0.99, 0.99, -0.12, 28.98, -86.04)" xlink:href="#a3389440-a544-4f8e-9e5f-ef5a96b1899d"/><linearGradient id="b250e118-e380-4970-a9b3-f80779256240" x1="76.18" y1="160.06" x2="108.23" y2="160.06" gradientTransform="matrix(0.71, 0.71, 0.71, -0.71, -86.18, 185.92)" xlink:href="#affe81a5-0ed4-4ac8-b604-9ffb2987c349"/><linearGradient id="bed636ac-2a55-434d-aef6-6cc6a5046df3" x1="55.42" y1="202.68" x2="34.29" y2="218.53" gradientTransform="matrix(1, 0, 0, -1, 0, 298)" xlink:href="#affe81a5-0ed4-4ac8-b604-9ffb2987c349"/><linearGradient id="b021a23d-905f-45a2-97de-11821efaa8f8" x1="135.94" y1="156.15" x2="112.73" y2="150.2" xlink:href="#bfa1b81c-6566-4639-a2d2-9c6217e7639d"/><linearGradient id="ad50504b-f1a8-4ae3-8623-260edb5560bb" x1="23.54" y1="211.03" x2="78.63" y2="178.7" gradientTransform="matrix(1, 0, 0, -1, 0, 298)" gradientUnits="userSpaceOnUse"><stop offset="0" stop-color="#81c6ed" stop-opacity="0.5"/><stop offset="0.13" stop-color="#81c6ed" stop-opacity="0.47"/><stop offset="0.32" stop-color="#81c6ed" stop-opacity="0.4"/><stop offset="0.53" stop-color="#81c6ed" stop-opacity="0.27"/><stop offset="0.77" stop-color="#81c6ed" stop-opacity="0.1"/><stop offset="0.88" stop-color="#81c6ed" stop-opacity="0"/></linearGradient><linearGradient id="be7a7447-26f8-4382-a15c-bbdf7cf5a779" x1="6.4" y1="200.01" x2="79.51" y2="200.01" gradientTransform="matrix(1, 0, 0, -1, 0, 298)" xlink:href="#affe81a5-0ed4-4ac8-b604-9ffb2987c349"/><linearGradient id="ada4d779-1114-4e04-93d6-b2b8bb0efda2" x1="13.02" y1="196.89" x2="67" y2="196.89" gradientTransform="matrix(1, 0, 0, -1, 0, 298)" xlink:href="#affe81a5-0ed4-4ac8-b604-9ffb2987c349"/></defs><title>robot magnifying glass</title><ellipse cx="190.14" cy="263.87" rx="130.72" ry="25.91" fill="url(#bdf001b5-3423-446f-89fb-9f10e43f59c1)"/><path d="M223.16,267.07c-.43-.86-10.63-21.27-13.73-39.88-3.59-21.55,4.88-45.95,5.24-47l10.38,3.65c-.08.23-7.89,22.81-4.77,41.52,2.83,17,12.61,36.55,12.71,36.75Z" fill="url(#ee77c08d-b191-4b15-b3a5-8814fef4fb80)"/><path d="M222.2,252.86A17.65,17.65,0,0,1,240,270.32l-44.5.47S203.28,253.06,222.2,252.86Z" fill-rule="evenodd" fill="url(#a3389440-a544-4f8e-9e5f-ef5a96b1899d)"/><rect x="149.94" y="17.88" width="2" height="41.57" transform="translate(-4.74 45.2) rotate(-16.77)" fill="#4896d1"/><circle cx="144.51" cy="17.34" r="4.04" fill="#4896d1"/><path d="M218,89,204.9,47.21a28.65,28.65,0,0,0-35.16-18.09h0a28.67,28.67,0,0,0-20.2,32.05l12,46.2Z" fill="url(#ed750c3e-8b98-4a34-9843-2a09fe37a27a)"/><circle cx="167.57" cy="63.53" r="15.14" fill="url(#f55000b1-a443-4c57-a212-90e952823da3)"/><path d="M133.7,164.2h-1.22L121,163.7a5,5,0,0,1,.41-10l11.52.47a19.7,19.7,0,0,0,19.51-13.6l6.5-20.21a5,5,0,1,1,9.54,3l0,.07L162,143.63A29.74,29.74,0,0,1,133.7,164.2Z" fill="url(#b7604b30-0ffb-47a0-a2be-5b1ac394f284)"/><path d="M126.66,154.7a15,15,0,0,0-4-7.62c-7.11,8.21-21.46,15.22-24.36,16.74,2.82,7.46,10.3,11.94,17.64,10.18C124,172.08,128.75,163.44,126.66,154.7Z" fill="url(#bfa1b81c-6566-4639-a2d2-9c6217e7639d)"/><path d="M161.71,266.33c-.32-.94-8-23.22-7.25-39.28,1.1-24.13,25.95-44.07,27-44.91l6.58,8.29c-.23.18-22.13,17.81-23,37.1-.63,14,6.61,35.13,6.68,35.34Z" fill="url(#ad9e05f9-7f4c-4bc4-8d22-9a73b0282cb9)"/><path d="M156.57,99.35l53.89-16.54,28.87,103.07-64.91,14.53A13.7,13.7,0,0,1,158.08,190c0-.13-.05-.27-.08-.4l-12.47-63.13Z" fill-rule="evenodd" fill="url(#fecbe6ac-6d39-4a20-9d8b-1803be9a549e)"/><path d="M227.52,79.48l-17.06,3.33-8.71,26.82L215.81,171a19.68,19.68,0,0,0,23.49,14.93h0a21.41,21.41,0,0,0,16.2-25.58c-.06-.27-.13-.54-.2-.8l-11-41.25C236.94,91.66,227.52,79.48,227.52,79.48Z" fill-rule="evenodd" fill="url(#affe81a5-0ed4-4ac8-b604-9ffb2987c349)"/><line x1="156.62" y1="179.77" x2="254.1" y2="154.93" fill="none" stroke="#4896d1" stroke-miterlimit="10" stroke-width="2"/><path d="M191.64,127l5.73,24.25a4.11,4.11,0,0,1-2.93,4.91l-23.77,6.4a4.1,4.1,0,0,1-5-2.89c0-.06,0-.11,0-.17l-5.38-24a4.1,4.1,0,0,1,2.89-4.85L186.53,124a4.09,4.09,0,0,1,5.06,2.82A1.21,1.21,0,0,1,191.64,127Z" fill="#81c6ed"/><path d="M160.84,252.86a17.65,17.65,0,0,1,17.83,17.46l-44.5.47S141.92,253.06,160.84,252.86Z" fill-rule="evenodd" fill="url(#f430719d-a31b-499b-97a3-17d41ba96b8d)"/><polygon points="201.75 109.63 145.51 126.49 156.57 99.35 210.46 82.81 201.75 109.63" fill-rule="evenodd" fill="url(#e2830ba9-8346-4358-9c2d-3f4a717006e5)"/><polygon points="201.75 109.63 145.51 126.49 145.95 125.33 202.15 108.27 201.75 109.63" fill-rule="evenodd" fill="url(#e8e4b104-a691-4ad9-a56d-64db1a4b31ce)"/><path d="M265.9,161.92c-.26,0-.51,0-.77,0a5.51,5.51,0,0,1-5-5.93c1.08-13.2-1.7-23.78-8.25-31.45-10-11.68-25.39-13-25.55-13a5.52,5.52,0,0,1,.83-11c.82.06,20.16,1.68,33.08,16.8,8.53,10,12.18,23.27,10.85,39.49A5.5,5.5,0,0,1,265.9,161.92Z" fill="url(#a2c72ca1-2267-457f-8f01-ee050295f043)"/><circle cx="262.07" cy="164.86" r="13.51" transform="translate(57.36 397.14) rotate(-80.78)" fill="url(#b00c802e-7e72-48d7-8664-b39145f3fd21)"/><rect x="88.16" y="119.31" width="8.08" height="37.25" transform="translate(-70.53 105.6) rotate(-45)" fill="url(#b250e118-e380-4970-a9b3-f80779256240)"/><path d="M65.68,75.26c-18.16-18.16-40-25.8-48.74-17.1h0L10.13,65l3.16,3.16C13.21,78.77,20.84,93.82,34,107s28.18,20.77,38.82,20.69L76,130.81,82.78,124h0C91.48,115.22,83.83,93.42,65.68,75.26Z" fill="url(#bed636ac-2a55-434d-aef6-6cc6a5046df3)"/><ellipse cx="43.56" cy="97.95" rx="20.37" ry="40.17" transform="translate(-56.5 59.49) rotate(-45)" fill="#fff"/><rect x="94.47" y="142.3" width="12.45" height="8.24" transform="translate(-74.04 114.09) rotate(-45)" fill="#475b6b"/><path d="M90.58,145.44l9.13-9.14a2.51,2.51,0,0,1,3.55,0h0a2.51,2.51,0,0,1,0,3.55L94.12,149a2.51,2.51,0,0,1-3.54,0h0A2.51,2.51,0,0,1,90.58,145.44Z" fill="#475b6b"/><rect x="108.41" y="140.56" width="17.94" height="45.09" rx="2.84" transform="translate(-80.95 130.77) rotate(-45)" fill="#475b6b"/><path d="M126.66,154.7a17.22,17.22,0,0,0-4-7.62l-17.19,3,0,0,0,.29a4.31,4.31,0,0,0,4.09,4.51l17.31.84C126.81,155.43,126.75,155.07,126.66,154.7Z" fill="url(#b021a23d-905f-45a2-97de-11821efaa8f8)"/><path d="M32.51,67.9v48.58C47.31,129.35,64,134,71.27,126.71c8-8,1.68-27.12-14-42.8C49.27,75.91,40.37,70.37,32.51,67.9Z" fill="url(#ad50504b-f1a8-4ae3-8623-260edb5560bb)"/><path d="M10,65.07c-8.72,8.75-1.08,30.58,17.1,48.76s40,25.83,48.77,17.07S77,100.32,58.8,82.14,18.79,56.32,10,65.07ZM70,125c-7.19,7.19-25.11.92-40-14S8.81,78.16,16,71s25-.94,40,14S77.15,117.82,70,125Z" fill="url(#be7a7447-26f8-4382-a15c-bbdf7cf5a779)"/><path d="M178.66,149.61a1.5,1.5,0,0,1-1.78-1.15l-.35-1.59a4.89,4.89,0,0,1,2-5,3.85,3.85,0,1,0-6-2.35,1.5,1.5,0,0,1-2.9.76l0-.13a6.86,6.86,0,1,1,10.66,4.17,1.89,1.89,0,0,0-.79,2l.34,1.59A1.49,1.49,0,0,1,178.66,149.61Z" fill="#cee6f7"/><circle cx="179.7" cy="153.83" r="2.33" fill="#cee6f7"/><path d="M14,74.12c-3.57,8.41,2.86,23.88,16,37s28.62,19.58,37,16c-9.92-2.07-22.1-9.16-33-20S16.06,84,14,74.12Z" opacity="0.3" fill="url(#ada4d779-1114-4e04-93d6-b2b8bb0efda2)" style="isolation:isolate"/><ellipse cx="157.72" cy="66.37" rx="2.97" ry="3" transform="translate(-8.67 26.42) rotate(-9.32)" fill="#fffcc0"/><ellipse cx="169.17" cy="64.91" rx="3.33" ry="3.5" transform="translate(98.48 231.75) rotate(-88.03)" fill="#fffcc0"/></svg>
