<?xml version="1.0" encoding="utf-8"?><svg id="bf65629e-96d9-4515-a132-eb835e4dca5d" data-name="Layer 1" xmlns="http://www.w3.org/2000/svg" xmlns:xlink="http://www.w3.org/1999/xlink" width="468.97" height="295.57" viewBox="0 0 763.04 480.91"><defs><linearGradient id="f225dec3-17d8-40ed-ae8d-fb4fc5d1d286" x1="333.16" y1="4.01" x2="333.16" y2="475.62" gradientUnits="userSpaceOnUse"><stop offset="0.17" stop-color="#81c6ed" stop-opacity="0"/><stop offset="0.21" stop-color="#81c6ed" stop-opacity="0.1"/><stop offset="0.3" stop-color="#81c6ed" stop-opacity="0.27"/><stop offset="0.38" stop-color="#81c6ed" stop-opacity="0.4"/><stop offset="0.45" stop-color="#81c6ed" stop-opacity="0.47"/><stop offset="0.5" stop-color="#81c6ed" stop-opacity="0.5"/><stop offset="0.57" stop-color="#81c6ed" stop-opacity="0.47"/><stop offset="0.68" stop-color="#81c6ed" stop-opacity="0.4"/><stop offset="0.8" stop-color="#81c6ed" stop-opacity="0.27"/><stop offset="0.93" stop-color="#81c6ed" stop-opacity="0.1"/><stop offset="1" stop-color="#81c6ed" stop-opacity="0"/></linearGradient><linearGradient id="fcacf11e-40d4-4f92-abbb-bcaa7c88d506" x1="467.3" y1="79.23" x2="467.3" y2="475.62" gradientUnits="userSpaceOnUse"><stop offset="0.28" stop-color="#81c6ed" stop-opacity="0"/><stop offset="0.38" stop-color="#81c6ed" stop-opacity="0.1"/><stop offset="0.57" stop-color="#81c6ed" stop-opacity="0.27"/><stop offset="0.74" stop-color="#81c6ed" stop-opacity="0.4"/><stop offset="0.89" stop-color="#81c6ed" stop-opacity="0.47"/><stop offset="1" stop-color="#81c6ed" stop-opacity="0.5"/></linearGradient><linearGradient id="faedf9be-663b-42b7-80ff-5a4c32dc21c4" x1="579.23" y1="432.78" x2="504.32" y2="432.78" gradientUnits="userSpaceOnUse"><stop offset="0.34" stop-color="#22b9a5"/><stop offset="0.96" stop-color="#02958a"/></linearGradient><linearGradient id="be76c02c-3af8-40eb-a522-e438730ea81a" x1="-414.73" y1="1820.11" x2="-352.3" y2="1820.11" gradientTransform="matrix(0.49, 0.87, 0.87, -0.49, -870.03, 1478.64)" gradientUnits="userSpaceOnUse"><stop offset="0.28" stop-color="#22b9a5"/><stop offset="0.84" stop-color="#02958a"/></linearGradient><linearGradient id="a184d21e-9efb-4382-9e11-566b2c9d8976" x1="511.83" y1="289.25" x2="511.83" y2="406.66" gradientUnits="userSpaceOnUse"><stop offset="0.78" stop-color="#cee6f7"/><stop offset="1" stop-color="#81c6ed"/></linearGradient><linearGradient id="e2d7019d-583b-4944-b67b-da755cfc9621" x1="424.3" y1="349.27" x2="548.74" y2="349.27" gradientUnits="userSpaceOnUse"><stop offset="0.49" stop-color="#4896d1"/><stop offset="1" stop-color="#81c6ed"/></linearGradient></defs><title>Artboard 18</title><circle cx="211.03" cy="185.33" r="56.72" fill="none" stroke="#81c6ed" stroke-linecap="round" stroke-linejoin="round" stroke-width="3"/><circle cx="653.06" cy="309.45" r="32.72" fill="none" stroke="#81c6ed" stroke-linecap="round" stroke-linejoin="round" stroke-width="3"/><circle cx="691.06" cy="238.59" r="16.26" fill="none" stroke="#81c6ed" stroke-linecap="round" stroke-linejoin="round" stroke-width="3"/><polygon points="663.9 4.01 196.28 475.63 2.42 475.63 468.95 5.09 663.9 4.01" fill="url(#f225dec3-17d8-40ed-ae8d-fb4fc5d1d286)"/><polygon points="758.65 79.23 364.58 475.63 175.95 475.63 569.3 79.95 758.65 79.23" fill="url(#fcacf11e-40d4-4f92-abbb-bcaa7c88d506)"/><polygon points="447.72 475.63 217.55 475.63 217.55 71.22 256.46 46.73 447.72 475.63" fill="#1c4077"/><path d="M568.72,395.19s-20.91,51.27-3.39,66.76c19.08,16.86,59.6-19.67,59.6-19.67" fill="none" stroke="#61c3b4" stroke-miterlimit="10" stroke-width="12.4" fill-rule="evenodd"/><path d="M520,395.19s-19.69,51.27-2.16,66.76c19.07,16.86,57.15-19.67,57.15-19.67" fill="none" stroke-miterlimit="10" stroke-width="12.4" fill-rule="evenodd" stroke="url(#faedf9be-663b-42b7-80ff-5a4c32dc21c4)"/><path d="M506.78,303.63s-9.82-51.78,56-88.34" fill="none" stroke-linecap="round" stroke-miterlimit="10" stroke-width="12.4" fill-rule="evenodd" stroke="url(#be76c02c-3af8-40eb-a522-e438730ea81a)"/><path d="M565.17,222.16l-6.39-11.5a17.53,17.53,0,0,1,5.76-23.23c.34-.23.7-.45,1.06-.68a17.52,17.52,0,0,1,24.6,6.39h0S570.32,209.09,565.17,222.16Z" fill="#1c4077"/><polygon points="580.97 222.76 565.17 222.16 558.91 210.9 581.03 216.75 580.97 222.76" fill="#1c4077"/><path d="M590.6,395.07a30.11,30.11,0,0,0,.1-40c-17.18-19.46-52.47-48.44-79-57.93-45.5-16.32-95.45-3.81-84.91,5.39,6.61,5.76,66.85,80.87,88.23,102.38,0,0,59.93,7.82,75.53-9.87Z" fill="url(#a184d21e-9efb-4382-9e11-566b2c9d8976)"/><path d="M541.1,395.07a30.11,30.11,0,0,0,.1-40c-17.18-19.46-46.32-47-81.4-57.93-56.88-17.8-30.89,32.78-20.35,42,6.6,5.76,36.44,35.61,57.82,57.11a30.11,30.11,0,0,0,43.83-1.19Z" fill="url(#e2d7019d-583b-4944-b67b-da755cfc9621)"/><rect x="256.46" y="46.73" width="230.17" height="428.89" fill="#4896d1"/><rect x="270.25" y="64.27" width="203.06" height="32.63" fill="#1c4077"/><rect x="286" y="85.64" width="39.14" height="3.84" fill="#000430"/><rect x="332.63" y="85.64" width="39.14" height="3.84" fill="#000430"/><rect x="286" y="78.66" width="39.14" height="3.84" fill="#000430"/><rect x="332.63" y="78.66" width="39.14" height="3.84" fill="#000430"/><rect x="286" y="71.68" width="39.14" height="3.84" fill="#000430"/><rect x="332.63" y="71.68" width="39.14" height="3.84" fill="#000430"/><line x1="277.93" y1="71.68" x2="277.93" y2="89.48" fill="none" stroke="#81c6ed" stroke-linecap="round" stroke-miterlimit="10" stroke-width="2.81"/><line x1="465.87" y1="71.68" x2="465.87" y2="89.48" fill="none" stroke="#81c6ed" stroke-linecap="round" stroke-miterlimit="10" stroke-width="2.81"/><circle cx="429.44" cy="80.82" r="2.41" fill="#abcf37"/><circle cx="439.21" cy="80.82" r="2.41" fill="#abcf37"/><circle cx="448.99" cy="80.82" r="2.41" fill="#abcf37"/><rect x="270.25" y="101.34" width="203.06" height="32.63" fill="#1c4077"/><rect x="286" y="122.71" width="39.14" height="3.84" fill="#000430"/><rect x="332.63" y="122.71" width="39.14" height="3.84" fill="#000430"/><rect x="286" y="115.73" width="39.14" height="3.84" fill="#000430"/><rect x="332.63" y="115.73" width="39.14" height="3.84" fill="#000430"/><rect x="286" y="108.76" width="39.14" height="3.84" fill="#000430"/><rect x="332.63" y="108.76" width="39.14" height="3.84" fill="#000430"/><line x1="277.93" y1="108.76" x2="277.93" y2="126.55" fill="none" stroke="#81c6ed" stroke-linecap="round" stroke-miterlimit="10" stroke-width="2.81"/><line x1="465.87" y1="108.76" x2="465.87" y2="126.55" fill="none" stroke="#81c6ed" stroke-linecap="round" stroke-miterlimit="10" stroke-width="2.81"/><circle cx="429.44" cy="117.9" r="2.41" fill="#f8c22c"/><circle cx="439.21" cy="117.9" r="2.41" fill="#f8c22c"/><circle cx="448.99" cy="117.9" r="2.41" fill="#f8c22c"/><rect x="270.25" y="138.42" width="203.06" height="32.63" fill="#1c4077"/><rect x="286" y="159.79" width="39.14" height="3.84" fill="#000430"/><rect x="332.63" y="159.79" width="39.14" height="3.84" fill="#000430"/><rect x="286" y="152.81" width="39.14" height="3.84" fill="#000430"/><rect x="332.63" y="152.81" width="39.14" height="3.84" fill="#000430"/><rect x="286" y="145.83" width="39.14" height="3.84" fill="#000430"/><rect x="332.63" y="145.83" width="39.14" height="3.84" fill="#000430"/><line x1="277.93" y1="145.83" x2="277.93" y2="163.63" fill="none" stroke="#81c6ed" stroke-linecap="round" stroke-miterlimit="10" stroke-width="2.81"/><line x1="465.87" y1="145.83" x2="465.87" y2="163.63" fill="none" stroke="#81c6ed" stroke-linecap="round" stroke-miterlimit="10" stroke-width="2.81"/><circle cx="429.44" cy="154.97" r="2.41" fill="#f8c22c"/><circle cx="439.21" cy="154.97" r="2.41" fill="#f8c22c"/><circle cx="448.99" cy="154.97" r="2.41" fill="#f8c22c"/><rect x="270.25" y="175.49" width="203.06" height="32.63" fill="#1c4077"/><rect x="286" y="196.86" width="39.14" height="3.84" fill="#000430"/><rect x="332.63" y="196.86" width="39.14" height="3.84" fill="#000430"/><rect x="286" y="189.88" width="39.14" height="3.84" fill="#000430"/><rect x="332.63" y="189.88" width="39.14" height="3.84" fill="#000430"/><rect x="286" y="182.91" width="39.14" height="3.84" fill="#000430"/><rect x="332.63" y="182.91" width="39.14" height="3.84" fill="#000430"/><line x1="277.93" y1="182.91" x2="277.93" y2="200.7" fill="none" stroke="#81c6ed" stroke-linecap="round" stroke-miterlimit="10" stroke-width="2.81"/><line x1="465.87" y1="182.91" x2="465.87" y2="200.7" fill="none" stroke="#81c6ed" stroke-linecap="round" stroke-miterlimit="10" stroke-width="2.81"/><circle cx="429.44" cy="192.05" r="2.41" fill="#f8c22c"/><circle cx="439.21" cy="192.05" r="2.41" fill="#f8c22c"/><circle cx="448.99" cy="192.05" r="2.41" fill="#f8c22c"/><rect x="270.25" y="212.57" width="203.06" height="32.63" fill="#1c4077"/><rect x="286" y="233.93" width="39.14" height="3.84" fill="#000430"/><rect x="332.63" y="233.93" width="39.14" height="3.84" fill="#000430"/><rect x="286" y="226.96" width="39.14" height="3.84" fill="#000430"/><rect x="332.63" y="226.96" width="39.14" height="3.84" fill="#000430"/><rect x="286" y="219.98" width="39.14" height="3.84" fill="#000430"/><rect x="332.63" y="219.98" width="39.14" height="3.84" fill="#000430"/><line x1="277.93" y1="219.98" x2="277.93" y2="237.78" fill="none" stroke="#81c6ed" stroke-linecap="round" stroke-miterlimit="10" stroke-width="2.81"/><line x1="465.87" y1="219.98" x2="465.87" y2="237.78" fill="none" stroke="#81c6ed" stroke-linecap="round" stroke-miterlimit="10" stroke-width="2.81"/><circle cx="429.44" cy="229.12" r="2.41" fill="#f0582a"/><circle cx="439.21" cy="229.12" r="2.41" fill="#f0582a"/><circle cx="448.99" cy="229.12" r="2.41" fill="#f0582a"/><rect x="270.25" y="249.64" width="203.06" height="32.63" fill="#1c4077"/><rect x="286" y="271.01" width="39.14" height="3.84" fill="#000430"/><rect x="332.63" y="271.01" width="39.14" height="3.84" fill="#000430"/><rect x="286" y="264.03" width="39.14" height="3.84" fill="#000430"/><rect x="332.63" y="264.03" width="39.14" height="3.84" fill="#000430"/><rect x="286" y="257.06" width="39.14" height="3.84" fill="#000430"/><rect x="332.63" y="257.06" width="39.14" height="3.84" fill="#000430"/><line x1="277.93" y1="257.06" x2="277.93" y2="274.85" fill="none" stroke="#81c6ed" stroke-linecap="round" stroke-miterlimit="10" stroke-width="2.81"/><line x1="465.87" y1="257.06" x2="465.87" y2="274.85" fill="none" stroke="#81c6ed" stroke-linecap="round" stroke-miterlimit="10" stroke-width="2.81"/><circle cx="429.44" cy="266.2" r="2.41" fill="#f0582a"/><circle cx="439.21" cy="266.2" r="2.41" fill="#f0582a"/><circle cx="448.99" cy="266.2" r="2.41" fill="#f0582a"/><rect x="270.25" y="286.72" width="203.06" height="32.63" fill="#1c4077"/><rect x="286" y="308.08" width="39.14" height="3.84" fill="#000430"/><rect x="332.63" y="308.08" width="39.14" height="3.84" fill="#000430"/><rect x="286" y="301.11" width="39.14" height="3.84" fill="#000430"/><rect x="332.63" y="301.11" width="39.14" height="3.84" fill="#000430"/><rect x="286" y="294.13" width="39.14" height="3.84" fill="#000430"/><rect x="332.63" y="294.13" width="39.14" height="3.84" fill="#000430"/><line x1="277.93" y1="294.13" x2="277.93" y2="311.93" fill="none" stroke="#81c6ed" stroke-linecap="round" stroke-miterlimit="10" stroke-width="2.81"/><line x1="465.87" y1="294.13" x2="465.87" y2="311.93" fill="none" stroke="#81c6ed" stroke-linecap="round" stroke-miterlimit="10" stroke-width="2.81"/><circle cx="429.44" cy="303.27" r="2.41" fill="#abcf37"/><circle cx="439.21" cy="303.27" r="2.41" fill="#abcf37"/><circle cx="448.99" cy="303.27" r="2.41" fill="#abcf37"/><rect x="270.25" y="323.79" width="203.06" height="32.63" fill="#1c4077"/><rect x="286" y="345.16" width="39.14" height="3.84" fill="#000430"/><rect x="332.63" y="345.16" width="39.14" height="3.84" fill="#000430"/><rect x="286" y="338.18" width="39.14" height="3.84" fill="#000430"/><rect x="332.63" y="338.18" width="39.14" height="3.84" fill="#000430"/><rect x="286" y="331.21" width="39.14" height="3.84" fill="#000430"/><rect x="332.63" y="331.21" width="39.14" height="3.84" fill="#000430"/><line x1="277.93" y1="331.21" x2="277.93" y2="349" fill="none" stroke="#81c6ed" stroke-linecap="round" stroke-miterlimit="10" stroke-width="2.81"/><line x1="465.87" y1="331.21" x2="465.87" y2="349" fill="none" stroke="#81c6ed" stroke-linecap="round" stroke-miterlimit="10" stroke-width="2.81"/><circle cx="429.44" cy="340.35" r="2.41" fill="#abcf37"/><circle cx="439.21" cy="340.35" r="2.41" fill="#abcf37"/><circle cx="448.99" cy="340.35" r="2.41" fill="#abcf37"/><rect x="270.25" y="360.87" width="203.06" height="32.63" fill="#1c4077"/><rect x="286" y="382.23" width="39.14" height="3.84" fill="#000430"/><rect x="332.63" y="382.23" width="39.14" height="3.84" fill="#000430"/><rect x="286" y="375.26" width="39.14" height="3.84" fill="#000430"/><rect x="332.63" y="375.26" width="39.14" height="3.84" fill="#000430"/><rect x="286" y="368.28" width="39.14" height="3.84" fill="#000430"/><rect x="332.63" y="368.28" width="39.14" height="3.84" fill="#000430"/><line x1="277.93" y1="368.28" x2="277.93" y2="386.08" fill="none" stroke="#81c6ed" stroke-linecap="round" stroke-miterlimit="10" stroke-width="2.81"/><line x1="465.87" y1="368.28" x2="465.87" y2="386.08" fill="none" stroke="#81c6ed" stroke-linecap="round" stroke-miterlimit="10" stroke-width="2.81"/><circle cx="429.44" cy="377.42" r="2.41" fill="#abcf37"/><circle cx="439.21" cy="377.42" r="2.41" fill="#abcf37"/><circle cx="448.99" cy="377.42" r="2.41" fill="#abcf37"/><rect x="270.25" y="397.94" width="203.06" height="32.63" fill="#1c4077"/><rect x="286" y="419.31" width="39.14" height="3.84" fill="#000430"/><rect x="332.63" y="419.31" width="39.14" height="3.84" fill="#000430"/><rect x="286" y="412.33" width="39.14" height="3.84" fill="#000430"/><rect x="332.63" y="412.33" width="39.14" height="3.84" fill="#000430"/><rect x="286" y="405.36" width="39.14" height="3.84" fill="#000430"/><rect x="332.63" y="405.36" width="39.14" height="3.84" fill="#000430"/><line x1="277.93" y1="405.36" x2="277.93" y2="423.15" fill="none" stroke="#81c6ed" stroke-linecap="round" stroke-miterlimit="10" stroke-width="2.81"/><line x1="465.87" y1="405.36" x2="465.87" y2="423.15" fill="none" stroke="#81c6ed" stroke-linecap="round" stroke-miterlimit="10" stroke-width="2.81"/><circle cx="429.44" cy="414.5" r="2.41" fill="#abcf37"/><circle cx="439.21" cy="414.5" r="2.41" fill="#abcf37"/><circle cx="448.99" cy="414.5" r="2.41" fill="#abcf37"/><line x1="140.4" y1="430.57" x2="218.52" y2="430.57" fill="none" stroke="#008179" stroke-miterlimit="10" stroke-width="2.31"/><path d="M681,128.83a20.91,20.91,0,0,0,0-7.62,2.72,2.72,0,0,1,1.3-2.89l5.23-3-5.33-9.23-5.22,3a2.73,2.73,0,0,1-3.15-.31,21.32,21.32,0,0,0-6.63-3.81,2.74,2.74,0,0,1-1.83-2.57V96.35H654.75v6.05a2.73,2.73,0,0,1-1.84,2.57,21.38,21.38,0,0,0-6.62,3.81,2.73,2.73,0,0,1-3.15.31l-5.22-3-5.33,9.23,5.22,3a2.73,2.73,0,0,1,1.31,2.89,20.34,20.34,0,0,0,0,7.62,2.73,2.73,0,0,1-1.31,2.89l-5.22,3,5.33,9.23,5.22-3a2.75,2.75,0,0,1,3.15.31,21.41,21.41,0,0,0,6.62,3.82,2.71,2.71,0,0,1,1.84,2.57v6h10.66v-6a2.72,2.72,0,0,1,1.83-2.57,21.34,21.34,0,0,0,6.63-3.82A2.75,2.75,0,0,1,677,141l5.22,3,5.33-9.23-5.23-3A2.72,2.72,0,0,1,681,128.83Zm-21,5.41A9.22,9.22,0,1,1,669.3,125,9.22,9.22,0,0,1,660.08,134.24Z" fill="#4896d1" fill-rule="evenodd"/><circle cx="667.49" cy="170.91" r="6.24" fill="#4896d1"/><ellipse cx="602.65" cy="160.08" rx="7.24" ry="4.23" transform="translate(3.11 331.43) rotate(-30.83)" fill="#4896d1"/><rect x="603.46" y="159.28" width="3.65" height="9.51" transform="translate(10.65 363.26) rotate(-33.69)" fill="#4896d1"/><ellipse cx="709.6" cy="165.59" rx="4.23" ry="7.24" transform="translate(-15.92 233.23) rotate(-18.46)" fill="#81c6ed"/><line x1="700.74" y1="169.05" x2="709.6" y2="165.59" fill="none" stroke="#81c6ed" stroke-miterlimit="10" stroke-width="3.65"/><ellipse cx="624.04" cy="85.57" rx="6.49" ry="3.79" transform="translate(345.25 650.4) rotate(-71.54)" fill="#81c6ed"/><line x1="635.3" y1="89.97" x2="624.04" y2="85.57" fill="none" stroke="#81c6ed" stroke-miterlimit="10" stroke-width="3.65"/><polygon points="145.94 389.6 123.56 411.97 123.56 475.63 299.46 475.63 299.46 412.65 276.41 389.6 145.94 389.6" fill="#22b9a5"/><polygon points="145.94 389.6 123.56 411.97 123.56 475.63 201.68 475.63 201.68 412.65 178.63 389.6 145.94 389.6" fill="#02958a"/><line x1="201.68" y1="430.57" x2="299.46" y2="430.57" fill="none" stroke="#02958a" stroke-miterlimit="10" stroke-width="4"/><rect x="243.32" y="420.47" width="20.19" height="20.19" fill="#02958a"/><path d="M196.16,389.6v-8.53a5.81,5.81,0,0,1,5.81-5.81h22.9a5.81,5.81,0,0,1,5.81,5.81v8.53" fill="none" stroke="#02958a" stroke-miterlimit="10" stroke-width="5.77"/><polyline points="496.35 395.19 528.61 342.64 578.57 342.64" fill="none" stroke="#4896d1" stroke-miterlimit="10" stroke-width="3.26"/><path d="M570.34,458c-6.57-9.71-3.57-23,6.26-29.36l28.71,44.7S583.81,477.93,570.34,458Z" fill="#1c4077" fill-rule="evenodd"/><ellipse cx="590.99" cy="451" rx="7.83" ry="26.58" transform="matrix(0.84, -0.55, 0.55, 0.84, -150.45, 396.85)" fill="#4896d1"/><path d="M620.4,458c-6.57-9.71-3.57-23,6.26-29.36l28.71,44.7S633.87,477.93,620.4,458Z" fill="#1c4077" fill-rule="evenodd"/><ellipse cx="641.05" cy="451" rx="7.83" ry="26.58" transform="translate(-142.3 424.24) rotate(-33.17)" fill="#4896d1"/><polygon points="299.46 412.65 276.41 389.6 178.63 389.6 201.68 412.65 299.46 412.65" fill="#22b9a5"/></svg>
