<?xml version="1.0" encoding="us-ascii" standalone="no"?><svg xmlns="http://www.w3.org/2000/svg" xmlns:xlink="http://www.w3.org/1999/xlink" contentStyleType="text/css" height="395px" preserveAspectRatio="none" style="width:759px;height:395px;background:#FFFFFF;" version="1.1" viewBox="0 0 759 395" width="759px" zoomAndPan="magnify"><defs/><g><!--class ProgressTracker--><g id="elem_ProgressTracker"><rect codeLine="3" fill="#F1F1F1" height="97.4648" id="ProgressTracker" rx="2.5" ry="2.5" style="stroke:#181818;stroke-width:0.5;" width="474" x="114.5" y="7"/><ellipse cx="291.25" cy="23" fill="#ADD1B2" rx="11" ry="11" style="stroke:#181818;stroke-width:1.0;"/><path d="M294.2231,28.6431 Q293.6421,28.9419 293.0029,29.0913 Q292.3638,29.2407 291.6582,29.2407 Q289.1514,29.2407 287.8315,27.5889 Q286.5117,25.937 286.5117,22.8159 Q286.5117,19.6865 287.8315,18.0347 Q289.1514,16.3828 291.6582,16.3828 Q292.3638,16.3828 293.0112,16.5322 Q293.6587,16.6816 294.2231,16.9805 L294.2231,19.7031 Q293.5923,19.1221 292.9988,18.8523 Q292.4053,18.5825 291.7744,18.5825 Q290.4297,18.5825 289.7449,19.6492 Q289.0601,20.7158 289.0601,22.8159 Q289.0601,24.9077 289.7449,25.9744 Q290.4297,27.041 291.7744,27.041 Q292.4053,27.041 292.9988,26.7712 Q293.5923,26.5015 294.2231,25.9204 Z " fill="#000000"/><text fill="#000000" font-family="sans-serif" font-size="14" lengthAdjust="spacing" textLength="112" x="311.75" y="28.291">ProgressTracker</text><line style="stroke:#181818;stroke-width:0.5;" x1="115.5" x2="587.5" y1="39" y2="39"/><line style="stroke:#181818;stroke-width:0.5;" x1="115.5" x2="587.5" y1="47" y2="47"/><ellipse cx="125.5" cy="60.7441" fill="#84BE84" rx="3" ry="3" style="stroke:#038048;stroke-width:1.0;"/><text fill="#000000" font-family="sans-serif" font-size="14" lengthAdjust="spacing" textLength="271" x="134.5" y="64.5352">add_iterations(new_iterations: int): void</text><ellipse cx="125.5" cy="77.2324" fill="#84BE84" rx="3" ry="3" style="stroke:#038048;stroke-width:1.0;"/><text fill="#000000" font-family="sans-serif" font-size="14" lengthAdjust="spacing" textLength="254" x="134.5" y="81.0234">update_progress(iterations: int): void</text><ellipse cx="125.5" cy="93.7207" fill="#84BE84" rx="3" ry="3" style="stroke:#038048;stroke-width:1.0;"/><text fill="#000000" font-family="sans-serif" font-size="14" lengthAdjust="spacing" textLength="448" x="134.5" y="97.5117">create_sub_tracker(title: str, total_iterations: int): ProgressTracker</text></g><!--class ProgressPresenter--><g id="elem_ProgressPresenter"><rect codeLine="10" fill="#F1F1F1" height="113.9531" id="ProgressPresenter" rx="2.5" ry="2.5" style="stroke:#181818;stroke-width:0.5;" width="347" x="178" y="165"/><ellipse cx="284.75" cy="181" fill="#B4A7E5" rx="11" ry="11" style="stroke:#181818;stroke-width:1.0;"/><path d="M280.6777,176.7651 L280.6777,174.6069 L288.0571,174.6069 L288.0571,176.7651 L285.5918,176.7651 L285.5918,184.8418 L288.0571,184.8418 L288.0571,187 L280.6777,187 L280.6777,184.8418 L283.1431,184.8418 L283.1431,176.7651 Z " fill="#000000"/><text fill="#000000" font-family="sans-serif" font-size="14" font-style="italic" lengthAdjust="spacing" textLength="125" x="305.25" y="186.291">ProgressPresenter</text><line style="stroke:#181818;stroke-width:0.5;" x1="179" x2="524" y1="197" y2="197"/><line style="stroke:#181818;stroke-width:0.5;" x1="179" x2="524" y1="205" y2="205"/><ellipse cx="189" cy="218.7441" fill="#84BE84" rx="3" ry="3" style="stroke:#038048;stroke-width:1.0;"/><text fill="#000000" font-family="sans-serif" font-size="14" lengthAdjust="spacing" textLength="78" x="198" y="222.5352">start(): void</text><ellipse cx="189" cy="235.2324" fill="#84BE84" rx="3" ry="3" style="stroke:#038048;stroke-width:1.0;"/><text fill="#000000" font-family="sans-serif" font-size="14" lengthAdjust="spacing" textLength="73" x="198" y="239.0234">end(): void</text><ellipse cx="189" cy="251.7207" fill="#84BE84" rx="3" ry="3" style="stroke:#038048;stroke-width:1.0;"/><text fill="#000000" font-family="sans-serif" font-size="14" lengthAdjust="spacing" textLength="186" x="198" y="255.5117">update(iterations: int): void</text><ellipse cx="189" cy="268.209" fill="#84BE84" rx="3" ry="3" style="stroke:#038048;stroke-width:1.0;"/><text fill="#000000" font-family="sans-serif" font-size="14" lengthAdjust="spacing" textLength="321" x="198" y="272">adjust_total_iteration(total_iterations: int): void</text></g><!--class TqdmProgressPresenter--><g id="elem_TqdmProgressPresenter"><rect codeLine="18" fill="#F1F1F1" height="48" id="TqdmProgressPresenter" rx="2.5" ry="2.5" style="stroke:#181818;stroke-width:0.5;" width="197" x="7" y="340"/><ellipse cx="22" cy="356" fill="#ADD1B2" rx="11" ry="11" style="stroke:#181818;stroke-width:1.0;"/><path d="M24.9731,361.6431 Q24.3921,361.9419 23.7529,362.0913 Q23.1138,362.2407 22.4082,362.2407 Q19.9014,362.2407 18.5815,360.5889 Q17.2617,358.937 17.2617,355.8159 Q17.2617,352.6865 18.5815,351.0347 Q19.9014,349.3828 22.4082,349.3828 Q23.1138,349.3828 23.7612,349.5322 Q24.4087,349.6816 24.9731,349.9805 L24.9731,352.7031 Q24.3423,352.1221 23.7488,351.8523 Q23.1553,351.5825 22.5244,351.5825 Q21.1797,351.5825 20.4949,352.6492 Q19.8101,353.7158 19.8101,355.8159 Q19.8101,357.9077 20.4949,358.9744 Q21.1797,360.041 22.5244,360.041 Q23.1553,360.041 23.7488,359.7712 Q24.3423,359.5015 24.9731,358.9204 Z " fill="#000000"/><text fill="#000000" font-family="sans-serif" font-size="14" lengthAdjust="spacing" textLength="165" x="36" y="361.291">TqdmProgressPresenter</text><line style="stroke:#181818;stroke-width:0.5;" x1="8" x2="203" y1="372" y2="372"/><line style="stroke:#181818;stroke-width:0.5;" x1="8" x2="203" y1="380" y2="380"/></g><!--class NotebookProgressPresenter--><g id="elem_NotebookProgressPresenter"><rect codeLine="21" fill="#F1F1F1" height="48" id="NotebookProgressPresenter" rx="2.5" ry="2.5" style="stroke:#181818;stroke-width:0.5;" width="224" x="239.5" y="340"/><ellipse cx="254.5" cy="356" fill="#ADD1B2" rx="11" ry="11" style="stroke:#181818;stroke-width:1.0;"/><path d="M257.4731,361.6431 Q256.8921,361.9419 256.2529,362.0913 Q255.6138,362.2407 254.9082,362.2407 Q252.4014,362.2407 251.0815,360.5889 Q249.7617,358.937 249.7617,355.8159 Q249.7617,352.6865 251.0815,351.0347 Q252.4014,349.3828 254.9082,349.3828 Q255.6138,349.3828 256.2612,349.5322 Q256.9087,349.6816 257.4731,349.9805 L257.4731,352.7031 Q256.8423,352.1221 256.2488,351.8523 Q255.6553,351.5825 255.0244,351.5825 Q253.6797,351.5825 252.9949,352.6492 Q252.3101,353.7158 252.3101,355.8159 Q252.3101,357.9077 252.9949,358.9744 Q253.6797,360.041 255.0244,360.041 Q255.6553,360.041 256.2488,359.7712 Q256.8423,359.5015 257.4731,358.9204 Z " fill="#000000"/><text fill="#000000" font-family="sans-serif" font-size="14" lengthAdjust="spacing" textLength="192" x="268.5" y="361.291">NotebookProgressPresenter</text><line style="stroke:#181818;stroke-width:0.5;" x1="240.5" x2="462.5" y1="372" y2="372"/><line style="stroke:#181818;stroke-width:0.5;" x1="240.5" x2="462.5" y1="380" y2="380"/></g><!--class CloudLoggingProgressPresenter--><g id="elem_CloudLoggingProgressPresenter"><rect codeLine="24" fill="#F1F1F1" height="48" id="CloudLoggingProgressPresenter" rx="2.5" ry="2.5" style="stroke:#181818;stroke-width:0.5;" width="254" x="498.5" y="340"/><ellipse cx="513.5" cy="356" fill="#ADD1B2" rx="11" ry="11" style="stroke:#181818;stroke-width:1.0;"/><path d="M516.4731,361.6431 Q515.8921,361.9419 515.2529,362.0913 Q514.6138,362.2407 513.9082,362.2407 Q511.4014,362.2407 510.0815,360.5889 Q508.7617,358.937 508.7617,355.8159 Q508.7617,352.6865 510.0815,351.0347 Q511.4014,349.3828 513.9082,349.3828 Q514.6138,349.3828 515.2612,349.5322 Q515.9087,349.6816 516.4731,349.9805 L516.4731,352.7031 Q515.8423,352.1221 515.2488,351.8523 Q514.6553,351.5825 514.0244,351.5825 Q512.6797,351.5825 511.9949,352.6492 Q511.3101,353.7158 511.3101,355.8159 Q511.3101,357.9077 511.9949,358.9744 Q512.6797,360.041 514.0244,360.041 Q514.6553,360.041 515.2488,359.7712 Q515.8423,359.5015 516.4731,358.9204 Z " fill="#000000"/><text fill="#000000" font-family="sans-serif" font-size="14" lengthAdjust="spacing" textLength="222" x="527.5" y="361.291">CloudLoggingProgressPresenter</text><line style="stroke:#181818;stroke-width:0.5;" x1="499.5" x2="751.5" y1="372" y2="372"/><line style="stroke:#181818;stroke-width:0.5;" x1="499.5" x2="751.5" y1="380" y2="380"/></g><!--link ProgressTracker to ProgressTracker--><g id="link_ProgressTracker_ProgressTracker"><path codeLine="27" d="M588.85,43.78 C610.14,46.23 623.5,50.14 623.5,55.5 C623.5,60.32 612.71,63.96 595.08,66.43 " fill="none" id="ProgressTracker-to-ProgressTracker" style="stroke:#181818;stroke-width:1.0;"/><polygon fill="#181818" points="590.35,67.03,599.7817,69.8661,595.3103,66.401,598.7753,61.9296,590.35,67.03" style="stroke:#181818;stroke-width:1.0;"/><text fill="#000000" font-family="sans-serif" font-size="13" lengthAdjust="spacing" textLength="51" x="629.5" y="60.5684">children</text><text fill="#000000" font-family="sans-serif" font-size="13" lengthAdjust="spacing" textLength="8" x="596.7693" y="40.7152">1</text><text fill="#000000" font-family="sans-serif" font-size="13" lengthAdjust="spacing" textLength="6" x="596.7365" y="64.9243">*</text></g><!--link ProgressTracker to ProgressPresenter--><g id="link_ProgressTracker_ProgressPresenter"><path codeLine="28" d="M351.5,104.08 C351.5,121.05 351.5,140.42 351.5,158.45 " fill="none" id="ProgressTracker-to-ProgressPresenter" style="stroke:#181818;stroke-width:1.0;"/><polygon fill="#181818" points="351.5,163,355.5,154,351.5,158,347.5,154,351.5,163" style="stroke:#181818;stroke-width:1.0;"/><text fill="#000000" font-family="sans-serif" font-size="13" lengthAdjust="spacing" textLength="8" x="342.9125" y="124.8738">1</text><text fill="#000000" font-family="sans-serif" font-size="13" lengthAdjust="spacing" textLength="8" x="343.0125" y="154.1795">1</text></g><!--reverse link ProgressPresenter to TqdmProgressPresenter--><g id="link_ProgressPresenter_TqdmProgressPresenter"><path codeLine="30" d="M234.12,289.8 C202.7,307.68 170.78,325.85 146.61,339.61 " fill="none" id="ProgressPresenter-backto-TqdmProgressPresenter" style="stroke:#181818;stroke-width:1.0;stroke-dasharray:7.0,7.0;"/><polygon fill="none" points="230.35,283.9,251.19,280.09,237.27,296.06,230.35,283.9" style="stroke:#181818;stroke-width:1.0;"/></g><!--reverse link ProgressPresenter to NotebookProgressPresenter--><g id="link_ProgressPresenter_NotebookProgressPresenter"><path codeLine="31" d="M351.5,300.49 C351.5,314.79 351.5,328.68 351.5,339.71 " fill="none" id="ProgressPresenter-backto-NotebookProgressPresenter" style="stroke:#181818;stroke-width:1.0;stroke-dasharray:7.0,7.0;"/><polygon fill="none" points="344.5,300.65,351.5,280.65,358.5,300.65,344.5,300.65" style="stroke:#181818;stroke-width:1.0;"/></g><!--reverse link ProgressPresenter to CloudLoggingProgressPresenter--><g id="link_ProgressPresenter_CloudLoggingProgressPresenter"><path codeLine="32" d="M480.77,289.05 C516.24,307.17 552.41,325.65 579.72,339.61 " fill="none" id="ProgressPresenter-backto-CloudLoggingProgressPresenter" style="stroke:#181818;stroke-width:1.0;stroke-dasharray:7.0,7.0;"/><polygon fill="none" points="477.73,295.36,463.11,280.03,484.1,282.89,477.73,295.36" style="stroke:#181818;stroke-width:1.0;"/></g><!--SRC=[XP7DQiCm48JlUegjJ-fF0hcQKWZ6BOLWGl3TADwjeyQLKcdT7DgyU-EceDInNHq44ZFQRqPNI2_Q4ApI99zdJuiKobfvBqIuM3fREV8-TwhSaeDF0STrgn0BpUGKQskyDBG_EyQW3L_7y64rdkJD3XLJiVjzJ8vfIqUjrZVhWaz39MkkAGRFxWxOigfxXdL0nK48yPpbwUfndeGOo-D6XaCGpygn_0D01cKF_IYqmjV6Sz61aqEmFyQMC1ITl-DR7-NXN9HPfhMrst-5IMqRNDYgqgOQ47T_Dff5C76wsl3a0QARgDje3EL6r-Z8z5lHxathd4MNROTf0UB-QphjJpqa7am_P1XjuHi0]--></g></svg>
