<?xml version="1.0" encoding="us-ascii" standalone="no"?><svg xmlns="http://www.w3.org/2000/svg" xmlns:xlink="http://www.w3.org/1999/xlink" contentStyleType="text/css" height="531px" preserveAspectRatio="none" style="width:663px;height:531px;background:#FFFFFF;" version="1.1" viewBox="0 0 663 531" width="663px" zoomAndPan="magnify"><defs/><g><line style="stroke:#181818;stroke-width:0.5;stroke-dasharray:5.0,5.0;" x1="63" x2="63" y1="52.9766" y2="480.0137"/><line style="stroke:#181818;stroke-width:0.5;stroke-dasharray:5.0,5.0;" x1="263" x2="263" y1="52.9766" y2="480.0137"/><line style="stroke:#181818;stroke-width:0.5;stroke-dasharray:5.0,5.0;" x1="468.5" x2="468.5" y1="52.9766" y2="480.0137"/><line style="stroke:#181818;stroke-width:0.5;stroke-dasharray:5.0,5.0;" x1="590.5" x2="590.5" y1="52.9766" y2="480.0137"/><rect fill="#FFD700" height="46.9766" rx="2.5" ry="2.5" style="stroke:#181818;stroke-width:0.5;" width="117" x="5" y="5"/><text fill="#000000" font-family="sans-serif" font-size="14" font-style="italic" lengthAdjust="spacing" textLength="103" x="12" y="25.5352">&#171;Main Tracker&#187;</text><text fill="#000000" font-family="sans-serif" font-size="14" lengthAdjust="spacing" textLength="33" x="47" y="42.0234">Main</text><rect fill="#FFD700" height="46.9766" rx="2.5" ry="2.5" style="stroke:#181818;stroke-width:0.5;" width="117" x="5" y="479.0137"/><text fill="#000000" font-family="sans-serif" font-size="14" font-style="italic" lengthAdjust="spacing" textLength="103" x="12" y="499.5488">&#171;Main Tracker&#187;</text><text fill="#000000" font-family="sans-serif" font-size="14" lengthAdjust="spacing" textLength="33" x="47" y="516.0371">Main</text><rect fill="#ADD8E6" height="46.9766" rx="2.5" ry="2.5" style="stroke:#181818;stroke-width:0.5;" width="123" x="202" y="5"/><text fill="#000000" font-family="sans-serif" font-size="14" font-style="italic" lengthAdjust="spacing" textLength="109" x="209" y="25.5352">&#171;Step1 Tracker&#187;</text><text fill="#000000" font-family="sans-serif" font-size="14" lengthAdjust="spacing" textLength="39" x="244" y="42.0234">Step1</text><rect fill="#ADD8E6" height="46.9766" rx="2.5" ry="2.5" style="stroke:#181818;stroke-width:0.5;" width="123" x="202" y="479.0137"/><text fill="#000000" font-family="sans-serif" font-size="14" font-style="italic" lengthAdjust="spacing" textLength="109" x="209" y="499.5488">&#171;Step1 Tracker&#187;</text><text fill="#000000" font-family="sans-serif" font-size="14" lengthAdjust="spacing" textLength="39" x="244" y="516.0371">Step1</text><rect fill="#90EE90" height="46.9766" rx="2.5" ry="2.5" style="stroke:#181818;stroke-width:0.5;" width="114" x="411.5" y="5"/><text fill="#000000" font-family="sans-serif" font-size="14" font-style="italic" lengthAdjust="spacing" textLength="100" x="418.5" y="25.5352">&#171;DAG Tracker&#187;</text><text fill="#000000" font-family="sans-serif" font-size="14" lengthAdjust="spacing" textLength="30" x="453.5" y="42.0234">DAG</text><rect fill="#90EE90" height="46.9766" rx="2.5" ry="2.5" style="stroke:#181818;stroke-width:0.5;" width="114" x="411.5" y="479.0137"/><text fill="#000000" font-family="sans-serif" font-size="14" font-style="italic" lengthAdjust="spacing" textLength="100" x="418.5" y="499.5488">&#171;DAG Tracker&#187;</text><text fill="#000000" font-family="sans-serif" font-size="14" lengthAdjust="spacing" textLength="30" x="453.5" y="516.0371">DAG</text><rect fill="#90EE90" height="46.9766" rx="2.5" ry="2.5" style="stroke:#181818;stroke-width:0.5;" width="110" x="535.5" y="5"/><text fill="#000000" font-family="sans-serif" font-size="14" font-style="italic" lengthAdjust="spacing" textLength="96" x="542.5" y="25.5352">&#171;SQL Tracker&#187;</text><text fill="#000000" font-family="sans-serif" font-size="14" lengthAdjust="spacing" textLength="26" x="577.5" y="42.0234">SQL</text><rect fill="#90EE90" height="46.9766" rx="2.5" ry="2.5" style="stroke:#181818;stroke-width:0.5;" width="110" x="535.5" y="479.0137"/><text fill="#000000" font-family="sans-serif" font-size="14" font-style="italic" lengthAdjust="spacing" textLength="96" x="542.5" y="499.5488">&#171;SQL Tracker&#187;</text><text fill="#000000" font-family="sans-serif" font-size="14" lengthAdjust="spacing" textLength="26" x="577.5" y="516.0371">SQL</text><polygon fill="#181818" points="251.5,80.2871,261.5,84.2871,251.5,88.2871,255.5,84.2871" style="stroke:#181818;stroke-width:1.0;"/><line style="stroke:#181818;stroke-width:1.0;" x1="63.5" x2="257.5" y1="84.2871" y2="84.2871"/><text fill="#000000" font-family="sans-serif" font-size="13" lengthAdjust="spacing" textLength="176" x="70.5" y="79.5449">create_sub_tracker("Step 1")</text><polygon fill="#0000FF" points="456.5,109.5977,466.5,113.5977,456.5,117.5977,460.5,113.5977" style="stroke:#0000FF;stroke-width:1.0;"/><line style="stroke:#0000FF;stroke-width:1.0;" x1="263.5" x2="462.5" y1="113.5977" y2="113.5977"/><text fill="#000000" font-family="sans-serif" font-size="13" lengthAdjust="spacing" textLength="181" x="270.5" y="108.8555">create_sub_tracker("DAG", 5)</text><polygon fill="#0000FF" points="274.5,138.9082,264.5,142.9082,274.5,146.9082,270.5,142.9082" style="stroke:#0000FF;stroke-width:1.0;"/><line style="stroke:#0000FF;stroke-width:1.0;stroke-dasharray:2.0,2.0;" x1="268.5" x2="467.5" y1="142.9082" y2="142.9082"/><text fill="#000000" font-family="sans-serif" font-size="13" lengthAdjust="spacing" textLength="39" x="280.5" y="138.166">add(5)</text><polygon fill="#0000FF" points="74.5,168.2188,64.5,172.2188,74.5,176.2188,70.5,172.2188" style="stroke:#0000FF;stroke-width:1.0;"/><line style="stroke:#0000FF;stroke-width:1.0;stroke-dasharray:2.0,2.0;" x1="68.5" x2="262.5" y1="172.2188" y2="172.2188"/><text fill="#000000" font-family="sans-serif" font-size="13" lengthAdjust="spacing" textLength="39" x="80.5" y="167.4766">add(5)</text><line style="stroke:#FF0000;stroke-width:1.0;" x1="468.5" x2="510.5" y1="201.5293" y2="201.5293"/><line style="stroke:#FF0000;stroke-width:1.0;" x1="510.5" x2="510.5" y1="201.5293" y2="214.5293"/><line style="stroke:#FF0000;stroke-width:1.0;" x1="469.5" x2="510.5" y1="214.5293" y2="214.5293"/><polygon fill="#FF0000" points="479.5,210.5293,469.5,214.5293,479.5,218.5293,475.5,214.5293" style="stroke:#FF0000;stroke-width:1.0;"/><text fill="#000000" font-family="sans-serif" font-size="13" lengthAdjust="spacing" textLength="83" x="475.5" y="196.7871">update(1) x 5</text><polygon fill="#FF0000" points="274.5,239.8398,264.5,243.8398,274.5,247.8398,270.5,243.8398" style="stroke:#FF0000;stroke-width:1.0;"/><line style="stroke:#FF0000;stroke-width:1.0;stroke-dasharray:2.0,2.0;" x1="268.5" x2="467.5" y1="243.8398" y2="243.8398"/><text fill="#000000" font-family="sans-serif" font-size="13" lengthAdjust="spacing" textLength="83" x="280.5" y="239.0977">update(1) x 5</text><polygon fill="#FF0000" points="74.5,269.1504,64.5,273.1504,74.5,277.1504,70.5,273.1504" style="stroke:#FF0000;stroke-width:1.0;"/><line style="stroke:#FF0000;stroke-width:1.0;stroke-dasharray:2.0,2.0;" x1="68.5" x2="262.5" y1="273.1504" y2="273.1504"/><text fill="#000000" font-family="sans-serif" font-size="13" lengthAdjust="spacing" textLength="83" x="80.5" y="268.4082">update(1) x 5</text><polygon fill="#0000FF" points="578.5,298.4609,588.5,302.4609,578.5,306.4609,582.5,302.4609" style="stroke:#0000FF;stroke-width:1.0;"/><line style="stroke:#0000FF;stroke-width:1.0;" x1="263.5" x2="584.5" y1="302.4609" y2="302.4609"/><text fill="#000000" font-family="sans-serif" font-size="13" lengthAdjust="spacing" textLength="177" x="270.5" y="297.7188">create_sub_tracker("SQL", 1)</text><polygon fill="#0000FF" points="274.5,327.7715,264.5,331.7715,274.5,335.7715,270.5,331.7715" style="stroke:#0000FF;stroke-width:1.0;"/><line style="stroke:#0000FF;stroke-width:1.0;stroke-dasharray:2.0,2.0;" x1="268.5" x2="589.5" y1="331.7715" y2="331.7715"/><text fill="#000000" font-family="sans-serif" font-size="13" lengthAdjust="spacing" textLength="39" x="280.5" y="327.0293">add(1)</text><polygon fill="#0000FF" points="74.5,357.082,64.5,361.082,74.5,365.082,70.5,361.082" style="stroke:#0000FF;stroke-width:1.0;"/><line style="stroke:#0000FF;stroke-width:1.0;stroke-dasharray:2.0,2.0;" x1="68.5" x2="262.5" y1="361.082" y2="361.082"/><text fill="#000000" font-family="sans-serif" font-size="13" lengthAdjust="spacing" textLength="39" x="80.5" y="356.3398">add(1)</text><line style="stroke:#FF0000;stroke-width:1.0;" x1="590.5" x2="632.5" y1="390.3926" y2="390.3926"/><line style="stroke:#FF0000;stroke-width:1.0;" x1="632.5" x2="632.5" y1="390.3926" y2="403.3926"/><line style="stroke:#FF0000;stroke-width:1.0;" x1="591.5" x2="632.5" y1="403.3926" y2="403.3926"/><polygon fill="#FF0000" points="601.5,399.3926,591.5,403.3926,601.5,407.3926,597.5,403.3926" style="stroke:#FF0000;stroke-width:1.0;"/><text fill="#000000" font-family="sans-serif" font-size="13" lengthAdjust="spacing" textLength="59" x="597.5" y="385.6504">update(1)</text><polygon fill="#FF0000" points="274.5,428.7031,264.5,432.7031,274.5,436.7031,270.5,432.7031" style="stroke:#FF0000;stroke-width:1.0;"/><line style="stroke:#FF0000;stroke-width:1.0;stroke-dasharray:2.0,2.0;" x1="268.5" x2="589.5" y1="432.7031" y2="432.7031"/><text fill="#000000" font-family="sans-serif" font-size="13" lengthAdjust="spacing" textLength="59" x="280.5" y="427.9609">update(1)</text><polygon fill="#FF0000" points="74.5,458.0137,64.5,462.0137,74.5,466.0137,70.5,462.0137" style="stroke:#FF0000;stroke-width:1.0;"/><line style="stroke:#FF0000;stroke-width:1.0;stroke-dasharray:2.0,2.0;" x1="68.5" x2="262.5" y1="462.0137" y2="462.0137"/><text fill="#000000" font-family="sans-serif" font-size="13" lengthAdjust="spacing" textLength="59" x="80.5" y="457.2715">update(1)</text><!--SRC=[ZP51QuGm48Nl-HM3lIXi3pdifIn2hTIBGXUzbR9aJTZAsYWnGg7qltVKoYPPNVOclc_Ul3VfpfLicM9VyCQKhiggPLB33m68M7a-gQQN_AMf6xNRPQoIK2ZyBLGOGjBK7B7NHkfb8AhnYomvvLgqr23JwlIfexeNjf-BhHl6pubhboWXfErdKpVYxTCxt6ngSlibf3NEw0qNyO1ra1NWtiScnwuZcjE1TRhRC1OPqRW0S6evhljqyXn1Ap4XcEan7DOzGQa4q-BGzSU3dW1_J0JK2mWXGwJtXoC-q0TEn2i3GweDR0CIN-Xv0UFSHyKqGYcxADEG4dpUqBSSD_WqW6_O6khiQEkJyGnaLxfJ8L_hZFVQ0CMWonNeQWLKfg7_2haPmL2kuj-AJlu0]--></g></svg>
