<svg id="eaokw5zdi59u1" xmlns="http://www.w3.org/2000/svg" xmlns:xlink="http://www.w3.org/1999/xlink"
     viewBox="130 10 220 300" shape-rendering="geometricPrecision" text-rendering="geometricPrecision">
    <style>
        <![CDATA[#eaokw5zdi59u2_tr {animation: eaokw5zdi59u2_tr__tr 2000ms linear infinite normal forwards}@keyframes eaokw5zdi59u2_tr__tr { 0% {transform: translate(252.326180px,241.170646px) rotate(0deg)} 50% {transform: translate(252.326180px,241.170646px) rotate(3.246184deg)} 100% {transform: translate(252.326180px,241.170646px) rotate(0deg)} }#eaokw5zdi59u3_to {animation: eaokw5zdi59u3_to__to 2000ms linear infinite normal forwards}@keyframes eaokw5zdi59u3_to__to { 0% {transform: translate(256.806205px,77.640747px)} 50% {transform: translate(262.176191px,60.893711px)} 100% {transform: translate(265.896198px,49.494723px)} }#eaokw5zdi59u3 {animation: eaokw5zdi59u3_c_o 2000ms linear infinite normal forwards}@keyframes eaokw5zdi59u3_c_o { 0% {opacity: 0} 50% {opacity: 1} 100% {opacity: 0} }#eaokw5zdi59u4_to {animation: eaokw5zdi59u4_to__to 2000ms linear infinite normal forwards}@keyframes eaokw5zdi59u4_to__to { 0% {transform: translate(188.595172px,77.539495px)} 50% {transform: translate(188.595172px,57.494483px)} 100% {transform: translate(193.595172px,49.494483px)} }#eaokw5zdi59u4 {animation: eaokw5zdi59u4_c_o 2000ms linear infinite normal forwards}@keyframes eaokw5zdi59u4_c_o { 0% {opacity: 0} 50% {opacity: 1} 100% {opacity: 0} }#eaokw5zdi59u22_to {animation: eaokw5zdi59u22_to__to 2000ms linear infinite normal forwards}@keyframes eaokw5zdi59u22_to__to { 0% {transform: translate(211.106185px,42.230754px)} 50% {transform: translate(219.174656px,28.413723px)} 100% {transform: translate(232.961185px,20.413723px)} }#eaokw5zdi59u22 {animation: eaokw5zdi59u22_c_o 2000ms linear infinite normal forwards}@keyframes eaokw5zdi59u22_c_o { 0% {opacity: 0} 50% {opacity: 1} 100% {opacity: 0} }]]></style>
    <defs>
        <linearGradient id="eaokw5zdi59u5-fill" x1="168.590000" y1="83.040000" x2="118.910000" y2="132.720000"
                        spreadMethod="pad" gradientUnits="userSpaceOnUse">
            <stop id="eaokw5zdi59u5-fill-0" offset="0%" stop-color="rgb(206,230,247)"/>
            <stop id="eaokw5zdi59u5-fill-1" offset="5%" stop-color="rgb(206,230,247)"/>
            <stop id="eaokw5zdi59u5-fill-2" offset="17%" stop-color="rgb(199,227,246)"/>
            <stop id="eaokw5zdi59u5-fill-3" offset="34%" stop-color="rgb(181,220,244)"/>
            <stop id="eaokw5zdi59u5-fill-4" offset="54%" stop-color="rgb(151,207,240)"/>
            <stop id="eaokw5zdi59u5-fill-5" offset="66%" stop-color="rgb(129,198,237)"/>
            <stop id="eaokw5zdi59u5-fill-6" offset="100%" stop-color="rgb(129,198,237)"/>
        </linearGradient>
        <linearGradient id="eaokw5zdi59u6-fill" x1="202.241750" y1="105.392485" x2="202.241750" y2="167.938887"
                        spreadMethod="pad" gradientUnits="userSpaceOnUse">
            <stop id="eaokw5zdi59u6-fill-0" offset="0%" stop-color="rgb(34,185,165)"/>
            <stop id="eaokw5zdi59u6-fill-1" offset="28%" stop-color="rgb(34,185,165)"/>
            <stop id="eaokw5zdi59u6-fill-2" offset="55%" stop-color="rgb(31,182,163)"/>
            <stop id="eaokw5zdi59u6-fill-3" offset="79%" stop-color="rgb(8,150,139)"/>
            <stop id="eaokw5zdi59u6-fill-4" offset="100%" stop-color="rgb(8,150,139)"/>
        </linearGradient>
        <linearGradient id="eaokw5zdi59u7-fill" x1="121.300000" y1="140.030000" x2="200.810000" y2="219.550000"
                        spreadMethod="pad" gradientUnits="userSpaceOnUse">
            <stop id="eaokw5zdi59u7-fill-0" offset="0%" stop-color="rgb(206,230,247)"/>
            <stop id="eaokw5zdi59u7-fill-1" offset="48%" stop-color="rgb(206,230,247)"/>
            <stop id="eaokw5zdi59u7-fill-2" offset="58%" stop-color="rgb(199,227,246)"/>
            <stop id="eaokw5zdi59u7-fill-3" offset="72%" stop-color="rgb(181,220,244)"/>
            <stop id="eaokw5zdi59u7-fill-4" offset="89%" stop-color="rgb(151,207,240)"/>
            <stop id="eaokw5zdi59u7-fill-5" offset="100%" stop-color="rgb(129,198,237)"/>
        </linearGradient>
        <linearGradient id="eaokw5zdi59u8-fill" x1="132.800000" y1="132.190000" x2="132.800000" y2="228.280000"
                        spreadMethod="pad" gradientUnits="userSpaceOnUse">
            <stop id="eaokw5zdi59u8-fill-0" offset="0%" stop-color="rgb(72,151,210)"/>
            <stop id="eaokw5zdi59u8-fill-1" offset="100%" stop-color="rgb(129,198,237)"/>
        </linearGradient>
        <linearGradient id="eaokw5zdi59u9-fill" x1="47.086111" y1="171.274491" x2="92.811758" y2="176.743134"
                        spreadMethod="pad" gradientUnits="userSpaceOnUse">
            <stop id="eaokw5zdi59u9-fill-0" offset="0%" stop-color="rgb(34,185,165)"/>
            <stop id="eaokw5zdi59u9-fill-1" offset="28%" stop-color="rgb(34,185,165)"/>
            <stop id="eaokw5zdi59u9-fill-2" offset="84%" stop-color="rgb(8,150,139)"/>
            <stop id="eaokw5zdi59u9-fill-3" offset="100%" stop-color="rgb(8,150,139)"/>
        </linearGradient>
        <linearGradient id="eaokw5zdi59u18-fill" x1="137.540000" y1="95.730000" x2="163.780000" y2="95.730000"
                        spreadMethod="pad" gradientUnits="userSpaceOnUse">
            <stop id="eaokw5zdi59u18-fill-0" offset="0%" stop-color="rgb(34,185,165)"/>
            <stop id="eaokw5zdi59u18-fill-1" offset="28%" stop-color="rgb(34,185,165)"/>
            <stop id="eaokw5zdi59u18-fill-2" offset="84%" stop-color="rgb(8,150,139)"/>
            <stop id="eaokw5zdi59u18-fill-3" offset="100%" stop-color="rgb(8,150,139)"/>
        </linearGradient>
        <linearGradient id="eaokw5zdi59u26-fill" x1="129.190000" y1="139.980000" x2="198.040000" y2="139.980000"
                        spreadMethod="pad" gradientUnits="userSpaceOnUse">
            <stop id="eaokw5zdi59u26-fill-0" offset="0%" stop-color="rgb(206,230,247)"/>
            <stop id="eaokw5zdi59u26-fill-1" offset="100%" stop-color="rgb(129,198,237)"/>
        </linearGradient>
        <linearGradient id="eaokw5zdi59u27-fill" x1="192.942625" y1="298.732606" x2="192.942625" y2="222.421404"
                        spreadMethod="pad" gradientUnits="userSpaceOnUse">
            <stop id="eaokw5zdi59u27-fill-0" offset="0%" stop-color="rgb(34,185,165)"/>
            <stop id="eaokw5zdi59u27-fill-1" offset="28%" stop-color="rgb(34,185,165)"/>
            <stop id="eaokw5zdi59u27-fill-2" offset="84%" stop-color="rgb(8,150,139)"/>
            <stop id="eaokw5zdi59u27-fill-3" offset="100%" stop-color="rgb(8,150,139)"/>
        </linearGradient>
        <linearGradient id="eaokw5zdi59u28-fill" x1="145.095832" y1="301.729913" x2="145.095832" y2="224.130709"
                        spreadMethod="pad" gradientUnits="userSpaceOnUse">
            <stop id="eaokw5zdi59u28-fill-0" offset="0%" stop-color="rgb(34,185,165)"/>
            <stop id="eaokw5zdi59u28-fill-1" offset="28%" stop-color="rgb(34,185,165)"/>
            <stop id="eaokw5zdi59u28-fill-2" offset="84%" stop-color="rgb(8,150,139)"/>
            <stop id="eaokw5zdi59u28-fill-3" offset="100%" stop-color="rgb(8,150,139)"/>
        </linearGradient>
    </defs>
    <g id="eaokw5zdi59u2_tr" transform="translate(252.326180,241.170646) rotate(0)">
        <g id="eaokw5zdi59u2" transform="translate(-252.326180,-241.170646)">
            <g id="eaokw5zdi59u3_to" transform="translate(256.806205,77.640747)">
                <path id="eaokw5zdi59u3"
                      d="M173.070000,92.130000C155.137001,92.124471,140.601850,77.586326,140.600014,59.653326C140.598178,41.720326,155.130353,27.179206,173.063351,27.170006C190.996348,27.160806,205.543435,41.687008,205.560000,59.620000L205.560000,59.620000C205.554516,77.552991,191.032961,92.096914,173.100000,92.130000ZM173.070000,28.830000C161.928548,28.629286,151.546444,34.458298,145.916970,44.075016C140.287496,53.691735,140.287496,65.598265,145.916970,75.214984C151.546444,84.831702,161.928548,90.660714,173.070000,90.460000L173.070000,90.460000C190.080645,90.426917,203.854518,76.630677,203.860000,59.620000L203.860000,59.620000C203.816036,42.633396,190.056604,28.873964,173.070000,28.830000Z"
                      transform="translate(-173.080025,-59.649998)" opacity="0" fill="rgb(130,199,237)" stroke="none"
                      stroke-width="1"/>
            </g>
            <g id="eaokw5zdi59u4_to" transform="translate(188.595172,77.539495)">
                <path id="eaokw5zdi59u4"
                      d="M104.930000,78.720000C95.067229,78.752018,86.789671,71.295169,85.795421,61.482588C84.801170,51.670007,91.414732,42.704329,101.083470,40.757336C110.752209,38.810344,120.320436,44.517497,123.201589,53.950113C126.082741,63.382728,121.336467,73.462186,112.230000,77.250000C109.917448,78.216711,107.436474,78.716304,104.930000,78.720000ZM104.930000,42.200000C102.643983,42.199472,100.380475,42.651494,98.270000,43.530000L98.270000,43.530000C90.038005,46.954424,85.744550,56.063391,88.342376,64.592385C90.940203,73.121378,99.582519,78.290268,108.325736,76.544250C117.068954,74.798232,123.063115,66.706442,122.185851,57.833853C121.308587,48.961264,113.845853,42.200004,104.930000,42.200000ZM97.930000,42.760000L97.930000,42.760000Z"
                      transform="translate(-104.868992,-59.548746)" opacity="0" fill="rgb(130,199,237)" stroke="none"
                      stroke-width="1"/>
            </g>
            <path id="eaokw5zdi59u5"
                  d="M139.500000,67.850000L139.500000,67.850000C125.820421,69.465646,115.820336,81.538812,116.780000,95.280000L120.710000,134.520000L174,129.750000L167.570000,87.240000C164.446333,74.651209,152.453030,66.345847,139.570000,67.850000"
                  transform="matrix(1 0 0 1 83.72618000000000 17.99074899999999)" fill="url(#eaokw5zdi59u5-fill)"
                  stroke="none" stroke-width="1"/>
            <path id="eaokw5zdi59u6"
                  d="M177.198261,140.512348C181.335357,144.468336,185.765721,148.192732,190.461923,151.662477C197.839762,157.317903,207.590727,162.420845,212.184254,162.159671C212.708205,162.168636,213.230813,162.111087,213.735010,161.988903C215.391500,161.295787,214.909825,161.838226,215.297514,159.979871C215.532477,156.624787,211.009439,148.327484,203.255660,140.070361C194.846822,131.000354,185.037732,122.947712,174.096749,116.132742L180.217535,108.850000C191.962480,116.160111,202.491166,124.800993,211.514610,134.535477C219.738316,143.736845,225.612391,152.194871,225.788613,159.979871C226.018271,164.916034,222.217672,169.329580,216.636804,170.607652C215.179989,170.956973,213.673770,171.132747,212.160758,171.130000C201.587422,170.868826,191.883449,164.379652,183.577507,158.453006C178.530299,154.686474,173.755653,150.660979,169.280007,146.398813L177.174764,140.482213Z"
                  transform="matrix(1 0 0 1 83.72618000000034 17.99074899999999)" fill="url(#eaokw5zdi59u6-fill)"
                  stroke="none" stroke-width="1"/>
            <path id="eaokw5zdi59u7"
                  d="M129.190000,132.140000L139,228.050000L198.200000,218.810000C201.432029,218.305515,204.331125,216.537380,206.259144,213.894794C208.187162,211.252208,208.986066,207.951782,208.480000,204.720000C208.480000,204.590000,208.480000,204.470000,208.410000,204.340000L198.040000,147.340000L179.820000,128.250000Z"
                  transform="matrix(1 0 0 1 83.72617999999997 17.99074899999999)" fill="url(#eaokw5zdi59u7-fill)"
                  stroke="none" stroke-width="1"/>
            <path id="eaokw5zdi59u8"
                  d="M113.790000,135C113.790000,135,109.910000,148.320000,112.480000,173.050000L116.900000,211.250000C117.493925,216.326314,120.080165,220.958751,124.089733,224.128148C128.099301,227.297544,133.203725,228.744257,138.280000,228.150000L139,228.050000L139,228.050000C148.664545,226.552587,155.285872,217.504783,153.790000,207.840000L153.790000,207.790000L145.340000,151.790000L129.200000,132.190000Z"
                  transform="matrix(1 0 0 1 83.72618000000000 17.99074899999999)" fill="url(#eaokw5zdi59u8-fill)"
                  stroke="none" stroke-width="1"/>
            <path id="eaokw5zdi59u9"
                  d="M126.260000,153.820000C124.450208,154.253680,122.688161,154.866712,121,155.650000C110.840000,160.180000,89.410000,173.410000,84.470000,213.790000C84.091839,216.160487,81.908910,217.809069,79.525408,217.524231C77.141905,217.239393,75.408924,215.122845,75.600000,212.730000C82.440000,154.460000,123.660000,145.010000,124.480000,145.070000C126.896246,144.578467,129.253467,146.138754,129.745000,148.555000C130.236533,150.971246,128.676246,153.328467,126.260000,153.820000Z"
                  transform="matrix(1 0 0 1 83.72618000000000 17.99074899999999)" fill="url(#eaokw5zdi59u9-fill)"
                  stroke="none" stroke-width="1"/>
            <line id="eaokw5zdi59u10" x1="206.680000" y1="194.790000" x2="116.410000" y2="206.980000"
                  transform="matrix(1 0 0 1 83.72618000000000 17.99074899999999)" fill="none" stroke="rgb(72,151,210)"
                  stroke-width="3.260000" stroke-miterlimit="10"/>
            <path id="eaokw5zdi59u11"
                  d="M160.450000,162.080000L163.640000,184.300000C163.924614,186.276106,165.725666,187.670041,167.710000,187.450000L189.710000,184.970000C191.739172,184.739943,193.198256,182.909375,192.970000,180.880000C192.741744,178.850625,192.970000,180.780000,192.970000,180.730000L189.560000,158.840000C189.261563,156.907091,187.506831,155.542787,185.560000,155.730000L163.760000,157.880000C161.746608,158.080349,160.270074,159.864680,160.450000,161.880000C160.450000,161.940000,160.450000,161.990000,160.450000,162.050000"
                  transform="matrix(1 0 0 1 83.72618000000023 17.99074899999999)" fill="rgb(130,199,237)" stroke="none"
                  stroke-width="1"/>
            <path id="eaokw5zdi59u12"
                  d="M159.660000,94.350000C159.665513,95.912952,158.402963,97.184445,156.840012,97.189965C155.277060,97.195484,154.005561,95.932940,154.000035,94.369988C153.994509,92.807037,155.257049,91.535533,156.820000,91.530000L156.820000,91.530000C158.375165,91.535486,159.634514,92.794835,159.640000,94.350000"
                  transform="matrix(1 0 0 1 98.63526976500108 87.00230037999981)" fill="rgb(206,230,247)" stroke="none"
                  stroke-width="1"/>
            <path id="eaokw5zdi59u13"
                  d="M159.660000,94.350000C159.665513,95.912952,158.402963,97.184445,156.840012,97.189965C155.277060,97.195484,154.005561,95.932940,154.000035,94.369988C153.994509,92.807037,155.257049,91.535533,156.820000,91.530000L156.820000,91.530000C158.375165,91.535486,159.634514,92.794835,159.640000,94.350000"
                  transform="matrix(1 0 0 1 105.51160300000100 86.36829537999986)" fill="rgb(206,230,247)" stroke="none"
                  stroke-width="1"/>
            <path id="eaokw5zdi59u14"
                  d="M159.660000,94.350000C159.665513,95.912952,158.402963,97.184445,156.840012,97.189965C155.277060,97.195484,154.005561,95.932940,154.000035,94.369988C153.994509,92.807037,155.257049,91.535533,156.820000,91.530000L156.820000,91.530000C158.375165,91.535486,159.634514,92.794835,159.640000,94.350000"
                  transform="matrix(1 0 0 1 112.25616235500212 85.89318806999955)" fill="rgb(206,230,247)" stroke="none"
                  stroke-width="1"/>
            <path id="eaokw5zdi59u15"
                  d="M91,223.130000C91.027557,229.856745,85.596813,235.332199,78.870068,235.359794C72.143323,235.387389,66.667838,229.956676,66.640205,223.229931C66.612572,216.503186,72.043255,211.027671,78.770000,211L78.770000,211C82.001148,210.984052,85.106002,212.253713,87.400156,214.529109C89.694310,216.804505,90.989419,219.898830,91,223.130000"
                  transform="matrix(1 0 0 1 83.72618000000000 17.99074899999999)" fill="rgb(28,65,119)" stroke="none"
                  stroke-width="1"/>
            <path id="eaokw5zdi59u16"
                  d="M194.170000,116.890000C194.170000,121.128764,191.616630,124.950153,187.700522,126.572258C183.784415,128.194362,179.276780,127.297738,176.279521,124.300479C173.282262,121.303220,172.385638,116.795585,174.007742,112.879478C175.629847,108.963370,179.451236,106.410000,183.690000,106.410000L183.690000,106.410000C189.477944,106.410000,194.170000,111.102056,194.170000,116.890000"
                  transform="matrix(1 0 0 1 83.72618000000034 17.99074899999999)" fill="rgb(28,65,119)" stroke="none"
                  stroke-width="1"/>
            <polygon id="eaokw5zdi59u17"
                     points="168.600000,104.420000 185.360000,106.560000 182.290000,113.030000 169.290000,109.190000 168.600000,104.420000"
                     transform="matrix(1 0 0 1 83.72618000000023 17.99074899999999)" fill="rgb(28,65,119)" stroke="none"
                     stroke-width="1"/>
            <path id="eaokw5zdi59u18"
                  d="M137.540000,95.730000C137.540000,102.975976,143.414024,108.850000,150.660000,108.850000C157.905976,108.850000,163.780000,102.975976,163.780000,95.730000C163.780000,88.484024,157.905976,82.610000,150.660000,82.610000L150.660000,82.610000C147.183012,82.607347,143.847378,83.986031,141.386900,86.442758C138.926423,88.899485,137.542651,92.233012,137.540000,95.710000L137.540000,95.710000"
                  transform="matrix(1 0 0 1 83.72618000000000 17.99074899999999)" fill="url(#eaokw5zdi59u18-fill)"
                  stroke="none" stroke-width="1"/>
            <path id="eaokw5zdi59u19"
                  d="M127.250000,102.940000C127.250000,108.048634,123.108634,112.190000,118,112.190000C112.891366,112.190000,108.750000,108.048634,108.750000,102.940000C108.750000,97.831366,112.891366,93.690000,118,93.690000C123.108634,93.690000,127.250000,97.831366,127.250000,102.940000L127.250000,102.940000"
                  transform="matrix(1 0 0 1 83.72618000000000 17.99074899999999)" fill="rgb(72,151,210)" stroke="none"
                  stroke-width="1"/>
            <rect id="eaokw5zdi59u20" width="2.560000" height="37.439999" rx="0" ry="0"
                  transform="matrix(0.99093636983179 -0.13433209201304 0.13433209201304 0.99093636983179 191.20676930265967 82.48547451548455)"
                  fill="rgb(72,151,210)" stroke="none" stroke-width="1"/>
            <path id="eaokw5zdi59u21"
                  d="M112.200000,63C112.205515,65.010305,110.580314,66.644452,108.570009,66.649973C106.559704,66.655493,104.925553,65.030296,104.920027,63.019991C104.914502,61.009685,106.539695,59.375530,108.550000,59.370000L108.550000,59.370000C109.515389,59.367344,110.442293,59.748298,111.126802,60.429056C111.811310,61.109814,112.197351,62.034611,112.200000,63L112.200000,63"
                  transform="matrix(1 0 0 1 83.72618000000000 17.99074899999999)" fill="rgb(72,151,210)" stroke="none"
                  stroke-width="1"/>
            <g id="eaokw5zdi59u22_to" transform="translate(211.106185,42.230754)">
                <path id="eaokw5zdi59u22"
                      d="M127.380000,34.150000C121.906858,34.150000,117.470000,29.713142,117.470000,24.240000C117.470000,18.766858,121.906858,14.330000,127.380000,14.330000C132.853142,14.330000,137.290000,18.766858,137.290000,24.240000C137.284488,29.710857,132.850857,34.144488,127.380000,34.150000ZM127.380000,16C122.829174,16,119.140000,19.689174,119.140000,24.240000C119.140000,28.790826,122.829174,32.480000,127.380000,32.480000C131.930826,32.480000,135.620000,28.790826,135.620000,24.240000C135.614490,19.691458,131.928542,16.005510,127.380000,16Z"
                      transform="translate(-127.380005,-24.240005)" opacity="0" fill="rgb(130,199,237)" stroke="none"
                      stroke-width="1"/>
            </g>
            <path id="eaokw5zdi59u23"
                  d="M152.810000,116.560000C152.760000,116.490000,151.270000,114.310000,147.220000,114.970000L146.780000,112.210000C152.780000,111.210000,155.090000,114.940000,155.190000,115.100000Z"
                  transform="matrix(1 0 0 1 83.72618000000000 17.99074899999999)" fill="rgb(6,150,138)" stroke="none"
                  stroke-width="1"/>
            <path id="eaokw5zdi59u24"
                  d="M149.470000,96.400000C149.470000,98.332997,147.902997,99.900000,145.970000,99.900000C144.037003,99.900000,142.470000,98.332997,142.470000,96.400000C142.470000,94.467003,144.037003,92.900000,145.970000,92.900000L145.970000,92.900000C147.902997,92.900000,149.470000,94.467003,149.470000,96.400000"
                  transform="matrix(1 0 0 1 83.72618000000000 17.99074899999999)" fill="rgb(248,194,42)" stroke="none"
                  stroke-width="1"/>
            <path id="eaokw5zdi59u25"
                  d="M159.660000,94.350000C159.665513,95.912952,158.402963,97.184445,156.840012,97.189965C155.277060,97.195484,154.005561,95.932940,154.000035,94.369988C153.994509,92.807037,155.257049,91.535533,156.820000,91.530000L156.820000,91.530000C158.375165,91.535486,159.634514,92.794835,159.640000,94.350000"
                  transform="matrix(1 0 0 1 83.72618000000000 17.99074899999999)" fill="rgb(248,194,42)" stroke="none"
                  stroke-width="1"/>
            <polygon id="eaokw5zdi59u26"
                     points="129.190000,132.140000 145.330000,151.740000 198.040000,147.310000 179.810000,128.220000 129.190000,132.140000"
                     transform="matrix(1 0 0 1 83.72618000000000 17.99074899999999)" fill="url(#eaokw5zdi59u26-fill)"
                     stroke="none" stroke-width="1"/>
        </g>
    </g>
    <path id="eaokw5zdi59u27"
          d="M189,210.390000C189.530000,210.990000,202.650000,227.190000,202.640000,262C202.608932,270.134093,201.960402,278.254091,200.700000,286.290000L191.870000,284.930000C193.080901,277.345842,193.709404,269.680110,193.750000,262C193.750000,245.720000,190.750000,234.120000,187.750000,226.640000C186.650045,223.805274,185.311927,221.068823,183.750000,218.460000C183.265099,217.652599,182.737691,216.871500,182.170000,216.120000L189.020000,210.390000Z"
          transform="matrix(1 0 0 1 83.72618000000034 17.99074900000005)" fill="url(#eaokw5zdi59u27-fill)" stroke="none"
          stroke-width="1"/>
    <path id="eaokw5zdi59u28"
          d="M147.110000,210C147.320000,210.430000,153.690000,223.270000,153.700000,244.430000C153.590279,259.065420,150.779858,273.554854,145.410000,287.170000L137.070000,283.970000C142.049990,271.376723,144.660468,257.971748,144.770000,244.430000C144.817794,236.791037,143.842460,229.180071,141.870000,221.800000C141.308785,219.766381,140.641199,217.763625,139.870000,215.800000C139.350000,214.480000,139.070000,213.960000,139.080000,213.950000L147.080000,209.950000Z"
          transform="matrix(1 0 0 1 83.72618000000000 17.99074900000005)" fill="url(#eaokw5zdi59u28-fill)" stroke="none"
          stroke-width="1"/>
    <path id="eaokw5zdi59u29"
          d="M201.510000,275C192.732576,274.999998,185.615520,282.112578,185.610000,290.890000L225.700000,290.890000C225.700000,290.890000,218.550000,275,201.510000,275"
          transform="matrix(1 0 0 1 83.72618000000034 17.99074900000016)" fill="rgb(28,65,119)" stroke="none"
          stroke-width="1"/>
    <path id="eaokw5zdi59u30"
          d="M145.080000,275C136.308764,275.011019,129.201019,282.118764,129.190000,290.890000L169.280000,290.890000C169.280000,290.890000,162.130000,275,145.080000,275"
          transform="matrix(1 0 0 1 83.72618000000000 17.99074900000016)" fill="rgb(28,65,119)" stroke="none"
          stroke-width="1"/>
    <rect id="eaokw5zdi59u31" width="40.090000" height="3.260000" rx="0" ry="0"
          transform="matrix(1 0 0 1 212.91618244140625 307.23073923437516)" fill="rgb(72,151,210)" stroke="none"
          stroke-width="1"/>
    <rect id="eaokw5zdi59u32" width="40.090000" height="3.260000" rx="0" ry="0"
          transform="matrix(1 0 0 1 269.33618061035190 307.23073923437516)" fill="rgb(72,151,210)" stroke="none"
          stroke-width="1"/>
</svg>
