<svg id="en2xe0i9dozm1" xmlns="http://www.w3.org/2000/svg" xmlns:xlink="http://www.w3.org/1999/xlink"
     viewBox="10 0 300 370" shape-rendering="geometricPrecision" text-rendering="geometricPrecision">
    <style>
        <![CDATA[#en2xe0i9dozm5_tr {animation: en2xe0i9dozm5_tr__tr 2000ms linear infinite normal forwards}@keyframes en2xe0i9dozm5_tr__tr { 0% {transform: translate(235.940000px,252.620000px) rotate(0deg)} 50% {transform: translate(235.940000px,252.620000px) rotate(-7.019376deg)} 100% {transform: translate(235.940000px,252.620000px) rotate(0deg)} }#en2xe0i9dozm11_to {animation: en2xe0i9dozm11_to__to 2000ms linear infinite normal forwards}@keyframes en2xe0i9dozm11_to__to { 0% {transform: translate(204.417143px,208.920326px)} 50% {transform: translate(194.141733px,206.116989px)} 100% {transform: translate(204.417143px,208.920326px)} }]]></style>
    <defs>
        <linearGradient id="en2xe0i9dozm3-fill" x1="261.468854" y1="337.571048" x2="260.603746" y2="250.615351"
                        spreadMethod="pad" gradientUnits="userSpaceOnUse">
            <stop id="en2xe0i9dozm3-fill-0" offset="0%" stop-color="rgb(36,185,164)"/>
            <stop id="en2xe0i9dozm3-fill-1" offset="28%" stop-color="rgb(36,185,164)"/>
            <stop id="en2xe0i9dozm3-fill-2" offset="84%" stop-color="rgb(14,150,140)"/>
            <stop id="en2xe0i9dozm3-fill-3" offset="100%" stop-color="rgb(14,150,140)"/>
        </linearGradient>
        <linearGradient id="en2xe0i9dozm4-fill" x1="235.940000" y1="332.300000" x2="280.450000" y2="332.300000"
                        spreadMethod="pad" gradientUnits="userSpaceOnUse">
            <stop id="en2xe0i9dozm4-fill-0" offset="42%" stop-color="rgb(56,116,173)"/>
            <stop id="en2xe0i9dozm4-fill-1" offset="100%" stop-color="rgb(73,150,210)"/>
        </linearGradient>
        <linearGradient id="en2xe0i9dozm6-fill" x1="203.450696" y1="119.632558" x2="281.399343" y2="167.922810"
                        spreadMethod="pad" gradientUnits="userSpaceOnUse">
            <stop id="en2xe0i9dozm6-fill-0" offset="13%" stop-color="rgb(205,229,247)"/>
            <stop id="en2xe0i9dozm6-fill-1" offset="24%" stop-color="rgb(198,226,246)"/>
            <stop id="en2xe0i9dozm6-fill-2" offset="39%" stop-color="rgb(180,219,244)"/>
            <stop id="en2xe0i9dozm6-fill-3" offset="56%" stop-color="rgb(150,206,240)"/>
            <stop id="en2xe0i9dozm6-fill-4" offset="66%" stop-color="rgb(131,198,237)"/>
        </linearGradient>
        <linearGradient id="en2xe0i9dozm10-fill" x1="14.198326" y1="-3.647404" x2="-39.512790" y2="6.220124"
                        spreadMethod="pad" gradientUnits="userSpaceOnUse">
            <stop id="en2xe0i9dozm10-fill-0" offset="0%" stop-color="rgb(36,185,164)"/>
            <stop id="en2xe0i9dozm10-fill-1" offset="28%" stop-color="rgb(36,185,164)"/>
            <stop id="en2xe0i9dozm10-fill-2" offset="84%" stop-color="rgb(14,150,140)"/>
            <stop id="en2xe0i9dozm10-fill-3" offset="100%" stop-color="rgb(14,150,140)"/>
        </linearGradient>
        <linearGradient id="en2xe0i9dozm12-stroke" x1="143.260000" y1="191.070000" x2="216.910000" y2="191.070000"
                        spreadMethod="pad" gradientUnits="userSpaceOnUse">
            <stop id="en2xe0i9dozm12-stroke-0" offset="28%" stop-color="rgb(36,185,164)"/>
            <stop id="en2xe0i9dozm12-stroke-1" offset="84%" stop-color="rgb(10,150,139)"/>
        </linearGradient>
        <linearGradient id="en2xe0i9dozm13-fill" x1="121.971805" y1="186.256886" x2="155.725407" y2="176.763685"
                        spreadMethod="pad" gradientUnits="userSpaceOnUse">
            <stop id="en2xe0i9dozm13-fill-0" offset="42%" stop-color="rgb(56,116,173)"/>
            <stop id="en2xe0i9dozm13-fill-1" offset="100%" stop-color="rgb(73,150,210)"/>
        </linearGradient>
        <linearGradient id="en2xe0i9dozm14-fill" x1="212.741536" y1="159.273383" x2="232.767505" y2="268.279114"
                        spreadMethod="pad" gradientUnits="userSpaceOnUse">
            <stop id="en2xe0i9dozm14-fill-0" offset="48%" stop-color="rgb(205,229,247)"/>
            <stop id="en2xe0i9dozm14-fill-1" offset="58%" stop-color="rgb(198,226,246)"/>
            <stop id="en2xe0i9dozm14-fill-2" offset="73%" stop-color="rgb(180,219,244)"/>
            <stop id="en2xe0i9dozm14-fill-3" offset="91%" stop-color="rgb(150,206,240)"/>
            <stop id="en2xe0i9dozm14-fill-4" offset="100%" stop-color="rgb(131,198,237)"/>
        </linearGradient>
        <linearGradient id="en2xe0i9dozm19-fill" x1="241.984030" y1="185.125051" x2="180.920124" y2="143.015618"
                        spreadMethod="pad" gradientUnits="userSpaceOnUse">
            <stop id="en2xe0i9dozm19-fill-0" offset="0%" stop-color="rgb(234,247,254)"/>
            <stop id="en2xe0i9dozm19-fill-1" offset="31%" stop-color="rgb(207,230,247)"/>
            <stop id="en2xe0i9dozm19-fill-2" offset="33%" stop-color="rgb(205,229,247)"/>
            <stop id="en2xe0i9dozm19-fill-3" offset="74%" stop-color="rgb(155,208,240)"/>
        </linearGradient>
        <linearGradient id="en2xe0i9dozm20-fill" x1="189.932502" y1="185.793006" x2="248.932303" y2="180.270905"
                        spreadMethod="pad" gradientUnits="userSpaceOnUse">
            <stop id="en2xe0i9dozm20-fill-0" offset="0%" stop-color="rgb(255,255,255)"/>
            <stop id="en2xe0i9dozm20-fill-1" offset="100%" stop-color="rgba(255,255,255,0)"/>
        </linearGradient>
        <linearGradient id="en2xe0i9dozm21-fill" x1="298.703275" y1="200.334839" x2="276.058547" y2="212.037675"
                        spreadMethod="pad" gradientUnits="userSpaceOnUse">
            <stop id="en2xe0i9dozm21-fill-0" offset="28%" stop-color="rgb(36,185,164)"/>
            <stop id="en2xe0i9dozm21-fill-1" offset="84%" stop-color="rgb(10,150,139)"/>
        </linearGradient>
        <linearGradient id="en2xe0i9dozm22-fill" x1="-14.655205" y1="-2.091398" x2="11.563896" y2="4.125502"
                        spreadMethod="pad" gradientUnits="userSpaceOnUse">
            <stop id="en2xe0i9dozm22-fill-0" offset="42%" stop-color="rgb(56,116,173)"/>
            <stop id="en2xe0i9dozm22-fill-1" offset="100%" stop-color="rgb(73,150,210)"/>
        </linearGradient>
        <linearGradient id="en2xe0i9dozm28-fill" x1="212.261512" y1="338.206410" x2="211.353912" y2="253.799604"
                        spreadMethod="pad" gradientUnits="userSpaceOnUse">
            <stop id="en2xe0i9dozm28-fill-0" offset="0%" stop-color="rgb(36,185,164)"/>
            <stop id="en2xe0i9dozm28-fill-1" offset="28%" stop-color="rgb(36,185,164)"/>
            <stop id="en2xe0i9dozm28-fill-2" offset="84%" stop-color="rgb(14,150,140)"/>
            <stop id="en2xe0i9dozm28-fill-3" offset="100%" stop-color="rgb(14,150,140)"/>
        </linearGradient>
        <linearGradient id="en2xe0i9dozm29-fill" x1="174.580000" y1="332.300000" x2="219.090000" y2="332.300000"
                        spreadMethod="pad" gradientUnits="userSpaceOnUse">
            <stop id="en2xe0i9dozm29-fill-0" offset="42%" stop-color="rgb(56,116,173)"/>
            <stop id="en2xe0i9dozm29-fill-1" offset="100%" stop-color="rgb(73,150,210)"/>
        </linearGradient>
    </defs>
    <g id="en2xe0i9dozm2"
       transform="matrix(-1.31554964261255 0 0 1.31797238583306 434.62589723356740 -88.96857523801387)">
        <path id="en2xe0i9dozm3"
              d="M263.580000,337.550000C263.140000,336.690000,252.950000,316.280000,249.850000,297.670000C246.260000,276.120000,254.730000,251.670000,255.090000,250.670000L265.460000,254.320000C265.390000,254.550000,257.580000,277.120000,260.700000,295.840000C263.530000,312.840000,273.310000,332.390000,273.400000,332.590000Z"
              fill="url(#en2xe0i9dozm3-fill)" stroke="none" stroke-width="1"/>
        <path id="en2xe0i9dozm4"
              d="M262.610000,323.340000C267.291151,323.289337,271.800672,325.100469,275.146381,328.374912C278.492089,331.649356,280.399879,336.118843,280.450000,340.800000L280.450000,340.800000L235.940000,341.270000C235.940000,341.270000,243.700000,323.540000,262.610000,323.340000Z"
              fill="url(#en2xe0i9dozm4-fill)" fill-rule="evenodd" stroke="none" stroke-width="1"/>
        <g id="en2xe0i9dozm5_tr" transform="translate(235.940000,252.620000) rotate(0)">
            <g id="en2xe0i9dozm5" transform="translate(-235.940000,-252.620000)">
                <path id="en2xe0i9dozm6"
                      d="M263.460000,164.700000L259.800000,121.070000C258.061495,105.877484,244.698150,94.728157,229.440000,95.740000L229.440000,95.740000C215.043538,96.690704,203.600067,108.198440,202.730000,122.600000L204.340000,170.300000Z"
                      fill="url(#en2xe0i9dozm6-fill)" stroke="none" stroke-width="1"/>
                <rect id="en2xe0i9dozm7" width="2" height="41.570000" rx="0" ry="0"
                      transform="matrix(0.99737800973062 -0.07236784994590 0.07236784994590 0.99737800973062 252.17225092801559 82.12265752962257)"
                      fill="rgb(73,150,210)" stroke="none" stroke-width="1"/>
                <circle id="en2xe0i9dozm8" r="4.040000" transform="matrix(1 0 0 1 253.06589412492397 80.54537798190073)"
                        fill="rgb(73,150,210)" stroke="none" stroke-width="1"/>
                <circle id="en2xe0i9dozm9" r="7.365140"
                        transform="matrix(1 0 0 1 255.16055563502556 125.94213490546088)" fill="rgb(73,150,210)"
                        stroke="none" stroke-width="1"/>
                <circle id="en2xe0i9dozm10" r="15.140000"
                        transform="matrix(1 0 0 1 219.80999755859375 128.83999633789063)"
                        fill="url(#en2xe0i9dozm10-fill)" stroke="none" stroke-width="1"/>
                <g id="en2xe0i9dozm11_to" transform="translate(204.417143,208.920326)">
                    <g id="en2xe0i9dozm11" transform="translate(-204.417143,-208.920326)">
                        <path id="en2xe0i9dozm12"
                              d="M146.550000,190.290000L159.490000,199.930000C170.210445,207.901640,185.247630,206.346668,194.110000,196.350000L212.790000,175.280000"
                              fill="none" stroke="url(#en2xe0i9dozm12-stroke)" stroke-width="11"
                              stroke-miterlimit="10"/>
                        <path id="en2xe0i9dozm13"
                              d="M151.550000,172.560000C147.597534,169.899562,142.535388,169.519521,138.230000,171.560000C136.114096,171.574241,134.002536,171.366437,131.930000,170.940000C128.025084,170.223524,124.192853,169.155855,120.480000,167.750000L118.620000,173.490000C122.429837,174.920053,126.315756,176.138575,130.260000,177.140000C130.850000,177.280000,131.440000,177.400000,132.040000,177.500000C128.692442,183.949045,131.045322,191.890765,137.365583,195.475543C143.685844,199.060320,151.709475,197.004033,155.526524,190.821278C159.343573,184.638523,157.586717,176.544054,151.550000,172.500000Z"
                              fill="url(#en2xe0i9dozm13-fill)" stroke="none" stroke-width="1"/>
                    </g>
                </g>
                <path id="en2xe0i9dozm14"
                      d="M199.170000,162.470000L255.230000,156.520000L263.900000,263.200000L197.400000,265.080000C189.838566,265.281605,183.542485,259.321136,183.330000,251.760000L183.330000,251.340000L183.130000,186.990000Z"
                      fill="url(#en2xe0i9dozm14-fill)" fill-rule="evenodd" stroke="none" stroke-width="1"/>
                <path id="en2xe0i9dozm15"
                      d="M227.250000,223.720000L201.590000,225.940000C199.258096,226.142339,197.201536,224.421088,196.990000,222.090000C196.990000,222.020000,196.990000,221.950000,196.990000,221.880000L196.090000,198.550000C196.006586,196.290102,197.707483,194.360660,199.960000,194.160000L225.620000,191.940000C227.951736,191.743674,230.003522,193.469141,230.210000,195.800000C230.210000,195.870000,230.210000,195.930000,230.210000,196L231.120000,219.330000C231.203414,221.589898,229.502517,223.519340,227.250000,223.720000Z"
                      fill="rgb(131,198,237)" stroke="none" stroke-width="1"/>
                <path id="en2xe0i9dozm16"
                      d="M272.620000,156.500000L255.230000,156.500000L241.570000,181.160000L243.660000,244.050000C243.938130,254.901512,252.958386,263.474112,263.810000,263.200000L263.900000,263.200000C275.707600,262.857031,285.001851,253.007633,284.660000,241.200000C284.660000,240.920000,284.660000,240.650000,284.660000,240.370000L281.770000,197.780000C279.540000,170.260000,272.620000,156.500000,272.620000,156.500000Z"
                      fill="rgb(116,184,221)" fill-rule="evenodd" stroke="none" stroke-width="1"/>
                <polygon id="en2xe0i9dozm17"
                         points="183.930000,242.420000 183.820000,240.420000 243.380000,238 243.490000,239.990000 183.930000,242.420000"
                         fill="rgb(73,150,210)" stroke="none" stroke-width="1"/>
                <polygon id="en2xe0i9dozm18"
                         points="243.420000,238 243.490000,239.990000 284.140000,235.110000 284.090000,234.120000 284.020000,233.120000 243.420000,238"
                         fill="rgb(17,101,153)" stroke="none" stroke-width="1"/>
                <polygon id="en2xe0i9dozm19"
                         points="241.560000,181.180000 183.130000,186.990000 199.170000,162.470000 255.230000,156.520000 241.560000,181.180000"
                         fill="url(#en2xe0i9dozm19-fill)" fill-rule="evenodd" stroke="none" stroke-width="1"/>
                <polygon id="en2xe0i9dozm20"
                         points="241.560000,181.180000 183.130000,186.990000 183.790000,185.950000 242.220000,179.930000 241.560000,181.180000"
                         fill="url(#en2xe0i9dozm20-fill)" fill-rule="evenodd" stroke="none" stroke-width="1"/>
                <path id="en2xe0i9dozm21"
                      d="M294.550000,244.750000C294.296537,244.719223,294.045803,244.669076,293.800000,244.600000C290.875912,243.779526,289.170275,240.744298,289.990000,237.820000C293.570000,225.070000,292.860000,214.150000,287.890000,205.370000C280.320000,192,265.450000,187.790000,265.300000,187.750000C262.359084,186.985086,260.595086,183.980916,261.360000,181.040000C262.124914,178.099084,265.129084,176.335086,268.070000,177.100000L268.200000,177.100000C268.990000,177.320000,287.670000,182.600000,297.470000,199.910000C303.930000,211.330000,304.980000,225.070000,300.580000,240.750000C299.857372,243.406741,297.278650,245.117336,294.550000,244.750000Z"
                      fill="url(#en2xe0i9dozm21-fill)" stroke="none" stroke-width="1"/>
                <circle id="en2xe0i9dozm22" r="13.510000"
                        transform="matrix(1 0 0 1 290.23001098632813 246.91000366210938)"
                        fill="url(#en2xe0i9dozm22-fill)" stroke="none" stroke-width="1"/>
                <ellipse id="en2xe0i9dozm23" rx="3" ry="2.970000"
                         transform="matrix(0.05756408013447 -0.99834181354798 0.99834181354798 0.05756408013447 209.45544457518801 127.46443878663862)"
                         fill="rgb(252,248,194)" stroke="none" stroke-width="1"/>
                <ellipse id="en2xe0i9dozm24" rx="3.340000" ry="3.510000"
                         transform="matrix(0.24953498904726 -0.96836578277074 0.96836578277074 0.24953498904726 220.70301707825317 126.81800271449728)"
                         fill="rgb(252,248,194)" stroke="none" stroke-width="1"/>
                <path id="en2xe0i9dozm25"
                      d="M221,198.140000C221.103084,199.165803,221.969044,199.945166,223,199.940000C223.476118,199.887462,223.911314,199.646287,224.208251,199.270418C224.505187,198.894549,224.639086,198.415350,224.580000,197.940000L224.580000,197.940000L224.580000,197.890000C224.481738,196.860234,223.614433,196.075323,222.580000,196.080000C221.619519,196.185101,220.918272,197.037249,221,198L221,198C221.006191,198.046461,221.006191,198.093539,221,198.140000Z"
                      fill="rgb(205,229,247)" stroke="none" stroke-width="1"/>
                <path id="en2xe0i9dozm26"
                      d="M215.280000,198.510000C215.390262,199.596387,216.329087,200.407988,217.420000,200.360000C218.440659,200.275076,219.200616,199.381008,219.120000,198.360000L219.120000,198.270000C219.010569,197.188448,218.086753,196.373573,217,196.400000C216.504376,196.433224,216.042633,196.663316,215.717663,197.039004C215.392693,197.414692,215.231499,197.904758,215.270000,198.400000L215.270000,198.530000Z"
                      fill="rgb(205,229,247)" stroke="none" stroke-width="1"/>
                <path id="en2xe0i9dozm27"
                      d="M209.210000,198.910000C209.345946,200.056091,210.358852,200.892839,211.510000,200.810000C212.573076,200.735296,213.374404,199.813097,213.300000,198.750000L213.300000,198.750000L213.300000,198.630000C213.180346,197.508268,212.217628,196.667523,211.090000,196.700000C209.988631,196.764420,209.147439,197.708524,209.210000,198.810000Z"
                      fill="rgb(205,229,247)" stroke="none" stroke-width="1"/>
            </g>
        </g>
        <path id="en2xe0i9dozm28"
              d="M202.130000,336.810000C201.810000,335.870000,194.130000,313.590000,194.880000,297.530000C195.980000,273.390000,220.820000,253.460000,221.880000,252.620000L228.450000,260.910000C228.230000,261.090000,206.330000,278.720000,205.450000,298.010000C204.810000,312.010000,212.060000,333.140000,212.130000,333.350000Z"
              fill="url(#en2xe0i9dozm28-fill)" stroke="none" stroke-width="1"/>
        <path id="en2xe0i9dozm29"
              d="M201.250000,323.340000C205.931151,323.289337,210.440672,325.100469,213.786381,328.374912C217.132089,331.649356,219.039879,336.118843,219.090000,340.800000L219.090000,340.800000L174.580000,341.270000C174.580000,341.270000,182.330000,323.540000,201.250000,323.340000Z"
              fill="url(#en2xe0i9dozm29-fill)" fill-rule="evenodd" stroke="none" stroke-width="1"/>
        <rect id="en2xe0i9dozm30" width="44.970001" height="3" rx="0" ry="0"
              transform="matrix(1 0 0 1 174.11999511718750 339.57998657226563)" fill="rgb(151,202,228)" stroke="none"
              stroke-width="1"/>
        <rect id="en2xe0i9dozm31" width="44.970001" height="3" rx="0" ry="0"
              transform="matrix(1 0 0 1 235.77000427246094 339.57998657226563)" fill="rgb(151,202,228)" stroke="none"
              stroke-width="1"/>
    </g>
</svg>
