<svg id="robot" xmlns="http://www.w3.org/2000/svg" xmlns:xlink="http://www.w3.org/1999/xlink" viewBox="120 25 250 320"
     shape-rendering="geometricPrecision" text-rendering="geometricPrecision">
    <style>
        <![CDATA[#robot-g1_ts {animation: robot-g1_ts__ts 1000ms linear 3 normal forwards}@keyframes robot-g1_ts__ts { 0% {transform: translate(231.520630px,98.164810px) scale(1,1)} 50% {transform: translate(231.520630px,98.164810px) scale(1,0.419783)} 100% {transform: translate(231.520630px,98.164810px) scale(1,1)} }#robot-g2_tr {animation: robot-g2_tr__tr 1000ms linear 3 normal forwards}@keyframes robot-g2_tr__tr { 0% {transform: translate(269.190000px,167.369795px) rotate(0deg)} 30% {transform: translate(269.190000px,167.369795px) rotate(2.803698deg)} 70% {transform: translate(269.190000px,167.369795px) rotate(-4.692656deg)} 100% {transform: translate(269.190000px,167.369795px) rotate(-0.260555deg)} }#robot-g3_tr {animation: robot-g3_tr__tr 1000ms linear 3 normal forwards}@keyframes robot-g3_tr__tr { 0% {transform: translate(195.099999px,148.011101px) rotate(0deg)} 30% {transform: translate(195.099999px,148.011101px) rotate(-15.625261deg)} 70% {transform: translate(195.099999px,148.011101px) rotate(27.940606deg)} 100% {transform: translate(195.099999px,148.011101px) rotate(0.809893deg)} }]]></style>
    <defs>
        <linearGradient id="robot-path1-fill" x1="203.605479" y1="90.450505" x2="270.033580" y2="118.773205"
                        spreadMethod="pad" gradientUnits="userSpaceOnUse">
            <stop id="robot-path1-fill-0" offset="5%" stop-color="rgb(206,230,247)"/>
            <stop id="robot-path1-fill-1" offset="17%" stop-color="rgb(199,227,246)"/>
            <stop id="robot-path1-fill-2" offset="34%" stop-color="rgb(181,220,244)"/>
            <stop id="robot-path1-fill-3" offset="54%" stop-color="rgb(151,207,240)"/>
            <stop id="robot-path1-fill-4" offset="66%" stop-color="rgb(129,198,237)"/>
        </linearGradient>
        <linearGradient id="robot-circle3-fill" x1="16.660004" y1="24.260002" x2="-20.989996" y2="-30.569998"
                        spreadMethod="pad" gradientUnits="userSpaceOnUse">
            <stop id="robot-circle3-fill-0" offset="23%" stop-color="rgb(38,209,187)"/>
            <stop id="robot-circle3-fill-1" offset="84%" stop-color="rgb(8,150,139)"/>
            <stop id="robot-circle3-fill-2" offset="100%" stop-color="rgb(8,150,139)"/>
        </linearGradient>
        <linearGradient id="robot-path2-fill" x1="-3930.540183" y1="-411.227091" x2="-4016.947984" y2="-423.028544"
                        spreadMethod="pad" gradientUnits="userSpaceOnUse">
            <stop id="robot-path2-fill-0" offset="28%" stop-color="rgb(34,185,165)"/>
            <stop id="robot-path2-fill-1" offset="84%" stop-color="rgb(2,149,138)"/>
        </linearGradient>
        <linearGradient id="robot-circle4-fill" x1="-13.509990" y1="-0.000005" x2="13.510010" y2="-0.000005"
                        spreadMethod="pad" gradientUnits="userSpaceOnUse">
            <stop id="robot-circle4-fill-0" offset="42%" stop-color="rgb(54,115,172)"/>
            <stop id="robot-circle4-fill-1" offset="100%" stop-color="rgb(72,150,209)"/>
        </linearGradient>
        <linearGradient id="robot-path3-fill" x1="268.350000" y1="298.280000" x2="260.280000" y2="215.710000"
                        spreadMethod="pad" gradientUnits="userSpaceOnUse">
            <stop id="robot-path3-fill-0" offset="0%" stop-color="rgb(34,185,165)"/>
            <stop id="robot-path3-fill-1" offset="59%" stop-color="rgb(34,185,165)"/>
            <stop id="robot-path3-fill-2" offset="63%" stop-color="rgb(23,170,154)"/>
            <stop id="robot-path3-fill-3" offset="69%" stop-color="rgb(14,159,145)"/>
            <stop id="robot-path3-fill-4" offset="77%" stop-color="rgb(9,152,140)"/>
            <stop id="robot-path3-fill-5" offset="100%" stop-color="rgb(8,150,139)"/>
        </linearGradient>
        <linearGradient id="robot-path4-fill" x1="200.080022" y1="298.040000" x2="208.380022" y2="216.870000"
                        spreadMethod="pad" gradientUnits="userSpaceOnUse">
            <stop id="robot-path4-fill-0" offset="0%" stop-color="rgb(34,185,165)"/>
            <stop id="robot-path4-fill-1" offset="59%" stop-color="rgb(34,185,165)"/>
            <stop id="robot-path4-fill-2" offset="63%" stop-color="rgb(23,170,154)"/>
            <stop id="robot-path4-fill-3" offset="69%" stop-color="rgb(14,159,145)"/>
            <stop id="robot-path4-fill-4" offset="77%" stop-color="rgb(9,152,140)"/>
            <stop id="robot-path4-fill-5" offset="100%" stop-color="rgb(8,150,139)"/>
        </linearGradient>
        <linearGradient id="robot-path5-fill" x1="267.639222" y1="122.100204" x2="254.306456" y2="232.115248"
                        spreadMethod="pad" gradientUnits="userSpaceOnUse">
            <stop id="robot-path5-fill-0" offset="48%" stop-color="rgb(206,230,247)"/>
            <stop id="robot-path5-fill-1" offset="58%" stop-color="rgb(199,227,246)"/>
            <stop id="robot-path5-fill-2" offset="72%" stop-color="rgb(181,220,244)"/>
            <stop id="robot-path5-fill-3" offset="89%" stop-color="rgb(151,207,240)"/>
            <stop id="robot-path5-fill-4" offset="100%" stop-color="rgb(129,198,237)"/>
        </linearGradient>
        <linearGradient id="robot-path6-fill" x1="231.133392" y1="188.108615" x2="177.831891" y2="174.920614"
                        spreadMethod="pad" gradientUnits="userSpaceOnUse">
            <stop id="robot-path6-fill-0" offset="0%" stop-color="rgb(72,150,209)"/>
            <stop id="robot-path6-fill-1" offset="100%" stop-color="rgb(129,198,237)"/>
        </linearGradient>
        <linearGradient id="robot-path8-fill" x1="254.500000" y1="306.800000" x2="299" y2="306.800000"
                        spreadMethod="pad" gradientUnits="userSpaceOnUse">
            <stop id="robot-path8-fill-0" offset="42%" stop-color="rgb(54,115,172)"/>
            <stop id="robot-path8-fill-1" offset="100%" stop-color="rgb(72,150,209)"/>
        </linearGradient>
        <linearGradient id="robot-path9-fill" x1="177.700000" y1="306.800000" x2="216" y2="306.800000"
                        spreadMethod="pad" gradientUnits="userSpaceOnUse">
            <stop id="robot-path9-fill-0" offset="42%" stop-color="rgb(54,115,172)"/>
            <stop id="robot-path9-fill-1" offset="100%" stop-color="rgb(72,150,209)"/>
        </linearGradient>
        <linearGradient id="robot-polygon1-fill" x1="237.474766" y1="160.046746" x2="273.303731" y2="131.963344"
                        spreadMethod="pad" gradientUnits="userSpaceOnUse">
            <stop id="robot-polygon1-fill-0" offset="0%" stop-color="rgb(206,230,247)"/>
            <stop id="robot-polygon1-fill-1" offset="100%" stop-color="rgb(129,198,237)"/>
        </linearGradient>
        <linearGradient id="robot-path13-fill" x1="151.370000" y1="159" x2="202.370000" y2="159" spreadMethod="pad"
                        gradientUnits="userSpaceOnUse">
            <stop id="robot-path13-fill-0" offset="23%" stop-color="rgb(38,209,187)"/>
            <stop id="robot-path13-fill-1" offset="100%" stop-color="rgb(8,150,139)"/>
        </linearGradient>
        <linearGradient id="robot-path14-fill" x1="146.070000" y1="105.230000" x2="158.620000" y2="142.880000"
                        spreadMethod="pad" gradientUnits="userSpaceOnUse">
            <stop id="robot-path14-fill-0" offset="42%" stop-color="rgb(54,115,172)"/>
            <stop id="robot-path14-fill-1" offset="100%" stop-color="rgb(72,150,209)"/>
        </linearGradient>
    </defs>
    <circle id="robot-circle1" r="10.270000" transform="matrix(1 0 0 1 202.38000488281250 102.16000366210938)"
            fill="rgb(72,150,209)" stroke="none" stroke-width="1"/>
    <line id="robot-line1" x1="199.680000" y1="99.170000" x2="199.150000" y2="57.610000" fill="none"
          stroke="rgb(72,150,209)" stroke-width="2" stroke-miterlimit="10"/>
    <circle id="robot-circle2" r="4.040000" transform="matrix(1 0 0 1 199.13999938964844 56.11000061035156)"
            fill="rgb(72,150,209)" stroke="none" stroke-width="1"/>
    <path id="robot-path1"
          d="M261.770000,137.270000L260.710000,93.500000C259.883034,78.231150,247.210919,66.302900,231.920000,66.400000L231.920000,66.400000C217.493427,66.487011,205.381965,77.287504,203.650000,91.610000L202.410000,139.330000Z"
          fill="url(#robot-path1-fill)" stroke="none" stroke-width="1"/>
    <circle id="robot-circle3" r="16.260000" transform="matrix(1 0 0 1 231.08999633789063 97.66999816894531)"
            fill="url(#robot-circle3-fill)" stroke="none" stroke-width="1"/>
    <g id="robot-g1_ts" transform="translate(231.520630,98.164810) scale(1,1)">
        <g id="robot-g1" transform="translate(-231.520630,-98.164810)">
            <ellipse id="robot-ellipse1" rx="3.090000" ry="3.120000"
                     transform="matrix(0.99799371445683 -0.06331307846463 0.06331307846463 0.99799371445683 226.41700833352138 98.41719217239897)"
                     fill="rgb(255,252,192)" stroke="none" stroke-width="1"/>
            <ellipse id="robot-ellipse2" rx="3.090000" ry="3.120000"
                     transform="matrix(0.99799371445683 -0.06331307846463 0.06331307846463 0.99799371445683 236.62425179589755 97.91242822525074)"
                     fill="rgb(255,252,192)" stroke="none" stroke-width="1"/>
        </g>
    </g>
    <g id="robot-g2_tr" transform="translate(269.190000,167.369795) rotate(0)">
        <g id="robot-g2" transform="translate(-269.190000,-167.369795)">
            <path id="robot-path2"
                  d="M315.210000,188.500000C290.120000,187.930000,275.960000,176.140000,268.490000,166.350000C263.590419,159.979525,260.100047,152.640881,258.250000,144.820000L269.050000,142.720000C269.320000,144.100000,276.280000,176.620000,315.450000,177.500000Z"
                  fill="url(#robot-path2-fill)" stroke="none" stroke-width="1"/>
            <circle id="robot-circle4" r="13.510000" transform="matrix(1 0 0 1 323.98999023437500 183.99000549316406)"
                    fill="url(#robot-circle4-fill)" stroke="none" stroke-width="1"/>
        </g>
    </g>
    <path id="robot-path3"
          d="M271.830000,310.580000L261,308.920000C269.050000,256.390000,253.570000,232.780000,253.410000,232.540000L262.410000,226.280000C263.150000,227.360000,280.620000,253.220000,271.830000,310.580000Z"
          fill="url(#robot-path3-fill)" stroke="none" stroke-width="1"/>
    <path id="robot-path4"
          d="M193.160000,302C190.310000,242.640000,206.790000,225.760000,208.670000,224L216.110000,232.110000L216.190000,232.030000C216.040000,232.170000,201.550000,247.280000,204.140000,301.450000Z"
          fill="url(#robot-path4-fill)" stroke="none" stroke-width="1"/>
    <path id="robot-path5"
          d="M266.060000,131.200000L209.750000,128.620000L207.490000,235.620000L274,233.520000C281.556261,233.259326,287.472841,226.926527,287.220000,219.370000L287.220000,219L283.560000,154.750000Z"
          fill="url(#robot-path5-fill)" fill-rule="evenodd" stroke="none" stroke-width="1"/>
    <path id="robot-path6"
          d="M192.390000,129.640000L209.750000,128.640000L224.870000,152.430000L226.540000,215.340000C226.888298,226.190099,218.389215,235.275171,207.540000,235.650000L207.540000,235.650000C195.740403,235.980760,185.899251,226.698764,185.540000,214.900000L185.540000,214.090000L185.870000,171.410000C186.310000,143.790000,192.390000,129.640000,192.390000,129.640000Z"
          fill="url(#robot-path6-fill)" fill-rule="evenodd" stroke="none" stroke-width="1"/>
    <rect id="robot-rect1" width="100.589996" height="2" rx="0" ry="0"
          transform="matrix(0.99999701475075 -0.00244345853175 0.00244345853175 0.99999701475075 185.46820007335737 208.33619688154465)"
          fill="rgb(72,150,209)" stroke="none" stroke-width="1"/>
    <path id="robot-path7"
          d="M240.110000,165.870000L240.600000,190.790000C240.658950,192.997541,242.451826,194.763922,244.660000,194.790000L269.240000,195.050000C271.487446,195.083512,273.340790,193.297157,273.390000,191.050000L273.390000,190.860000L272.620000,166.270000C272.557302,164.087359,270.802641,162.332698,268.620000,162.270000L244.310000,161.670000C243.222521,161.643152,242.168949,162.049572,241.381224,162.799786C240.593500,163.550000,240.136201,164.582505,240.110000,165.670000L240.110000,165.670000Z"
          fill="rgb(129,198,237)" stroke="none" stroke-width="1"/>
    <path id="robot-path8"
          d="M272.140000,298C262.417841,298.010954,254.533025,305.877891,254.500000,315.600000L299,315.600000C299,315.600000,291.060000,298,272.140000,298Z"
          fill="url(#robot-path8-fill)" fill-rule="evenodd" stroke="none" stroke-width="1"/>
    <path id="robot-path9"
          d="M198.380000,298C208.096622,298.016477,215.972488,305.883403,216,315.600000L177.700000,315.600000C177.700000,315.600000,179.460000,298,198.380000,298Z"
          fill="url(#robot-path9-fill)" fill-rule="evenodd" stroke="none" stroke-width="1"/>
    <rect id="robot-rect2" width="44.970001" height="3" rx="0" ry="0"
          transform="matrix(1 0 0 1 254.27999877929688 314.10000610351563)" fill="rgb(149,202,229)" stroke="none"
          stroke-width="1"/>
    <rect id="robot-rect3" width="38.860001" height="3" rx="0" ry="0"
          transform="matrix(1 0 0 1 177.49000549316406 314.10000610351563)" fill="rgb(149,202,229)" stroke="none"
          stroke-width="1"/>
    <polygon id="robot-polygon1"
             points="224.870000,152.410000 283.540000,154.720000 266.060000,131.200000 209.750000,128.620000 224.870000,152.410000"
             fill="url(#robot-polygon1-fill)" fill-rule="evenodd" stroke="none" stroke-width="1"/>
    <path id="robot-path10"
          d="M265.600000,167.300000C265.595789,168.337930,266.386272,169.206594,267.420000,169.300000C267.894747,169.294725,268.347951,169.101059,268.679896,168.761611C269.011842,168.422164,269.195334,167.964746,269.190000,167.490000L269.190000,167.490000L269.190000,167.440000C269.196769,166.419353,268.433901,165.557355,267.420000,165.440000C266.947881,165.429271,266.490848,165.606592,266.149506,165.932931C265.808163,166.259270,265.610490,166.707875,265.600000,167.180000L265.600000,167.180000Z"
          fill="rgb(206,230,247)" stroke="none" stroke-width="1"/>
    <path id="robot-path11"
          d="M259.920000,167.090000C259.918145,168.182445,260.769408,169.086364,261.860000,169.150000C262.353321,169.158021,262.829617,168.969709,263.184075,168.626504C263.538533,168.283299,263.742107,167.813323,263.750000,167.320000L263.750000,167.320000L263.750000,167.230000C263.753648,166.149998,262.926361,165.248690,261.850000,165.160000C261.356603,165.141081,260.875931,165.319120,260.513908,165.654884C260.151884,165.990647,259.938220,166.456577,259.920000,166.950000L259.920000,166.950000Z"
          fill="rgb(206,230,247)" stroke="none" stroke-width="1"/>
    <path id="robot-path12"
          d="M253.840000,166.860000C253.860468,168.012366,254.778229,168.947692,255.930000,168.990000C256.444588,169.006161,256.944496,168.817114,257.319624,168.464494C257.694752,168.111874,257.914331,167.624603,257.930000,167.110000L257.930000,167.110000L257.930000,167C257.917914,165.876452,257.050165,164.947960,255.930000,164.860000C255.399427,164.835586,254.880932,165.023221,254.488860,165.381527C254.096787,165.739833,253.863340,166.239378,253.840000,166.770000L253.840000,166.770000Z"
          fill="rgb(206,230,247)" stroke="none" stroke-width="1"/>
    <g id="robot-g3_tr" transform="translate(195.099999,148.011101) rotate(0)">
        <g id="robot-g3" transform="translate(-195.099999,-148.011101)">
            <path id="robot-path13"
                  d="M176.360000,179C162.880000,179,151.800000,150.630000,151.700000,150.330000C150.440791,147.568576,151.658576,144.309209,154.420000,143.050000C157.181424,141.790791,160.440791,143.008576,161.700000,145.770000C161.828500,146.050408,161.932228,146.341517,162.010000,146.640000C164.870000,154.580000,172.810000,167.050000,176.290000,168.020000C181.820000,167.020000,188.690000,152.840000,191.550000,142.890000C192.430943,140.034360,195.430909,138.404680,198.305996,139.219922C201.181082,140.035164,202.879112,142.996979,202.130000,145.890000C200.650000,151.040000,192.510000,176.890000,177.590000,178.890000C177.182695,178.952279,176.771893,178.989017,176.360000,179Z"
                  fill="url(#robot-path13-fill)" stroke="none" stroke-width="1"/>
            <path id="robot-path14"
                  d="M168.280000,124.210000C166.380775,124.322068,164.905320,125.907631,164.930000,127.810000L164.930000,137.460000C164.930000,137.656260,164.852036,137.844482,164.713259,137.983259C164.574482,138.122036,164.386260,138.200000,164.190000,138.200000L164.190000,138.200000C163.993740,138.200000,163.805518,138.122036,163.666741,137.983259C163.527964,137.844482,163.450000,137.656260,163.450000,137.460000L163.450000,137.460000L163.450000,124.170000C163.450000,121.029837,162.202575,118.018286,159.982144,115.797856C157.761714,113.577425,154.750163,112.330000,151.610000,112.330000L151.610000,112.330000C145.074854,112.335520,139.779998,117.634852,139.780000,124.170000L139.780000,139C139.780000,147.836556,146.943444,155,155.780000,155L155.780000,155C164.616556,155,171.780000,147.836556,171.780000,139L171.780000,127.660000C171.782656,126.747654,171.422773,125.871621,170.779523,125.224619C170.136272,124.577618,169.262346,124.212648,168.350000,124.210000L168.280000,124.210000Z"
                  fill="url(#robot-path14-fill)" stroke="none" stroke-width="1"/>
        </g>
    </g>
</svg>
