<svg class="svg-icon" style="width: 1em; height: 1em;vertical-align: middle;fill: currentColor;overflow: hidden;"
     viewBox="0 0 1024 1024" version="1.1" xmlns="http://www.w3.org/2000/svg">
    <path
        d="M288.128 815.4368a9.3952 9.3952 0 0 1-5.248-1.5872 372.7616 372.7616 0 0 1-169.216-312.8064c0-173.7216 122.9312-327.1168 292.2752-364.7232a9.5744 9.5744 0 1 1 4.1472 18.7392c-160.64 35.6864-277.248 181.1968-277.248 345.984 0 119.9872 60.032 230.9376 160.5376 296.7552a9.5744 9.5744 0 0 1 2.7648 13.2864 9.5232 9.5232 0 0 1-8.0128 4.352zM944.3584 874.6752h-223.1552a9.6 9.6 0 0 1 0-19.2h223.1552a9.6 9.6 0 0 1 0 19.2z"
        fill="#008CFF"/>
    <path
        d="M487.2448 874.6752H79.6416a9.6 9.6 0 0 1 0-19.2h407.6032c195.4304 0 354.4064-159.0016 354.4064-354.432 0-167.8592-119.168-313.9072-283.392-347.2896a9.5744 9.5744 0 0 1-7.4752-11.3152 9.3184 9.3184 0 0 1 11.3152-7.4752c173.1072 35.2 298.752 189.184 298.752 366.1056 0 206.0032-167.6032 373.6064-373.6064 373.6064zM897.408 921.6256a9.6512 9.6512 0 0 1-6.8096-2.7904 9.6512 9.6512 0 0 1 0-13.5936l40.1664-40.1408-40.1664-40.192a9.6 9.6 0 1 1 13.5936-13.5424l46.9504 46.976a9.6 9.6 0 0 1 0 13.568l-46.9504 46.9504a9.6768 9.6768 0 0 1-6.784 2.7648z"
        fill="#008CFF"/>
    <path
        d="M586.2144 211.9424a9.5744 9.5744 0 0 1-8.3712-4.8896l-32.4352-57.9584a9.5488 9.5488 0 0 1 3.712-13.0816l57.984-32.4352a9.6 9.6 0 0 1 9.344 16.768l-49.5872 27.7504 27.7248 49.5616a9.5744 9.5744 0 0 1-8.3712 14.2848z"
        fill="#008CFF"/>
    <path
        d="M619.4944 475.648h-97.9456a9.5744 9.5744 0 0 1-8.32-4.8128l-48.9728-84.8128a9.728 9.728 0 0 1 0-9.6l48.9728-84.8384a9.6256 9.6256 0 0 1 8.32-4.8128h97.9456c3.4304 0 6.6048 1.8176 8.32 4.8128l48.9984 84.8384a9.728 9.728 0 0 1 0 9.6l-48.9984 84.8128a9.5744 9.5744 0 0 1-8.32 4.8128z m-92.3904-19.2h86.8608l43.4688-75.2128-43.4688-75.2384H527.104l-43.4432 75.2384 43.4432 75.2128zM414.3104 601.0368h-97.9712a9.5744 9.5744 0 0 1-8.32-4.8128l-48.9728-84.8384a9.728 9.728 0 0 1 0-9.6l48.9728-84.8128a9.6256 9.6256 0 0 1 8.32-4.8128h97.9712c3.4304 0 6.6048 1.8176 8.32 4.8128l48.9728 84.8128a9.728 9.728 0 0 1 0 9.6l-48.9728 84.8384a9.6768 9.6768 0 0 1-8.32 4.8128z m-92.4416-19.2h86.8864l43.4432-75.2384-43.4432-75.2128h-86.8864l-43.4432 75.2128 43.4432 75.2384zM616.448 704.7936h-97.9712a9.5744 9.5744 0 0 1-8.32-4.8128l-48.9728-84.8384a9.728 9.728 0 0 1 0-9.6l48.9728-84.8128a9.6256 9.6256 0 0 1 8.32-4.8128h97.9712c3.4304 0 6.6048 1.8176 8.32 4.8128l48.9728 84.8128a9.728 9.728 0 0 1 0 9.6l-48.9728 84.8384a9.5744 9.5744 0 0 1-8.32 4.8128z m-92.416-19.2h86.8864l43.4432-75.2384-43.4432-75.2128H524.032l-43.4432 75.2128 43.4432 75.2384z"
        fill="#1AC678"/>
    <path
        d="M404.9408 379.4432a38.0416 38.0416 0 0 1 0-76.0576 38.0416 38.0416 0 0 1 0 76.0576z m0-63.2576a25.2416 25.2416 0 0 0 0 50.4576 25.2416 25.2416 0 0 0 0-50.4576zM383.9488 719.5904a38.0416 38.0416 0 1 1 38.0416-38.0416c0 20.9664-17.0752 38.0416-38.0416 38.0416z m0-63.2576a25.2416 25.2416 0 1 0 0.0768 50.5088 25.2416 25.2416 0 0 0-0.0768-50.5088zM722.1504 549.5296c-20.9664 0-38.016-17.0496-38.016-38.016a38.0416 38.0416 0 0 1 76.0576 0c0 20.9664-17.0752 38.016-38.0416 38.016z m0-63.2576c-13.9008 0-25.216 11.3152-25.216 25.216a25.2416 25.2416 0 0 0 50.4576 0 25.2416 25.2416 0 0 0-25.2416-25.216z"
        fill="#00CFFF"/>
</svg>
